G04 #@! TF.GenerationSoftware,KiCad,Pcbnew,7.0.2*
G04 #@! TF.CreationDate,2023-07-24T17:38:17+09:00*
G04 #@! TF.ProjectId,main_board,6d61696e-5f62-46f6-9172-642e6b696361,rev?*
G04 #@! TF.SameCoordinates,Original*
G04 #@! TF.FileFunction,Soldermask,Top*
G04 #@! TF.FilePolarity,Negative*
%FSLAX46Y46*%
G04 Gerber Fmt 4.6, Leading zero omitted, Abs format (unit mm)*
G04 Created by KiCad (PCBNEW 7.0.2) date 2023-07-24 17:38:17*
%MOMM*%
%LPD*%
G01*
G04 APERTURE LIST*
G04 Aperture macros list*
%AMRoundRect*
0 Rectangle with rounded corners*
0 $1 Rounding radius*
0 $2 $3 $4 $5 $6 $7 $8 $9 X,Y pos of 4 corners*
0 Add a 4 corners polygon primitive as box body*
4,1,4,$2,$3,$4,$5,$6,$7,$8,$9,$2,$3,0*
0 Add four circle primitives for the rounded corners*
1,1,$1+$1,$2,$3*
1,1,$1+$1,$4,$5*
1,1,$1+$1,$6,$7*
1,1,$1+$1,$8,$9*
0 Add four rect primitives between the rounded corners*
20,1,$1+$1,$2,$3,$4,$5,0*
20,1,$1+$1,$4,$5,$6,$7,0*
20,1,$1+$1,$6,$7,$8,$9,0*
20,1,$1+$1,$8,$9,$2,$3,0*%
G04 Aperture macros list end*
%ADD10R,1.800000X1.800000*%
%ADD11O,1.800000X1.800000*%
%ADD12C,1.600000*%
%ADD13O,1.600000X1.600000*%
%ADD14R,1.600000X2.000000*%
%ADD15RoundRect,0.250000X0.750000X-0.600000X0.750000X0.600000X-0.750000X0.600000X-0.750000X-0.600000X0*%
%ADD16O,2.000000X1.700000*%
%ADD17C,1.800000*%
%ADD18C,1.524000*%
%ADD19C,5.700000*%
%ADD20O,2.900000X7.100000*%
%ADD21O,7.100000X2.900000*%
%ADD22O,2.900000X6.500000*%
%ADD23O,6.500000X2.900000*%
%ADD24RoundRect,0.250000X0.725000X-0.600000X0.725000X0.600000X-0.725000X0.600000X-0.725000X-0.600000X0*%
%ADD25O,1.950000X1.700000*%
%ADD26R,1.600000X1.600000*%
G04 APERTURE END LIST*
D10*
X52070000Y-60960000D03*
D11*
X59690000Y-60960000D03*
D12*
X83820000Y-52010000D03*
D13*
X83820000Y-44510000D03*
D14*
X172720000Y-112035000D03*
D12*
X172720000Y-109495000D03*
X172720000Y-106955000D03*
X172720000Y-104415000D03*
X172720000Y-101875000D03*
X172720000Y-99335000D03*
X172720000Y-96795000D03*
X172720000Y-94255000D03*
X172720000Y-91715000D03*
X172720000Y-89175000D03*
X172720000Y-86635000D03*
X172720000Y-84095000D03*
X172720000Y-81555000D03*
X172720000Y-79015000D03*
X172720000Y-76475000D03*
X147320000Y-76475000D03*
X147320000Y-79015000D03*
X147320000Y-81555000D03*
X147320000Y-84095000D03*
X147320000Y-86635000D03*
X147320000Y-89175000D03*
X147320000Y-91715000D03*
X147320000Y-94255000D03*
X147320000Y-96795000D03*
X147320000Y-99335000D03*
X147320000Y-101875000D03*
X147320000Y-104415000D03*
X147320000Y-106955000D03*
X147320000Y-109495000D03*
X147320000Y-112035000D03*
D15*
X169270000Y-151110000D03*
D16*
X169270000Y-148610000D03*
D12*
X43180000Y-104140000D03*
D13*
X58420000Y-104140000D03*
D12*
X43180000Y-111760000D03*
D13*
X58420000Y-111760000D03*
D10*
X35560000Y-81280000D03*
D17*
X38100000Y-81280000D03*
D12*
X119380000Y-38100000D03*
D13*
X134620000Y-38100000D03*
D10*
X95250000Y-60960000D03*
D11*
X102870000Y-60960000D03*
D12*
X43180000Y-89230000D03*
D13*
X58420000Y-89230000D03*
D10*
X72390000Y-60960000D03*
D11*
X80010000Y-60960000D03*
D10*
X35560000Y-96520000D03*
D17*
X38100000Y-96520000D03*
D18*
X39370000Y-125730000D03*
X39370000Y-128270000D03*
X39370000Y-130810000D03*
X39370000Y-133350000D03*
X39370000Y-135890000D03*
X39370000Y-138430000D03*
X39370000Y-140970000D03*
X39370000Y-143510000D03*
X39370000Y-146050000D03*
X39370000Y-148590000D03*
X39370000Y-151130000D03*
X52070000Y-151130000D03*
X52070000Y-148590000D03*
X52070000Y-146050000D03*
X52070000Y-143510000D03*
X52070000Y-140970000D03*
X52070000Y-138430000D03*
X52070000Y-135890000D03*
X52070000Y-133350000D03*
X52070000Y-130810000D03*
X52070000Y-128270000D03*
X52070000Y-125730000D03*
D10*
X35560000Y-104140000D03*
D17*
X38100000Y-104140000D03*
D19*
X33020000Y-27940000D03*
D12*
X43180000Y-44510000D03*
D13*
X43180000Y-52010000D03*
D20*
X66660000Y-35560000D03*
D21*
X73660000Y-36935000D03*
D19*
X172720000Y-27940000D03*
D10*
X35560000Y-88900000D03*
D17*
X38100000Y-88900000D03*
D19*
X172720000Y-167640000D03*
X33020000Y-167640000D03*
D18*
X120650000Y-60960000D03*
X123190000Y-60960000D03*
X125730000Y-60960000D03*
X128270000Y-60960000D03*
X130810000Y-60960000D03*
X133350000Y-60960000D03*
X135890000Y-60960000D03*
X138430000Y-60960000D03*
D17*
X54000000Y-45720000D03*
X54000000Y-48260000D03*
X54000000Y-50800000D03*
D12*
X43180000Y-96520000D03*
D13*
X58420000Y-96520000D03*
D12*
X43180000Y-81280000D03*
D13*
X58420000Y-81280000D03*
D22*
X49980000Y-34195000D03*
D23*
X55880000Y-33020000D03*
D24*
X169270000Y-139660000D03*
D25*
X169270000Y-137160000D03*
X169270000Y-134660000D03*
D26*
X33060000Y-48260000D03*
D12*
X35560000Y-48260000D03*
D26*
X96560000Y-48260000D03*
D12*
X99060000Y-48260000D03*
D10*
X35560000Y-111760000D03*
D17*
X38100000Y-111760000D03*
D12*
X119380000Y-30480000D03*
D13*
X134620000Y-30480000D03*
D18*
X71120000Y-101600000D03*
X73660000Y-101600000D03*
X71120000Y-104140000D03*
X73660000Y-104140000D03*
X71120000Y-106680000D03*
X73660000Y-106680000D03*
X71120000Y-109220000D03*
X73660000Y-109220000D03*
X71120000Y-111760000D03*
X73660000Y-111760000D03*
X71120000Y-114300000D03*
X73660000Y-114300000D03*
X71120000Y-116840000D03*
X73660000Y-116840000D03*
X71120000Y-119380000D03*
X73660000Y-119380000D03*
X71120000Y-121920000D03*
X73660000Y-121920000D03*
X71120000Y-124460000D03*
X73660000Y-124460000D03*
X71120000Y-127000000D03*
X73660000Y-127000000D03*
X71120000Y-129540000D03*
X73660000Y-129540000D03*
X71120000Y-132080000D03*
X73660000Y-132080000D03*
X71120000Y-134620000D03*
X73660000Y-134620000D03*
X71120000Y-137160000D03*
X73660000Y-137160000D03*
X71120000Y-139700000D03*
X73660000Y-139700000D03*
X71120000Y-142240000D03*
X73660000Y-142240000D03*
X71120000Y-144780000D03*
X73660000Y-144780000D03*
X71120000Y-147320000D03*
X73660000Y-147320000D03*
X132080000Y-101600000D03*
X134620000Y-101600000D03*
X132080000Y-104140000D03*
X134620000Y-104140000D03*
X132080000Y-106680000D03*
X134620000Y-106680000D03*
X132080000Y-109220000D03*
X134620000Y-109220000D03*
X132080000Y-111760000D03*
X134620000Y-111760000D03*
X132080000Y-114300000D03*
X134620000Y-114300000D03*
X132080000Y-116840000D03*
X134620000Y-116840000D03*
X132080000Y-119380000D03*
X134620000Y-119380000D03*
X132080000Y-121920000D03*
X134620000Y-121920000D03*
X132080000Y-124460000D03*
X134620000Y-124460000D03*
X132080000Y-127000000D03*
X134620000Y-127000000D03*
X132080000Y-129540000D03*
X134620000Y-129540000D03*
X132080000Y-132080000D03*
X134620000Y-132080000D03*
X132080000Y-134620000D03*
X134620000Y-134620000D03*
X132080000Y-137160000D03*
X134620000Y-137160000D03*
X132080000Y-139700000D03*
X134620000Y-139700000D03*
X132080000Y-142240000D03*
X134620000Y-142240000D03*
X132080000Y-144780000D03*
X134620000Y-144780000D03*
X132080000Y-147320000D03*
X134620000Y-147320000D03*
D26*
X149860000Y-143520000D03*
D13*
X149860000Y-146060000D03*
X149860000Y-148600000D03*
X149860000Y-151140000D03*
X157480000Y-151140000D03*
X157480000Y-148600000D03*
X157480000Y-146060000D03*
X157480000Y-143520000D03*
M02*
