M48
; DRILL file {KiCad 7.0.2} date Mon Jul 24 17:40:02 2023
; FORMAT={-:-/ absolute / metric / decimal}
; #@! TF.CreationDate,2023-07-24T17:40:02+09:00
; #@! TF.GenerationSoftware,Kicad,Pcbnew,7.0.2
; #@! TF.FileFunction,Plated,1,2,PTH
FMAT,2
METRIC
; #@! TA.AperFunction,Plated,PTH,ComponentDrill
T1C0.762
; #@! TA.AperFunction,Plated,PTH,ComponentDrill
T2C0.800
; #@! TA.AperFunction,Plated,PTH,ComponentDrill
T3C0.900
; #@! TA.AperFunction,Plated,PTH,ComponentDrill
T4C0.950
; #@! TA.AperFunction,Plated,PTH,ComponentDrill
T5C1.000
; #@! TA.AperFunction,Plated,PTH,ComponentDrill
T6C1.200
; #@! TA.AperFunction,Plated,PTH,ComponentDrill
T7C2.100
; #@! TA.AperFunction,Plated,PTH,ComponentDrill
T8C3.200
%
G90
G05
T1
X39.37Y-125.73
X39.37Y-128.27
X39.37Y-130.81
X39.37Y-133.35
X39.37Y-135.89
X39.37Y-138.43
X39.37Y-140.97
X39.37Y-143.51
X39.37Y-146.05
X39.37Y-148.59
X39.37Y-151.13
X52.07Y-125.73
X52.07Y-128.27
X52.07Y-130.81
X52.07Y-133.35
X52.07Y-135.89
X52.07Y-138.43
X52.07Y-140.97
X52.07Y-143.51
X52.07Y-146.05
X52.07Y-148.59
X52.07Y-151.13
X71.12Y-101.6
X71.12Y-104.14
X71.12Y-106.68
X71.12Y-109.22
X71.12Y-111.76
X71.12Y-114.3
X71.12Y-116.84
X71.12Y-119.38
X71.12Y-121.92
X71.12Y-124.46
X71.12Y-127.0
X71.12Y-129.54
X71.12Y-132.08
X71.12Y-134.62
X71.12Y-137.16
X71.12Y-139.7
X71.12Y-142.24
X71.12Y-144.78
X71.12Y-147.32
X73.66Y-101.6
X73.66Y-104.14
X73.66Y-106.68
X73.66Y-109.22
X73.66Y-111.76
X73.66Y-114.3
X73.66Y-116.84
X73.66Y-119.38
X73.66Y-121.92
X73.66Y-124.46
X73.66Y-127.0
X73.66Y-129.54
X73.66Y-132.08
X73.66Y-134.62
X73.66Y-137.16
X73.66Y-139.7
X73.66Y-142.24
X73.66Y-144.78
X73.66Y-147.32
X120.65Y-60.96
X123.19Y-60.96
X125.73Y-60.96
X128.27Y-60.96
X130.81Y-60.96
X132.08Y-101.6
X132.08Y-104.14
X132.08Y-106.68
X132.08Y-109.22
X132.08Y-111.76
X132.08Y-114.3
X132.08Y-116.84
X132.08Y-119.38
X132.08Y-121.92
X132.08Y-124.46
X132.08Y-127.0
X132.08Y-129.54
X132.08Y-132.08
X132.08Y-134.62
X132.08Y-137.16
X132.08Y-139.7
X132.08Y-142.24
X132.08Y-144.78
X132.08Y-147.32
X133.35Y-60.96
X134.62Y-101.6
X134.62Y-104.14
X134.62Y-106.68
X134.62Y-109.22
X134.62Y-111.76
X134.62Y-114.3
X134.62Y-116.84
X134.62Y-119.38
X134.62Y-121.92
X134.62Y-124.46
X134.62Y-127.0
X134.62Y-129.54
X134.62Y-132.08
X134.62Y-134.62
X134.62Y-137.16
X134.62Y-139.7
X134.62Y-142.24
X134.62Y-144.78
X134.62Y-147.32
X135.89Y-60.96
X138.43Y-60.96
T2
X33.06Y-48.26
X35.56Y-48.26
X43.18Y-44.51
X43.18Y-52.01
X43.18Y-81.28
X43.18Y-89.23
X43.18Y-96.52
X43.18Y-104.14
X43.18Y-111.76
X58.42Y-81.28
X58.42Y-89.23
X58.42Y-96.52
X58.42Y-104.14
X58.42Y-111.76
X83.82Y-44.51
X83.82Y-52.01
X96.56Y-48.26
X99.06Y-48.26
X119.38Y-30.48
X119.38Y-38.1
X134.62Y-30.48
X134.62Y-38.1
X147.32Y-76.475
X147.32Y-79.015
X147.32Y-81.555
X147.32Y-84.095
X147.32Y-86.635
X147.32Y-89.175
X147.32Y-91.715
X147.32Y-94.255
X147.32Y-96.795
X147.32Y-99.335
X147.32Y-101.875
X147.32Y-104.415
X147.32Y-106.955
X147.32Y-109.495
X147.32Y-112.035
X149.86Y-143.52
X149.86Y-146.06
X149.86Y-148.6
X149.86Y-151.14
X157.48Y-143.52
X157.48Y-146.06
X157.48Y-148.6
X157.48Y-151.14
X172.72Y-76.475
X172.72Y-79.015
X172.72Y-81.555
X172.72Y-84.095
X172.72Y-86.635
X172.72Y-89.175
X172.72Y-91.715
X172.72Y-94.255
X172.72Y-96.795
X172.72Y-99.335
X172.72Y-101.875
X172.72Y-104.415
X172.72Y-106.955
X172.72Y-109.495
X172.72Y-112.035
T3
X35.56Y-81.28
X35.56Y-88.9
X35.56Y-96.52
X35.56Y-104.14
X35.56Y-111.76
X38.1Y-81.28
X38.1Y-88.9
X38.1Y-96.52
X38.1Y-104.14
X38.1Y-111.76
X52.07Y-60.96
X59.69Y-60.96
X72.39Y-60.96
X80.01Y-60.96
X95.25Y-60.96
X102.87Y-60.96
T4
X169.27Y-134.66
X169.27Y-137.16
X169.27Y-139.66
T5
X169.27Y-148.61
X169.27Y-151.11
T6
X54.0Y-45.72
X54.0Y-48.26
X54.0Y-50.8
T8
X33.02Y-27.94
X33.02Y-167.64
X172.72Y-27.94
X172.72Y-167.64
T7
G00X49.98Y-32.395
M15
G01X49.98Y-35.995
M16
G05
G00X54.08Y-33.02
M15
G01X57.68Y-33.02
M16
G05
G00X66.66Y-33.46
M15
G01X66.66Y-37.66
M16
G05
G00X71.56Y-36.935
M15
G01X75.76Y-36.935
M16
G05
T0
M30
