G04 #@! TF.GenerationSoftware,KiCad,Pcbnew,7.0.2*
G04 #@! TF.CreationDate,2023-07-24T17:38:17+09:00*
G04 #@! TF.ProjectId,main_board,6d61696e-5f62-46f6-9172-642e6b696361,rev?*
G04 #@! TF.SameCoordinates,Original*
G04 #@! TF.FileFunction,Legend,Top*
G04 #@! TF.FilePolarity,Positive*
%FSLAX46Y46*%
G04 Gerber Fmt 4.6, Leading zero omitted, Abs format (unit mm)*
G04 Created by KiCad (PCBNEW 7.0.2) date 2023-07-24 17:38:17*
%MOMM*%
%LPD*%
G01*
G04 APERTURE LIST*
%ADD10C,0.150000*%
%ADD11C,0.120000*%
%ADD12C,0.127000*%
%ADD13C,0.200000*%
G04 APERTURE END LIST*
D10*
X55141905Y-58952619D02*
X55141905Y-57952619D01*
X55141905Y-57952619D02*
X55380000Y-57952619D01*
X55380000Y-57952619D02*
X55522857Y-58000238D01*
X55522857Y-58000238D02*
X55618095Y-58095476D01*
X55618095Y-58095476D02*
X55665714Y-58190714D01*
X55665714Y-58190714D02*
X55713333Y-58381190D01*
X55713333Y-58381190D02*
X55713333Y-58524047D01*
X55713333Y-58524047D02*
X55665714Y-58714523D01*
X55665714Y-58714523D02*
X55618095Y-58809761D01*
X55618095Y-58809761D02*
X55522857Y-58905000D01*
X55522857Y-58905000D02*
X55380000Y-58952619D01*
X55380000Y-58952619D02*
X55141905Y-58952619D01*
X56284762Y-58381190D02*
X56189524Y-58333571D01*
X56189524Y-58333571D02*
X56141905Y-58285952D01*
X56141905Y-58285952D02*
X56094286Y-58190714D01*
X56094286Y-58190714D02*
X56094286Y-58143095D01*
X56094286Y-58143095D02*
X56141905Y-58047857D01*
X56141905Y-58047857D02*
X56189524Y-58000238D01*
X56189524Y-58000238D02*
X56284762Y-57952619D01*
X56284762Y-57952619D02*
X56475238Y-57952619D01*
X56475238Y-57952619D02*
X56570476Y-58000238D01*
X56570476Y-58000238D02*
X56618095Y-58047857D01*
X56618095Y-58047857D02*
X56665714Y-58143095D01*
X56665714Y-58143095D02*
X56665714Y-58190714D01*
X56665714Y-58190714D02*
X56618095Y-58285952D01*
X56618095Y-58285952D02*
X56570476Y-58333571D01*
X56570476Y-58333571D02*
X56475238Y-58381190D01*
X56475238Y-58381190D02*
X56284762Y-58381190D01*
X56284762Y-58381190D02*
X56189524Y-58428809D01*
X56189524Y-58428809D02*
X56141905Y-58476428D01*
X56141905Y-58476428D02*
X56094286Y-58571666D01*
X56094286Y-58571666D02*
X56094286Y-58762142D01*
X56094286Y-58762142D02*
X56141905Y-58857380D01*
X56141905Y-58857380D02*
X56189524Y-58905000D01*
X56189524Y-58905000D02*
X56284762Y-58952619D01*
X56284762Y-58952619D02*
X56475238Y-58952619D01*
X56475238Y-58952619D02*
X56570476Y-58905000D01*
X56570476Y-58905000D02*
X56618095Y-58857380D01*
X56618095Y-58857380D02*
X56665714Y-58762142D01*
X56665714Y-58762142D02*
X56665714Y-58571666D01*
X56665714Y-58571666D02*
X56618095Y-58476428D01*
X56618095Y-58476428D02*
X56570476Y-58428809D01*
X56570476Y-58428809D02*
X56475238Y-58381190D01*
X51808095Y-59522619D02*
X51808095Y-58522619D01*
X52379523Y-59522619D02*
X51950952Y-58951190D01*
X52379523Y-58522619D02*
X51808095Y-59094047D01*
X81767380Y-48426666D02*
X81815000Y-48474285D01*
X81815000Y-48474285D02*
X81862619Y-48617142D01*
X81862619Y-48617142D02*
X81862619Y-48712380D01*
X81862619Y-48712380D02*
X81815000Y-48855237D01*
X81815000Y-48855237D02*
X81719761Y-48950475D01*
X81719761Y-48950475D02*
X81624523Y-48998094D01*
X81624523Y-48998094D02*
X81434047Y-49045713D01*
X81434047Y-49045713D02*
X81291190Y-49045713D01*
X81291190Y-49045713D02*
X81100714Y-48998094D01*
X81100714Y-48998094D02*
X81005476Y-48950475D01*
X81005476Y-48950475D02*
X80910238Y-48855237D01*
X80910238Y-48855237D02*
X80862619Y-48712380D01*
X80862619Y-48712380D02*
X80862619Y-48617142D01*
X80862619Y-48617142D02*
X80910238Y-48474285D01*
X80910238Y-48474285D02*
X80957857Y-48426666D01*
X80862619Y-48093332D02*
X80862619Y-47474285D01*
X80862619Y-47474285D02*
X81243571Y-47807618D01*
X81243571Y-47807618D02*
X81243571Y-47664761D01*
X81243571Y-47664761D02*
X81291190Y-47569523D01*
X81291190Y-47569523D02*
X81338809Y-47521904D01*
X81338809Y-47521904D02*
X81434047Y-47474285D01*
X81434047Y-47474285D02*
X81672142Y-47474285D01*
X81672142Y-47474285D02*
X81767380Y-47521904D01*
X81767380Y-47521904D02*
X81815000Y-47569523D01*
X81815000Y-47569523D02*
X81862619Y-47664761D01*
X81862619Y-47664761D02*
X81862619Y-47950475D01*
X81862619Y-47950475D02*
X81815000Y-48045713D01*
X81815000Y-48045713D02*
X81767380Y-48093332D01*
X170613095Y-123342619D02*
X170613095Y-124152142D01*
X170613095Y-124152142D02*
X170660714Y-124247380D01*
X170660714Y-124247380D02*
X170708333Y-124295000D01*
X170708333Y-124295000D02*
X170803571Y-124342619D01*
X170803571Y-124342619D02*
X170994047Y-124342619D01*
X170994047Y-124342619D02*
X171089285Y-124295000D01*
X171089285Y-124295000D02*
X171136904Y-124247380D01*
X171136904Y-124247380D02*
X171184523Y-124152142D01*
X171184523Y-124152142D02*
X171184523Y-123342619D01*
X171613095Y-123437857D02*
X171660714Y-123390238D01*
X171660714Y-123390238D02*
X171755952Y-123342619D01*
X171755952Y-123342619D02*
X171994047Y-123342619D01*
X171994047Y-123342619D02*
X172089285Y-123390238D01*
X172089285Y-123390238D02*
X172136904Y-123437857D01*
X172136904Y-123437857D02*
X172184523Y-123533095D01*
X172184523Y-123533095D02*
X172184523Y-123628333D01*
X172184523Y-123628333D02*
X172136904Y-123771190D01*
X172136904Y-123771190D02*
X171565476Y-124342619D01*
X171565476Y-124342619D02*
X172184523Y-124342619D01*
X165232619Y-150193333D02*
X165946904Y-150193333D01*
X165946904Y-150193333D02*
X166089761Y-150240952D01*
X166089761Y-150240952D02*
X166185000Y-150336190D01*
X166185000Y-150336190D02*
X166232619Y-150479047D01*
X166232619Y-150479047D02*
X166232619Y-150574285D01*
X166232619Y-149193333D02*
X166232619Y-149764761D01*
X166232619Y-149479047D02*
X165232619Y-149479047D01*
X165232619Y-149479047D02*
X165375476Y-149574285D01*
X165375476Y-149574285D02*
X165470714Y-149669523D01*
X165470714Y-149669523D02*
X165518333Y-149764761D01*
X50633333Y-101882619D02*
X50300000Y-101406428D01*
X50061905Y-101882619D02*
X50061905Y-100882619D01*
X50061905Y-100882619D02*
X50442857Y-100882619D01*
X50442857Y-100882619D02*
X50538095Y-100930238D01*
X50538095Y-100930238D02*
X50585714Y-100977857D01*
X50585714Y-100977857D02*
X50633333Y-101073095D01*
X50633333Y-101073095D02*
X50633333Y-101215952D01*
X50633333Y-101215952D02*
X50585714Y-101311190D01*
X50585714Y-101311190D02*
X50538095Y-101358809D01*
X50538095Y-101358809D02*
X50442857Y-101406428D01*
X50442857Y-101406428D02*
X50061905Y-101406428D01*
X51490476Y-101215952D02*
X51490476Y-101882619D01*
X51252381Y-100835000D02*
X51014286Y-101549285D01*
X51014286Y-101549285D02*
X51633333Y-101549285D01*
X50633333Y-109502619D02*
X50300000Y-109026428D01*
X50061905Y-109502619D02*
X50061905Y-108502619D01*
X50061905Y-108502619D02*
X50442857Y-108502619D01*
X50442857Y-108502619D02*
X50538095Y-108550238D01*
X50538095Y-108550238D02*
X50585714Y-108597857D01*
X50585714Y-108597857D02*
X50633333Y-108693095D01*
X50633333Y-108693095D02*
X50633333Y-108835952D01*
X50633333Y-108835952D02*
X50585714Y-108931190D01*
X50585714Y-108931190D02*
X50538095Y-108978809D01*
X50538095Y-108978809D02*
X50442857Y-109026428D01*
X50442857Y-109026428D02*
X50061905Y-109026428D01*
X51538095Y-108502619D02*
X51061905Y-108502619D01*
X51061905Y-108502619D02*
X51014286Y-108978809D01*
X51014286Y-108978809D02*
X51061905Y-108931190D01*
X51061905Y-108931190D02*
X51157143Y-108883571D01*
X51157143Y-108883571D02*
X51395238Y-108883571D01*
X51395238Y-108883571D02*
X51490476Y-108931190D01*
X51490476Y-108931190D02*
X51538095Y-108978809D01*
X51538095Y-108978809D02*
X51585714Y-109074047D01*
X51585714Y-109074047D02*
X51585714Y-109312142D01*
X51585714Y-109312142D02*
X51538095Y-109407380D01*
X51538095Y-109407380D02*
X51490476Y-109455000D01*
X51490476Y-109455000D02*
X51395238Y-109502619D01*
X51395238Y-109502619D02*
X51157143Y-109502619D01*
X51157143Y-109502619D02*
X51061905Y-109455000D01*
X51061905Y-109455000D02*
X51014286Y-109407380D01*
X36091905Y-78782619D02*
X36091905Y-77782619D01*
X36091905Y-77782619D02*
X36330000Y-77782619D01*
X36330000Y-77782619D02*
X36472857Y-77830238D01*
X36472857Y-77830238D02*
X36568095Y-77925476D01*
X36568095Y-77925476D02*
X36615714Y-78020714D01*
X36615714Y-78020714D02*
X36663333Y-78211190D01*
X36663333Y-78211190D02*
X36663333Y-78354047D01*
X36663333Y-78354047D02*
X36615714Y-78544523D01*
X36615714Y-78544523D02*
X36568095Y-78639761D01*
X36568095Y-78639761D02*
X36472857Y-78735000D01*
X36472857Y-78735000D02*
X36330000Y-78782619D01*
X36330000Y-78782619D02*
X36091905Y-78782619D01*
X36996667Y-77782619D02*
X37615714Y-77782619D01*
X37615714Y-77782619D02*
X37282381Y-78163571D01*
X37282381Y-78163571D02*
X37425238Y-78163571D01*
X37425238Y-78163571D02*
X37520476Y-78211190D01*
X37520476Y-78211190D02*
X37568095Y-78258809D01*
X37568095Y-78258809D02*
X37615714Y-78354047D01*
X37615714Y-78354047D02*
X37615714Y-78592142D01*
X37615714Y-78592142D02*
X37568095Y-78687380D01*
X37568095Y-78687380D02*
X37520476Y-78735000D01*
X37520476Y-78735000D02*
X37425238Y-78782619D01*
X37425238Y-78782619D02*
X37139524Y-78782619D01*
X37139524Y-78782619D02*
X37044286Y-78735000D01*
X37044286Y-78735000D02*
X36996667Y-78687380D01*
X126833333Y-35842619D02*
X126500000Y-35366428D01*
X126261905Y-35842619D02*
X126261905Y-34842619D01*
X126261905Y-34842619D02*
X126642857Y-34842619D01*
X126642857Y-34842619D02*
X126738095Y-34890238D01*
X126738095Y-34890238D02*
X126785714Y-34937857D01*
X126785714Y-34937857D02*
X126833333Y-35033095D01*
X126833333Y-35033095D02*
X126833333Y-35175952D01*
X126833333Y-35175952D02*
X126785714Y-35271190D01*
X126785714Y-35271190D02*
X126738095Y-35318809D01*
X126738095Y-35318809D02*
X126642857Y-35366428D01*
X126642857Y-35366428D02*
X126261905Y-35366428D01*
X127166667Y-34842619D02*
X127833333Y-34842619D01*
X127833333Y-34842619D02*
X127404762Y-35842619D01*
X98321905Y-58952619D02*
X98321905Y-57952619D01*
X98321905Y-57952619D02*
X98560000Y-57952619D01*
X98560000Y-57952619D02*
X98702857Y-58000238D01*
X98702857Y-58000238D02*
X98798095Y-58095476D01*
X98798095Y-58095476D02*
X98845714Y-58190714D01*
X98845714Y-58190714D02*
X98893333Y-58381190D01*
X98893333Y-58381190D02*
X98893333Y-58524047D01*
X98893333Y-58524047D02*
X98845714Y-58714523D01*
X98845714Y-58714523D02*
X98798095Y-58809761D01*
X98798095Y-58809761D02*
X98702857Y-58905000D01*
X98702857Y-58905000D02*
X98560000Y-58952619D01*
X98560000Y-58952619D02*
X98321905Y-58952619D01*
X99845714Y-58952619D02*
X99274286Y-58952619D01*
X99560000Y-58952619D02*
X99560000Y-57952619D01*
X99560000Y-57952619D02*
X99464762Y-58095476D01*
X99464762Y-58095476D02*
X99369524Y-58190714D01*
X99369524Y-58190714D02*
X99274286Y-58238333D01*
X94988095Y-59522619D02*
X94988095Y-58522619D01*
X95559523Y-59522619D02*
X95130952Y-58951190D01*
X95559523Y-58522619D02*
X94988095Y-59094047D01*
X50633333Y-86972619D02*
X50300000Y-86496428D01*
X50061905Y-86972619D02*
X50061905Y-85972619D01*
X50061905Y-85972619D02*
X50442857Y-85972619D01*
X50442857Y-85972619D02*
X50538095Y-86020238D01*
X50538095Y-86020238D02*
X50585714Y-86067857D01*
X50585714Y-86067857D02*
X50633333Y-86163095D01*
X50633333Y-86163095D02*
X50633333Y-86305952D01*
X50633333Y-86305952D02*
X50585714Y-86401190D01*
X50585714Y-86401190D02*
X50538095Y-86448809D01*
X50538095Y-86448809D02*
X50442857Y-86496428D01*
X50442857Y-86496428D02*
X50061905Y-86496428D01*
X51014286Y-86067857D02*
X51061905Y-86020238D01*
X51061905Y-86020238D02*
X51157143Y-85972619D01*
X51157143Y-85972619D02*
X51395238Y-85972619D01*
X51395238Y-85972619D02*
X51490476Y-86020238D01*
X51490476Y-86020238D02*
X51538095Y-86067857D01*
X51538095Y-86067857D02*
X51585714Y-86163095D01*
X51585714Y-86163095D02*
X51585714Y-86258333D01*
X51585714Y-86258333D02*
X51538095Y-86401190D01*
X51538095Y-86401190D02*
X50966667Y-86972619D01*
X50966667Y-86972619D02*
X51585714Y-86972619D01*
X75461905Y-58952619D02*
X75461905Y-57952619D01*
X75461905Y-57952619D02*
X75700000Y-57952619D01*
X75700000Y-57952619D02*
X75842857Y-58000238D01*
X75842857Y-58000238D02*
X75938095Y-58095476D01*
X75938095Y-58095476D02*
X75985714Y-58190714D01*
X75985714Y-58190714D02*
X76033333Y-58381190D01*
X76033333Y-58381190D02*
X76033333Y-58524047D01*
X76033333Y-58524047D02*
X75985714Y-58714523D01*
X75985714Y-58714523D02*
X75938095Y-58809761D01*
X75938095Y-58809761D02*
X75842857Y-58905000D01*
X75842857Y-58905000D02*
X75700000Y-58952619D01*
X75700000Y-58952619D02*
X75461905Y-58952619D01*
X76414286Y-58047857D02*
X76461905Y-58000238D01*
X76461905Y-58000238D02*
X76557143Y-57952619D01*
X76557143Y-57952619D02*
X76795238Y-57952619D01*
X76795238Y-57952619D02*
X76890476Y-58000238D01*
X76890476Y-58000238D02*
X76938095Y-58047857D01*
X76938095Y-58047857D02*
X76985714Y-58143095D01*
X76985714Y-58143095D02*
X76985714Y-58238333D01*
X76985714Y-58238333D02*
X76938095Y-58381190D01*
X76938095Y-58381190D02*
X76366667Y-58952619D01*
X76366667Y-58952619D02*
X76985714Y-58952619D01*
X72128095Y-59522619D02*
X72128095Y-58522619D01*
X72699523Y-59522619D02*
X72270952Y-58951190D01*
X72699523Y-58522619D02*
X72128095Y-59094047D01*
X36091905Y-94022619D02*
X36091905Y-93022619D01*
X36091905Y-93022619D02*
X36330000Y-93022619D01*
X36330000Y-93022619D02*
X36472857Y-93070238D01*
X36472857Y-93070238D02*
X36568095Y-93165476D01*
X36568095Y-93165476D02*
X36615714Y-93260714D01*
X36615714Y-93260714D02*
X36663333Y-93451190D01*
X36663333Y-93451190D02*
X36663333Y-93594047D01*
X36663333Y-93594047D02*
X36615714Y-93784523D01*
X36615714Y-93784523D02*
X36568095Y-93879761D01*
X36568095Y-93879761D02*
X36472857Y-93975000D01*
X36472857Y-93975000D02*
X36330000Y-94022619D01*
X36330000Y-94022619D02*
X36091905Y-94022619D01*
X37568095Y-93022619D02*
X37091905Y-93022619D01*
X37091905Y-93022619D02*
X37044286Y-93498809D01*
X37044286Y-93498809D02*
X37091905Y-93451190D01*
X37091905Y-93451190D02*
X37187143Y-93403571D01*
X37187143Y-93403571D02*
X37425238Y-93403571D01*
X37425238Y-93403571D02*
X37520476Y-93451190D01*
X37520476Y-93451190D02*
X37568095Y-93498809D01*
X37568095Y-93498809D02*
X37615714Y-93594047D01*
X37615714Y-93594047D02*
X37615714Y-93832142D01*
X37615714Y-93832142D02*
X37568095Y-93927380D01*
X37568095Y-93927380D02*
X37520476Y-93975000D01*
X37520476Y-93975000D02*
X37425238Y-94022619D01*
X37425238Y-94022619D02*
X37187143Y-94022619D01*
X37187143Y-94022619D02*
X37091905Y-93975000D01*
X37091905Y-93975000D02*
X37044286Y-93927380D01*
X55118095Y-140432619D02*
X55118095Y-141242142D01*
X55118095Y-141242142D02*
X55165714Y-141337380D01*
X55165714Y-141337380D02*
X55213333Y-141385000D01*
X55213333Y-141385000D02*
X55308571Y-141432619D01*
X55308571Y-141432619D02*
X55499047Y-141432619D01*
X55499047Y-141432619D02*
X55594285Y-141385000D01*
X55594285Y-141385000D02*
X55641904Y-141337380D01*
X55641904Y-141337380D02*
X55689523Y-141242142D01*
X55689523Y-141242142D02*
X55689523Y-140432619D01*
X56689523Y-141432619D02*
X56118095Y-141432619D01*
X56403809Y-141432619D02*
X56403809Y-140432619D01*
X56403809Y-140432619D02*
X56308571Y-140575476D01*
X56308571Y-140575476D02*
X56213333Y-140670714D01*
X56213333Y-140670714D02*
X56118095Y-140718333D01*
X36091905Y-101642619D02*
X36091905Y-100642619D01*
X36091905Y-100642619D02*
X36330000Y-100642619D01*
X36330000Y-100642619D02*
X36472857Y-100690238D01*
X36472857Y-100690238D02*
X36568095Y-100785476D01*
X36568095Y-100785476D02*
X36615714Y-100880714D01*
X36615714Y-100880714D02*
X36663333Y-101071190D01*
X36663333Y-101071190D02*
X36663333Y-101214047D01*
X36663333Y-101214047D02*
X36615714Y-101404523D01*
X36615714Y-101404523D02*
X36568095Y-101499761D01*
X36568095Y-101499761D02*
X36472857Y-101595000D01*
X36472857Y-101595000D02*
X36330000Y-101642619D01*
X36330000Y-101642619D02*
X36091905Y-101642619D01*
X37520476Y-100642619D02*
X37330000Y-100642619D01*
X37330000Y-100642619D02*
X37234762Y-100690238D01*
X37234762Y-100690238D02*
X37187143Y-100737857D01*
X37187143Y-100737857D02*
X37091905Y-100880714D01*
X37091905Y-100880714D02*
X37044286Y-101071190D01*
X37044286Y-101071190D02*
X37044286Y-101452142D01*
X37044286Y-101452142D02*
X37091905Y-101547380D01*
X37091905Y-101547380D02*
X37139524Y-101595000D01*
X37139524Y-101595000D02*
X37234762Y-101642619D01*
X37234762Y-101642619D02*
X37425238Y-101642619D01*
X37425238Y-101642619D02*
X37520476Y-101595000D01*
X37520476Y-101595000D02*
X37568095Y-101547380D01*
X37568095Y-101547380D02*
X37615714Y-101452142D01*
X37615714Y-101452142D02*
X37615714Y-101214047D01*
X37615714Y-101214047D02*
X37568095Y-101118809D01*
X37568095Y-101118809D02*
X37520476Y-101071190D01*
X37520476Y-101071190D02*
X37425238Y-101023571D01*
X37425238Y-101023571D02*
X37234762Y-101023571D01*
X37234762Y-101023571D02*
X37139524Y-101071190D01*
X37139524Y-101071190D02*
X37091905Y-101118809D01*
X37091905Y-101118809D02*
X37044286Y-101214047D01*
X32258095Y-24552619D02*
X32258095Y-23552619D01*
X32258095Y-24028809D02*
X32829523Y-24028809D01*
X32829523Y-24552619D02*
X32829523Y-23552619D01*
X33829523Y-24552619D02*
X33258095Y-24552619D01*
X33543809Y-24552619D02*
X33543809Y-23552619D01*
X33543809Y-23552619D02*
X33448571Y-23695476D01*
X33448571Y-23695476D02*
X33353333Y-23790714D01*
X33353333Y-23790714D02*
X33258095Y-23838333D01*
X45967380Y-48426666D02*
X46015000Y-48474285D01*
X46015000Y-48474285D02*
X46062619Y-48617142D01*
X46062619Y-48617142D02*
X46062619Y-48712380D01*
X46062619Y-48712380D02*
X46015000Y-48855237D01*
X46015000Y-48855237D02*
X45919761Y-48950475D01*
X45919761Y-48950475D02*
X45824523Y-48998094D01*
X45824523Y-48998094D02*
X45634047Y-49045713D01*
X45634047Y-49045713D02*
X45491190Y-49045713D01*
X45491190Y-49045713D02*
X45300714Y-48998094D01*
X45300714Y-48998094D02*
X45205476Y-48950475D01*
X45205476Y-48950475D02*
X45110238Y-48855237D01*
X45110238Y-48855237D02*
X45062619Y-48712380D01*
X45062619Y-48712380D02*
X45062619Y-48617142D01*
X45062619Y-48617142D02*
X45110238Y-48474285D01*
X45110238Y-48474285D02*
X45157857Y-48426666D01*
X45157857Y-48045713D02*
X45110238Y-47998094D01*
X45110238Y-47998094D02*
X45062619Y-47902856D01*
X45062619Y-47902856D02*
X45062619Y-47664761D01*
X45062619Y-47664761D02*
X45110238Y-47569523D01*
X45110238Y-47569523D02*
X45157857Y-47521904D01*
X45157857Y-47521904D02*
X45253095Y-47474285D01*
X45253095Y-47474285D02*
X45348333Y-47474285D01*
X45348333Y-47474285D02*
X45491190Y-47521904D01*
X45491190Y-47521904D02*
X46062619Y-48093332D01*
X46062619Y-48093332D02*
X46062619Y-47474285D01*
X71056666Y-36292619D02*
X71056666Y-37006904D01*
X71056666Y-37006904D02*
X71009047Y-37149761D01*
X71009047Y-37149761D02*
X70913809Y-37245000D01*
X70913809Y-37245000D02*
X70770952Y-37292619D01*
X70770952Y-37292619D02*
X70675714Y-37292619D01*
X71437619Y-36292619D02*
X72056666Y-36292619D01*
X72056666Y-36292619D02*
X71723333Y-36673571D01*
X71723333Y-36673571D02*
X71866190Y-36673571D01*
X71866190Y-36673571D02*
X71961428Y-36721190D01*
X71961428Y-36721190D02*
X72009047Y-36768809D01*
X72009047Y-36768809D02*
X72056666Y-36864047D01*
X72056666Y-36864047D02*
X72056666Y-37102142D01*
X72056666Y-37102142D02*
X72009047Y-37197380D01*
X72009047Y-37197380D02*
X71961428Y-37245000D01*
X71961428Y-37245000D02*
X71866190Y-37292619D01*
X71866190Y-37292619D02*
X71580476Y-37292619D01*
X71580476Y-37292619D02*
X71485238Y-37245000D01*
X71485238Y-37245000D02*
X71437619Y-37197380D01*
X171958095Y-24552619D02*
X171958095Y-23552619D01*
X171958095Y-24028809D02*
X172529523Y-24028809D01*
X172529523Y-24552619D02*
X172529523Y-23552619D01*
X172958095Y-23647857D02*
X173005714Y-23600238D01*
X173005714Y-23600238D02*
X173100952Y-23552619D01*
X173100952Y-23552619D02*
X173339047Y-23552619D01*
X173339047Y-23552619D02*
X173434285Y-23600238D01*
X173434285Y-23600238D02*
X173481904Y-23647857D01*
X173481904Y-23647857D02*
X173529523Y-23743095D01*
X173529523Y-23743095D02*
X173529523Y-23838333D01*
X173529523Y-23838333D02*
X173481904Y-23981190D01*
X173481904Y-23981190D02*
X172910476Y-24552619D01*
X172910476Y-24552619D02*
X173529523Y-24552619D01*
X36091905Y-86402619D02*
X36091905Y-85402619D01*
X36091905Y-85402619D02*
X36330000Y-85402619D01*
X36330000Y-85402619D02*
X36472857Y-85450238D01*
X36472857Y-85450238D02*
X36568095Y-85545476D01*
X36568095Y-85545476D02*
X36615714Y-85640714D01*
X36615714Y-85640714D02*
X36663333Y-85831190D01*
X36663333Y-85831190D02*
X36663333Y-85974047D01*
X36663333Y-85974047D02*
X36615714Y-86164523D01*
X36615714Y-86164523D02*
X36568095Y-86259761D01*
X36568095Y-86259761D02*
X36472857Y-86355000D01*
X36472857Y-86355000D02*
X36330000Y-86402619D01*
X36330000Y-86402619D02*
X36091905Y-86402619D01*
X37520476Y-85735952D02*
X37520476Y-86402619D01*
X37282381Y-85355000D02*
X37044286Y-86069285D01*
X37044286Y-86069285D02*
X37663333Y-86069285D01*
X171958095Y-164252619D02*
X171958095Y-163252619D01*
X171958095Y-163728809D02*
X172529523Y-163728809D01*
X172529523Y-164252619D02*
X172529523Y-163252619D01*
X172910476Y-163252619D02*
X173529523Y-163252619D01*
X173529523Y-163252619D02*
X173196190Y-163633571D01*
X173196190Y-163633571D02*
X173339047Y-163633571D01*
X173339047Y-163633571D02*
X173434285Y-163681190D01*
X173434285Y-163681190D02*
X173481904Y-163728809D01*
X173481904Y-163728809D02*
X173529523Y-163824047D01*
X173529523Y-163824047D02*
X173529523Y-164062142D01*
X173529523Y-164062142D02*
X173481904Y-164157380D01*
X173481904Y-164157380D02*
X173434285Y-164205000D01*
X173434285Y-164205000D02*
X173339047Y-164252619D01*
X173339047Y-164252619D02*
X173053333Y-164252619D01*
X173053333Y-164252619D02*
X172958095Y-164205000D01*
X172958095Y-164205000D02*
X172910476Y-164157380D01*
X32258095Y-164252619D02*
X32258095Y-163252619D01*
X32258095Y-163728809D02*
X32829523Y-163728809D01*
X32829523Y-164252619D02*
X32829523Y-163252619D01*
X33734285Y-163585952D02*
X33734285Y-164252619D01*
X33496190Y-163205000D02*
X33258095Y-163919285D01*
X33258095Y-163919285D02*
X33877142Y-163919285D01*
X129002619Y-53673333D02*
X129716904Y-53673333D01*
X129716904Y-53673333D02*
X129859761Y-53720952D01*
X129859761Y-53720952D02*
X129955000Y-53816190D01*
X129955000Y-53816190D02*
X130002619Y-53959047D01*
X130002619Y-53959047D02*
X130002619Y-54054285D01*
X129002619Y-52720952D02*
X129002619Y-53197142D01*
X129002619Y-53197142D02*
X129478809Y-53244761D01*
X129478809Y-53244761D02*
X129431190Y-53197142D01*
X129431190Y-53197142D02*
X129383571Y-53101904D01*
X129383571Y-53101904D02*
X129383571Y-52863809D01*
X129383571Y-52863809D02*
X129431190Y-52768571D01*
X129431190Y-52768571D02*
X129478809Y-52720952D01*
X129478809Y-52720952D02*
X129574047Y-52673333D01*
X129574047Y-52673333D02*
X129812142Y-52673333D01*
X129812142Y-52673333D02*
X129907380Y-52720952D01*
X129907380Y-52720952D02*
X129955000Y-52768571D01*
X129955000Y-52768571D02*
X130002619Y-52863809D01*
X130002619Y-52863809D02*
X130002619Y-53101904D01*
X130002619Y-53101904D02*
X129955000Y-53197142D01*
X129955000Y-53197142D02*
X129907380Y-53244761D01*
X50396964Y-48831428D02*
X51004107Y-48831428D01*
X51004107Y-48831428D02*
X51075535Y-48795714D01*
X51075535Y-48795714D02*
X51111250Y-48760000D01*
X51111250Y-48760000D02*
X51146964Y-48688571D01*
X51146964Y-48688571D02*
X51146964Y-48545714D01*
X51146964Y-48545714D02*
X51111250Y-48474285D01*
X51111250Y-48474285D02*
X51075535Y-48438571D01*
X51075535Y-48438571D02*
X51004107Y-48402857D01*
X51004107Y-48402857D02*
X50396964Y-48402857D01*
X50396964Y-47688571D02*
X50396964Y-48045714D01*
X50396964Y-48045714D02*
X50754107Y-48081428D01*
X50754107Y-48081428D02*
X50718392Y-48045714D01*
X50718392Y-48045714D02*
X50682678Y-47974286D01*
X50682678Y-47974286D02*
X50682678Y-47795714D01*
X50682678Y-47795714D02*
X50718392Y-47724286D01*
X50718392Y-47724286D02*
X50754107Y-47688571D01*
X50754107Y-47688571D02*
X50825535Y-47652857D01*
X50825535Y-47652857D02*
X51004107Y-47652857D01*
X51004107Y-47652857D02*
X51075535Y-47688571D01*
X51075535Y-47688571D02*
X51111250Y-47724286D01*
X51111250Y-47724286D02*
X51146964Y-47795714D01*
X51146964Y-47795714D02*
X51146964Y-47974286D01*
X51146964Y-47974286D02*
X51111250Y-48045714D01*
X51111250Y-48045714D02*
X51075535Y-48081428D01*
X50633333Y-94262619D02*
X50300000Y-93786428D01*
X50061905Y-94262619D02*
X50061905Y-93262619D01*
X50061905Y-93262619D02*
X50442857Y-93262619D01*
X50442857Y-93262619D02*
X50538095Y-93310238D01*
X50538095Y-93310238D02*
X50585714Y-93357857D01*
X50585714Y-93357857D02*
X50633333Y-93453095D01*
X50633333Y-93453095D02*
X50633333Y-93595952D01*
X50633333Y-93595952D02*
X50585714Y-93691190D01*
X50585714Y-93691190D02*
X50538095Y-93738809D01*
X50538095Y-93738809D02*
X50442857Y-93786428D01*
X50442857Y-93786428D02*
X50061905Y-93786428D01*
X50966667Y-93262619D02*
X51585714Y-93262619D01*
X51585714Y-93262619D02*
X51252381Y-93643571D01*
X51252381Y-93643571D02*
X51395238Y-93643571D01*
X51395238Y-93643571D02*
X51490476Y-93691190D01*
X51490476Y-93691190D02*
X51538095Y-93738809D01*
X51538095Y-93738809D02*
X51585714Y-93834047D01*
X51585714Y-93834047D02*
X51585714Y-94072142D01*
X51585714Y-94072142D02*
X51538095Y-94167380D01*
X51538095Y-94167380D02*
X51490476Y-94215000D01*
X51490476Y-94215000D02*
X51395238Y-94262619D01*
X51395238Y-94262619D02*
X51109524Y-94262619D01*
X51109524Y-94262619D02*
X51014286Y-94215000D01*
X51014286Y-94215000D02*
X50966667Y-94167380D01*
X50633333Y-79022619D02*
X50300000Y-78546428D01*
X50061905Y-79022619D02*
X50061905Y-78022619D01*
X50061905Y-78022619D02*
X50442857Y-78022619D01*
X50442857Y-78022619D02*
X50538095Y-78070238D01*
X50538095Y-78070238D02*
X50585714Y-78117857D01*
X50585714Y-78117857D02*
X50633333Y-78213095D01*
X50633333Y-78213095D02*
X50633333Y-78355952D01*
X50633333Y-78355952D02*
X50585714Y-78451190D01*
X50585714Y-78451190D02*
X50538095Y-78498809D01*
X50538095Y-78498809D02*
X50442857Y-78546428D01*
X50442857Y-78546428D02*
X50061905Y-78546428D01*
X51585714Y-79022619D02*
X51014286Y-79022619D01*
X51300000Y-79022619D02*
X51300000Y-78022619D01*
X51300000Y-78022619D02*
X51204762Y-78165476D01*
X51204762Y-78165476D02*
X51109524Y-78260714D01*
X51109524Y-78260714D02*
X51014286Y-78308333D01*
X53226666Y-34927619D02*
X53226666Y-35641904D01*
X53226666Y-35641904D02*
X53179047Y-35784761D01*
X53179047Y-35784761D02*
X53083809Y-35880000D01*
X53083809Y-35880000D02*
X52940952Y-35927619D01*
X52940952Y-35927619D02*
X52845714Y-35927619D01*
X53655238Y-35022857D02*
X53702857Y-34975238D01*
X53702857Y-34975238D02*
X53798095Y-34927619D01*
X53798095Y-34927619D02*
X54036190Y-34927619D01*
X54036190Y-34927619D02*
X54131428Y-34975238D01*
X54131428Y-34975238D02*
X54179047Y-35022857D01*
X54179047Y-35022857D02*
X54226666Y-35118095D01*
X54226666Y-35118095D02*
X54226666Y-35213333D01*
X54226666Y-35213333D02*
X54179047Y-35356190D01*
X54179047Y-35356190D02*
X53607619Y-35927619D01*
X53607619Y-35927619D02*
X54226666Y-35927619D01*
X165232619Y-137493333D02*
X165946904Y-137493333D01*
X165946904Y-137493333D02*
X166089761Y-137540952D01*
X166089761Y-137540952D02*
X166185000Y-137636190D01*
X166185000Y-137636190D02*
X166232619Y-137779047D01*
X166232619Y-137779047D02*
X166232619Y-137874285D01*
X165565952Y-136588571D02*
X166232619Y-136588571D01*
X165185000Y-136826666D02*
X165899285Y-137064761D01*
X165899285Y-137064761D02*
X165899285Y-136445714D01*
X34143333Y-44227380D02*
X34095714Y-44275000D01*
X34095714Y-44275000D02*
X33952857Y-44322619D01*
X33952857Y-44322619D02*
X33857619Y-44322619D01*
X33857619Y-44322619D02*
X33714762Y-44275000D01*
X33714762Y-44275000D02*
X33619524Y-44179761D01*
X33619524Y-44179761D02*
X33571905Y-44084523D01*
X33571905Y-44084523D02*
X33524286Y-43894047D01*
X33524286Y-43894047D02*
X33524286Y-43751190D01*
X33524286Y-43751190D02*
X33571905Y-43560714D01*
X33571905Y-43560714D02*
X33619524Y-43465476D01*
X33619524Y-43465476D02*
X33714762Y-43370238D01*
X33714762Y-43370238D02*
X33857619Y-43322619D01*
X33857619Y-43322619D02*
X33952857Y-43322619D01*
X33952857Y-43322619D02*
X34095714Y-43370238D01*
X34095714Y-43370238D02*
X34143333Y-43417857D01*
X35095714Y-44322619D02*
X34524286Y-44322619D01*
X34810000Y-44322619D02*
X34810000Y-43322619D01*
X34810000Y-43322619D02*
X34714762Y-43465476D01*
X34714762Y-43465476D02*
X34619524Y-43560714D01*
X34619524Y-43560714D02*
X34524286Y-43608333D01*
X97643333Y-44227380D02*
X97595714Y-44275000D01*
X97595714Y-44275000D02*
X97452857Y-44322619D01*
X97452857Y-44322619D02*
X97357619Y-44322619D01*
X97357619Y-44322619D02*
X97214762Y-44275000D01*
X97214762Y-44275000D02*
X97119524Y-44179761D01*
X97119524Y-44179761D02*
X97071905Y-44084523D01*
X97071905Y-44084523D02*
X97024286Y-43894047D01*
X97024286Y-43894047D02*
X97024286Y-43751190D01*
X97024286Y-43751190D02*
X97071905Y-43560714D01*
X97071905Y-43560714D02*
X97119524Y-43465476D01*
X97119524Y-43465476D02*
X97214762Y-43370238D01*
X97214762Y-43370238D02*
X97357619Y-43322619D01*
X97357619Y-43322619D02*
X97452857Y-43322619D01*
X97452857Y-43322619D02*
X97595714Y-43370238D01*
X97595714Y-43370238D02*
X97643333Y-43417857D01*
X98500476Y-43655952D02*
X98500476Y-44322619D01*
X98262381Y-43275000D02*
X98024286Y-43989285D01*
X98024286Y-43989285D02*
X98643333Y-43989285D01*
X36091905Y-109262619D02*
X36091905Y-108262619D01*
X36091905Y-108262619D02*
X36330000Y-108262619D01*
X36330000Y-108262619D02*
X36472857Y-108310238D01*
X36472857Y-108310238D02*
X36568095Y-108405476D01*
X36568095Y-108405476D02*
X36615714Y-108500714D01*
X36615714Y-108500714D02*
X36663333Y-108691190D01*
X36663333Y-108691190D02*
X36663333Y-108834047D01*
X36663333Y-108834047D02*
X36615714Y-109024523D01*
X36615714Y-109024523D02*
X36568095Y-109119761D01*
X36568095Y-109119761D02*
X36472857Y-109215000D01*
X36472857Y-109215000D02*
X36330000Y-109262619D01*
X36330000Y-109262619D02*
X36091905Y-109262619D01*
X36996667Y-108262619D02*
X37663333Y-108262619D01*
X37663333Y-108262619D02*
X37234762Y-109262619D01*
X126833333Y-28222619D02*
X126500000Y-27746428D01*
X126261905Y-28222619D02*
X126261905Y-27222619D01*
X126261905Y-27222619D02*
X126642857Y-27222619D01*
X126642857Y-27222619D02*
X126738095Y-27270238D01*
X126738095Y-27270238D02*
X126785714Y-27317857D01*
X126785714Y-27317857D02*
X126833333Y-27413095D01*
X126833333Y-27413095D02*
X126833333Y-27555952D01*
X126833333Y-27555952D02*
X126785714Y-27651190D01*
X126785714Y-27651190D02*
X126738095Y-27698809D01*
X126738095Y-27698809D02*
X126642857Y-27746428D01*
X126642857Y-27746428D02*
X126261905Y-27746428D01*
X127690476Y-27222619D02*
X127500000Y-27222619D01*
X127500000Y-27222619D02*
X127404762Y-27270238D01*
X127404762Y-27270238D02*
X127357143Y-27317857D01*
X127357143Y-27317857D02*
X127261905Y-27460714D01*
X127261905Y-27460714D02*
X127214286Y-27651190D01*
X127214286Y-27651190D02*
X127214286Y-28032142D01*
X127214286Y-28032142D02*
X127261905Y-28127380D01*
X127261905Y-28127380D02*
X127309524Y-28175000D01*
X127309524Y-28175000D02*
X127404762Y-28222619D01*
X127404762Y-28222619D02*
X127595238Y-28222619D01*
X127595238Y-28222619D02*
X127690476Y-28175000D01*
X127690476Y-28175000D02*
X127738095Y-28127380D01*
X127738095Y-28127380D02*
X127785714Y-28032142D01*
X127785714Y-28032142D02*
X127785714Y-27794047D01*
X127785714Y-27794047D02*
X127738095Y-27698809D01*
X127738095Y-27698809D02*
X127690476Y-27651190D01*
X127690476Y-27651190D02*
X127595238Y-27603571D01*
X127595238Y-27603571D02*
X127404762Y-27603571D01*
X127404762Y-27603571D02*
X127309524Y-27651190D01*
X127309524Y-27651190D02*
X127261905Y-27698809D01*
X127261905Y-27698809D02*
X127214286Y-27794047D01*
X103378095Y-115032619D02*
X103378095Y-115842142D01*
X103378095Y-115842142D02*
X103425714Y-115937380D01*
X103425714Y-115937380D02*
X103473333Y-115985000D01*
X103473333Y-115985000D02*
X103568571Y-116032619D01*
X103568571Y-116032619D02*
X103759047Y-116032619D01*
X103759047Y-116032619D02*
X103854285Y-115985000D01*
X103854285Y-115985000D02*
X103901904Y-115937380D01*
X103901904Y-115937380D02*
X103949523Y-115842142D01*
X103949523Y-115842142D02*
X103949523Y-115032619D01*
X104330476Y-115032619D02*
X104949523Y-115032619D01*
X104949523Y-115032619D02*
X104616190Y-115413571D01*
X104616190Y-115413571D02*
X104759047Y-115413571D01*
X104759047Y-115413571D02*
X104854285Y-115461190D01*
X104854285Y-115461190D02*
X104901904Y-115508809D01*
X104901904Y-115508809D02*
X104949523Y-115604047D01*
X104949523Y-115604047D02*
X104949523Y-115842142D01*
X104949523Y-115842142D02*
X104901904Y-115937380D01*
X104901904Y-115937380D02*
X104854285Y-115985000D01*
X104854285Y-115985000D02*
X104759047Y-116032619D01*
X104759047Y-116032619D02*
X104473333Y-116032619D01*
X104473333Y-116032619D02*
X104378095Y-115985000D01*
X104378095Y-115985000D02*
X104330476Y-115937380D01*
X152908095Y-140652619D02*
X152908095Y-141462142D01*
X152908095Y-141462142D02*
X152955714Y-141557380D01*
X152955714Y-141557380D02*
X153003333Y-141605000D01*
X153003333Y-141605000D02*
X153098571Y-141652619D01*
X153098571Y-141652619D02*
X153289047Y-141652619D01*
X153289047Y-141652619D02*
X153384285Y-141605000D01*
X153384285Y-141605000D02*
X153431904Y-141557380D01*
X153431904Y-141557380D02*
X153479523Y-141462142D01*
X153479523Y-141462142D02*
X153479523Y-140652619D01*
X154384285Y-140985952D02*
X154384285Y-141652619D01*
X154146190Y-140605000D02*
X153908095Y-141319285D01*
X153908095Y-141319285D02*
X154527142Y-141319285D01*
G36*
X168209779Y-54488671D02*
G01*
X168217751Y-54627144D01*
X168337263Y-54627144D01*
X168416346Y-54635232D01*
X168447356Y-54654441D01*
X168431543Y-54677188D01*
X168370160Y-54695892D01*
X168325042Y-54701195D01*
X168214995Y-54709305D01*
X168214995Y-54940131D01*
X168218944Y-55083742D01*
X168233508Y-55180263D01*
X168262761Y-55234947D01*
X168310777Y-55253049D01*
X168381628Y-55239822D01*
X168432596Y-55220773D01*
X168472230Y-55213112D01*
X168477956Y-55230572D01*
X168454251Y-55262086D01*
X168405590Y-55296589D01*
X168400936Y-55299053D01*
X168280009Y-55334450D01*
X168154540Y-55325057D01*
X168119754Y-55313453D01*
X168079270Y-55289558D01*
X168052275Y-55250413D01*
X168036395Y-55186617D01*
X168029255Y-55088772D01*
X168028440Y-54951932D01*
X168030661Y-54709637D01*
X167944790Y-54701206D01*
X167858920Y-54692775D01*
X167970662Y-54633229D01*
X168085908Y-54542797D01*
X168142106Y-54461940D01*
X168201807Y-54350197D01*
X168209779Y-54488671D01*
G37*
G36*
X167633649Y-54652746D02*
G01*
X167710064Y-54691787D01*
X167755047Y-54747101D01*
X167761171Y-54797133D01*
X167736524Y-54848883D01*
X167691069Y-54860680D01*
X167636525Y-54834100D01*
X167586285Y-54773598D01*
X167531297Y-54702591D01*
X167477888Y-54682628D01*
X167421718Y-54712334D01*
X167414569Y-54719189D01*
X167369760Y-54793540D01*
X167351547Y-54889938D01*
X167356924Y-54995725D01*
X167382886Y-55098239D01*
X167426431Y-55184822D01*
X167484553Y-55242811D01*
X167542944Y-55260166D01*
X167628363Y-55236379D01*
X167695874Y-55175116D01*
X167714462Y-55139871D01*
X167741935Y-55091703D01*
X167765951Y-55075535D01*
X167791653Y-55093072D01*
X167784277Y-55138849D01*
X167746815Y-55202614D01*
X167718880Y-55236763D01*
X167622721Y-55307601D01*
X167506504Y-55337576D01*
X167385390Y-55325098D01*
X167292222Y-55281507D01*
X167196242Y-55194492D01*
X167145933Y-55089594D01*
X167134070Y-54983219D01*
X167158211Y-54852281D01*
X167227414Y-54743524D01*
X167332022Y-54668182D01*
X167433007Y-54637452D01*
X167537423Y-54633471D01*
X167633649Y-54652746D01*
G37*
G36*
X157567712Y-54644929D02*
G01*
X157686982Y-54702479D01*
X157780251Y-54802259D01*
X157804538Y-54844901D01*
X157834883Y-54923732D01*
X157835220Y-54996042D01*
X157824740Y-55042274D01*
X157771551Y-55152195D01*
X157681024Y-55251149D01*
X157593831Y-55309695D01*
X157504597Y-55333774D01*
X157392864Y-55334689D01*
X157283245Y-55313010D01*
X157253568Y-55301803D01*
X157145388Y-55229236D01*
X157079498Y-55125791D01*
X157059319Y-55006729D01*
X157274696Y-55006729D01*
X157294028Y-55114994D01*
X157332731Y-55201416D01*
X157385585Y-55259240D01*
X157447373Y-55281708D01*
X157512875Y-55262062D01*
X157548446Y-55231021D01*
X157584103Y-55159646D01*
X157600775Y-55058114D01*
X157598677Y-54945397D01*
X157578027Y-54840471D01*
X157543144Y-54767552D01*
X157474159Y-54702509D01*
X157406852Y-54687340D01*
X157347340Y-54719353D01*
X157301738Y-54795858D01*
X157279953Y-54883378D01*
X157274696Y-55006729D01*
X157059319Y-55006729D01*
X157058084Y-54999444D01*
X157078392Y-54861644D01*
X157139952Y-54756327D01*
X157244092Y-54681497D01*
X157279733Y-54666241D01*
X157429583Y-54632039D01*
X157567712Y-54644929D01*
G37*
G36*
X169093985Y-54644929D02*
G01*
X169213254Y-54702479D01*
X169306524Y-54802259D01*
X169330810Y-54844901D01*
X169361155Y-54923732D01*
X169361492Y-54996042D01*
X169351013Y-55042274D01*
X169297823Y-55152195D01*
X169207296Y-55251149D01*
X169120103Y-55309695D01*
X169030869Y-55333774D01*
X168919136Y-55334689D01*
X168809517Y-55313010D01*
X168779840Y-55301803D01*
X168671660Y-55229236D01*
X168605770Y-55125791D01*
X168585591Y-55006729D01*
X168800968Y-55006729D01*
X168820300Y-55114994D01*
X168859003Y-55201416D01*
X168911857Y-55259240D01*
X168973645Y-55281708D01*
X169039147Y-55262062D01*
X169074718Y-55231021D01*
X169110375Y-55159646D01*
X169127047Y-55058114D01*
X169124949Y-54945397D01*
X169104299Y-54840471D01*
X169069416Y-54767552D01*
X169000431Y-54702509D01*
X168933124Y-54687340D01*
X168873612Y-54719353D01*
X168828010Y-54795858D01*
X168806225Y-54883378D01*
X168800968Y-55006729D01*
X168585591Y-55006729D01*
X168584356Y-54999444D01*
X168604664Y-54861644D01*
X168666224Y-54756327D01*
X168770364Y-54681497D01*
X168806005Y-54666241D01*
X168955855Y-54632039D01*
X169093985Y-54644929D01*
G37*
G36*
X162367346Y-54648318D02*
G01*
X162466114Y-54705127D01*
X162537453Y-54787502D01*
X162569771Y-54885375D01*
X162570550Y-54903164D01*
X162568798Y-54934643D01*
X162556822Y-54954268D01*
X162524538Y-54964840D01*
X162461864Y-54969158D01*
X162358720Y-54970026D01*
X162329870Y-54970031D01*
X162089190Y-54970031D01*
X162105647Y-55055753D01*
X162141081Y-55140145D01*
X162203946Y-55211399D01*
X162278522Y-55254164D01*
X162314856Y-55260068D01*
X162375623Y-55246491D01*
X162448846Y-55213332D01*
X162459090Y-55207316D01*
X162527595Y-55167890D01*
X162558744Y-55158222D01*
X162558579Y-55178081D01*
X162546014Y-55203976D01*
X162487425Y-55264000D01*
X162393893Y-55308344D01*
X162281891Y-55333124D01*
X162167893Y-55334458D01*
X162080445Y-55313740D01*
X161988619Y-55250470D01*
X161920497Y-55152859D01*
X161886664Y-55037659D01*
X161884777Y-55004091D01*
X161904963Y-54886093D01*
X162112080Y-54886093D01*
X162125677Y-54908902D01*
X162169661Y-54916517D01*
X162233059Y-54917279D01*
X162319463Y-54911614D01*
X162365404Y-54892346D01*
X162377968Y-54873579D01*
X162377113Y-54814090D01*
X162346406Y-54747400D01*
X162299029Y-54696817D01*
X162270952Y-54684365D01*
X162208281Y-54696407D01*
X162153246Y-54747508D01*
X162119172Y-54824281D01*
X162116300Y-54839742D01*
X162112080Y-54886093D01*
X161904963Y-54886093D01*
X161908130Y-54867579D01*
X161973048Y-54754652D01*
X162071815Y-54673212D01*
X162196717Y-54631164D01*
X162252741Y-54627144D01*
X162367346Y-54648318D01*
G37*
G36*
X156934779Y-54646622D02*
G01*
X156982289Y-54694972D01*
X156998741Y-54757073D01*
X156978511Y-54817800D01*
X156944235Y-54848646D01*
X156902232Y-54861669D01*
X156862904Y-54835817D01*
X156847406Y-54818017D01*
X156807369Y-54763443D01*
X156786281Y-54725701D01*
X156765608Y-54711379D01*
X156724855Y-54740120D01*
X156700743Y-54771548D01*
X156685838Y-54817678D01*
X156678127Y-54890352D01*
X156675596Y-55001415D01*
X156675535Y-55030255D01*
X156676266Y-55144576D01*
X156680090Y-55216518D01*
X156689453Y-55256447D01*
X156706801Y-55274732D01*
X156734581Y-55281740D01*
X156734880Y-55281783D01*
X156781259Y-55297644D01*
X156794226Y-55314753D01*
X156769876Y-55325842D01*
X156704896Y-55334324D01*
X156611393Y-55338872D01*
X156570031Y-55339294D01*
X156468720Y-55336763D01*
X156391236Y-55330010D01*
X156349686Y-55320292D01*
X156345836Y-55315994D01*
X156367786Y-55291368D01*
X156398588Y-55278900D01*
X156422032Y-55268751D01*
X156437294Y-55246531D01*
X156446108Y-55202524D01*
X156450206Y-55127013D01*
X156451321Y-55010284D01*
X156451339Y-54983219D01*
X156450587Y-54857743D01*
X156447176Y-54775295D01*
X156439372Y-54726159D01*
X156425441Y-54700619D01*
X156403651Y-54688959D01*
X156398588Y-54687539D01*
X156350692Y-54667722D01*
X156350428Y-54648873D01*
X156392729Y-54634306D01*
X156472526Y-54627336D01*
X156490903Y-54627144D01*
X156574737Y-54629434D01*
X156618410Y-54639334D01*
X156634423Y-54661390D01*
X156635971Y-54679896D01*
X156642536Y-54722813D01*
X156651592Y-54732648D01*
X156681099Y-54717931D01*
X156731240Y-54682273D01*
X156734277Y-54679896D01*
X156800751Y-54642091D01*
X156861839Y-54627144D01*
X156934779Y-54646622D01*
G37*
G36*
X161735195Y-54646622D02*
G01*
X161782704Y-54694972D01*
X161799156Y-54757073D01*
X161778926Y-54817800D01*
X161744651Y-54848646D01*
X161702647Y-54861669D01*
X161663320Y-54835817D01*
X161647821Y-54818017D01*
X161607784Y-54763443D01*
X161586696Y-54725701D01*
X161566023Y-54711379D01*
X161525270Y-54740120D01*
X161501159Y-54771548D01*
X161486254Y-54817678D01*
X161478543Y-54890352D01*
X161476012Y-55001415D01*
X161475950Y-55030255D01*
X161476681Y-55144576D01*
X161480505Y-55216518D01*
X161489868Y-55256447D01*
X161507217Y-55274732D01*
X161534997Y-55281740D01*
X161535296Y-55281783D01*
X161581675Y-55297644D01*
X161594642Y-55314753D01*
X161570291Y-55325842D01*
X161505311Y-55334324D01*
X161411808Y-55338872D01*
X161370446Y-55339294D01*
X161269136Y-55336763D01*
X161191652Y-55330010D01*
X161150101Y-55320292D01*
X161146251Y-55315994D01*
X161168202Y-55291368D01*
X161199003Y-55278900D01*
X161222448Y-55268751D01*
X161237710Y-55246531D01*
X161246523Y-55202524D01*
X161250621Y-55127013D01*
X161251737Y-55010284D01*
X161251755Y-54983219D01*
X161251003Y-54857743D01*
X161247591Y-54775295D01*
X161239787Y-54726159D01*
X161225857Y-54700619D01*
X161204067Y-54688959D01*
X161199003Y-54687539D01*
X161151107Y-54667722D01*
X161150844Y-54648873D01*
X161193144Y-54634306D01*
X161272941Y-54627336D01*
X161291319Y-54627144D01*
X161375153Y-54629434D01*
X161418826Y-54639334D01*
X161434839Y-54661390D01*
X161436386Y-54679896D01*
X161442952Y-54722813D01*
X161452008Y-54732648D01*
X161481515Y-54717931D01*
X161531656Y-54682273D01*
X161534692Y-54679896D01*
X161601166Y-54642091D01*
X161662254Y-54627144D01*
X161735195Y-54646622D01*
G37*
G36*
X170043606Y-54646622D02*
G01*
X170091115Y-54694972D01*
X170107567Y-54757073D01*
X170087337Y-54817800D01*
X170053062Y-54848646D01*
X170011059Y-54861669D01*
X169971731Y-54835817D01*
X169956232Y-54818017D01*
X169916195Y-54763443D01*
X169895108Y-54725701D01*
X169874434Y-54711379D01*
X169833681Y-54740120D01*
X169809570Y-54771548D01*
X169794665Y-54817678D01*
X169786954Y-54890352D01*
X169784423Y-55001415D01*
X169784361Y-55030255D01*
X169785092Y-55144576D01*
X169788916Y-55216518D01*
X169798279Y-55256447D01*
X169815628Y-55274732D01*
X169843408Y-55281740D01*
X169843707Y-55281783D01*
X169890086Y-55297644D01*
X169903053Y-55314753D01*
X169878702Y-55325842D01*
X169813722Y-55334324D01*
X169720220Y-55338872D01*
X169678858Y-55339294D01*
X169577547Y-55336763D01*
X169500063Y-55330010D01*
X169458513Y-55320292D01*
X169454662Y-55315994D01*
X169476613Y-55291368D01*
X169507414Y-55278900D01*
X169530859Y-55268751D01*
X169546121Y-55246531D01*
X169554934Y-55202524D01*
X169559032Y-55127013D01*
X169560148Y-55010284D01*
X169560166Y-54983219D01*
X169559414Y-54857743D01*
X169556003Y-54775295D01*
X169548198Y-54726159D01*
X169534268Y-54700619D01*
X169512478Y-54688959D01*
X169507414Y-54687539D01*
X169459519Y-54667722D01*
X169459255Y-54648873D01*
X169501556Y-54634306D01*
X169581352Y-54627336D01*
X169599730Y-54627144D01*
X169683564Y-54629434D01*
X169727237Y-54639334D01*
X169743250Y-54661390D01*
X169744797Y-54679896D01*
X169751363Y-54722813D01*
X169760419Y-54732648D01*
X169789926Y-54717931D01*
X169840067Y-54682273D01*
X169843104Y-54679896D01*
X169909577Y-54642091D01*
X169970666Y-54627144D01*
X170043606Y-54646622D01*
G37*
G36*
X154164780Y-29526845D02*
G01*
X154200885Y-29549495D01*
X154263906Y-29602225D01*
X154346130Y-29677321D01*
X154439844Y-29767068D01*
X154537336Y-29863753D01*
X154630894Y-29959660D01*
X154712805Y-30047077D01*
X154775358Y-30118289D01*
X154810840Y-30165582D01*
X154816033Y-30178256D01*
X154819629Y-30191245D01*
X154833964Y-30197720D01*
X154864355Y-30196318D01*
X154916119Y-30185676D01*
X154994576Y-30164432D01*
X155105043Y-30131221D01*
X155252837Y-30084681D01*
X155443278Y-30023448D01*
X155531803Y-29994790D01*
X155790656Y-29912468D01*
X156003038Y-29848513D01*
X156171682Y-29802280D01*
X156299324Y-29773123D01*
X156388697Y-29760398D01*
X156442536Y-29763459D01*
X156461112Y-29775512D01*
X156449363Y-29802453D01*
X156404230Y-29851037D01*
X156334852Y-29911691D01*
X156319403Y-29924010D01*
X156197305Y-30027088D01*
X156052454Y-30160771D01*
X155895181Y-30314574D01*
X155735816Y-30478013D01*
X155584689Y-30640604D01*
X155452132Y-30791863D01*
X155391419Y-30865756D01*
X155166674Y-31131850D01*
X154947719Y-31359747D01*
X154740107Y-31543680D01*
X154733811Y-31548697D01*
X154640920Y-31615270D01*
X154533157Y-31681626D01*
X154423723Y-31740809D01*
X154325822Y-31785863D01*
X154252653Y-31809831D01*
X154234178Y-31811963D01*
X154201771Y-31793967D01*
X154140801Y-31744508D01*
X154059002Y-31670403D01*
X153964106Y-31578471D01*
X153927545Y-31541630D01*
X153736092Y-31335002D01*
X153589732Y-31150517D01*
X153486836Y-30985833D01*
X153425772Y-30838611D01*
X153418446Y-30811100D01*
X153402314Y-30722453D01*
X153404059Y-30644218D01*
X153424877Y-30549415D01*
X153431005Y-30527589D01*
X153507633Y-30321040D01*
X153621890Y-30109515D01*
X153777315Y-29887279D01*
X153963658Y-29663994D01*
X154037098Y-29585139D01*
X154088655Y-29540870D01*
X154128761Y-29524076D01*
X154164780Y-29526845D01*
G37*
G36*
X160390715Y-54235933D02*
G01*
X160552424Y-54249308D01*
X160663765Y-54271221D01*
X160803454Y-54338054D01*
X160913996Y-54440987D01*
X160992041Y-54570102D01*
X161034238Y-54715485D01*
X161037238Y-54867220D01*
X160997690Y-55015391D01*
X160946185Y-55107080D01*
X160889381Y-55179911D01*
X160830068Y-55234905D01*
X160759771Y-55274703D01*
X160670012Y-55301945D01*
X160552317Y-55319274D01*
X160398208Y-55329330D01*
X160216500Y-55334437D01*
X160030932Y-55336432D01*
X159896609Y-55334395D01*
X159812170Y-55328266D01*
X159776260Y-55317982D01*
X159774704Y-55314655D01*
X159797161Y-55293141D01*
X159837414Y-55286542D01*
X159898141Y-55273294D01*
X159928130Y-55252797D01*
X159941307Y-55212310D01*
X159953725Y-55130802D01*
X159964720Y-55020008D01*
X159971152Y-54927322D01*
X160226885Y-54927322D01*
X160226897Y-55050715D01*
X160229666Y-55136782D01*
X160235783Y-55193224D01*
X160245841Y-55227743D01*
X160260432Y-55248039D01*
X160267049Y-55253450D01*
X160348595Y-55283259D01*
X160449411Y-55277388D01*
X160551447Y-55237440D01*
X160568675Y-55226671D01*
X160663848Y-55138747D01*
X160722873Y-55023024D01*
X160748773Y-54872588D01*
X160750571Y-54810771D01*
X160732572Y-54636393D01*
X160680565Y-54493928D01*
X160597672Y-54387485D01*
X160487016Y-54321174D01*
X160361880Y-54299123D01*
X160236282Y-54297446D01*
X160229038Y-54758902D01*
X160226885Y-54927322D01*
X159971152Y-54927322D01*
X159973627Y-54891658D01*
X159979782Y-54757484D01*
X159982519Y-54629219D01*
X159981174Y-54518595D01*
X159975083Y-54437344D01*
X159974544Y-54433607D01*
X159957692Y-54354531D01*
X159931969Y-54313009D01*
X159891794Y-54294687D01*
X159834562Y-54275191D01*
X159828142Y-54258774D01*
X159870661Y-54245847D01*
X159960248Y-54236822D01*
X160095029Y-54232113D01*
X160178743Y-54231506D01*
X160390715Y-54235933D01*
G37*
G36*
X163091509Y-54633271D02*
G01*
X163185585Y-54658357D01*
X163204882Y-54667386D01*
X163243111Y-54689376D01*
X163266202Y-54715083D01*
X163277999Y-54757153D01*
X163282346Y-54828229D01*
X163283060Y-54924551D01*
X163285779Y-55067760D01*
X163294554Y-55165635D01*
X163311151Y-55225419D01*
X163337337Y-55254352D01*
X163364904Y-55260166D01*
X163406075Y-55271115D01*
X163414579Y-55284926D01*
X163391198Y-55306871D01*
X163332653Y-55322707D01*
X163256343Y-55330786D01*
X163179669Y-55329461D01*
X163120029Y-55317084D01*
X163112419Y-55313540D01*
X163046611Y-55294834D01*
X162997596Y-55310226D01*
X162909701Y-55336515D01*
X162820107Y-55331225D01*
X162750921Y-55296041D01*
X162746081Y-55291059D01*
X162711654Y-55223006D01*
X162705006Y-55143566D01*
X162885720Y-55143566D01*
X162903071Y-55218445D01*
X162938976Y-55254821D01*
X162992377Y-55253119D01*
X163046308Y-55215201D01*
X163057009Y-55201546D01*
X163078494Y-55151412D01*
X163093090Y-55082584D01*
X163099093Y-55013079D01*
X163094800Y-54960913D01*
X163081400Y-54943655D01*
X163050283Y-54956323D01*
X162993601Y-54987816D01*
X162975896Y-54998558D01*
X162905856Y-55063496D01*
X162885720Y-55143566D01*
X162705006Y-55143566D01*
X162704804Y-55141152D01*
X162725648Y-55069253D01*
X162744881Y-55045795D01*
X162791909Y-55014053D01*
X162866877Y-54971579D01*
X162921204Y-54943655D01*
X163027693Y-54882218D01*
X163084841Y-54825695D01*
X163095384Y-54770606D01*
X163082052Y-54739242D01*
X163028582Y-54690809D01*
X162968769Y-54689819D01*
X162917195Y-54735296D01*
X162908669Y-54750881D01*
X162864388Y-54805840D01*
X162810047Y-54827921D01*
X162761353Y-54815854D01*
X162734014Y-54768366D01*
X162733493Y-54765069D01*
X162749508Y-54712826D01*
X162805498Y-54671001D01*
X162889283Y-54642117D01*
X162988681Y-54628699D01*
X163091509Y-54633271D01*
G37*
G36*
X166705008Y-54633271D02*
G01*
X166799085Y-54658357D01*
X166818381Y-54667386D01*
X166856610Y-54689376D01*
X166879701Y-54715083D01*
X166891498Y-54757153D01*
X166895845Y-54828229D01*
X166896559Y-54924551D01*
X166899278Y-55067760D01*
X166908053Y-55165635D01*
X166924650Y-55225419D01*
X166950836Y-55254352D01*
X166978403Y-55260166D01*
X167019575Y-55271115D01*
X167028079Y-55284926D01*
X167004697Y-55306871D01*
X166946152Y-55322707D01*
X166869843Y-55330786D01*
X166793169Y-55329461D01*
X166733529Y-55317084D01*
X166725919Y-55313540D01*
X166660110Y-55294834D01*
X166611095Y-55310226D01*
X166523201Y-55336515D01*
X166433607Y-55331225D01*
X166364421Y-55296041D01*
X166359581Y-55291059D01*
X166325154Y-55223006D01*
X166318506Y-55143566D01*
X166499220Y-55143566D01*
X166516570Y-55218445D01*
X166552476Y-55254821D01*
X166605877Y-55253119D01*
X166659808Y-55215201D01*
X166670508Y-55201546D01*
X166691993Y-55151412D01*
X166706589Y-55082584D01*
X166712593Y-55013079D01*
X166708299Y-54960913D01*
X166694899Y-54943655D01*
X166663782Y-54956323D01*
X166607100Y-54987816D01*
X166589395Y-54998558D01*
X166519356Y-55063496D01*
X166499220Y-55143566D01*
X166318506Y-55143566D01*
X166318304Y-55141152D01*
X166339148Y-55069253D01*
X166358381Y-55045795D01*
X166405408Y-55014053D01*
X166480377Y-54971579D01*
X166534704Y-54943655D01*
X166641193Y-54882218D01*
X166698340Y-54825695D01*
X166708884Y-54770606D01*
X166695551Y-54739242D01*
X166642082Y-54690809D01*
X166582269Y-54689819D01*
X166530695Y-54735296D01*
X166522169Y-54750881D01*
X166477887Y-54805840D01*
X166423546Y-54827921D01*
X166374853Y-54815854D01*
X166347513Y-54768366D01*
X166346993Y-54765069D01*
X166363007Y-54712826D01*
X166418998Y-54671001D01*
X166502783Y-54642117D01*
X166602180Y-54628699D01*
X166705008Y-54633271D01*
G37*
G36*
X170883311Y-54629333D02*
G01*
X170940656Y-54635023D01*
X170958089Y-54641598D01*
X170940455Y-54667268D01*
X170897566Y-54710208D01*
X170893220Y-54714131D01*
X170852486Y-54770017D01*
X170800212Y-54873828D01*
X170737897Y-55022374D01*
X170692691Y-55141475D01*
X170640053Y-55281255D01*
X170588592Y-55411724D01*
X170543243Y-55520786D01*
X170508939Y-55596343D01*
X170500678Y-55612233D01*
X170431658Y-55702826D01*
X170348599Y-55762175D01*
X170262384Y-55787047D01*
X170183895Y-55774212D01*
X170125981Y-55723513D01*
X170099027Y-55663439D01*
X170110619Y-55609625D01*
X170113113Y-55604822D01*
X170160544Y-55558572D01*
X170219769Y-55557826D01*
X170277443Y-55601710D01*
X170287929Y-55616241D01*
X170325468Y-55663260D01*
X170353526Y-55682181D01*
X170385651Y-55660502D01*
X170427399Y-55606612D01*
X170468680Y-55537230D01*
X170499405Y-55469075D01*
X170509699Y-55423379D01*
X170498925Y-55369536D01*
X170469951Y-55282597D01*
X170427800Y-55173934D01*
X170377493Y-55054914D01*
X170324051Y-54936908D01*
X170272497Y-54831284D01*
X170227853Y-54749413D01*
X170195139Y-54702664D01*
X170189140Y-54697623D01*
X170149778Y-54666900D01*
X170150005Y-54646107D01*
X170193449Y-54633743D01*
X170283738Y-54628305D01*
X170358037Y-54627731D01*
X170463827Y-54628499D01*
X170524440Y-54631625D01*
X170547453Y-54639401D01*
X170540441Y-54654117D01*
X170514788Y-54675137D01*
X170453937Y-54721957D01*
X170519249Y-54901888D01*
X170554801Y-54993997D01*
X170586884Y-55067030D01*
X170608921Y-55106098D01*
X170609927Y-55107186D01*
X170632202Y-55099344D01*
X170662769Y-55042840D01*
X170691188Y-54967043D01*
X170728354Y-54847074D01*
X170743620Y-54766809D01*
X170737079Y-54718002D01*
X170708824Y-54692407D01*
X170694330Y-54687539D01*
X170646115Y-54667913D01*
X170645678Y-54649498D01*
X170688073Y-54635126D01*
X170768349Y-54627629D01*
X170799834Y-54627144D01*
X170883311Y-54629333D01*
G37*
G36*
X156329351Y-54313931D02*
G01*
X156341544Y-54397472D01*
X156345836Y-54465008D01*
X156344117Y-54504062D01*
X156333124Y-54510906D01*
X156304104Y-54482385D01*
X156265317Y-54435977D01*
X156155835Y-54342476D01*
X156019733Y-54293911D01*
X155884257Y-54288764D01*
X155778754Y-54297446D01*
X155771093Y-54515047D01*
X155768180Y-54621800D01*
X155770235Y-54686397D01*
X155779575Y-54719370D01*
X155798517Y-54731247D01*
X155818985Y-54732648D01*
X155916285Y-54708724D01*
X155990065Y-54638294D01*
X156014373Y-54593039D01*
X156031594Y-54556687D01*
X156042567Y-54547182D01*
X156048838Y-54570876D01*
X156051951Y-54634120D01*
X156053454Y-54743266D01*
X156053549Y-54753987D01*
X156052021Y-54877385D01*
X156045104Y-54955061D01*
X156033118Y-54983986D01*
X156029325Y-54983219D01*
X156005056Y-54945057D01*
X156002949Y-54928911D01*
X155980449Y-54872518D01*
X155925775Y-54820429D01*
X155858170Y-54788750D01*
X155831505Y-54785400D01*
X155799273Y-54787532D01*
X155779745Y-54800972D01*
X155769741Y-54836290D01*
X155766075Y-54904053D01*
X155765566Y-55004320D01*
X155769202Y-55131791D01*
X155782571Y-55215253D01*
X155809359Y-55263103D01*
X155853254Y-55283735D01*
X155889532Y-55286542D01*
X155936518Y-55296281D01*
X155950197Y-55312918D01*
X155924934Y-55324724D01*
X155853461Y-55333304D01*
X155742253Y-55338092D01*
X155653468Y-55338905D01*
X155526742Y-55338048D01*
X155446433Y-55335262D01*
X155406217Y-55329628D01*
X155399767Y-55320224D01*
X155420761Y-55306131D01*
X155422408Y-55305291D01*
X155464848Y-55266308D01*
X155495486Y-55195405D01*
X155515062Y-55087905D01*
X155524318Y-54939131D01*
X155523994Y-54744407D01*
X155522120Y-54675725D01*
X155514556Y-54520471D01*
X155501850Y-54410837D01*
X155481676Y-54339765D01*
X155451709Y-54300200D01*
X155409621Y-54285084D01*
X155393073Y-54284258D01*
X155351999Y-54272571D01*
X155343551Y-54257882D01*
X155369335Y-54247878D01*
X155444394Y-54240086D01*
X155565290Y-54234692D01*
X155728587Y-54231883D01*
X155828208Y-54231506D01*
X156312866Y-54231506D01*
X156329351Y-54313931D01*
G37*
G36*
X166299444Y-54313931D02*
G01*
X166311638Y-54397472D01*
X166315929Y-54465008D01*
X166314210Y-54504062D01*
X166303217Y-54510906D01*
X166274197Y-54482385D01*
X166235410Y-54435977D01*
X166125928Y-54342476D01*
X165989826Y-54293911D01*
X165854351Y-54288764D01*
X165748847Y-54297446D01*
X165741186Y-54515047D01*
X165738274Y-54621800D01*
X165740328Y-54686397D01*
X165749668Y-54719370D01*
X165768610Y-54731247D01*
X165789078Y-54732648D01*
X165886379Y-54708724D01*
X165960159Y-54638294D01*
X165984466Y-54593039D01*
X166001688Y-54556687D01*
X166012661Y-54547182D01*
X166018931Y-54570876D01*
X166022045Y-54634120D01*
X166023547Y-54743266D01*
X166023643Y-54753987D01*
X166022114Y-54877385D01*
X166015197Y-54955061D01*
X166003212Y-54983986D01*
X165999418Y-54983219D01*
X165975149Y-54945057D01*
X165973042Y-54928911D01*
X165950542Y-54872518D01*
X165895869Y-54820429D01*
X165828263Y-54788750D01*
X165801599Y-54785400D01*
X165769366Y-54787532D01*
X165749839Y-54800972D01*
X165739834Y-54836290D01*
X165736169Y-54904053D01*
X165735659Y-55004320D01*
X165739296Y-55131791D01*
X165752664Y-55215253D01*
X165779452Y-55263103D01*
X165823347Y-55283735D01*
X165859626Y-55286542D01*
X165906611Y-55296281D01*
X165920291Y-55312918D01*
X165895027Y-55324724D01*
X165823554Y-55333304D01*
X165712346Y-55338092D01*
X165623562Y-55338905D01*
X165496835Y-55338048D01*
X165416527Y-55335262D01*
X165376310Y-55329628D01*
X165369861Y-55320224D01*
X165390854Y-55306131D01*
X165392502Y-55305291D01*
X165434942Y-55266308D01*
X165465579Y-55195405D01*
X165485156Y-55087905D01*
X165494411Y-54939131D01*
X165494087Y-54744407D01*
X165492213Y-54675725D01*
X165484649Y-54520471D01*
X165471943Y-54410837D01*
X165451770Y-54339765D01*
X165421802Y-54300200D01*
X165379714Y-54285084D01*
X165363167Y-54284258D01*
X165322092Y-54272571D01*
X165313645Y-54257882D01*
X165339428Y-54247878D01*
X165414487Y-54240086D01*
X165535384Y-54234692D01*
X165698680Y-54231883D01*
X165798302Y-54231506D01*
X166282959Y-54231506D01*
X166299444Y-54313931D01*
G37*
G36*
X158589088Y-29462763D02*
G01*
X158784416Y-29520317D01*
X158940615Y-29574786D01*
X159070338Y-29633158D01*
X159186239Y-29702420D01*
X159300970Y-29789560D01*
X159427184Y-29901567D01*
X159488575Y-29959533D01*
X159636026Y-30110213D01*
X159740598Y-30240857D01*
X159805713Y-30356706D01*
X159834792Y-30463004D01*
X159836991Y-30493460D01*
X159832266Y-30560532D01*
X159811721Y-30624289D01*
X159771295Y-30688014D01*
X159706925Y-30754993D01*
X159614551Y-30828509D01*
X159490110Y-30911845D01*
X159329541Y-31008286D01*
X159128782Y-31121115D01*
X158922301Y-31233003D01*
X158755473Y-31322460D01*
X158594977Y-31408633D01*
X158449705Y-31486742D01*
X158328546Y-31552004D01*
X158240390Y-31599637D01*
X158210582Y-31615831D01*
X158057571Y-31699273D01*
X158487529Y-31883521D01*
X158917487Y-32067769D01*
X158950375Y-32197041D01*
X158967330Y-32277465D01*
X158973903Y-32338412D01*
X158972066Y-32356467D01*
X158942025Y-32378258D01*
X158868785Y-32410593D01*
X158760230Y-32450865D01*
X158624246Y-32496465D01*
X158468720Y-32544786D01*
X158301537Y-32593220D01*
X158130583Y-32639160D01*
X158073458Y-32653633D01*
X157729509Y-32733252D01*
X157363660Y-32805810D01*
X156971291Y-32871930D01*
X156547781Y-32932234D01*
X156088512Y-32987343D01*
X155588861Y-33037880D01*
X155044210Y-33084466D01*
X154657778Y-33113355D01*
X154565737Y-33114817D01*
X154450533Y-33109878D01*
X154364622Y-33102428D01*
X154191727Y-33069054D01*
X154063725Y-33010681D01*
X153977703Y-32924610D01*
X153930747Y-32808141D01*
X153919351Y-32689900D01*
X153922750Y-32614151D01*
X153936596Y-32550262D01*
X153966185Y-32494222D01*
X154016814Y-32442022D01*
X154093777Y-32389652D01*
X154202370Y-32333102D01*
X154347890Y-32268362D01*
X154535631Y-32191423D01*
X154624323Y-32156100D01*
X155181159Y-31923344D01*
X155702963Y-31680712D01*
X156186935Y-31429861D01*
X156630274Y-31172449D01*
X157030183Y-30910133D01*
X157383860Y-30644570D01*
X157688507Y-30377417D01*
X157777277Y-30289727D01*
X157929487Y-30134475D01*
X157757313Y-29959742D01*
X157663638Y-29871897D01*
X157575176Y-29801713D01*
X157504940Y-29759283D01*
X157492803Y-29754536D01*
X157409800Y-29710828D01*
X157364167Y-29651722D01*
X157363483Y-29587065D01*
X157363617Y-29586712D01*
X157393133Y-29543084D01*
X157449490Y-29505691D01*
X157539155Y-29472106D01*
X157668593Y-29439902D01*
X157842332Y-29406985D01*
X158181562Y-29348515D01*
X158589088Y-29462763D01*
G37*
G36*
X168542652Y-39131298D02*
G01*
X168529089Y-39177019D01*
X168498660Y-39245348D01*
X168449815Y-39338880D01*
X168381006Y-39460210D01*
X168290684Y-39611933D01*
X168177300Y-39796644D01*
X168039304Y-40016938D01*
X167875147Y-40275411D01*
X167683282Y-40574656D01*
X167653100Y-40621537D01*
X167412340Y-41016913D01*
X167177059Y-41445272D01*
X167053023Y-41689761D01*
X166878867Y-42036482D01*
X166689886Y-42400447D01*
X166494069Y-42766800D01*
X166299406Y-43120683D01*
X166113886Y-43447241D01*
X166038866Y-43575639D01*
X165963627Y-43704940D01*
X165890607Y-43833558D01*
X165828088Y-43946713D01*
X165784356Y-44029625D01*
X165783949Y-44030435D01*
X165729631Y-44127944D01*
X165669413Y-44220129D01*
X165631314Y-44269252D01*
X165568981Y-44324949D01*
X165481510Y-44384861D01*
X165385047Y-44439863D01*
X165295737Y-44480831D01*
X165229726Y-44498640D01*
X165225145Y-44498796D01*
X165187852Y-44483163D01*
X165121991Y-44441453D01*
X165039448Y-44381447D01*
X165005813Y-44355175D01*
X164818403Y-44187669D01*
X164680073Y-44021085D01*
X164587526Y-43850094D01*
X164537460Y-43669369D01*
X164527912Y-43583462D01*
X164515588Y-43393465D01*
X164742777Y-42924064D01*
X164834080Y-42731452D01*
X164904139Y-42573282D01*
X164957466Y-42437962D01*
X164998575Y-42313897D01*
X165031977Y-42189494D01*
X165037139Y-42167795D01*
X165075389Y-41992744D01*
X165114386Y-41793118D01*
X165153075Y-41576434D01*
X165190404Y-41350203D01*
X165225319Y-41121941D01*
X165256766Y-40899162D01*
X165283694Y-40689378D01*
X165305049Y-40500104D01*
X165319777Y-40338855D01*
X165326825Y-40213144D01*
X165325141Y-40130485D01*
X165323954Y-40121522D01*
X165320924Y-40039472D01*
X165345880Y-40002030D01*
X165399720Y-40008538D01*
X165445303Y-40032668D01*
X165678446Y-40184516D01*
X165872367Y-40327939D01*
X166037382Y-40472654D01*
X166183804Y-40628375D01*
X166321947Y-40804819D01*
X166426696Y-40957159D01*
X166492964Y-41055416D01*
X166549639Y-41134839D01*
X166590120Y-41186468D01*
X166606916Y-41201807D01*
X166636336Y-41182297D01*
X166696518Y-41126225D01*
X166784124Y-41037279D01*
X166895817Y-40919147D01*
X167028260Y-40775518D01*
X167178116Y-40610078D01*
X167342048Y-40426518D01*
X167516718Y-40228523D01*
X167698791Y-40019784D01*
X167884927Y-39803986D01*
X168071792Y-39584819D01*
X168097419Y-39554552D01*
X168200452Y-39433277D01*
X168298359Y-39318978D01*
X168383204Y-39220852D01*
X168447051Y-39148093D01*
X168472986Y-39119350D01*
X168559535Y-39025795D01*
X168542652Y-39131298D01*
G37*
G36*
X158201410Y-54629069D02*
G01*
X158249171Y-54637525D01*
X158268368Y-54656532D01*
X158271277Y-54679896D01*
X158279716Y-54724568D01*
X158308608Y-54724765D01*
X158352875Y-54690849D01*
X158432400Y-54647784D01*
X158529786Y-54633348D01*
X158621960Y-54648896D01*
X158664387Y-54672545D01*
X158707515Y-54703563D01*
X158743320Y-54708780D01*
X158794619Y-54688580D01*
X158821218Y-54675188D01*
X158937330Y-54634764D01*
X159043834Y-54632454D01*
X159128347Y-54668075D01*
X159141682Y-54679896D01*
X159167693Y-54713524D01*
X159183604Y-54759147D01*
X159191723Y-54829369D01*
X159194360Y-54936794D01*
X159194434Y-54967874D01*
X159196476Y-55106113D01*
X159203705Y-55199380D01*
X159217773Y-55255339D01*
X159240335Y-55281652D01*
X159263196Y-55286542D01*
X159296445Y-55301727D01*
X159299937Y-55312918D01*
X159275392Y-55326208D01*
X159208947Y-55335472D01*
X159111395Y-55339269D01*
X159102118Y-55339294D01*
X158997323Y-55335350D01*
X158929171Y-55324752D01*
X158902108Y-55309352D01*
X158920581Y-55291000D01*
X158957051Y-55278900D01*
X158981796Y-55267893D01*
X158997343Y-55243648D01*
X159005790Y-55195759D01*
X159009236Y-55113820D01*
X159009802Y-55017340D01*
X159006556Y-54880815D01*
X158995127Y-54789200D01*
X158972986Y-54734955D01*
X158937599Y-54710541D01*
X158905618Y-54707111D01*
X158837093Y-54724748D01*
X158789029Y-54778189D01*
X158757997Y-54873150D01*
X158743653Y-54977042D01*
X158737548Y-55126122D01*
X158751050Y-55226775D01*
X158784109Y-55278768D01*
X158811330Y-55286542D01*
X158846848Y-55300583D01*
X158851547Y-55312918D01*
X158827001Y-55326208D01*
X158760557Y-55335472D01*
X158663004Y-55339269D01*
X158653728Y-55339294D01*
X158544377Y-55335163D01*
X158476613Y-55323655D01*
X158453817Y-55306103D01*
X158479368Y-55283836D01*
X158495472Y-55277004D01*
X158514905Y-55258394D01*
X158526985Y-55214526D01*
X158533098Y-55136211D01*
X158534632Y-55017017D01*
X158532050Y-54878321D01*
X158522980Y-54785529D01*
X158504620Y-54731919D01*
X158474173Y-54710774D01*
X158428838Y-54715373D01*
X158411304Y-54720982D01*
X158345554Y-54767685D01*
X158301381Y-54855836D01*
X158277688Y-54988423D01*
X158272766Y-55097786D01*
X158274022Y-55190650D01*
X158282287Y-55243663D01*
X158301182Y-55269619D01*
X158324029Y-55278900D01*
X158373101Y-55298154D01*
X158373869Y-55315610D01*
X158330778Y-55329415D01*
X158248276Y-55337720D01*
X158178961Y-55339294D01*
X158079285Y-55336021D01*
X158009811Y-55327162D01*
X157981327Y-55314155D01*
X157981142Y-55312918D01*
X158002420Y-55289321D01*
X158019511Y-55286542D01*
X158053353Y-55260999D01*
X158074781Y-55184784D01*
X158083687Y-55058523D01*
X158081542Y-54917279D01*
X158075657Y-54814261D01*
X158065879Y-54751409D01*
X158048417Y-54716138D01*
X158019481Y-54695864D01*
X158014112Y-54693424D01*
X157963555Y-54664046D01*
X157964954Y-54643157D01*
X158018188Y-54630838D01*
X158113022Y-54627144D01*
X158201410Y-54629069D01*
G37*
G36*
X163713975Y-54629069D02*
G01*
X163761736Y-54637525D01*
X163780933Y-54656532D01*
X163783842Y-54679896D01*
X163792280Y-54724568D01*
X163821173Y-54724765D01*
X163865440Y-54690849D01*
X163944965Y-54647784D01*
X164042351Y-54633348D01*
X164134525Y-54648896D01*
X164176952Y-54672545D01*
X164220080Y-54703563D01*
X164255885Y-54708780D01*
X164307184Y-54688580D01*
X164333783Y-54675188D01*
X164449895Y-54634764D01*
X164556399Y-54632454D01*
X164640912Y-54668075D01*
X164654247Y-54679896D01*
X164680258Y-54713524D01*
X164696169Y-54759147D01*
X164704288Y-54829369D01*
X164706925Y-54936794D01*
X164706999Y-54967874D01*
X164709041Y-55106113D01*
X164716269Y-55199380D01*
X164730338Y-55255339D01*
X164752899Y-55281652D01*
X164775760Y-55286542D01*
X164809010Y-55301727D01*
X164812502Y-55312918D01*
X164787957Y-55326208D01*
X164721512Y-55335472D01*
X164623960Y-55339269D01*
X164614683Y-55339294D01*
X164509888Y-55335350D01*
X164441736Y-55324752D01*
X164414673Y-55309352D01*
X164433146Y-55291000D01*
X164469616Y-55278900D01*
X164494361Y-55267893D01*
X164509907Y-55243648D01*
X164518355Y-55195759D01*
X164521801Y-55113820D01*
X164522367Y-55017340D01*
X164519121Y-54880815D01*
X164507692Y-54789200D01*
X164485551Y-54734955D01*
X164450164Y-54710541D01*
X164418183Y-54707111D01*
X164349657Y-54724748D01*
X164301594Y-54778189D01*
X164270562Y-54873150D01*
X164256218Y-54977042D01*
X164250113Y-55126122D01*
X164263615Y-55226775D01*
X164296674Y-55278768D01*
X164323895Y-55286542D01*
X164359412Y-55300583D01*
X164364112Y-55312918D01*
X164339566Y-55326208D01*
X164273122Y-55335472D01*
X164175569Y-55339269D01*
X164166293Y-55339294D01*
X164056942Y-55335163D01*
X163989178Y-55323655D01*
X163966382Y-55306103D01*
X163991933Y-55283836D01*
X164008037Y-55277004D01*
X164027470Y-55258394D01*
X164039550Y-55214526D01*
X164045663Y-55136211D01*
X164047197Y-55017017D01*
X164044615Y-54878321D01*
X164035544Y-54785529D01*
X164017185Y-54731919D01*
X163986738Y-54710774D01*
X163941403Y-54715373D01*
X163923868Y-54720982D01*
X163858119Y-54767685D01*
X163813946Y-54855836D01*
X163790253Y-54988423D01*
X163785331Y-55097786D01*
X163786587Y-55190650D01*
X163794852Y-55243663D01*
X163813747Y-55269619D01*
X163836594Y-55278900D01*
X163885666Y-55298154D01*
X163886434Y-55315610D01*
X163843343Y-55329415D01*
X163760841Y-55337720D01*
X163691526Y-55339294D01*
X163591850Y-55336021D01*
X163522375Y-55327162D01*
X163493892Y-55314155D01*
X163493707Y-55312918D01*
X163514984Y-55289321D01*
X163532076Y-55286542D01*
X163565918Y-55260999D01*
X163587345Y-55184784D01*
X163596252Y-55058523D01*
X163594107Y-54917279D01*
X163588222Y-54814261D01*
X163578444Y-54751409D01*
X163560982Y-54716138D01*
X163532046Y-54695864D01*
X163526677Y-54693424D01*
X163476120Y-54664046D01*
X163477519Y-54643157D01*
X163530753Y-54630838D01*
X163625586Y-54627144D01*
X163713975Y-54629069D01*
G37*
G36*
X169300310Y-38576838D02*
G01*
X169575293Y-38621504D01*
X169815156Y-38694530D01*
X170017022Y-38794719D01*
X170178012Y-38920873D01*
X170295249Y-39071795D01*
X170317076Y-39112626D01*
X170353838Y-39194054D01*
X170375780Y-39266205D01*
X170386357Y-39347768D01*
X170389022Y-39457430D01*
X170388778Y-39500561D01*
X170386411Y-39586145D01*
X170379765Y-39667846D01*
X170366994Y-39751863D01*
X170346251Y-39844396D01*
X170315694Y-39951644D01*
X170273474Y-40079807D01*
X170217749Y-40235084D01*
X170146671Y-40423676D01*
X170058396Y-40651781D01*
X170007007Y-40783167D01*
X169912748Y-41026271D01*
X169829174Y-41248898D01*
X169754752Y-41457132D01*
X169687948Y-41657054D01*
X169627230Y-41854749D01*
X169571065Y-42056300D01*
X169517920Y-42267789D01*
X169466261Y-42495301D01*
X169414558Y-42744917D01*
X169361275Y-43022722D01*
X169304881Y-43334799D01*
X169243843Y-43687231D01*
X169180387Y-44063593D01*
X169113631Y-44466512D01*
X169055424Y-44826788D01*
X169004669Y-45153444D01*
X168960270Y-45455502D01*
X168921130Y-45741984D01*
X168886151Y-46021912D01*
X168854237Y-46304310D01*
X168824292Y-46598199D01*
X168795217Y-46912603D01*
X168765917Y-47256542D01*
X168735294Y-47639041D01*
X168717046Y-47874912D01*
X168695515Y-48137001D01*
X168673702Y-48353125D01*
X168649716Y-48530045D01*
X168621668Y-48674524D01*
X168587666Y-48793324D01*
X168545821Y-48893207D01*
X168494241Y-48980934D01*
X168431037Y-49063268D01*
X168364315Y-49136615D01*
X168191098Y-49279006D01*
X167979959Y-49384804D01*
X167731004Y-49453980D01*
X167444335Y-49486505D01*
X167133582Y-49483210D01*
X166994304Y-49469799D01*
X166881688Y-49445239D01*
X166769870Y-49403230D01*
X166729158Y-49384661D01*
X166537631Y-49269047D01*
X166345841Y-49103117D01*
X166155826Y-48889257D01*
X165969621Y-48629852D01*
X165789262Y-48327290D01*
X165727499Y-48210871D01*
X165642302Y-48037151D01*
X165555572Y-47845374D01*
X165470288Y-47643593D01*
X165389425Y-47439861D01*
X165315962Y-47242231D01*
X165252876Y-47058756D01*
X165203144Y-46897488D01*
X165169744Y-46766481D01*
X165155653Y-46673786D01*
X165155389Y-46663496D01*
X165165059Y-46579327D01*
X165195865Y-46541057D01*
X165250499Y-46547965D01*
X165331655Y-46599333D01*
X165347898Y-46612126D01*
X165673353Y-46863313D01*
X165972537Y-47071662D01*
X166247939Y-47238555D01*
X166502047Y-47365377D01*
X166737351Y-47453510D01*
X166951852Y-47503639D01*
X167128344Y-47514555D01*
X167272962Y-47487795D01*
X167383200Y-47424665D01*
X167456551Y-47326471D01*
X167486797Y-47224795D01*
X167495180Y-47170024D01*
X167510023Y-47071897D01*
X167530000Y-46939229D01*
X167553783Y-46780837D01*
X167580047Y-46605538D01*
X167595330Y-46503365D01*
X167644366Y-46174964D01*
X167686667Y-45892099D01*
X167723503Y-45648161D01*
X167756143Y-45436545D01*
X167785857Y-45250643D01*
X167813913Y-45083850D01*
X167841580Y-44929558D01*
X167870129Y-44781162D01*
X167900828Y-44632054D01*
X167934947Y-44475629D01*
X167973754Y-44305279D01*
X168018519Y-44114397D01*
X168070512Y-43896378D01*
X168131001Y-43644615D01*
X168198341Y-43364632D01*
X168286091Y-43000637D01*
X168375715Y-42631081D01*
X168465972Y-42260963D01*
X168555617Y-41895283D01*
X168643406Y-41539040D01*
X168728096Y-41197233D01*
X168808444Y-40874862D01*
X168883205Y-40576927D01*
X168951136Y-40308426D01*
X169010993Y-40074359D01*
X169061533Y-39879725D01*
X169101511Y-39729524D01*
X169113513Y-39685722D01*
X169146770Y-39522075D01*
X169162766Y-39347861D01*
X169163428Y-39303272D01*
X169162330Y-39104922D01*
X168886481Y-38936623D01*
X168760033Y-38857116D01*
X168675506Y-38796093D01*
X168628296Y-38747178D01*
X168613797Y-38703995D01*
X168627402Y-38660170D01*
X168656791Y-38618677D01*
X168681500Y-38593546D01*
X168713968Y-38577107D01*
X168764940Y-38567542D01*
X168845159Y-38563032D01*
X168965371Y-38561756D01*
X168993084Y-38561729D01*
X169300310Y-38576838D01*
G37*
G36*
X158939020Y-33256423D02*
G01*
X159055953Y-33262248D01*
X159160480Y-33272875D01*
X159266044Y-33289454D01*
X159386088Y-33313138D01*
X159445005Y-33325684D01*
X159668478Y-33378301D01*
X159854277Y-33433166D01*
X160017379Y-33495772D01*
X160172761Y-33571613D01*
X160277296Y-33630954D01*
X160431279Y-33731841D01*
X160543984Y-33831841D01*
X160621172Y-33941614D01*
X160668605Y-34071819D01*
X160692045Y-34233115D01*
X160697403Y-34408115D01*
X160679612Y-34711245D01*
X160626414Y-34978148D01*
X160536397Y-35212930D01*
X160408154Y-35419700D01*
X160311336Y-35533007D01*
X160133601Y-35687230D01*
X159926871Y-35805992D01*
X159687619Y-35890545D01*
X159412314Y-35942141D01*
X159102118Y-35961965D01*
X158960174Y-35962119D01*
X158852059Y-35956129D01*
X158758980Y-35941536D01*
X158662142Y-35915877D01*
X158600976Y-35896323D01*
X158444488Y-35849273D01*
X158295101Y-35815988D01*
X158142368Y-35795833D01*
X157975840Y-35788175D01*
X157785068Y-35792379D01*
X157559604Y-35807812D01*
X157394131Y-35823106D01*
X156911006Y-35870644D01*
X156454332Y-35915003D01*
X156026547Y-35955964D01*
X155630092Y-35993309D01*
X155267406Y-36026821D01*
X154940931Y-36056280D01*
X154653104Y-36081468D01*
X154406367Y-36102169D01*
X154203160Y-36118163D01*
X154045921Y-36129232D01*
X153937092Y-36135158D01*
X153892876Y-36136146D01*
X153723955Y-36126279D01*
X153553649Y-36101563D01*
X153473496Y-36083614D01*
X153243457Y-36002212D01*
X153042451Y-35884086D01*
X152864759Y-35724729D01*
X152704661Y-35519637D01*
X152651687Y-35436152D01*
X152577173Y-35297368D01*
X153753329Y-35297368D01*
X153894735Y-35440553D01*
X153950663Y-35497012D01*
X153996333Y-35537346D01*
X154041358Y-35563198D01*
X154095348Y-35576209D01*
X154167914Y-35578023D01*
X154268667Y-35570281D01*
X154407219Y-35554626D01*
X154498693Y-35543749D01*
X154643322Y-35526937D01*
X154753103Y-35510799D01*
X154830531Y-35488915D01*
X154878098Y-35454866D01*
X154898297Y-35402232D01*
X154893622Y-35324594D01*
X154866565Y-35215532D01*
X154819621Y-35068626D01*
X154756290Y-34880466D01*
X154693888Y-34695659D01*
X154643914Y-34555237D01*
X154602104Y-34453543D01*
X154564195Y-34384920D01*
X154525922Y-34343712D01*
X154483023Y-34324262D01*
X154431233Y-34320914D01*
X154366288Y-34328011D01*
X154342502Y-34331494D01*
X154215759Y-34364731D01*
X154109636Y-34427581D01*
X154016644Y-34526829D01*
X153929294Y-34669261D01*
X153896081Y-34735998D01*
X153824775Y-34901994D01*
X153782810Y-35041120D01*
X153767951Y-35136108D01*
X153753329Y-35297368D01*
X152577173Y-35297368D01*
X152461597Y-35082106D01*
X152320139Y-34727833D01*
X152223889Y-34364576D01*
X152215322Y-34320540D01*
X152195015Y-34197984D01*
X152186634Y-34096709D01*
X152189713Y-33993233D01*
X152203787Y-33864075D01*
X152205947Y-33847589D01*
X152224993Y-33721299D01*
X152245740Y-33632241D01*
X152273178Y-33564998D01*
X152312295Y-33504154D01*
X152320694Y-33493040D01*
X152397943Y-33401694D01*
X152458542Y-33353496D01*
X152509147Y-33344269D01*
X152538470Y-33356318D01*
X152566062Y-33389117D01*
X152611074Y-33459671D01*
X152667773Y-33558337D01*
X152730431Y-33675471D01*
X152745128Y-33704100D01*
X152873090Y-33940668D01*
X152992258Y-34129575D01*
X153105348Y-34274644D01*
X153215077Y-34379694D01*
X153237720Y-34396863D01*
X153344245Y-34474029D01*
X153446963Y-34344081D01*
X153492080Y-34296705D01*
X155448650Y-34296705D01*
X155452524Y-34334595D01*
X155459931Y-34384425D01*
X155460784Y-34391455D01*
X155511295Y-34658969D01*
X155597277Y-34890528D01*
X155720595Y-35090837D01*
X155754478Y-35133034D01*
X155802545Y-35180507D01*
X155856108Y-35206543D01*
X155927721Y-35213063D01*
X156029940Y-35201987D01*
X156111446Y-35187646D01*
X156180290Y-35172448D01*
X156233860Y-35151427D01*
X156279591Y-35116713D01*
X156308405Y-35080940D01*
X157525663Y-35080940D01*
X157526264Y-35093692D01*
X157560495Y-35104311D01*
X157624582Y-35110445D01*
X157636057Y-35110772D01*
X157712087Y-35118914D01*
X157814096Y-35138251D01*
X157902014Y-35159852D01*
X158018320Y-35184142D01*
X158156863Y-35201965D01*
X158284465Y-35209356D01*
X158495472Y-35211580D01*
X158759231Y-34920449D01*
X158890486Y-34774912D01*
X158990229Y-34661784D01*
X159062760Y-34574741D01*
X159112380Y-34507458D01*
X159143388Y-34453613D01*
X159160085Y-34406880D01*
X159166771Y-34360936D01*
X159167800Y-34319590D01*
X159152599Y-34205482D01*
X159112787Y-34082351D01*
X159103785Y-34062065D01*
X159074157Y-34003105D01*
X159042463Y-33958566D01*
X159000449Y-33924998D01*
X158939866Y-33898948D01*
X158852462Y-33876963D01*
X158729985Y-33855592D01*
X158564184Y-33831383D01*
X158546421Y-33828886D01*
X158392291Y-33810009D01*
X158268988Y-33802601D01*
X158155954Y-33806211D01*
X158049731Y-33817996D01*
X157948304Y-33833075D01*
X157867398Y-33847319D01*
X157821024Y-33858194D01*
X157816228Y-33860232D01*
X157805990Y-33892442D01*
X157809872Y-33952989D01*
X157810892Y-33958706D01*
X157816546Y-34045343D01*
X157810957Y-34167411D01*
X157796154Y-34309283D01*
X157774169Y-34455335D01*
X157747033Y-34589942D01*
X157716776Y-34697481D01*
X157713795Y-34705771D01*
X157668937Y-34811672D01*
X157615323Y-34916855D01*
X157584227Y-34968407D01*
X157545112Y-35034066D01*
X157525663Y-35080940D01*
X156308405Y-35080940D01*
X156324922Y-35060434D01*
X156377287Y-34974718D01*
X156444122Y-34851694D01*
X156463595Y-34814885D01*
X156529201Y-34676172D01*
X156589193Y-34523085D01*
X156638870Y-34370297D01*
X156673530Y-34232483D01*
X156688472Y-34124316D01*
X156688723Y-34112205D01*
X156684139Y-34070519D01*
X156660361Y-34056064D01*
X156602346Y-34061429D01*
X156589813Y-34063476D01*
X156531287Y-34072660D01*
X156431409Y-34087751D01*
X156301038Y-34107134D01*
X156151033Y-34129191D01*
X156029325Y-34146930D01*
X155838847Y-34174194D01*
X155694307Y-34195160D01*
X155589647Y-34212433D01*
X155518809Y-34228618D01*
X155475735Y-34246322D01*
X155454368Y-34268149D01*
X155448650Y-34296705D01*
X153492080Y-34296705D01*
X153604271Y-34178896D01*
X153801940Y-34031576D01*
X154042564Y-33900762D01*
X154328732Y-33785095D01*
X154663035Y-33683218D01*
X154750093Y-33660824D01*
X154941683Y-33618600D01*
X155178639Y-33575369D01*
X155453606Y-33531903D01*
X155759228Y-33488977D01*
X156088150Y-33447363D01*
X156433017Y-33407834D01*
X156786472Y-33371165D01*
X157141161Y-33338127D01*
X157489727Y-33309496D01*
X157824816Y-33286043D01*
X158139072Y-33268543D01*
X158425140Y-33257768D01*
X158614164Y-33254580D01*
X158796238Y-33254251D01*
X158939020Y-33256423D01*
G37*
G36*
X161904404Y-40668125D02*
G01*
X162196357Y-40678751D01*
X162452212Y-40698285D01*
X162680060Y-40727640D01*
X162887987Y-40767730D01*
X163084083Y-40819469D01*
X163168992Y-40846256D01*
X163361090Y-40917706D01*
X163514795Y-40995977D01*
X163636359Y-41088656D01*
X163732031Y-41203327D01*
X163808061Y-41347577D01*
X163870699Y-41528992D01*
X163926194Y-41755157D01*
X163929130Y-41768889D01*
X163968370Y-41953520D01*
X163809341Y-42280230D01*
X163707343Y-42482423D01*
X163594725Y-42692906D01*
X163475441Y-42905326D01*
X163353444Y-43113326D01*
X163232687Y-43310553D01*
X163117124Y-43490652D01*
X163010708Y-43647268D01*
X162917393Y-43774047D01*
X162841132Y-43864633D01*
X162799437Y-43903547D01*
X162694599Y-43968392D01*
X162572892Y-44012091D01*
X162423568Y-44037188D01*
X162235872Y-44046229D01*
X162196015Y-44046345D01*
X162073672Y-44047913D01*
X161915201Y-44052726D01*
X161737081Y-44060136D01*
X161555793Y-44069499D01*
X161462762Y-44075114D01*
X161270227Y-44084649D01*
X161056270Y-44090704D01*
X160842874Y-44092926D01*
X160652024Y-44090961D01*
X160592357Y-44089134D01*
X160183530Y-44073642D01*
X160042453Y-44258219D01*
X159968668Y-44348544D01*
X159869325Y-44461563D01*
X159756924Y-44583442D01*
X159643966Y-44700345D01*
X159633627Y-44710723D01*
X159365877Y-44978651D01*
X159603260Y-44960564D01*
X159750136Y-44947071D01*
X159915421Y-44928414D01*
X160065546Y-44908412D01*
X160078027Y-44906546D01*
X160423219Y-44861623D01*
X160760576Y-44833655D01*
X161102163Y-44822487D01*
X161460047Y-44827967D01*
X161846292Y-44849940D01*
X162188099Y-44879712D01*
X162402056Y-44903045D01*
X162571706Y-44927876D01*
X162705482Y-44956888D01*
X162811816Y-44992766D01*
X162899141Y-45038193D01*
X162975887Y-45095853D01*
X163030779Y-45147925D01*
X163113031Y-45246949D01*
X163173040Y-45349169D01*
X163202138Y-45438998D01*
X163203572Y-45458690D01*
X163185289Y-45492369D01*
X163134228Y-45556330D01*
X163056072Y-45644753D01*
X162956505Y-45751816D01*
X162841209Y-45871697D01*
X162715867Y-45998575D01*
X162586161Y-46126629D01*
X162457776Y-46250036D01*
X162336393Y-46362976D01*
X162227696Y-46459626D01*
X162220079Y-46466172D01*
X161889219Y-46733099D01*
X161576123Y-46951311D01*
X161279558Y-47121305D01*
X160998290Y-47243577D01*
X160731084Y-47318625D01*
X160476706Y-47346945D01*
X160233922Y-47329035D01*
X160131701Y-47306962D01*
X159950217Y-47244666D01*
X159781835Y-47153529D01*
X159621121Y-47028832D01*
X159462645Y-46865857D01*
X159300973Y-46659886D01*
X159175907Y-46476737D01*
X159019321Y-46239034D01*
X158887835Y-46045701D01*
X158780377Y-45895306D01*
X158695873Y-45786418D01*
X158659685Y-45746654D01*
X159810473Y-45746654D01*
X159816559Y-45774261D01*
X159845739Y-45835030D01*
X159892438Y-45917839D01*
X159914692Y-45954511D01*
X159985466Y-46073967D01*
X160058753Y-46205771D01*
X160119288Y-46322425D01*
X160121947Y-46327861D01*
X160209906Y-46508432D01*
X160368162Y-46489637D01*
X160489929Y-46475446D01*
X160623765Y-46460241D01*
X160688221Y-46453080D01*
X160761367Y-46443360D01*
X160819087Y-46428320D01*
X160873584Y-46401171D01*
X160937062Y-46355124D01*
X161021724Y-46283389D01*
X161070671Y-46240312D01*
X161186479Y-46136283D01*
X161305320Y-46026601D01*
X161420779Y-45917521D01*
X161526439Y-45815298D01*
X161615883Y-45726185D01*
X161682694Y-45656437D01*
X161720455Y-45612309D01*
X161726521Y-45601059D01*
X161715388Y-45594586D01*
X161679094Y-45590856D01*
X161613297Y-45589975D01*
X161513655Y-45592047D01*
X161375826Y-45597178D01*
X161195468Y-45605475D01*
X160968239Y-45617043D01*
X160882492Y-45621581D01*
X160756917Y-45629903D01*
X160611508Y-45642144D01*
X160455451Y-45657235D01*
X160297931Y-45674102D01*
X160148135Y-45691674D01*
X160015246Y-45708880D01*
X159908452Y-45724648D01*
X159836937Y-45737906D01*
X159810473Y-45746654D01*
X158659685Y-45746654D01*
X158633249Y-45717606D01*
X158591432Y-45687440D01*
X158582629Y-45685711D01*
X158531483Y-45697176D01*
X158455518Y-45726437D01*
X158408874Y-45748341D01*
X158251672Y-45820965D01*
X158060435Y-45899272D01*
X157852488Y-45976909D01*
X157645157Y-46047523D01*
X157455767Y-46104761D01*
X157387684Y-46122798D01*
X157097549Y-46195613D01*
X156926332Y-46382459D01*
X156864131Y-46449093D01*
X156771322Y-46546853D01*
X156654209Y-46669180D01*
X156519096Y-46809515D01*
X156372288Y-46961297D01*
X156220089Y-47117966D01*
X156173313Y-47165974D01*
X156024291Y-47319406D01*
X155882023Y-47467017D01*
X155752127Y-47602891D01*
X155640221Y-47721112D01*
X155551924Y-47815765D01*
X155492854Y-47880935D01*
X155479312Y-47896652D01*
X155367114Y-48030660D01*
X155480618Y-48088254D01*
X155780966Y-48257092D01*
X156095753Y-48464418D01*
X156414384Y-48702283D01*
X156726265Y-48962741D01*
X157020800Y-49237845D01*
X157043934Y-49260887D01*
X157179007Y-49393669D01*
X157326237Y-49534333D01*
X157471895Y-49670018D01*
X157602252Y-49787860D01*
X157663326Y-49841157D01*
X157757638Y-49924270D01*
X157881155Y-50036609D01*
X158025514Y-50170372D01*
X158182349Y-50317755D01*
X158343295Y-50470955D01*
X158486686Y-50609241D01*
X158774451Y-50882442D01*
X159039650Y-51119747D01*
X159291151Y-51327623D01*
X159537823Y-51512537D01*
X159788534Y-51680954D01*
X160052153Y-51839343D01*
X160337548Y-51994169D01*
X160497196Y-52075265D01*
X160871343Y-52266439D01*
X161204328Y-52447692D01*
X161505278Y-52625043D01*
X161783318Y-52804512D01*
X162047572Y-52992117D01*
X162307167Y-53193878D01*
X162571226Y-53415815D01*
X162696019Y-53525726D01*
X162824123Y-53643798D01*
X162914409Y-53738297D01*
X162971404Y-53817104D01*
X162999640Y-53888100D01*
X163003646Y-53959164D01*
X162988811Y-54035092D01*
X162951588Y-54119732D01*
X162896254Y-54198283D01*
X162892027Y-54202810D01*
X162821121Y-54276806D01*
X162504610Y-54241314D01*
X162248671Y-54209167D01*
X161976573Y-54168917D01*
X161702940Y-54123112D01*
X161442396Y-54074299D01*
X161209562Y-54025025D01*
X161070428Y-53991503D01*
X160759229Y-53904868D01*
X160473911Y-53810426D01*
X160208198Y-53704256D01*
X159955811Y-53582439D01*
X159710472Y-53441056D01*
X159465902Y-53276185D01*
X159215824Y-53083908D01*
X158953960Y-52860304D01*
X158674031Y-52601455D01*
X158374730Y-52308414D01*
X158206647Y-52138808D01*
X158049493Y-51976853D01*
X157897694Y-51816330D01*
X157745676Y-51651025D01*
X157587864Y-51474718D01*
X157418683Y-51281195D01*
X157232560Y-51064238D01*
X157023919Y-50817630D01*
X156821470Y-50576185D01*
X156699518Y-50434493D01*
X156551398Y-50269007D01*
X156388928Y-50092534D01*
X156223925Y-49917883D01*
X156068209Y-49757863D01*
X156043380Y-49732905D01*
X155895796Y-49586022D01*
X155777867Y-49471390D01*
X155682707Y-49383214D01*
X155603431Y-49315697D01*
X155533156Y-49263043D01*
X155464995Y-49219457D01*
X155392064Y-49179141D01*
X155375211Y-49170400D01*
X155173766Y-49075427D01*
X154973724Y-48996961D01*
X154789903Y-48940360D01*
X154668917Y-48915074D01*
X154547706Y-48896898D01*
X154095005Y-49342632D01*
X153894112Y-49539499D01*
X153675234Y-49752336D01*
X153445076Y-49974739D01*
X153210344Y-50200304D01*
X152977743Y-50422627D01*
X152753979Y-50635303D01*
X152545756Y-50831929D01*
X152359780Y-51006100D01*
X152202757Y-51151412D01*
X152164796Y-51186143D01*
X151990310Y-51343648D01*
X151797949Y-51514406D01*
X151591697Y-51695093D01*
X151375540Y-51882385D01*
X151153462Y-52072958D01*
X150929448Y-52263489D01*
X150707483Y-52450654D01*
X150491553Y-52631128D01*
X150285641Y-52801589D01*
X150093733Y-52958712D01*
X149919814Y-53099173D01*
X149767868Y-53219650D01*
X149641881Y-53316817D01*
X149545838Y-53387352D01*
X149483722Y-53427930D01*
X149468057Y-53435477D01*
X149346850Y-53451967D01*
X149226027Y-53418722D01*
X149110101Y-53338596D01*
X149003585Y-53214445D01*
X148934578Y-53098073D01*
X148890219Y-53001323D01*
X148861214Y-52908723D01*
X148847268Y-52810173D01*
X148848085Y-52695571D01*
X148863371Y-52554818D01*
X148892830Y-52377811D01*
X148910765Y-52282954D01*
X148994407Y-51851016D01*
X149423209Y-51280669D01*
X149575106Y-51079363D01*
X149699199Y-50916828D01*
X149798758Y-50789206D01*
X149877052Y-50692637D01*
X149937352Y-50623265D01*
X149982925Y-50577231D01*
X150017042Y-50550676D01*
X150042973Y-50539742D01*
X150051811Y-50538879D01*
X150106259Y-50558761D01*
X150150393Y-50604993D01*
X150166643Y-50657453D01*
X150164649Y-50668096D01*
X150150811Y-50708561D01*
X150123098Y-50787161D01*
X150085579Y-50892425D01*
X150043909Y-51008478D01*
X149994000Y-51149748D01*
X149961320Y-51252297D01*
X149944050Y-51326593D01*
X149940371Y-51383108D01*
X149948464Y-51432312D01*
X149962842Y-51475162D01*
X149989195Y-51544474D01*
X150111139Y-51457097D01*
X150491204Y-51163245D01*
X150879236Y-50821031D01*
X151271697Y-50433577D01*
X151272857Y-50432371D01*
X151865610Y-49811683D01*
X152417854Y-49224406D01*
X152929749Y-48670350D01*
X153401455Y-48149326D01*
X153833130Y-47661147D01*
X154224935Y-47205624D01*
X154577029Y-46782567D01*
X154889570Y-46391788D01*
X155162720Y-46033098D01*
X155396636Y-45706308D01*
X155591478Y-45411231D01*
X155747406Y-45147676D01*
X155768074Y-45109686D01*
X155857881Y-44942487D01*
X155735674Y-44831242D01*
X155633454Y-44751875D01*
X155522232Y-44696828D01*
X155387816Y-44660895D01*
X155216011Y-44638874D01*
X155209466Y-44638318D01*
X155113857Y-44629324D01*
X155059321Y-44618653D01*
X155034332Y-44600591D01*
X155027366Y-44569425D01*
X155027040Y-44547887D01*
X155035714Y-44503535D01*
X155065030Y-44457934D01*
X155119931Y-44407525D01*
X155205362Y-44348751D01*
X155326264Y-44278051D01*
X155487581Y-44191866D01*
X155605494Y-44131412D01*
X155824291Y-44023248D01*
X156005848Y-43941443D01*
X156157888Y-43884772D01*
X156288135Y-43852009D01*
X156404313Y-43841927D01*
X156514146Y-43853302D01*
X156625357Y-43884908D01*
X156745671Y-43935518D01*
X156769245Y-43946723D01*
X156870432Y-43998168D01*
X156996681Y-44066460D01*
X157139316Y-44146470D01*
X157289661Y-44233071D01*
X157439042Y-44321135D01*
X157578783Y-44405535D01*
X157700207Y-44481142D01*
X157794639Y-44542830D01*
X157853404Y-44585469D01*
X157860771Y-44591865D01*
X157907748Y-44643220D01*
X157933083Y-44684319D01*
X157957653Y-44684618D01*
X158016361Y-44654427D01*
X158103680Y-44598033D01*
X158214082Y-44519720D01*
X158342036Y-44423773D01*
X158482017Y-44314478D01*
X158628494Y-44196119D01*
X158775940Y-44072983D01*
X158918825Y-43949354D01*
X159051623Y-43829517D01*
X159124879Y-43760527D01*
X159206426Y-43681356D01*
X159270615Y-43614904D01*
X159323774Y-43551793D01*
X159372229Y-43482648D01*
X159406845Y-43424201D01*
X160565806Y-43424201D01*
X160809871Y-43405281D01*
X160940094Y-43394441D01*
X161099817Y-43380046D01*
X161266095Y-43364210D01*
X161379130Y-43352881D01*
X161704324Y-43319402D01*
X161867084Y-43158493D01*
X162029844Y-42997583D01*
X162194856Y-43086010D01*
X162277581Y-43126402D01*
X162341237Y-43150139D01*
X162373114Y-43152573D01*
X162374014Y-43151548D01*
X162400560Y-43096516D01*
X162439627Y-42999630D01*
X162488287Y-42869477D01*
X162543614Y-42714640D01*
X162602680Y-42543707D01*
X162662557Y-42365261D01*
X162720319Y-42187890D01*
X162773038Y-42020178D01*
X162817785Y-41870711D01*
X162848688Y-41759408D01*
X162885457Y-41619790D01*
X162906711Y-41523660D01*
X162907965Y-41462916D01*
X162884731Y-41429458D01*
X162832523Y-41415188D01*
X162746856Y-41412005D01*
X162656272Y-41412016D01*
X162346170Y-41411415D01*
X162056603Y-41411565D01*
X161791653Y-41412423D01*
X161555406Y-41413947D01*
X161351944Y-41416095D01*
X161185351Y-41418825D01*
X161059711Y-41422096D01*
X160979108Y-41425865D01*
X160948570Y-41429599D01*
X160924449Y-41464927D01*
X160911689Y-41540752D01*
X160910802Y-41645949D01*
X160922300Y-41769390D01*
X160930527Y-41821641D01*
X160943092Y-41880181D01*
X160963690Y-41914821D01*
X161005860Y-41936158D01*
X161083144Y-41954784D01*
X161107044Y-41959744D01*
X161205670Y-41977190D01*
X161334860Y-41996066D01*
X161472624Y-42013266D01*
X161528702Y-42019339D01*
X161729896Y-42044156D01*
X161900644Y-42073774D01*
X162035417Y-42106829D01*
X162128687Y-42141957D01*
X162174923Y-42177793D01*
X162175594Y-42178990D01*
X162199911Y-42275560D01*
X162183988Y-42383291D01*
X162157525Y-42441479D01*
X162092235Y-42508101D01*
X161982416Y-42570018D01*
X161836232Y-42624993D01*
X161661849Y-42670789D01*
X161467431Y-42705171D01*
X161261142Y-42725901D01*
X161100093Y-42731152D01*
X160982078Y-42732285D01*
X160886314Y-42735016D01*
X160823327Y-42738920D01*
X160803364Y-42743074D01*
X160795028Y-42770783D01*
X160772184Y-42838691D01*
X160738084Y-42937325D01*
X160695976Y-43057209D01*
X160684585Y-43089370D01*
X160565806Y-43424201D01*
X159406845Y-43424201D01*
X159422309Y-43398092D01*
X159480341Y-43288748D01*
X159552652Y-43145239D01*
X159587823Y-43074497D01*
X159709118Y-42820613D01*
X159821299Y-42567240D01*
X159920059Y-42325029D01*
X160001095Y-42104633D01*
X160060100Y-41916704D01*
X160068722Y-41884555D01*
X160100247Y-41762837D01*
X159868009Y-41335506D01*
X159790870Y-41190118D01*
X159728616Y-41065846D01*
X159684237Y-40969140D01*
X159660723Y-40906449D01*
X159659079Y-40884978D01*
X159695661Y-40869287D01*
X159774719Y-40847607D01*
X159886570Y-40821850D01*
X160021534Y-40793928D01*
X160169930Y-40765754D01*
X160322075Y-40739238D01*
X160468288Y-40716295D01*
X160598888Y-40698834D01*
X160605545Y-40698057D01*
X160706142Y-40689520D01*
X160848715Y-40681736D01*
X161022490Y-40675070D01*
X161216693Y-40669887D01*
X161420549Y-40666550D01*
X161568266Y-40665493D01*
X161904404Y-40668125D01*
G37*
G36*
X151345422Y-36038966D02*
G01*
X151403293Y-36074354D01*
X151487067Y-36134834D01*
X151583703Y-36209916D01*
X151680155Y-36289115D01*
X151763381Y-36361943D01*
X151820336Y-36417911D01*
X151828267Y-36427195D01*
X151867248Y-36486650D01*
X151919232Y-36580525D01*
X151977149Y-36694455D01*
X152033929Y-36814075D01*
X152082501Y-36925021D01*
X152114180Y-37008038D01*
X152143196Y-37090198D01*
X152167608Y-37151345D01*
X152178938Y-37173337D01*
X152207446Y-37172839D01*
X152282364Y-37163198D01*
X152398317Y-37145321D01*
X152549931Y-37120117D01*
X152731829Y-37088493D01*
X152938638Y-37051358D01*
X153164982Y-37009619D01*
X153314375Y-36981522D01*
X153731482Y-36902897D01*
X154102586Y-36833909D01*
X154433372Y-36773658D01*
X154729525Y-36721248D01*
X154996731Y-36675780D01*
X155240676Y-36636356D01*
X155467045Y-36602078D01*
X155681524Y-36572048D01*
X155889798Y-36545368D01*
X156097553Y-36521140D01*
X156310474Y-36498465D01*
X156477715Y-36481868D01*
X156796692Y-36455937D01*
X157161200Y-36435018D01*
X157564248Y-36419209D01*
X157998844Y-36408611D01*
X158457997Y-36403321D01*
X158934715Y-36403438D01*
X159422008Y-36409063D01*
X159912883Y-36420293D01*
X160191869Y-36429250D01*
X160427571Y-36438096D01*
X160617508Y-36446462D01*
X160768655Y-36454941D01*
X160887988Y-36464125D01*
X160982482Y-36474606D01*
X161059112Y-36486977D01*
X161124855Y-36501831D01*
X161159439Y-36511432D01*
X161343539Y-36573086D01*
X161539186Y-36651298D01*
X161727821Y-36737887D01*
X161890880Y-36824672D01*
X161944634Y-36857511D01*
X162024849Y-36906741D01*
X162088937Y-36941864D01*
X162123040Y-36955286D01*
X162123060Y-36955286D01*
X162158272Y-36932527D01*
X162197306Y-36875655D01*
X162231365Y-36801775D01*
X162251646Y-36727995D01*
X162253941Y-36700853D01*
X162239984Y-36630755D01*
X162191295Y-36564530D01*
X162160806Y-36536004D01*
X162098452Y-36487136D01*
X162048174Y-36457863D01*
X162033933Y-36454143D01*
X161986003Y-36433971D01*
X161928222Y-36384386D01*
X161875270Y-36321786D01*
X161841827Y-36262570D01*
X161837356Y-36234557D01*
X161868519Y-36191878D01*
X161942937Y-36150564D01*
X162051119Y-36112725D01*
X162183575Y-36080472D01*
X162330813Y-36055916D01*
X162483342Y-36041166D01*
X162631672Y-36038335D01*
X162702531Y-36042150D01*
X162910482Y-36071580D01*
X163125703Y-36123392D01*
X163335278Y-36192907D01*
X163526290Y-36275448D01*
X163685822Y-36366337D01*
X163766145Y-36427347D01*
X163868723Y-36542938D01*
X163938320Y-36674841D01*
X163970670Y-36810633D01*
X163961506Y-36937894D01*
X163951822Y-36967988D01*
X163926141Y-37000673D01*
X163866327Y-37061238D01*
X163778863Y-37143900D01*
X163670230Y-37242878D01*
X163546911Y-37352391D01*
X163415389Y-37466655D01*
X163282145Y-37579888D01*
X163153662Y-37686310D01*
X163078950Y-37746563D01*
X162985141Y-37825349D01*
X162916339Y-37891385D01*
X162879396Y-37937717D01*
X162875363Y-37953133D01*
X162883103Y-38001559D01*
X162886963Y-38075061D01*
X162887061Y-38088310D01*
X162891678Y-38155204D01*
X162914532Y-38188234D01*
X162969124Y-38206078D01*
X162972783Y-38206875D01*
X163036342Y-38216121D01*
X163136082Y-38225635D01*
X163255459Y-38233969D01*
X163322264Y-38237468D01*
X163531818Y-38254260D01*
X163715744Y-38287140D01*
X163894564Y-38341356D01*
X164088800Y-38422153D01*
X164141953Y-38447016D01*
X164363134Y-38571142D01*
X164536460Y-38711882D01*
X164665326Y-38873339D01*
X164753125Y-39059618D01*
X164797981Y-39240425D01*
X164803309Y-39369800D01*
X164777956Y-39484292D01*
X164726050Y-39571007D01*
X164680963Y-39605888D01*
X164559633Y-39641718D01*
X164407876Y-39643697D01*
X164233811Y-39613991D01*
X164045554Y-39554765D01*
X163851225Y-39468184D01*
X163658940Y-39356415D01*
X163602928Y-39318339D01*
X163532761Y-39268722D01*
X163428532Y-39194789D01*
X163299123Y-39102857D01*
X163153416Y-38999247D01*
X163000293Y-38890277D01*
X162848635Y-38782269D01*
X162707324Y-38681540D01*
X162585242Y-38594411D01*
X162532493Y-38556709D01*
X162436852Y-38491171D01*
X162371303Y-38454737D01*
X162325428Y-38442720D01*
X162292583Y-38448816D01*
X162258011Y-38469082D01*
X162185818Y-38516067D01*
X162081473Y-38586053D01*
X161950440Y-38675324D01*
X161798186Y-38780162D01*
X161630177Y-38896848D01*
X161502356Y-38986231D01*
X160768915Y-39500561D01*
X160885049Y-39509518D01*
X160957602Y-39510490D01*
X161067221Y-39506385D01*
X161198548Y-39497982D01*
X161325158Y-39487146D01*
X161508333Y-39472895D01*
X161675467Y-39468631D01*
X161842477Y-39475080D01*
X162025283Y-39492968D01*
X162239803Y-39523021D01*
X162292479Y-39531281D01*
X162535552Y-39582558D01*
X162730627Y-39652277D01*
X162879704Y-39742056D01*
X162984781Y-39853514D01*
X163047859Y-39988270D01*
X163070936Y-40147942D01*
X163071113Y-40161618D01*
X163066405Y-40249918D01*
X163045484Y-40309578D01*
X162999590Y-40364181D01*
X162993798Y-40369784D01*
X162920507Y-40420721D01*
X162824462Y-40450644D01*
X162698036Y-40460485D01*
X162533601Y-40451174D01*
X162428288Y-40438773D01*
X162065486Y-40371455D01*
X161719284Y-40269746D01*
X161398620Y-40137047D01*
X161112436Y-39976762D01*
X160990641Y-39891555D01*
X160895097Y-39819543D01*
X160802184Y-39749525D01*
X160730917Y-39695831D01*
X160726882Y-39692792D01*
X160663764Y-39651534D01*
X160615445Y-39630992D01*
X160603729Y-39630785D01*
X160575640Y-39647496D01*
X160509542Y-39690281D01*
X160410977Y-39755444D01*
X160285487Y-39839293D01*
X160138614Y-39938133D01*
X159975900Y-40048271D01*
X159902785Y-40097952D01*
X159715640Y-40224682D01*
X159524519Y-40353068D01*
X159338733Y-40476928D01*
X159167596Y-40590080D01*
X159020418Y-40686344D01*
X158906514Y-40759538D01*
X158897548Y-40765201D01*
X158565062Y-40974805D01*
X158645835Y-41066800D01*
X158728050Y-41179925D01*
X158789432Y-41302565D01*
X158821559Y-41416531D01*
X158824344Y-41452378D01*
X158803075Y-41556876D01*
X158745803Y-41671432D01*
X158663520Y-41782148D01*
X158567223Y-41875124D01*
X158467904Y-41936463D01*
X158431879Y-41948531D01*
X158345933Y-41953068D01*
X158223715Y-41937653D01*
X158076344Y-41905502D01*
X157914939Y-41859831D01*
X157750620Y-41803854D01*
X157594508Y-41740786D01*
X157457721Y-41673843D01*
X157432410Y-41659545D01*
X157318880Y-41593543D01*
X157121208Y-41773532D01*
X156776110Y-42078176D01*
X156451686Y-42343824D01*
X156140249Y-42575957D01*
X155834114Y-42780060D01*
X155525594Y-42961613D01*
X155264423Y-43098009D01*
X154980233Y-43230698D01*
X154720039Y-43333500D01*
X154467970Y-43411069D01*
X154208155Y-43468062D01*
X153924721Y-43509133D01*
X153826936Y-43519624D01*
X153689063Y-43531982D01*
X153536981Y-43543304D01*
X153379857Y-43553175D01*
X153226861Y-43561179D01*
X153087160Y-43566903D01*
X152969924Y-43569930D01*
X152884320Y-43569846D01*
X152839516Y-43566236D01*
X152835487Y-43564494D01*
X152805222Y-43556231D01*
X152732594Y-43543892D01*
X152627699Y-43528993D01*
X152500628Y-43513052D01*
X152466628Y-43509087D01*
X152263195Y-43479479D01*
X152092240Y-43441837D01*
X151958902Y-43397838D01*
X151868323Y-43349156D01*
X151826748Y-43300597D01*
X151827018Y-43280105D01*
X151849638Y-43263760D01*
X151900884Y-43250352D01*
X151987035Y-43238673D01*
X152114367Y-43227516D01*
X152257570Y-43217673D01*
X152534517Y-43199934D01*
X153174703Y-42902377D01*
X153733341Y-42630933D01*
X154240089Y-42359928D01*
X154695801Y-42088813D01*
X155101331Y-41817045D01*
X155457530Y-41544075D01*
X155765252Y-41269357D01*
X155838096Y-41196894D01*
X156002941Y-41028952D01*
X155693028Y-40798451D01*
X155479751Y-40638554D01*
X155305913Y-40504955D01*
X155167554Y-40393962D01*
X155060715Y-40301888D01*
X154981434Y-40225041D01*
X154925753Y-40159732D01*
X154889709Y-40102271D01*
X154869345Y-40048968D01*
X154864423Y-40026413D01*
X154865893Y-39999072D01*
X154888847Y-39980790D01*
X154943680Y-39967310D01*
X155040228Y-39954442D01*
X155125649Y-39947472D01*
X155251785Y-39940985D01*
X155406600Y-39935415D01*
X155578058Y-39931196D01*
X155752378Y-39928775D01*
X155962560Y-39928342D01*
X156130555Y-39931254D01*
X156266853Y-39938086D01*
X156381946Y-39949419D01*
X156486325Y-39965829D01*
X156510800Y-39970557D01*
X156618213Y-39992676D01*
X156707705Y-40012360D01*
X156765227Y-40026470D01*
X156776327Y-40029921D01*
X156803547Y-40012943D01*
X156856247Y-39952580D01*
X156932942Y-39850781D01*
X157032144Y-39709498D01*
X157121737Y-39576823D01*
X157199481Y-39458900D01*
X158805331Y-39458900D01*
X158818521Y-39460500D01*
X158866364Y-39435700D01*
X158940831Y-39389095D01*
X159012734Y-39340209D01*
X159105779Y-39275125D01*
X159230876Y-39187708D01*
X159376803Y-39085797D01*
X159532340Y-38977227D01*
X159686265Y-38869835D01*
X159689557Y-38867539D01*
X159824655Y-38772593D01*
X159943767Y-38687510D01*
X160040531Y-38616949D01*
X160108580Y-38565570D01*
X160141552Y-38538033D01*
X160143656Y-38535058D01*
X160119424Y-38525685D01*
X160052918Y-38508516D01*
X159953702Y-38485527D01*
X159831340Y-38458692D01*
X159695398Y-38429986D01*
X159555441Y-38401385D01*
X159421032Y-38374862D01*
X159301736Y-38352393D01*
X159207118Y-38335952D01*
X159146743Y-38327515D01*
X159135088Y-38326816D01*
X159106697Y-38336529D01*
X159092773Y-38373770D01*
X159088936Y-38450732D01*
X159088930Y-38455330D01*
X159082197Y-38539484D01*
X159064212Y-38654493D01*
X159038296Y-38780515D01*
X159026039Y-38831187D01*
X158995538Y-38945552D01*
X158963839Y-39049784D01*
X158925922Y-39158159D01*
X158876770Y-39284949D01*
X158811363Y-39444428D01*
X158805331Y-39458900D01*
X157199481Y-39458900D01*
X157232324Y-39409083D01*
X157316915Y-39275787D01*
X157380170Y-39168452D01*
X157426754Y-39078595D01*
X157461326Y-38997732D01*
X157488550Y-38917380D01*
X157493731Y-38899911D01*
X157528363Y-38763766D01*
X157538314Y-38668783D01*
X157521281Y-38608353D01*
X157474962Y-38575868D01*
X157397054Y-38564720D01*
X157376856Y-38564470D01*
X157262402Y-38569246D01*
X157110132Y-38582030D01*
X156934073Y-38601073D01*
X156748251Y-38624628D01*
X156566692Y-38650949D01*
X156403424Y-38678289D01*
X156301251Y-38698446D01*
X156078174Y-38753022D01*
X155884619Y-38816296D01*
X155700490Y-38896318D01*
X155505695Y-39001136D01*
X155422679Y-39050363D01*
X155135832Y-39215904D01*
X154881517Y-39345293D01*
X154655606Y-39440311D01*
X154453974Y-39502739D01*
X154311956Y-39529816D01*
X154235654Y-39537244D01*
X154184012Y-39528882D01*
X154135839Y-39496845D01*
X154080303Y-39443622D01*
X154009394Y-39358993D01*
X153961195Y-39264353D01*
X153932929Y-39149006D01*
X153921819Y-39002254D01*
X153923924Y-38841309D01*
X153930793Y-38711349D01*
X153941783Y-38618196D01*
X153960248Y-38545909D01*
X153989541Y-38478550D01*
X154007190Y-38445525D01*
X154110972Y-38306546D01*
X154252395Y-38186777D01*
X154416806Y-38098512D01*
X154424431Y-38095508D01*
X154475526Y-38066715D01*
X154558337Y-38009837D01*
X154664686Y-37931306D01*
X154786397Y-37837553D01*
X154857276Y-37781164D01*
X156718217Y-37781164D01*
X156737264Y-37792028D01*
X156800096Y-37796034D01*
X156898280Y-37793809D01*
X157023384Y-37785981D01*
X157166974Y-37773176D01*
X157320619Y-37756022D01*
X157475885Y-37735147D01*
X157598691Y-37715660D01*
X157847121Y-37680084D01*
X158056921Y-37667758D01*
X158237782Y-37680763D01*
X158399392Y-37721181D01*
X158551441Y-37791096D01*
X158703618Y-37892588D01*
X158805409Y-37974953D01*
X158887609Y-38043994D01*
X158945007Y-38084914D01*
X158992832Y-38103944D01*
X159046313Y-38107319D01*
X159115306Y-38101789D01*
X159200335Y-38090746D01*
X159320059Y-38071512D01*
X159457590Y-38046942D01*
X159576885Y-38023790D01*
X159906719Y-37947193D01*
X160194897Y-37859517D01*
X160438556Y-37761865D01*
X160634829Y-37655337D01*
X160744018Y-37574773D01*
X160824953Y-37491055D01*
X160855799Y-37421729D01*
X160856116Y-37414885D01*
X160834668Y-37347323D01*
X160777701Y-37266863D01*
X160696283Y-37185357D01*
X160601481Y-37114658D01*
X160547864Y-37084779D01*
X160434357Y-37045533D01*
X160274165Y-37013310D01*
X160072891Y-36988148D01*
X159836139Y-36970088D01*
X159569511Y-36959168D01*
X159278612Y-36955429D01*
X158969043Y-36958908D01*
X158646408Y-36969647D01*
X158316309Y-36987683D01*
X157984351Y-37013057D01*
X157656135Y-37045808D01*
X157507442Y-37063425D01*
X157359350Y-37082902D01*
X157227772Y-37102076D01*
X157122463Y-37119381D01*
X157053179Y-37133247D01*
X157031636Y-37139903D01*
X157008009Y-37170058D01*
X156968667Y-37238689D01*
X156918530Y-37335723D01*
X156862524Y-37451088D01*
X156805569Y-37574712D01*
X156752589Y-37696523D01*
X156718217Y-37781164D01*
X154857276Y-37781164D01*
X154915292Y-37735009D01*
X155043194Y-37630106D01*
X155161928Y-37529276D01*
X155263315Y-37438949D01*
X155285720Y-37418077D01*
X155275186Y-37408949D01*
X155218855Y-37408156D01*
X155122873Y-37414828D01*
X154993386Y-37428098D01*
X154836540Y-37447097D01*
X154658482Y-37470956D01*
X154465356Y-37498808D01*
X154263309Y-37529783D01*
X154058487Y-37563013D01*
X153857036Y-37597631D01*
X153665102Y-37632766D01*
X153488830Y-37667552D01*
X153424635Y-37681055D01*
X153166067Y-37741254D01*
X152954069Y-37801736D01*
X152782516Y-37865220D01*
X152645280Y-37934422D01*
X152536237Y-38012060D01*
X152449261Y-38100851D01*
X152433647Y-38120616D01*
X152349296Y-38251476D01*
X152266700Y-38415567D01*
X152194718Y-38593853D01*
X152154144Y-38721372D01*
X152079715Y-38932129D01*
X151986110Y-39098444D01*
X151886792Y-39207654D01*
X151824400Y-39253935D01*
X151760708Y-39283334D01*
X151682685Y-39298501D01*
X151577305Y-39302086D01*
X151445283Y-39297446D01*
X151247805Y-39273156D01*
X151089543Y-39219464D01*
X150963153Y-39131763D01*
X150861290Y-39005449D01*
X150801715Y-38893915D01*
X150775117Y-38829907D01*
X150757704Y-38766912D01*
X150747737Y-38691605D01*
X150743479Y-38590663D01*
X150743191Y-38450762D01*
X150743227Y-38445525D01*
X150746013Y-38306152D01*
X150753732Y-38188248D01*
X150768785Y-38074899D01*
X150793569Y-37949191D01*
X150830484Y-37794213D01*
X150842221Y-37747606D01*
X150878530Y-37597946D01*
X150919713Y-37417433D01*
X150963649Y-37216447D01*
X151008213Y-37005368D01*
X151051282Y-36794576D01*
X151090732Y-36594451D01*
X151124439Y-36415372D01*
X151150281Y-36267720D01*
X151165309Y-36168356D01*
X151185336Y-36070531D01*
X151218153Y-36020102D01*
X151270775Y-36012029D01*
X151345422Y-36038966D01*
G37*
D11*
X53160000Y-59490000D02*
X58600000Y-59490000D01*
X53160000Y-59820000D02*
X53160000Y-59490000D01*
X53160000Y-62100000D02*
X53160000Y-62430000D01*
X53160000Y-62430000D02*
X58600000Y-62430000D01*
X53940000Y-59490000D02*
X53940000Y-62430000D01*
X54060000Y-59490000D02*
X54060000Y-62430000D01*
X54180000Y-59490000D02*
X54180000Y-62430000D01*
X58600000Y-59490000D02*
X58600000Y-59820000D01*
X58600000Y-62430000D02*
X58600000Y-62100000D01*
X83820000Y-50970000D02*
X83820000Y-50280000D01*
X82400000Y-50280000D02*
X85240000Y-50280000D01*
X85240000Y-50280000D02*
X85240000Y-46240000D01*
X82400000Y-46240000D02*
X82400000Y-50280000D01*
X85240000Y-46240000D02*
X82400000Y-46240000D01*
X83820000Y-45550000D02*
X83820000Y-46240000D01*
D12*
X174300000Y-121995000D02*
X163231000Y-121995000D01*
X174300000Y-121995000D02*
X145790000Y-121995000D01*
X174300000Y-71045000D02*
X174300000Y-121995000D01*
X174300000Y-71045000D02*
X174300000Y-121995000D01*
X174300000Y-71045000D02*
X168930000Y-71045000D01*
X168930000Y-71045000D02*
X151240000Y-71045000D01*
X163231000Y-121995000D02*
X156520000Y-121995000D01*
X156520000Y-121995000D02*
X145790000Y-121995000D01*
X151240000Y-71045000D02*
X145790000Y-71045000D01*
X145790000Y-121995000D02*
X145790000Y-71045000D01*
X145790000Y-121995000D02*
X145790000Y-71045000D01*
X145790000Y-71045000D02*
X174300000Y-71045000D01*
D13*
X174970000Y-112035000D02*
G75*
G03*
X174970000Y-112035000I-100000J0D01*
G01*
D11*
X166860000Y-153670000D02*
X166860000Y-152250000D01*
X178580000Y-153670000D02*
X166860000Y-153670000D01*
X166860000Y-152250000D02*
X171360000Y-152250000D01*
X171360000Y-152250000D02*
X171360000Y-149860000D01*
X167170000Y-151410000D02*
X167170000Y-150810000D01*
X172470000Y-151360000D02*
X177970000Y-151360000D01*
X177970000Y-151360000D02*
X177970000Y-150860000D01*
X167770000Y-151110000D02*
X167170000Y-151410000D01*
X172470000Y-150860000D02*
X172470000Y-151360000D01*
X177970000Y-150860000D02*
X172470000Y-150860000D01*
X167170000Y-150810000D02*
X167770000Y-151110000D01*
X178580000Y-149860000D02*
X178580000Y-153670000D01*
X178580000Y-149860000D02*
X178580000Y-146050000D01*
X172470000Y-148860000D02*
X177970000Y-148860000D01*
X177970000Y-148860000D02*
X177970000Y-148360000D01*
X172470000Y-148360000D02*
X172470000Y-148860000D01*
X177970000Y-148360000D02*
X172470000Y-148360000D01*
X166860000Y-147470000D02*
X171360000Y-147470000D01*
X171360000Y-147470000D02*
X171360000Y-149860000D01*
X166860000Y-146050000D02*
X166860000Y-147470000D01*
X178580000Y-146050000D02*
X166860000Y-146050000D01*
X44220000Y-104140000D02*
X46180000Y-104140000D01*
X46180000Y-102420000D02*
X46180000Y-105860000D01*
X46180000Y-105860000D02*
X55420000Y-105860000D01*
X55420000Y-102420000D02*
X46180000Y-102420000D01*
X55420000Y-105860000D02*
X55420000Y-102420000D01*
X57380000Y-104140000D02*
X55420000Y-104140000D01*
X44220000Y-111760000D02*
X46180000Y-111760000D01*
X46180000Y-110040000D02*
X46180000Y-113480000D01*
X46180000Y-113480000D02*
X55420000Y-113480000D01*
X55420000Y-110040000D02*
X46180000Y-110040000D01*
X55420000Y-113480000D02*
X55420000Y-110040000D01*
X57380000Y-111760000D02*
X55420000Y-111760000D01*
X35270000Y-80044000D02*
X35270000Y-80200000D01*
X35270000Y-82360000D02*
X35270000Y-82516000D01*
X38502334Y-80201392D02*
G75*
G03*
X35270001Y-80044485I-1672334J-1078608D01*
G01*
X37871129Y-80200164D02*
G75*
G03*
X35789040Y-80200001I-1041129J-1079836D01*
G01*
X35789040Y-82359999D02*
G75*
G03*
X37871129Y-82359836I1040960J1079999D01*
G01*
X35270001Y-82515515D02*
G75*
G03*
X38502334Y-82358608I1559999J1235515D01*
G01*
X120420000Y-38100000D02*
X122380000Y-38100000D01*
X122380000Y-36380000D02*
X122380000Y-39820000D01*
X122380000Y-39820000D02*
X131620000Y-39820000D01*
X131620000Y-36380000D02*
X122380000Y-36380000D01*
X131620000Y-39820000D02*
X131620000Y-36380000D01*
X133580000Y-38100000D02*
X131620000Y-38100000D01*
X96340000Y-59490000D02*
X101780000Y-59490000D01*
X96340000Y-59820000D02*
X96340000Y-59490000D01*
X96340000Y-62100000D02*
X96340000Y-62430000D01*
X96340000Y-62430000D02*
X101780000Y-62430000D01*
X97120000Y-59490000D02*
X97120000Y-62430000D01*
X97240000Y-59490000D02*
X97240000Y-62430000D01*
X97360000Y-59490000D02*
X97360000Y-62430000D01*
X101780000Y-59490000D02*
X101780000Y-59820000D01*
X101780000Y-62430000D02*
X101780000Y-62100000D01*
X44220000Y-89230000D02*
X46180000Y-89230000D01*
X46180000Y-87510000D02*
X46180000Y-90950000D01*
X46180000Y-90950000D02*
X55420000Y-90950000D01*
X55420000Y-87510000D02*
X46180000Y-87510000D01*
X55420000Y-90950000D02*
X55420000Y-87510000D01*
X57380000Y-89230000D02*
X55420000Y-89230000D01*
X73480000Y-59490000D02*
X78920000Y-59490000D01*
X73480000Y-59820000D02*
X73480000Y-59490000D01*
X73480000Y-62100000D02*
X73480000Y-62430000D01*
X73480000Y-62430000D02*
X78920000Y-62430000D01*
X74260000Y-59490000D02*
X74260000Y-62430000D01*
X74380000Y-59490000D02*
X74380000Y-62430000D01*
X74500000Y-59490000D02*
X74500000Y-62430000D01*
X78920000Y-59490000D02*
X78920000Y-59820000D01*
X78920000Y-62430000D02*
X78920000Y-62100000D01*
X35270000Y-95284000D02*
X35270000Y-95440000D01*
X35270000Y-97600000D02*
X35270000Y-97756000D01*
X38502334Y-95441392D02*
G75*
G03*
X35270001Y-95284485I-1672334J-1078608D01*
G01*
X37871129Y-95440164D02*
G75*
G03*
X35789040Y-95440001I-1041129J-1079836D01*
G01*
X35789040Y-97599999D02*
G75*
G03*
X37871129Y-97599836I1040960J1079999D01*
G01*
X35270001Y-97755515D02*
G75*
G03*
X38502334Y-97598608I1559999J1235515D01*
G01*
X31750000Y-120650000D02*
X59690000Y-120650000D01*
X31750000Y-153670000D02*
X31750000Y-120650000D01*
X33020000Y-128270000D02*
X39370000Y-121920000D01*
X33020000Y-152400000D02*
X33020000Y-128270000D01*
X39370000Y-121920000D02*
X52070000Y-121920000D01*
X52070000Y-121920000D02*
X58420000Y-128270000D01*
X58420000Y-128270000D02*
X58420000Y-152400000D01*
X58420000Y-152400000D02*
X33020000Y-152400000D01*
X59690000Y-120650000D02*
X59690000Y-153670000D01*
X59690000Y-153670000D02*
X31750000Y-153670000D01*
X35270000Y-102904000D02*
X35270000Y-103060000D01*
X35270000Y-105220000D02*
X35270000Y-105376000D01*
X38502334Y-103061392D02*
G75*
G03*
X35270001Y-102904485I-1672334J-1078608D01*
G01*
X37871129Y-103060164D02*
G75*
G03*
X35789040Y-103060001I-1041129J-1079836D01*
G01*
X35789040Y-105219999D02*
G75*
G03*
X37871129Y-105219836I1040960J1079999D01*
G01*
X35270001Y-105375515D02*
G75*
G03*
X38502334Y-105218608I1559999J1235515D01*
G01*
X43180000Y-45550000D02*
X43180000Y-46240000D01*
X44600000Y-46240000D02*
X41760000Y-46240000D01*
X41760000Y-46240000D02*
X41760000Y-50280000D01*
X44600000Y-50280000D02*
X44600000Y-46240000D01*
X41760000Y-50280000D02*
X44600000Y-50280000D01*
X43180000Y-50970000D02*
X43180000Y-50280000D01*
X64360000Y-31710000D02*
X69935000Y-31710000D01*
X64360000Y-39410000D02*
X64360000Y-31710000D01*
X64360000Y-39410000D02*
X69935000Y-39410000D01*
X70660000Y-32435000D02*
X69935000Y-31710000D01*
X70660000Y-32435000D02*
X77860000Y-32435000D01*
X70660000Y-38685000D02*
X69935000Y-39410000D01*
X70660000Y-38685000D02*
X77860000Y-38685000D01*
X77860000Y-32435000D02*
X77860000Y-38685000D01*
X35270000Y-87664000D02*
X35270000Y-87820000D01*
X35270000Y-89980000D02*
X35270000Y-90136000D01*
X38502334Y-87821392D02*
G75*
G03*
X35270001Y-87664485I-1672334J-1078608D01*
G01*
X37871129Y-87820164D02*
G75*
G03*
X35789040Y-87820001I-1041129J-1079836D01*
G01*
X35789040Y-89979999D02*
G75*
G03*
X37871129Y-89979836I1040960J1079999D01*
G01*
X35270001Y-90135515D02*
G75*
G03*
X38502334Y-89978608I1559999J1235515D01*
G01*
X118110000Y-62230000D02*
X140970000Y-62230000D01*
X140970000Y-62230000D02*
X140970000Y-45720000D01*
X118110000Y-45720000D02*
X118110000Y-62230000D01*
X140970000Y-45720000D02*
X118110000Y-45720000D01*
X52200000Y-53260000D02*
X74800000Y-53260000D01*
X74800000Y-53260000D02*
X74800000Y-43260000D01*
X52200000Y-43260000D02*
X52200000Y-53260000D01*
X74800000Y-43260000D02*
X52200000Y-43260000D01*
X73600000Y-48260000D02*
G75*
G03*
X73600000Y-48260000I-1600000J0D01*
G01*
X44220000Y-96520000D02*
X46180000Y-96520000D01*
X46180000Y-94800000D02*
X46180000Y-98240000D01*
X46180000Y-98240000D02*
X55420000Y-98240000D01*
X55420000Y-94800000D02*
X46180000Y-94800000D01*
X55420000Y-98240000D02*
X55420000Y-94800000D01*
X57380000Y-96520000D02*
X55420000Y-96520000D01*
X44220000Y-81280000D02*
X46180000Y-81280000D01*
X46180000Y-79560000D02*
X46180000Y-83000000D01*
X46180000Y-83000000D02*
X55420000Y-83000000D01*
X55420000Y-79560000D02*
X46180000Y-79560000D01*
X55420000Y-83000000D02*
X55420000Y-79560000D01*
X57380000Y-81280000D02*
X55420000Y-81280000D01*
X46530000Y-30345000D02*
X52105000Y-30345000D01*
X46530000Y-38045000D02*
X46530000Y-30345000D01*
X46530000Y-38045000D02*
X52105000Y-38045000D01*
X52830000Y-31070000D02*
X52105000Y-30345000D01*
X52830000Y-31070000D02*
X60030000Y-31070000D01*
X52830000Y-37320000D02*
X52105000Y-38045000D01*
X52830000Y-37320000D02*
X60030000Y-37320000D01*
X60030000Y-31070000D02*
X60030000Y-37320000D01*
X166860000Y-142220000D02*
X166860000Y-140800000D01*
X178580000Y-142220000D02*
X166860000Y-142220000D01*
X166860000Y-140800000D02*
X171360000Y-140800000D01*
X171360000Y-140800000D02*
X171360000Y-137160000D01*
X167170000Y-139960000D02*
X167170000Y-139360000D01*
X172470000Y-139910000D02*
X177970000Y-139910000D01*
X177970000Y-139910000D02*
X177970000Y-139410000D01*
X167770000Y-139660000D02*
X167170000Y-139960000D01*
X172470000Y-139410000D02*
X172470000Y-139910000D01*
X177970000Y-139410000D02*
X172470000Y-139410000D01*
X167170000Y-139360000D02*
X167770000Y-139660000D01*
X172470000Y-137410000D02*
X177970000Y-137410000D01*
X177970000Y-137410000D02*
X177970000Y-136910000D01*
X178580000Y-137160000D02*
X178580000Y-142220000D01*
X178580000Y-137160000D02*
X178580000Y-132100000D01*
X172470000Y-136910000D02*
X172470000Y-137410000D01*
X177970000Y-136910000D02*
X172470000Y-136910000D01*
X172470000Y-134910000D02*
X177970000Y-134910000D01*
X177970000Y-134910000D02*
X177970000Y-134410000D01*
X172470000Y-134410000D02*
X172470000Y-134910000D01*
X177970000Y-134410000D02*
X172470000Y-134410000D01*
X166860000Y-133520000D02*
X171360000Y-133520000D01*
X171360000Y-133520000D02*
X171360000Y-137160000D01*
X166860000Y-132100000D02*
X166860000Y-133520000D01*
X178580000Y-132100000D02*
X166860000Y-132100000D01*
X30809759Y-46421000D02*
X31439759Y-46421000D01*
X31124759Y-46106000D02*
X31124759Y-46736000D01*
X34310000Y-45030000D02*
X34310000Y-51490000D01*
X34350000Y-45030000D02*
X34350000Y-51490000D01*
X34390000Y-45030000D02*
X34390000Y-51490000D01*
X34430000Y-45032000D02*
X34430000Y-51488000D01*
X34470000Y-45033000D02*
X34470000Y-51487000D01*
X34510000Y-45036000D02*
X34510000Y-51484000D01*
X34550000Y-45038000D02*
X34550000Y-47220000D01*
X34550000Y-49300000D02*
X34550000Y-51482000D01*
X34590000Y-45042000D02*
X34590000Y-47220000D01*
X34590000Y-49300000D02*
X34590000Y-51478000D01*
X34630000Y-45045000D02*
X34630000Y-47220000D01*
X34630000Y-49300000D02*
X34630000Y-51475000D01*
X34670000Y-45049000D02*
X34670000Y-47220000D01*
X34670000Y-49300000D02*
X34670000Y-51471000D01*
X34710000Y-45054000D02*
X34710000Y-47220000D01*
X34710000Y-49300000D02*
X34710000Y-51466000D01*
X34750000Y-45059000D02*
X34750000Y-47220000D01*
X34750000Y-49300000D02*
X34750000Y-51461000D01*
X34790000Y-45065000D02*
X34790000Y-47220000D01*
X34790000Y-49300000D02*
X34790000Y-51455000D01*
X34830000Y-45071000D02*
X34830000Y-47220000D01*
X34830000Y-49300000D02*
X34830000Y-51449000D01*
X34870000Y-45078000D02*
X34870000Y-47220000D01*
X34870000Y-49300000D02*
X34870000Y-51442000D01*
X34910000Y-45085000D02*
X34910000Y-47220000D01*
X34910000Y-49300000D02*
X34910000Y-51435000D01*
X34950000Y-45093000D02*
X34950000Y-47220000D01*
X34950000Y-49300000D02*
X34950000Y-51427000D01*
X34990000Y-45101000D02*
X34990000Y-47220000D01*
X34990000Y-49300000D02*
X34990000Y-51419000D01*
X35031000Y-45110000D02*
X35031000Y-47220000D01*
X35031000Y-49300000D02*
X35031000Y-51410000D01*
X35071000Y-45119000D02*
X35071000Y-47220000D01*
X35071000Y-49300000D02*
X35071000Y-51401000D01*
X35111000Y-45129000D02*
X35111000Y-47220000D01*
X35111000Y-49300000D02*
X35111000Y-51391000D01*
X35151000Y-45139000D02*
X35151000Y-47220000D01*
X35151000Y-49300000D02*
X35151000Y-51381000D01*
X35191000Y-45150000D02*
X35191000Y-47220000D01*
X35191000Y-49300000D02*
X35191000Y-51370000D01*
X35231000Y-45162000D02*
X35231000Y-47220000D01*
X35231000Y-49300000D02*
X35231000Y-51358000D01*
X35271000Y-45174000D02*
X35271000Y-47220000D01*
X35271000Y-49300000D02*
X35271000Y-51346000D01*
X35311000Y-45186000D02*
X35311000Y-47220000D01*
X35311000Y-49300000D02*
X35311000Y-51334000D01*
X35351000Y-45199000D02*
X35351000Y-47220000D01*
X35351000Y-49300000D02*
X35351000Y-51321000D01*
X35391000Y-45213000D02*
X35391000Y-47220000D01*
X35391000Y-49300000D02*
X35391000Y-51307000D01*
X35431000Y-45227000D02*
X35431000Y-47220000D01*
X35431000Y-49300000D02*
X35431000Y-51293000D01*
X35471000Y-45242000D02*
X35471000Y-47220000D01*
X35471000Y-49300000D02*
X35471000Y-51278000D01*
X35511000Y-45258000D02*
X35511000Y-47220000D01*
X35511000Y-49300000D02*
X35511000Y-51262000D01*
X35551000Y-45274000D02*
X35551000Y-47220000D01*
X35551000Y-49300000D02*
X35551000Y-51246000D01*
X35591000Y-45290000D02*
X35591000Y-47220000D01*
X35591000Y-49300000D02*
X35591000Y-51230000D01*
X35631000Y-45308000D02*
X35631000Y-47220000D01*
X35631000Y-49300000D02*
X35631000Y-51212000D01*
X35671000Y-45326000D02*
X35671000Y-47220000D01*
X35671000Y-49300000D02*
X35671000Y-51194000D01*
X35711000Y-45344000D02*
X35711000Y-47220000D01*
X35711000Y-49300000D02*
X35711000Y-51176000D01*
X35751000Y-45364000D02*
X35751000Y-47220000D01*
X35751000Y-49300000D02*
X35751000Y-51156000D01*
X35791000Y-45384000D02*
X35791000Y-47220000D01*
X35791000Y-49300000D02*
X35791000Y-51136000D01*
X35831000Y-45404000D02*
X35831000Y-47220000D01*
X35831000Y-49300000D02*
X35831000Y-51116000D01*
X35871000Y-45426000D02*
X35871000Y-47220000D01*
X35871000Y-49300000D02*
X35871000Y-51094000D01*
X35911000Y-45448000D02*
X35911000Y-47220000D01*
X35911000Y-49300000D02*
X35911000Y-51072000D01*
X35951000Y-45470000D02*
X35951000Y-47220000D01*
X35951000Y-49300000D02*
X35951000Y-51050000D01*
X35991000Y-45494000D02*
X35991000Y-47220000D01*
X35991000Y-49300000D02*
X35991000Y-51026000D01*
X36031000Y-45518000D02*
X36031000Y-47220000D01*
X36031000Y-49300000D02*
X36031000Y-51002000D01*
X36071000Y-45544000D02*
X36071000Y-47220000D01*
X36071000Y-49300000D02*
X36071000Y-50976000D01*
X36111000Y-45570000D02*
X36111000Y-47220000D01*
X36111000Y-49300000D02*
X36111000Y-50950000D01*
X36151000Y-45596000D02*
X36151000Y-47220000D01*
X36151000Y-49300000D02*
X36151000Y-50924000D01*
X36191000Y-45624000D02*
X36191000Y-47220000D01*
X36191000Y-49300000D02*
X36191000Y-50896000D01*
X36231000Y-45653000D02*
X36231000Y-47220000D01*
X36231000Y-49300000D02*
X36231000Y-50867000D01*
X36271000Y-45682000D02*
X36271000Y-47220000D01*
X36271000Y-49300000D02*
X36271000Y-50838000D01*
X36311000Y-45712000D02*
X36311000Y-47220000D01*
X36311000Y-49300000D02*
X36311000Y-50808000D01*
X36351000Y-45744000D02*
X36351000Y-47220000D01*
X36351000Y-49300000D02*
X36351000Y-50776000D01*
X36391000Y-45776000D02*
X36391000Y-47220000D01*
X36391000Y-49300000D02*
X36391000Y-50744000D01*
X36431000Y-45810000D02*
X36431000Y-47220000D01*
X36431000Y-49300000D02*
X36431000Y-50710000D01*
X36471000Y-45844000D02*
X36471000Y-47220000D01*
X36471000Y-49300000D02*
X36471000Y-50676000D01*
X36511000Y-45880000D02*
X36511000Y-47220000D01*
X36511000Y-49300000D02*
X36511000Y-50640000D01*
X36551000Y-45917000D02*
X36551000Y-47220000D01*
X36551000Y-49300000D02*
X36551000Y-50603000D01*
X36591000Y-45955000D02*
X36591000Y-47220000D01*
X36591000Y-49300000D02*
X36591000Y-50565000D01*
X36631000Y-45995000D02*
X36631000Y-50525000D01*
X36671000Y-46036000D02*
X36671000Y-50484000D01*
X36711000Y-46078000D02*
X36711000Y-50442000D01*
X36751000Y-46123000D02*
X36751000Y-50397000D01*
X36791000Y-46168000D02*
X36791000Y-50352000D01*
X36831000Y-46216000D02*
X36831000Y-50304000D01*
X36871000Y-46265000D02*
X36871000Y-50255000D01*
X36911000Y-46316000D02*
X36911000Y-50204000D01*
X36951000Y-46370000D02*
X36951000Y-50150000D01*
X36991000Y-46426000D02*
X36991000Y-50094000D01*
X37031000Y-46484000D02*
X37031000Y-50036000D01*
X37071000Y-46546000D02*
X37071000Y-49974000D01*
X37111000Y-46610000D02*
X37111000Y-49910000D01*
X37151000Y-46679000D02*
X37151000Y-49841000D01*
X37191000Y-46751000D02*
X37191000Y-49769000D01*
X37231000Y-46828000D02*
X37231000Y-49692000D01*
X37271000Y-46910000D02*
X37271000Y-49610000D01*
X37311000Y-46998000D02*
X37311000Y-49522000D01*
X37351000Y-47095000D02*
X37351000Y-49425000D01*
X37391000Y-47201000D02*
X37391000Y-49319000D01*
X37431000Y-47320000D02*
X37431000Y-49200000D01*
X37471000Y-47458000D02*
X37471000Y-49062000D01*
X37511000Y-47627000D02*
X37511000Y-48893000D01*
X37551000Y-47858000D02*
X37551000Y-48662000D01*
X37580000Y-48260000D02*
G75*
G03*
X37580000Y-48260000I-3270000J0D01*
G01*
X94309759Y-46421000D02*
X94939759Y-46421000D01*
X94624759Y-46106000D02*
X94624759Y-46736000D01*
X97810000Y-45030000D02*
X97810000Y-51490000D01*
X97850000Y-45030000D02*
X97850000Y-51490000D01*
X97890000Y-45030000D02*
X97890000Y-51490000D01*
X97930000Y-45032000D02*
X97930000Y-51488000D01*
X97970000Y-45033000D02*
X97970000Y-51487000D01*
X98010000Y-45036000D02*
X98010000Y-51484000D01*
X98050000Y-45038000D02*
X98050000Y-47220000D01*
X98050000Y-49300000D02*
X98050000Y-51482000D01*
X98090000Y-45042000D02*
X98090000Y-47220000D01*
X98090000Y-49300000D02*
X98090000Y-51478000D01*
X98130000Y-45045000D02*
X98130000Y-47220000D01*
X98130000Y-49300000D02*
X98130000Y-51475000D01*
X98170000Y-45049000D02*
X98170000Y-47220000D01*
X98170000Y-49300000D02*
X98170000Y-51471000D01*
X98210000Y-45054000D02*
X98210000Y-47220000D01*
X98210000Y-49300000D02*
X98210000Y-51466000D01*
X98250000Y-45059000D02*
X98250000Y-47220000D01*
X98250000Y-49300000D02*
X98250000Y-51461000D01*
X98290000Y-45065000D02*
X98290000Y-47220000D01*
X98290000Y-49300000D02*
X98290000Y-51455000D01*
X98330000Y-45071000D02*
X98330000Y-47220000D01*
X98330000Y-49300000D02*
X98330000Y-51449000D01*
X98370000Y-45078000D02*
X98370000Y-47220000D01*
X98370000Y-49300000D02*
X98370000Y-51442000D01*
X98410000Y-45085000D02*
X98410000Y-47220000D01*
X98410000Y-49300000D02*
X98410000Y-51435000D01*
X98450000Y-45093000D02*
X98450000Y-47220000D01*
X98450000Y-49300000D02*
X98450000Y-51427000D01*
X98490000Y-45101000D02*
X98490000Y-47220000D01*
X98490000Y-49300000D02*
X98490000Y-51419000D01*
X98531000Y-45110000D02*
X98531000Y-47220000D01*
X98531000Y-49300000D02*
X98531000Y-51410000D01*
X98571000Y-45119000D02*
X98571000Y-47220000D01*
X98571000Y-49300000D02*
X98571000Y-51401000D01*
X98611000Y-45129000D02*
X98611000Y-47220000D01*
X98611000Y-49300000D02*
X98611000Y-51391000D01*
X98651000Y-45139000D02*
X98651000Y-47220000D01*
X98651000Y-49300000D02*
X98651000Y-51381000D01*
X98691000Y-45150000D02*
X98691000Y-47220000D01*
X98691000Y-49300000D02*
X98691000Y-51370000D01*
X98731000Y-45162000D02*
X98731000Y-47220000D01*
X98731000Y-49300000D02*
X98731000Y-51358000D01*
X98771000Y-45174000D02*
X98771000Y-47220000D01*
X98771000Y-49300000D02*
X98771000Y-51346000D01*
X98811000Y-45186000D02*
X98811000Y-47220000D01*
X98811000Y-49300000D02*
X98811000Y-51334000D01*
X98851000Y-45199000D02*
X98851000Y-47220000D01*
X98851000Y-49300000D02*
X98851000Y-51321000D01*
X98891000Y-45213000D02*
X98891000Y-47220000D01*
X98891000Y-49300000D02*
X98891000Y-51307000D01*
X98931000Y-45227000D02*
X98931000Y-47220000D01*
X98931000Y-49300000D02*
X98931000Y-51293000D01*
X98971000Y-45242000D02*
X98971000Y-47220000D01*
X98971000Y-49300000D02*
X98971000Y-51278000D01*
X99011000Y-45258000D02*
X99011000Y-47220000D01*
X99011000Y-49300000D02*
X99011000Y-51262000D01*
X99051000Y-45274000D02*
X99051000Y-47220000D01*
X99051000Y-49300000D02*
X99051000Y-51246000D01*
X99091000Y-45290000D02*
X99091000Y-47220000D01*
X99091000Y-49300000D02*
X99091000Y-51230000D01*
X99131000Y-45308000D02*
X99131000Y-47220000D01*
X99131000Y-49300000D02*
X99131000Y-51212000D01*
X99171000Y-45326000D02*
X99171000Y-47220000D01*
X99171000Y-49300000D02*
X99171000Y-51194000D01*
X99211000Y-45344000D02*
X99211000Y-47220000D01*
X99211000Y-49300000D02*
X99211000Y-51176000D01*
X99251000Y-45364000D02*
X99251000Y-47220000D01*
X99251000Y-49300000D02*
X99251000Y-51156000D01*
X99291000Y-45384000D02*
X99291000Y-47220000D01*
X99291000Y-49300000D02*
X99291000Y-51136000D01*
X99331000Y-45404000D02*
X99331000Y-47220000D01*
X99331000Y-49300000D02*
X99331000Y-51116000D01*
X99371000Y-45426000D02*
X99371000Y-47220000D01*
X99371000Y-49300000D02*
X99371000Y-51094000D01*
X99411000Y-45448000D02*
X99411000Y-47220000D01*
X99411000Y-49300000D02*
X99411000Y-51072000D01*
X99451000Y-45470000D02*
X99451000Y-47220000D01*
X99451000Y-49300000D02*
X99451000Y-51050000D01*
X99491000Y-45494000D02*
X99491000Y-47220000D01*
X99491000Y-49300000D02*
X99491000Y-51026000D01*
X99531000Y-45518000D02*
X99531000Y-47220000D01*
X99531000Y-49300000D02*
X99531000Y-51002000D01*
X99571000Y-45544000D02*
X99571000Y-47220000D01*
X99571000Y-49300000D02*
X99571000Y-50976000D01*
X99611000Y-45570000D02*
X99611000Y-47220000D01*
X99611000Y-49300000D02*
X99611000Y-50950000D01*
X99651000Y-45596000D02*
X99651000Y-47220000D01*
X99651000Y-49300000D02*
X99651000Y-50924000D01*
X99691000Y-45624000D02*
X99691000Y-47220000D01*
X99691000Y-49300000D02*
X99691000Y-50896000D01*
X99731000Y-45653000D02*
X99731000Y-47220000D01*
X99731000Y-49300000D02*
X99731000Y-50867000D01*
X99771000Y-45682000D02*
X99771000Y-47220000D01*
X99771000Y-49300000D02*
X99771000Y-50838000D01*
X99811000Y-45712000D02*
X99811000Y-47220000D01*
X99811000Y-49300000D02*
X99811000Y-50808000D01*
X99851000Y-45744000D02*
X99851000Y-47220000D01*
X99851000Y-49300000D02*
X99851000Y-50776000D01*
X99891000Y-45776000D02*
X99891000Y-47220000D01*
X99891000Y-49300000D02*
X99891000Y-50744000D01*
X99931000Y-45810000D02*
X99931000Y-47220000D01*
X99931000Y-49300000D02*
X99931000Y-50710000D01*
X99971000Y-45844000D02*
X99971000Y-47220000D01*
X99971000Y-49300000D02*
X99971000Y-50676000D01*
X100011000Y-45880000D02*
X100011000Y-47220000D01*
X100011000Y-49300000D02*
X100011000Y-50640000D01*
X100051000Y-45917000D02*
X100051000Y-47220000D01*
X100051000Y-49300000D02*
X100051000Y-50603000D01*
X100091000Y-45955000D02*
X100091000Y-47220000D01*
X100091000Y-49300000D02*
X100091000Y-50565000D01*
X100131000Y-45995000D02*
X100131000Y-50525000D01*
X100171000Y-46036000D02*
X100171000Y-50484000D01*
X100211000Y-46078000D02*
X100211000Y-50442000D01*
X100251000Y-46123000D02*
X100251000Y-50397000D01*
X100291000Y-46168000D02*
X100291000Y-50352000D01*
X100331000Y-46216000D02*
X100331000Y-50304000D01*
X100371000Y-46265000D02*
X100371000Y-50255000D01*
X100411000Y-46316000D02*
X100411000Y-50204000D01*
X100451000Y-46370000D02*
X100451000Y-50150000D01*
X100491000Y-46426000D02*
X100491000Y-50094000D01*
X100531000Y-46484000D02*
X100531000Y-50036000D01*
X100571000Y-46546000D02*
X100571000Y-49974000D01*
X100611000Y-46610000D02*
X100611000Y-49910000D01*
X100651000Y-46679000D02*
X100651000Y-49841000D01*
X100691000Y-46751000D02*
X100691000Y-49769000D01*
X100731000Y-46828000D02*
X100731000Y-49692000D01*
X100771000Y-46910000D02*
X100771000Y-49610000D01*
X100811000Y-46998000D02*
X100811000Y-49522000D01*
X100851000Y-47095000D02*
X100851000Y-49425000D01*
X100891000Y-47201000D02*
X100891000Y-49319000D01*
X100931000Y-47320000D02*
X100931000Y-49200000D01*
X100971000Y-47458000D02*
X100971000Y-49062000D01*
X101011000Y-47627000D02*
X101011000Y-48893000D01*
X101051000Y-47858000D02*
X101051000Y-48662000D01*
X101080000Y-48260000D02*
G75*
G03*
X101080000Y-48260000I-3270000J0D01*
G01*
X35270000Y-110524000D02*
X35270000Y-110680000D01*
X35270000Y-112840000D02*
X35270000Y-112996000D01*
X38502334Y-110681392D02*
G75*
G03*
X35270001Y-110524485I-1672334J-1078608D01*
G01*
X37871129Y-110680164D02*
G75*
G03*
X35789040Y-110680001I-1041129J-1079836D01*
G01*
X35789040Y-112839999D02*
G75*
G03*
X37871129Y-112839836I1040960J1079999D01*
G01*
X35270001Y-112995515D02*
G75*
G03*
X38502334Y-112838608I1559999J1235515D01*
G01*
X120420000Y-30480000D02*
X122380000Y-30480000D01*
X122380000Y-28760000D02*
X122380000Y-32200000D01*
X122380000Y-32200000D02*
X131620000Y-32200000D01*
X131620000Y-28760000D02*
X122380000Y-28760000D01*
X131620000Y-32200000D02*
X131620000Y-28760000D01*
X133580000Y-30480000D02*
X131620000Y-30480000D01*
X67770000Y-70870000D02*
X137970000Y-70870000D01*
X67770000Y-153670000D02*
X67770000Y-70870000D01*
X67770000Y-153670000D02*
X137970000Y-153670000D01*
X110970000Y-69370000D02*
X110970000Y-78570000D01*
X110970000Y-69370000D02*
X118870000Y-69370000D01*
X118870000Y-69370000D02*
X118870000Y-78570000D01*
X118870000Y-78570000D02*
X110970000Y-78570000D01*
X137970000Y-70870000D02*
X137970000Y-153670000D01*
X148530000Y-142130000D02*
X148530000Y-152530000D01*
X148530000Y-152530000D02*
X158810000Y-152530000D01*
X151020000Y-142190000D02*
X151020000Y-152470000D01*
X151020000Y-152470000D02*
X156320000Y-152470000D01*
X152670000Y-142190000D02*
X151020000Y-142190000D01*
X156320000Y-142190000D02*
X154670000Y-142190000D01*
X156320000Y-152470000D02*
X156320000Y-142190000D01*
X158810000Y-142130000D02*
X148530000Y-142130000D01*
X158810000Y-152530000D02*
X158810000Y-142130000D01*
X152670000Y-142190000D02*
G75*
G03*
X154670000Y-142190000I1000000J0D01*
G01*
M02*
