M48
; DRILL file {KiCad 7.0.2} date Thu Jul 27 23:27:21 2023
; FORMAT={-:-/ absolute / metric / decimal}
; #@! TF.CreationDate,2023-07-27T23:27:21+09:00
; #@! TF.GenerationSoftware,Kicad,Pcbnew,7.0.2
; #@! TF.FileFunction,Plated,1,2,PTH
FMAT,2
METRIC
; #@! TA.AperFunction,Plated,PTH,ViaDrill
T1C0.300
; #@! TA.AperFunction,Plated,PTH,ComponentDrill
T2C0.700
; #@! TA.AperFunction,Plated,PTH,ComponentDrill
T3C0.762
; #@! TA.AperFunction,Plated,PTH,ComponentDrill
T4C0.800
; #@! TA.AperFunction,Plated,PTH,ComponentDrill
T5C0.900
; #@! TA.AperFunction,Plated,PTH,ComponentDrill
T6C0.950
; #@! TA.AperFunction,Plated,PTH,ComponentDrill
T7C1.000
; #@! TA.AperFunction,Plated,PTH,ComponentDrill
T8C1.200
; #@! TA.AperFunction,Plated,PTH,ComponentDrill
T9C2.100
; #@! TA.AperFunction,Plated,PTH,ComponentDrill
T10C3.200
%
G90
G05
T1
X118.322Y-131.038
X118.425Y-138.66
X119.404Y-120.746
X127.256Y-136.852
X130.201Y-137.333
T2
X38.1Y-106.68
X38.1Y-114.3
X38.1Y-121.92
X45.72Y-106.68
X45.72Y-114.3
X45.72Y-121.92
T3
X59.69Y-109.22
X59.69Y-111.76
X59.69Y-114.3
X59.69Y-116.84
X59.69Y-119.38
X59.69Y-121.92
X59.69Y-124.46
X59.69Y-127.0
X59.69Y-129.54
X59.69Y-132.08
X59.69Y-134.62
X59.69Y-137.16
X59.69Y-139.7
X59.69Y-142.24
X59.69Y-144.78
X59.69Y-147.32
X59.69Y-149.86
X59.69Y-152.4
X59.69Y-154.94
X62.23Y-109.22
X62.23Y-111.76
X62.23Y-114.3
X62.23Y-116.84
X62.23Y-119.38
X62.23Y-121.92
X62.23Y-124.46
X62.23Y-127.0
X62.23Y-129.54
X62.23Y-132.08
X62.23Y-134.62
X62.23Y-137.16
X62.23Y-139.7
X62.23Y-142.24
X62.23Y-144.78
X62.23Y-147.32
X62.23Y-149.86
X62.23Y-152.4
X62.23Y-154.94
X120.65Y-109.22
X120.65Y-111.76
X120.65Y-114.3
X120.65Y-116.84
X120.65Y-119.38
X120.65Y-121.92
X120.65Y-124.46
X120.65Y-127.0
X120.65Y-129.54
X120.65Y-132.08
X120.65Y-134.62
X120.65Y-137.16
X120.65Y-139.7
X120.65Y-142.24
X120.65Y-144.78
X120.65Y-147.32
X120.65Y-149.86
X120.65Y-152.4
X120.65Y-154.94
X123.19Y-109.22
X123.19Y-111.76
X123.19Y-114.3
X123.19Y-116.84
X123.19Y-119.38
X123.19Y-121.92
X123.19Y-124.46
X123.19Y-127.0
X123.19Y-129.54
X123.19Y-132.08
X123.19Y-134.62
X123.19Y-137.16
X123.19Y-139.7
X123.19Y-142.24
X123.19Y-144.78
X123.19Y-147.32
X123.19Y-149.86
X123.19Y-152.4
X123.19Y-154.94
T4
X45.72Y-83.92
X45.72Y-86.42
X53.34Y-81.4
X53.34Y-88.9
X135.9Y-125.74
X135.9Y-128.28
X135.9Y-130.82
X135.9Y-133.36
X143.52Y-125.74
X143.52Y-128.28
X143.52Y-130.82
X143.52Y-133.36
T5
X30.48Y-80.01
X30.48Y-87.63
X31.75Y-106.535
X31.75Y-114.625
X31.75Y-121.92
X34.29Y-106.535
X34.29Y-114.625
X34.29Y-121.92
X38.1Y-80.01
X38.1Y-87.63
T6
X21.23Y-83.5
X21.23Y-86.0
X21.23Y-88.5
X21.23Y-96.24
X21.23Y-98.74
X21.23Y-101.24
X21.23Y-103.74
X21.23Y-106.24
X21.23Y-114.02
X21.23Y-116.52
X21.23Y-119.02
X21.23Y-121.52
X21.23Y-124.02
X21.23Y-133.05
X21.23Y-135.55
X21.23Y-138.05
X21.23Y-140.55
X21.23Y-148.65
X21.23Y-151.15
X21.23Y-153.65
X21.23Y-156.15
X156.57Y-63.54
X156.57Y-66.04
X156.57Y-68.54
X156.57Y-78.78
X156.57Y-81.28
X156.57Y-83.78
X156.57Y-94.02
X156.57Y-96.52
X156.57Y-99.02
X156.57Y-109.26
X156.57Y-111.76
X156.57Y-114.26
X156.57Y-124.5
X156.57Y-127.0
X156.57Y-129.5
X156.57Y-139.74
X156.57Y-142.24
X156.57Y-144.74
T7
X32.48Y-156.57
X34.98Y-156.57
X44.47Y-156.57
X46.97Y-156.57
X76.2Y-30.48
X76.2Y-33.02
X76.2Y-35.56
X76.2Y-38.1
X76.2Y-40.64
X76.2Y-43.18
X76.2Y-45.72
X76.2Y-48.26
X76.2Y-50.8
X78.74Y-30.48
X78.74Y-33.02
X78.74Y-35.56
X78.74Y-38.1
X78.74Y-40.64
X78.74Y-43.18
X78.74Y-45.72
X78.74Y-48.26
X78.74Y-50.8
X99.06Y-30.48
X99.06Y-33.02
X99.06Y-35.56
X99.06Y-38.1
X99.06Y-40.64
X99.06Y-43.18
X99.06Y-45.72
X99.06Y-48.26
X99.06Y-50.8
X101.6Y-30.48
X101.6Y-33.02
X101.6Y-35.56
X101.6Y-38.1
X101.6Y-40.64
X101.6Y-43.18
X101.6Y-45.72
X101.6Y-48.26
X101.6Y-50.8
X133.37Y-156.57
X135.87Y-156.57
X143.53Y-156.57
X146.03Y-156.57
X156.57Y-153.69
X156.57Y-156.19
T8
X46.38Y-66.04
X46.38Y-68.58
X46.38Y-71.12
T10
X17.78Y-17.78
X29.845Y-141.605
X138.43Y-143.51
X160.02Y-17.78
T9
G00X23.39Y-62.74
M15
G01X19.79Y-62.74
M16
G05
G00X23.485Y-34.74
M15
G01X19.885Y-34.74
M16
G05
G00X22.765Y-66.84
M15
G01X22.765Y-70.44
M16
G05
G00X22.86Y-38.84
M15
G01X22.86Y-42.44
M16
G05
G00X31.645Y-66.49
M15
G01X31.645Y-70.69
M16
G05
G00X35.12Y-61.59
M15
G01X30.92Y-61.59
M16
G05
G00X154.94Y-38.54
M15
G01X154.94Y-42.74
M16
G05
G00X158.415Y-33.64
M15
G01X154.215Y-33.64
M16
G05
T0
M30
