G04 #@! TF.GenerationSoftware,KiCad,Pcbnew,7.0.2*
G04 #@! TF.CreationDate,2023-07-27T23:27:06+09:00*
G04 #@! TF.ProjectId,undercarriage_system,756e6465-7263-4617-9272-696167655f73,rev?*
G04 #@! TF.SameCoordinates,Original*
G04 #@! TF.FileFunction,Soldermask,Bot*
G04 #@! TF.FilePolarity,Negative*
%FSLAX46Y46*%
G04 Gerber Fmt 4.6, Leading zero omitted, Abs format (unit mm)*
G04 Created by KiCad (PCBNEW 7.0.2) date 2023-07-27 23:27:06*
%MOMM*%
%LPD*%
G01*
G04 APERTURE LIST*
G04 Aperture macros list*
%AMRoundRect*
0 Rectangle with rounded corners*
0 $1 Rounding radius*
0 $2 $3 $4 $5 $6 $7 $8 $9 X,Y pos of 4 corners*
0 Add a 4 corners polygon primitive as box body*
4,1,4,$2,$3,$4,$5,$6,$7,$8,$9,$2,$3,0*
0 Add four circle primitives for the rounded corners*
1,1,$1+$1,$2,$3*
1,1,$1+$1,$4,$5*
1,1,$1+$1,$6,$7*
1,1,$1+$1,$8,$9*
0 Add four rect primitives between the rounded corners*
20,1,$1+$1,$2,$3,$4,$5,0*
20,1,$1+$1,$4,$5,$6,$7,0*
20,1,$1+$1,$6,$7,$8,$9,0*
20,1,$1+$1,$8,$9,$2,$3,0*%
G04 Aperture macros list end*
%ADD10C,5.700000*%
%ADD11RoundRect,0.250000X-0.600000X-0.750000X0.600000X-0.750000X0.600000X0.750000X-0.600000X0.750000X0*%
%ADD12O,1.700000X2.000000*%
%ADD13R,1.600000X1.600000*%
%ADD14C,1.600000*%
%ADD15C,1.800000*%
%ADD16R,1.700000X1.700000*%
%ADD17O,1.700000X1.700000*%
%ADD18RoundRect,0.250000X0.725000X-0.600000X0.725000X0.600000X-0.725000X0.600000X-0.725000X-0.600000X0*%
%ADD19O,1.950000X1.700000*%
%ADD20R,1.800000X1.800000*%
%ADD21O,1.800000X1.800000*%
%ADD22O,7.100000X2.900000*%
%ADD23O,2.900000X7.100000*%
%ADD24RoundRect,0.250000X-0.725000X0.600000X-0.725000X-0.600000X0.725000X-0.600000X0.725000X0.600000X0*%
%ADD25O,6.500000X2.900000*%
%ADD26O,2.900000X6.500000*%
%ADD27C,1.524000*%
%ADD28O,1.600000X1.600000*%
%ADD29RoundRect,0.250000X0.750000X-0.600000X0.750000X0.600000X-0.750000X0.600000X-0.750000X-0.600000X0*%
%ADD30O,2.000000X1.700000*%
%ADD31C,1.400000*%
%ADD32O,1.400000X1.400000*%
G04 APERTURE END LIST*
D10*
X138430000Y-143510000D03*
X29845000Y-141605000D03*
X160020000Y-17780000D03*
X17780000Y-17780000D03*
D11*
X44470000Y-156570000D03*
D12*
X46970000Y-156570000D03*
D13*
X45720000Y-83920000D03*
D14*
X45720000Y-86420000D03*
D15*
X46380000Y-66040000D03*
X46380000Y-68580000D03*
X46380000Y-71120000D03*
D16*
X78740000Y-30480000D03*
D17*
X76200000Y-30480000D03*
X78740000Y-33020000D03*
X76200000Y-33020000D03*
X78740000Y-35560000D03*
X76200000Y-35560000D03*
X78740000Y-38100000D03*
X76200000Y-38100000D03*
X78740000Y-40640000D03*
X76200000Y-40640000D03*
X78740000Y-43180000D03*
X76200000Y-43180000D03*
X78740000Y-45720000D03*
X76200000Y-45720000D03*
X78740000Y-48260000D03*
X76200000Y-48260000D03*
X78740000Y-50800000D03*
X76200000Y-50800000D03*
D11*
X32480000Y-156570000D03*
D12*
X34980000Y-156570000D03*
D16*
X101600000Y-30480000D03*
D17*
X99060000Y-30480000D03*
X101600000Y-33020000D03*
X99060000Y-33020000D03*
X101600000Y-35560000D03*
X99060000Y-35560000D03*
X101600000Y-38100000D03*
X99060000Y-38100000D03*
X101600000Y-40640000D03*
X99060000Y-40640000D03*
X101600000Y-43180000D03*
X99060000Y-43180000D03*
X101600000Y-45720000D03*
X99060000Y-45720000D03*
X101600000Y-48260000D03*
X99060000Y-48260000D03*
X101600000Y-50800000D03*
X99060000Y-50800000D03*
D18*
X156570000Y-144740000D03*
D19*
X156570000Y-142240000D03*
X156570000Y-139740000D03*
D20*
X38100000Y-80010000D03*
D21*
X38100000Y-87630000D03*
D22*
X156315000Y-33640000D03*
D23*
X154940000Y-40640000D03*
D22*
X33020000Y-61590000D03*
D23*
X31645000Y-68590000D03*
D20*
X31750000Y-106535000D03*
D15*
X34290000Y-106535000D03*
D18*
X156570000Y-68540000D03*
D19*
X156570000Y-66040000D03*
X156570000Y-63540000D03*
D18*
X156570000Y-83780000D03*
D19*
X156570000Y-81280000D03*
X156570000Y-78780000D03*
D11*
X133370000Y-156570000D03*
D12*
X135870000Y-156570000D03*
D24*
X21230000Y-114020000D03*
D19*
X21230000Y-116520000D03*
X21230000Y-119020000D03*
X21230000Y-121520000D03*
X21230000Y-124020000D03*
D18*
X156570000Y-99020000D03*
D19*
X156570000Y-96520000D03*
X156570000Y-94020000D03*
D24*
X21230000Y-133050000D03*
D19*
X21230000Y-135550000D03*
X21230000Y-138050000D03*
X21230000Y-140550000D03*
D25*
X21685000Y-34740000D03*
D26*
X22860000Y-40640000D03*
D27*
X59690000Y-109220000D03*
X62230000Y-109220000D03*
X59690000Y-111760000D03*
X62230000Y-111760000D03*
X59690000Y-114300000D03*
X62230000Y-114300000D03*
X59690000Y-116840000D03*
X62230000Y-116840000D03*
X59690000Y-119380000D03*
X62230000Y-119380000D03*
X59690000Y-121920000D03*
X62230000Y-121920000D03*
X59690000Y-124460000D03*
X62230000Y-124460000D03*
X59690000Y-127000000D03*
X62230000Y-127000000D03*
X59690000Y-129540000D03*
X62230000Y-129540000D03*
X59690000Y-132080000D03*
X62230000Y-132080000D03*
X59690000Y-134620000D03*
X62230000Y-134620000D03*
X59690000Y-137160000D03*
X62230000Y-137160000D03*
X59690000Y-139700000D03*
X62230000Y-139700000D03*
X59690000Y-142240000D03*
X62230000Y-142240000D03*
X59690000Y-144780000D03*
X62230000Y-144780000D03*
X59690000Y-147320000D03*
X62230000Y-147320000D03*
X59690000Y-149860000D03*
X62230000Y-149860000D03*
X59690000Y-152400000D03*
X62230000Y-152400000D03*
X59690000Y-154940000D03*
X62230000Y-154940000D03*
X120650000Y-109220000D03*
X123190000Y-109220000D03*
X120650000Y-111760000D03*
X123190000Y-111760000D03*
X120650000Y-114300000D03*
X123190000Y-114300000D03*
X120650000Y-116840000D03*
X123190000Y-116840000D03*
X120650000Y-119380000D03*
X123190000Y-119380000D03*
X120650000Y-121920000D03*
X123190000Y-121920000D03*
X120650000Y-124460000D03*
X123190000Y-124460000D03*
X120650000Y-127000000D03*
X123190000Y-127000000D03*
X120650000Y-129540000D03*
X123190000Y-129540000D03*
X120650000Y-132080000D03*
X123190000Y-132080000D03*
X120650000Y-134620000D03*
X123190000Y-134620000D03*
X120650000Y-137160000D03*
X123190000Y-137160000D03*
X120650000Y-139700000D03*
X123190000Y-139700000D03*
X120650000Y-142240000D03*
X123190000Y-142240000D03*
X120650000Y-144780000D03*
X123190000Y-144780000D03*
X120650000Y-147320000D03*
X123190000Y-147320000D03*
X120650000Y-149860000D03*
X123190000Y-149860000D03*
X120650000Y-152400000D03*
X123190000Y-152400000D03*
X120650000Y-154940000D03*
X123190000Y-154940000D03*
D14*
X53340000Y-88900000D03*
D28*
X53340000Y-81400000D03*
D20*
X31750000Y-114625000D03*
D15*
X34290000Y-114625000D03*
D29*
X156570000Y-156190000D03*
D30*
X156570000Y-153690000D03*
D24*
X21230000Y-148650000D03*
D19*
X21230000Y-151150000D03*
X21230000Y-153650000D03*
X21230000Y-156150000D03*
D18*
X156570000Y-129500000D03*
D19*
X156570000Y-127000000D03*
X156570000Y-124500000D03*
D31*
X38100000Y-106680000D03*
D32*
X45720000Y-106680000D03*
D24*
X21230000Y-83500000D03*
D19*
X21230000Y-86000000D03*
X21230000Y-88500000D03*
D20*
X31750000Y-121920000D03*
D15*
X34290000Y-121920000D03*
D24*
X21230000Y-96240000D03*
D19*
X21230000Y-98740000D03*
X21230000Y-101240000D03*
X21230000Y-103740000D03*
X21230000Y-106240000D03*
D31*
X38100000Y-121920000D03*
D32*
X45720000Y-121920000D03*
D18*
X156570000Y-114260000D03*
D19*
X156570000Y-111760000D03*
X156570000Y-109260000D03*
D25*
X21590000Y-62740000D03*
D26*
X22765000Y-68640000D03*
D31*
X38100000Y-114300000D03*
D32*
X45720000Y-114300000D03*
D11*
X143530000Y-156570000D03*
D12*
X146030000Y-156570000D03*
D20*
X30480000Y-80010000D03*
D21*
X30480000Y-87630000D03*
D13*
X135900000Y-125740000D03*
D28*
X135900000Y-128280000D03*
X135900000Y-130820000D03*
X135900000Y-133360000D03*
X143520000Y-133360000D03*
X143520000Y-130820000D03*
X143520000Y-128280000D03*
X143520000Y-125740000D03*
G36*
X25343039Y-36849685D02*
G01*
X25388794Y-36902489D01*
X25400000Y-36954000D01*
X25400000Y-44326000D01*
X25380315Y-44393039D01*
X25327511Y-44438794D01*
X25276000Y-44450000D01*
X17904000Y-44450000D01*
X17836961Y-44430315D01*
X17791206Y-44377511D01*
X17780000Y-44326000D01*
X17780000Y-36954000D01*
X17799685Y-36886961D01*
X17852489Y-36841206D01*
X17904000Y-36830000D01*
X25276000Y-36830000D01*
X25343039Y-36849685D01*
G37*
G36*
X25343039Y-29229685D02*
G01*
X25388794Y-29282489D01*
X25400000Y-29334000D01*
X25400000Y-35436000D01*
X25380315Y-35503039D01*
X25327511Y-35548794D01*
X25276000Y-35560000D01*
X17904000Y-35560000D01*
X17836961Y-35540315D01*
X17791206Y-35487511D01*
X17780000Y-35436000D01*
X17780000Y-29334000D01*
X17799685Y-29266961D01*
X17852489Y-29221206D01*
X17904000Y-29210000D01*
X25276000Y-29210000D01*
X25343039Y-29229685D01*
G37*
G36*
X159963039Y-36849685D02*
G01*
X160008794Y-36902489D01*
X160020000Y-36954000D01*
X160020000Y-44326000D01*
X160000315Y-44393039D01*
X159947511Y-44438794D01*
X159896000Y-44450000D01*
X152524000Y-44450000D01*
X152456961Y-44430315D01*
X152411206Y-44377511D01*
X152400000Y-44326000D01*
X152400000Y-36954000D01*
X152419685Y-36886961D01*
X152472489Y-36841206D01*
X152524000Y-36830000D01*
X159896000Y-36830000D01*
X159963039Y-36849685D01*
G37*
G36*
X159963039Y-29229685D02*
G01*
X160008794Y-29282489D01*
X160020000Y-29334000D01*
X160020000Y-35436000D01*
X160000315Y-35503039D01*
X159947511Y-35548794D01*
X159896000Y-35560000D01*
X152524000Y-35560000D01*
X152456961Y-35540315D01*
X152411206Y-35487511D01*
X152400000Y-35436000D01*
X152400000Y-29334000D01*
X152419685Y-29266961D01*
X152472489Y-29221206D01*
X152524000Y-29210000D01*
X159896000Y-29210000D01*
X159963039Y-29229685D01*
G37*
M02*
