G04 #@! TF.GenerationSoftware,KiCad,Pcbnew,7.0.2*
G04 #@! TF.CreationDate,2023-07-03T12:24:19+09:00*
G04 #@! TF.ProjectId,undercarriage_system,756e6465-7263-4617-9272-696167655f73,rev?*
G04 #@! TF.SameCoordinates,Original*
G04 #@! TF.FileFunction,Soldermask,Top*
G04 #@! TF.FilePolarity,Negative*
%FSLAX46Y46*%
G04 Gerber Fmt 4.6, Leading zero omitted, Abs format (unit mm)*
G04 Created by KiCad (PCBNEW 7.0.2) date 2023-07-03 12:24:19*
%MOMM*%
%LPD*%
G01*
G04 APERTURE LIST*
G04 Aperture macros list*
%AMRoundRect*
0 Rectangle with rounded corners*
0 $1 Rounding radius*
0 $2 $3 $4 $5 $6 $7 $8 $9 X,Y pos of 4 corners*
0 Add a 4 corners polygon primitive as box body*
4,1,4,$2,$3,$4,$5,$6,$7,$8,$9,$2,$3,0*
0 Add four circle primitives for the rounded corners*
1,1,$1+$1,$2,$3*
1,1,$1+$1,$4,$5*
1,1,$1+$1,$6,$7*
1,1,$1+$1,$8,$9*
0 Add four rect primitives between the rounded corners*
20,1,$1+$1,$2,$3,$4,$5,0*
20,1,$1+$1,$4,$5,$6,$7,0*
20,1,$1+$1,$6,$7,$8,$9,0*
20,1,$1+$1,$8,$9,$2,$3,0*%
G04 Aperture macros list end*
%ADD10C,1.600000*%
%ADD11O,1.600000X1.600000*%
%ADD12R,1.600000X1.600000*%
%ADD13R,1.800000X1.800000*%
%ADD14C,1.800000*%
%ADD15C,5.700000*%
%ADD16RoundRect,0.250000X-0.725000X0.600000X-0.725000X-0.600000X0.725000X-0.600000X0.725000X0.600000X0*%
%ADD17O,1.950000X1.700000*%
%ADD18RoundRect,0.250000X0.750000X-0.600000X0.750000X0.600000X-0.750000X0.600000X-0.750000X-0.600000X0*%
%ADD19O,2.000000X1.700000*%
%ADD20R,1.700000X1.700000*%
%ADD21O,1.700000X1.700000*%
%ADD22C,1.400000*%
%ADD23O,1.400000X1.400000*%
%ADD24RoundRect,0.250000X0.725000X-0.600000X0.725000X0.600000X-0.725000X0.600000X-0.725000X-0.600000X0*%
%ADD25O,2.900000X6.500000*%
%ADD26O,6.500000X2.900000*%
%ADD27O,1.800000X1.800000*%
%ADD28RoundRect,0.250000X-0.600000X-0.750000X0.600000X-0.750000X0.600000X0.750000X-0.600000X0.750000X0*%
%ADD29O,1.700000X2.000000*%
%ADD30O,7.100000X2.900000*%
%ADD31O,2.900000X7.100000*%
%ADD32C,1.524000*%
G04 APERTURE END LIST*
D10*
X161350000Y-101600000D03*
D11*
X168850000Y-101600000D03*
D12*
X170180000Y-152400000D03*
D11*
X170180000Y-154940000D03*
X170180000Y-157480000D03*
X170180000Y-160020000D03*
X177800000Y-160020000D03*
X177800000Y-157480000D03*
X177800000Y-154940000D03*
X177800000Y-152400000D03*
D13*
X182880000Y-139700000D03*
D14*
X185420000Y-139700000D03*
D15*
X22860000Y-20320000D03*
D16*
X25400000Y-142360000D03*
D17*
X25400000Y-144860000D03*
X25400000Y-147360000D03*
X25400000Y-149860000D03*
D18*
X209910000Y-153650000D03*
D19*
X209910000Y-151150000D03*
D14*
X175920000Y-104140000D03*
X175920000Y-106680000D03*
X175920000Y-109220000D03*
D20*
X200660000Y-45720000D03*
D21*
X198120000Y-45720000D03*
X200660000Y-48260000D03*
X198120000Y-48260000D03*
X200660000Y-50800000D03*
X198120000Y-50800000D03*
X200660000Y-53340000D03*
X198120000Y-53340000D03*
X200660000Y-55880000D03*
X198120000Y-55880000D03*
X200660000Y-58420000D03*
X198120000Y-58420000D03*
X200660000Y-60960000D03*
X198120000Y-60960000D03*
X200660000Y-63500000D03*
X198120000Y-63500000D03*
X200660000Y-66040000D03*
X198120000Y-66040000D03*
D22*
X165100000Y-128600000D03*
D23*
X172720000Y-128600000D03*
D20*
X48260000Y-45720000D03*
D21*
X45720000Y-45720000D03*
X48260000Y-48260000D03*
X45720000Y-48260000D03*
X48260000Y-50800000D03*
X45720000Y-50800000D03*
X48260000Y-53340000D03*
X45720000Y-53340000D03*
X48260000Y-55880000D03*
X45720000Y-55880000D03*
X48260000Y-58420000D03*
X45720000Y-58420000D03*
X48260000Y-60960000D03*
X45720000Y-60960000D03*
X48260000Y-63500000D03*
X45720000Y-63500000D03*
X48260000Y-66040000D03*
X45720000Y-66040000D03*
D20*
X73660000Y-45720000D03*
D21*
X71120000Y-45720000D03*
X73660000Y-48260000D03*
X71120000Y-48260000D03*
X73660000Y-50800000D03*
X71120000Y-50800000D03*
X73660000Y-53340000D03*
X71120000Y-53340000D03*
X73660000Y-55880000D03*
X71120000Y-55880000D03*
X73660000Y-58420000D03*
X71120000Y-58420000D03*
X73660000Y-60960000D03*
X71120000Y-60960000D03*
X73660000Y-63500000D03*
X71120000Y-63500000D03*
X73660000Y-66040000D03*
X71120000Y-66040000D03*
D16*
X25400000Y-124580000D03*
D17*
X25400000Y-127080000D03*
X25400000Y-129580000D03*
X25400000Y-132080000D03*
D15*
X213360000Y-20320000D03*
D22*
X165100000Y-123520000D03*
D23*
X172720000Y-123520000D03*
D16*
X25400000Y-108090000D03*
D17*
X25400000Y-110590000D03*
X25400000Y-113090000D03*
D22*
X165100000Y-138760000D03*
D23*
X172720000Y-138760000D03*
D24*
X209910000Y-143450000D03*
D17*
X209910000Y-140950000D03*
X209910000Y-138450000D03*
X209910000Y-135950000D03*
D13*
X182880000Y-123050000D03*
D14*
X185420000Y-123050000D03*
D25*
X24640000Y-99060000D03*
D26*
X30540000Y-97885000D03*
D13*
X194310000Y-114300000D03*
D27*
X201930000Y-114300000D03*
D22*
X165100000Y-133680000D03*
D23*
X172720000Y-133680000D03*
D28*
X57170000Y-159110000D03*
D29*
X59670000Y-159110000D03*
D15*
X22860000Y-160020000D03*
D30*
X212195000Y-48890000D03*
D31*
X210820000Y-55890000D03*
D20*
X99060000Y-45720000D03*
D21*
X96520000Y-45720000D03*
X99060000Y-48260000D03*
X96520000Y-48260000D03*
X99060000Y-50800000D03*
X96520000Y-50800000D03*
X99060000Y-53340000D03*
X96520000Y-53340000D03*
X99060000Y-55880000D03*
X96520000Y-55880000D03*
X99060000Y-58420000D03*
X96520000Y-58420000D03*
X99060000Y-60960000D03*
X96520000Y-60960000D03*
X99060000Y-63500000D03*
X96520000Y-63500000D03*
X99060000Y-66040000D03*
X96520000Y-66040000D03*
D28*
X41930000Y-159110000D03*
D29*
X44430000Y-159110000D03*
D13*
X182880000Y-134150000D03*
D14*
X185420000Y-134150000D03*
D13*
X182880000Y-128600000D03*
D14*
X185420000Y-128600000D03*
D28*
X29230000Y-159110000D03*
D29*
X31730000Y-159110000D03*
D20*
X175260000Y-45720000D03*
D21*
X172720000Y-45720000D03*
X175260000Y-48260000D03*
X172720000Y-48260000D03*
X175260000Y-50800000D03*
X172720000Y-50800000D03*
X175260000Y-53340000D03*
X172720000Y-53340000D03*
X175260000Y-55880000D03*
X172720000Y-55880000D03*
X175260000Y-58420000D03*
X172720000Y-58420000D03*
X175260000Y-60960000D03*
X172720000Y-60960000D03*
X175260000Y-63500000D03*
X172720000Y-63500000D03*
X175260000Y-66040000D03*
X172720000Y-66040000D03*
D20*
X124460000Y-45720000D03*
D21*
X121920000Y-45720000D03*
X124460000Y-48260000D03*
X121920000Y-48260000D03*
X124460000Y-50800000D03*
X121920000Y-50800000D03*
X124460000Y-53340000D03*
X121920000Y-53340000D03*
X124460000Y-55880000D03*
X121920000Y-55880000D03*
X124460000Y-58420000D03*
X121920000Y-58420000D03*
X124460000Y-60960000D03*
X121920000Y-60960000D03*
X124460000Y-63500000D03*
X121920000Y-63500000D03*
X124460000Y-66040000D03*
X121920000Y-66040000D03*
D12*
X162600000Y-109220000D03*
D10*
X165100000Y-109220000D03*
D26*
X24225000Y-49980000D03*
D25*
X25400000Y-55880000D03*
D32*
X151130000Y-142240000D03*
X148590000Y-142240000D03*
X151130000Y-139700000D03*
X148590000Y-139700000D03*
X151130000Y-137160000D03*
X148590000Y-137160000D03*
X151130000Y-134620000D03*
X148590000Y-134620000D03*
X151130000Y-132080000D03*
X148590000Y-132080000D03*
X151130000Y-129540000D03*
X148590000Y-129540000D03*
X151130000Y-127000000D03*
X148590000Y-127000000D03*
X151130000Y-124460000D03*
X148590000Y-124460000D03*
X151130000Y-121920000D03*
X148590000Y-121920000D03*
X151130000Y-119380000D03*
X148590000Y-119380000D03*
X151130000Y-116840000D03*
X148590000Y-116840000D03*
X151130000Y-114300000D03*
X148590000Y-114300000D03*
X151130000Y-111760000D03*
X148590000Y-111760000D03*
X151130000Y-109220000D03*
X148590000Y-109220000D03*
X151130000Y-106680000D03*
X148590000Y-106680000D03*
X151130000Y-104140000D03*
X148590000Y-104140000D03*
X151130000Y-101600000D03*
X148590000Y-101600000D03*
X151130000Y-99060000D03*
X148590000Y-99060000D03*
X151130000Y-96520000D03*
X148590000Y-96520000D03*
X90170000Y-142240000D03*
X87630000Y-142240000D03*
X90170000Y-139700000D03*
X87630000Y-139700000D03*
X90170000Y-137160000D03*
X87630000Y-137160000D03*
X90170000Y-134620000D03*
X87630000Y-134620000D03*
X90170000Y-132080000D03*
X87630000Y-132080000D03*
X90170000Y-129540000D03*
X87630000Y-129540000D03*
X90170000Y-127000000D03*
X87630000Y-127000000D03*
X90170000Y-124460000D03*
X87630000Y-124460000D03*
X90170000Y-121920000D03*
X87630000Y-121920000D03*
X90170000Y-119380000D03*
X87630000Y-119380000D03*
X90170000Y-116840000D03*
X87630000Y-116840000D03*
X90170000Y-114300000D03*
X87630000Y-114300000D03*
X90170000Y-111760000D03*
X87630000Y-111760000D03*
X90170000Y-109220000D03*
X87630000Y-109220000D03*
X90170000Y-106680000D03*
X87630000Y-106680000D03*
X90170000Y-104140000D03*
X87630000Y-104140000D03*
X90170000Y-101600000D03*
X87630000Y-101600000D03*
X90170000Y-99060000D03*
X87630000Y-99060000D03*
X90170000Y-96520000D03*
X87630000Y-96520000D03*
D13*
X168910000Y-93980000D03*
D27*
X161290000Y-93980000D03*
D20*
X149860000Y-45720000D03*
D21*
X147320000Y-45720000D03*
X149860000Y-48260000D03*
X147320000Y-48260000D03*
X149860000Y-50800000D03*
X147320000Y-50800000D03*
X149860000Y-53340000D03*
X147320000Y-53340000D03*
X149860000Y-55880000D03*
X147320000Y-55880000D03*
X149860000Y-58420000D03*
X147320000Y-58420000D03*
X149860000Y-60960000D03*
X147320000Y-60960000D03*
X149860000Y-63500000D03*
X147320000Y-63500000D03*
X149860000Y-66040000D03*
X147320000Y-66040000D03*
D15*
X213360000Y-160020000D03*
D31*
X203830000Y-99060000D03*
D30*
X210830000Y-100435000D03*
D28*
X72410000Y-159110000D03*
D29*
X74910000Y-159110000D03*
M02*
