G04 #@! TF.GenerationSoftware,KiCad,Pcbnew,7.0.2*
G04 #@! TF.CreationDate,2023-07-03T12:24:18+09:00*
G04 #@! TF.ProjectId,undercarriage_system,756e6465-7263-4617-9272-696167655f73,rev?*
G04 #@! TF.SameCoordinates,Original*
G04 #@! TF.FileFunction,Copper,L1,Top*
G04 #@! TF.FilePolarity,Positive*
%FSLAX46Y46*%
G04 Gerber Fmt 4.6, Leading zero omitted, Abs format (unit mm)*
G04 Created by KiCad (PCBNEW 7.0.2) date 2023-07-03 12:24:18*
%MOMM*%
%LPD*%
G01*
G04 APERTURE LIST*
G04 Aperture macros list*
%AMRoundRect*
0 Rectangle with rounded corners*
0 $1 Rounding radius*
0 $2 $3 $4 $5 $6 $7 $8 $9 X,Y pos of 4 corners*
0 Add a 4 corners polygon primitive as box body*
4,1,4,$2,$3,$4,$5,$6,$7,$8,$9,$2,$3,0*
0 Add four circle primitives for the rounded corners*
1,1,$1+$1,$2,$3*
1,1,$1+$1,$4,$5*
1,1,$1+$1,$6,$7*
1,1,$1+$1,$8,$9*
0 Add four rect primitives between the rounded corners*
20,1,$1+$1,$2,$3,$4,$5,0*
20,1,$1+$1,$4,$5,$6,$7,0*
20,1,$1+$1,$6,$7,$8,$9,0*
20,1,$1+$1,$8,$9,$2,$3,0*%
G04 Aperture macros list end*
G04 #@! TA.AperFunction,ComponentPad*
%ADD10C,1.600000*%
G04 #@! TD*
G04 #@! TA.AperFunction,ComponentPad*
%ADD11O,1.600000X1.600000*%
G04 #@! TD*
G04 #@! TA.AperFunction,ComponentPad*
%ADD12R,1.600000X1.600000*%
G04 #@! TD*
G04 #@! TA.AperFunction,ComponentPad*
%ADD13R,1.800000X1.800000*%
G04 #@! TD*
G04 #@! TA.AperFunction,ComponentPad*
%ADD14C,1.800000*%
G04 #@! TD*
G04 #@! TA.AperFunction,ComponentPad*
%ADD15C,5.700000*%
G04 #@! TD*
G04 #@! TA.AperFunction,ComponentPad*
%ADD16RoundRect,0.250000X-0.725000X0.600000X-0.725000X-0.600000X0.725000X-0.600000X0.725000X0.600000X0*%
G04 #@! TD*
G04 #@! TA.AperFunction,ComponentPad*
%ADD17O,1.950000X1.700000*%
G04 #@! TD*
G04 #@! TA.AperFunction,ComponentPad*
%ADD18RoundRect,0.250000X0.750000X-0.600000X0.750000X0.600000X-0.750000X0.600000X-0.750000X-0.600000X0*%
G04 #@! TD*
G04 #@! TA.AperFunction,ComponentPad*
%ADD19O,2.000000X1.700000*%
G04 #@! TD*
G04 #@! TA.AperFunction,ComponentPad*
%ADD20R,1.700000X1.700000*%
G04 #@! TD*
G04 #@! TA.AperFunction,ComponentPad*
%ADD21O,1.700000X1.700000*%
G04 #@! TD*
G04 #@! TA.AperFunction,ComponentPad*
%ADD22C,1.400000*%
G04 #@! TD*
G04 #@! TA.AperFunction,ComponentPad*
%ADD23O,1.400000X1.400000*%
G04 #@! TD*
G04 #@! TA.AperFunction,ComponentPad*
%ADD24RoundRect,0.250000X0.725000X-0.600000X0.725000X0.600000X-0.725000X0.600000X-0.725000X-0.600000X0*%
G04 #@! TD*
G04 #@! TA.AperFunction,ComponentPad*
%ADD25O,2.900000X6.500000*%
G04 #@! TD*
G04 #@! TA.AperFunction,ComponentPad*
%ADD26O,6.500000X2.900000*%
G04 #@! TD*
G04 #@! TA.AperFunction,ComponentPad*
%ADD27O,1.800000X1.800000*%
G04 #@! TD*
G04 #@! TA.AperFunction,ComponentPad*
%ADD28RoundRect,0.250000X-0.600000X-0.750000X0.600000X-0.750000X0.600000X0.750000X-0.600000X0.750000X0*%
G04 #@! TD*
G04 #@! TA.AperFunction,ComponentPad*
%ADD29O,1.700000X2.000000*%
G04 #@! TD*
G04 #@! TA.AperFunction,ComponentPad*
%ADD30O,7.100000X2.900000*%
G04 #@! TD*
G04 #@! TA.AperFunction,ComponentPad*
%ADD31O,2.900000X7.100000*%
G04 #@! TD*
G04 #@! TA.AperFunction,ComponentPad*
%ADD32C,1.524000*%
G04 #@! TD*
G04 #@! TA.AperFunction,ViaPad*
%ADD33C,0.600000*%
G04 #@! TD*
G04 #@! TA.AperFunction,Conductor*
%ADD34C,1.000000*%
G04 #@! TD*
G04 #@! TA.AperFunction,Conductor*
%ADD35C,0.400000*%
G04 #@! TD*
G04 APERTURE END LIST*
D10*
X161350000Y-101600000D03*
D11*
X168850000Y-101600000D03*
D12*
X170180000Y-152400000D03*
D11*
X170180000Y-154940000D03*
X170180000Y-157480000D03*
X170180000Y-160020000D03*
X177800000Y-160020000D03*
X177800000Y-157480000D03*
X177800000Y-154940000D03*
X177800000Y-152400000D03*
D13*
X182880000Y-139700000D03*
D14*
X185420000Y-139700000D03*
D15*
X22860000Y-20320000D03*
D16*
X25400000Y-142360000D03*
D17*
X25400000Y-144860000D03*
X25400000Y-147360000D03*
X25400000Y-149860000D03*
D18*
X209910000Y-153650000D03*
D19*
X209910000Y-151150000D03*
D14*
X175920000Y-104140000D03*
X175920000Y-106680000D03*
X175920000Y-109220000D03*
D20*
X200660000Y-45720000D03*
D21*
X198120000Y-45720000D03*
X200660000Y-48260000D03*
X198120000Y-48260000D03*
X200660000Y-50800000D03*
X198120000Y-50800000D03*
X200660000Y-53340000D03*
X198120000Y-53340000D03*
X200660000Y-55880000D03*
X198120000Y-55880000D03*
X200660000Y-58420000D03*
X198120000Y-58420000D03*
X200660000Y-60960000D03*
X198120000Y-60960000D03*
X200660000Y-63500000D03*
X198120000Y-63500000D03*
X200660000Y-66040000D03*
X198120000Y-66040000D03*
D22*
X165100000Y-128600000D03*
D23*
X172720000Y-128600000D03*
D20*
X48260000Y-45720000D03*
D21*
X45720000Y-45720000D03*
X48260000Y-48260000D03*
X45720000Y-48260000D03*
X48260000Y-50800000D03*
X45720000Y-50800000D03*
X48260000Y-53340000D03*
X45720000Y-53340000D03*
X48260000Y-55880000D03*
X45720000Y-55880000D03*
X48260000Y-58420000D03*
X45720000Y-58420000D03*
X48260000Y-60960000D03*
X45720000Y-60960000D03*
X48260000Y-63500000D03*
X45720000Y-63500000D03*
X48260000Y-66040000D03*
X45720000Y-66040000D03*
D20*
X73660000Y-45720000D03*
D21*
X71120000Y-45720000D03*
X73660000Y-48260000D03*
X71120000Y-48260000D03*
X73660000Y-50800000D03*
X71120000Y-50800000D03*
X73660000Y-53340000D03*
X71120000Y-53340000D03*
X73660000Y-55880000D03*
X71120000Y-55880000D03*
X73660000Y-58420000D03*
X71120000Y-58420000D03*
X73660000Y-60960000D03*
X71120000Y-60960000D03*
X73660000Y-63500000D03*
X71120000Y-63500000D03*
X73660000Y-66040000D03*
X71120000Y-66040000D03*
D16*
X25400000Y-124580000D03*
D17*
X25400000Y-127080000D03*
X25400000Y-129580000D03*
X25400000Y-132080000D03*
D15*
X213360000Y-20320000D03*
D22*
X165100000Y-123520000D03*
D23*
X172720000Y-123520000D03*
D16*
X25400000Y-108090000D03*
D17*
X25400000Y-110590000D03*
X25400000Y-113090000D03*
D22*
X165100000Y-138760000D03*
D23*
X172720000Y-138760000D03*
D24*
X209910000Y-143450000D03*
D17*
X209910000Y-140950000D03*
X209910000Y-138450000D03*
X209910000Y-135950000D03*
D13*
X182880000Y-123050000D03*
D14*
X185420000Y-123050000D03*
D25*
X24640000Y-99060000D03*
D26*
X30540000Y-97885000D03*
D13*
X194310000Y-114300000D03*
D27*
X201930000Y-114300000D03*
D22*
X165100000Y-133680000D03*
D23*
X172720000Y-133680000D03*
D28*
X57170000Y-159110000D03*
D29*
X59670000Y-159110000D03*
D15*
X22860000Y-160020000D03*
D30*
X212195000Y-48890000D03*
D31*
X210820000Y-55890000D03*
D20*
X99060000Y-45720000D03*
D21*
X96520000Y-45720000D03*
X99060000Y-48260000D03*
X96520000Y-48260000D03*
X99060000Y-50800000D03*
X96520000Y-50800000D03*
X99060000Y-53340000D03*
X96520000Y-53340000D03*
X99060000Y-55880000D03*
X96520000Y-55880000D03*
X99060000Y-58420000D03*
X96520000Y-58420000D03*
X99060000Y-60960000D03*
X96520000Y-60960000D03*
X99060000Y-63500000D03*
X96520000Y-63500000D03*
X99060000Y-66040000D03*
X96520000Y-66040000D03*
D28*
X41930000Y-159110000D03*
D29*
X44430000Y-159110000D03*
D13*
X182880000Y-134150000D03*
D14*
X185420000Y-134150000D03*
D13*
X182880000Y-128600000D03*
D14*
X185420000Y-128600000D03*
D28*
X29230000Y-159110000D03*
D29*
X31730000Y-159110000D03*
D20*
X175260000Y-45720000D03*
D21*
X172720000Y-45720000D03*
X175260000Y-48260000D03*
X172720000Y-48260000D03*
X175260000Y-50800000D03*
X172720000Y-50800000D03*
X175260000Y-53340000D03*
X172720000Y-53340000D03*
X175260000Y-55880000D03*
X172720000Y-55880000D03*
X175260000Y-58420000D03*
X172720000Y-58420000D03*
X175260000Y-60960000D03*
X172720000Y-60960000D03*
X175260000Y-63500000D03*
X172720000Y-63500000D03*
X175260000Y-66040000D03*
X172720000Y-66040000D03*
D20*
X124460000Y-45720000D03*
D21*
X121920000Y-45720000D03*
X124460000Y-48260000D03*
X121920000Y-48260000D03*
X124460000Y-50800000D03*
X121920000Y-50800000D03*
X124460000Y-53340000D03*
X121920000Y-53340000D03*
X124460000Y-55880000D03*
X121920000Y-55880000D03*
X124460000Y-58420000D03*
X121920000Y-58420000D03*
X124460000Y-60960000D03*
X121920000Y-60960000D03*
X124460000Y-63500000D03*
X121920000Y-63500000D03*
X124460000Y-66040000D03*
X121920000Y-66040000D03*
D12*
X162600000Y-109220000D03*
D10*
X165100000Y-109220000D03*
D26*
X24225000Y-49980000D03*
D25*
X25400000Y-55880000D03*
D32*
X151130000Y-142240000D03*
X148590000Y-142240000D03*
X151130000Y-139700000D03*
X148590000Y-139700000D03*
X151130000Y-137160000D03*
X148590000Y-137160000D03*
X151130000Y-134620000D03*
X148590000Y-134620000D03*
X151130000Y-132080000D03*
X148590000Y-132080000D03*
X151130000Y-129540000D03*
X148590000Y-129540000D03*
X151130000Y-127000000D03*
X148590000Y-127000000D03*
X151130000Y-124460000D03*
X148590000Y-124460000D03*
X151130000Y-121920000D03*
X148590000Y-121920000D03*
X151130000Y-119380000D03*
X148590000Y-119380000D03*
X151130000Y-116840000D03*
X148590000Y-116840000D03*
X151130000Y-114300000D03*
X148590000Y-114300000D03*
X151130000Y-111760000D03*
X148590000Y-111760000D03*
X151130000Y-109220000D03*
X148590000Y-109220000D03*
X151130000Y-106680000D03*
X148590000Y-106680000D03*
X151130000Y-104140000D03*
X148590000Y-104140000D03*
X151130000Y-101600000D03*
X148590000Y-101600000D03*
X151130000Y-99060000D03*
X148590000Y-99060000D03*
X151130000Y-96520000D03*
X148590000Y-96520000D03*
X90170000Y-142240000D03*
X87630000Y-142240000D03*
X90170000Y-139700000D03*
X87630000Y-139700000D03*
X90170000Y-137160000D03*
X87630000Y-137160000D03*
X90170000Y-134620000D03*
X87630000Y-134620000D03*
X90170000Y-132080000D03*
X87630000Y-132080000D03*
X90170000Y-129540000D03*
X87630000Y-129540000D03*
X90170000Y-127000000D03*
X87630000Y-127000000D03*
X90170000Y-124460000D03*
X87630000Y-124460000D03*
X90170000Y-121920000D03*
X87630000Y-121920000D03*
X90170000Y-119380000D03*
X87630000Y-119380000D03*
X90170000Y-116840000D03*
X87630000Y-116840000D03*
X90170000Y-114300000D03*
X87630000Y-114300000D03*
X90170000Y-111760000D03*
X87630000Y-111760000D03*
X90170000Y-109220000D03*
X87630000Y-109220000D03*
X90170000Y-106680000D03*
X87630000Y-106680000D03*
X90170000Y-104140000D03*
X87630000Y-104140000D03*
X90170000Y-101600000D03*
X87630000Y-101600000D03*
X90170000Y-99060000D03*
X87630000Y-99060000D03*
X90170000Y-96520000D03*
X87630000Y-96520000D03*
D13*
X168910000Y-93980000D03*
D27*
X161290000Y-93980000D03*
D20*
X149860000Y-45720000D03*
D21*
X147320000Y-45720000D03*
X149860000Y-48260000D03*
X147320000Y-48260000D03*
X149860000Y-50800000D03*
X147320000Y-50800000D03*
X149860000Y-53340000D03*
X147320000Y-53340000D03*
X149860000Y-55880000D03*
X147320000Y-55880000D03*
X149860000Y-58420000D03*
X147320000Y-58420000D03*
X149860000Y-60960000D03*
X147320000Y-60960000D03*
X149860000Y-63500000D03*
X147320000Y-63500000D03*
X149860000Y-66040000D03*
X147320000Y-66040000D03*
D15*
X213360000Y-160020000D03*
D31*
X203830000Y-99060000D03*
D30*
X210830000Y-100435000D03*
D28*
X72410000Y-159110000D03*
D29*
X74910000Y-159110000D03*
D33*
X128951200Y-95042100D03*
X121720000Y-91899400D03*
X123319100Y-90207900D03*
X167912200Y-111092200D03*
X157877100Y-103666100D03*
X91935700Y-89466000D03*
X108008200Y-91196200D03*
X96864700Y-125581100D03*
X66074900Y-128664700D03*
X55031300Y-93133100D03*
X66470200Y-127566800D03*
X66470200Y-89466000D03*
X109311500Y-89466000D03*
X106124700Y-93534600D03*
X108146000Y-89404100D03*
X101557200Y-103012100D03*
X67243200Y-127022800D03*
X86146500Y-114451600D03*
D34*
X165100000Y-138760000D02*
X165100000Y-133680000D01*
X174220300Y-152400000D02*
X177800000Y-152400000D01*
X44383800Y-160856500D02*
X44430000Y-160810300D01*
X74910000Y-159110000D02*
X74910000Y-160810300D01*
X59670000Y-159110000D02*
X61220300Y-159110000D01*
X59670000Y-159110000D02*
X59670000Y-160810300D01*
X44513500Y-160893800D02*
X59586500Y-160893800D01*
X209910000Y-140950000D02*
X209615600Y-140950000D01*
X44430000Y-160810300D02*
X44513500Y-160893800D01*
X63015100Y-160904800D02*
X61220300Y-159110000D01*
X74815500Y-160904800D02*
X63015100Y-160904800D01*
X44430000Y-159110000D02*
X44430000Y-160510600D01*
X198165600Y-152400000D02*
X177800000Y-152400000D01*
X74910000Y-160810300D02*
X74815500Y-160904800D01*
X31730000Y-159110000D02*
X33280300Y-159110000D01*
X170180000Y-154940000D02*
X171680300Y-154940000D01*
X209615600Y-140950000D02*
X198165600Y-152400000D01*
X44430000Y-160510600D02*
X44430000Y-160810300D01*
X171680300Y-154940000D02*
X174220300Y-152400000D01*
X35026800Y-160856500D02*
X44383800Y-160856500D01*
X59586500Y-160893800D02*
X59670000Y-160810300D01*
X33280300Y-159110000D02*
X35026800Y-160856500D01*
D35*
X172720000Y-128600000D02*
X182880000Y-128600000D01*
X182880000Y-123050000D02*
X181579700Y-123050000D01*
X172720000Y-123520000D02*
X181109700Y-123520000D01*
X181109700Y-123520000D02*
X181579700Y-123050000D01*
X182880000Y-134150000D02*
X181579700Y-134150000D01*
X172720000Y-133680000D02*
X181109700Y-133680000D01*
X181109700Y-133680000D02*
X181579700Y-134150000D01*
X182880000Y-139700000D02*
X181579700Y-139700000D01*
X172720000Y-138760000D02*
X180639700Y-138760000D01*
X180639700Y-138760000D02*
X181579700Y-139700000D01*
D34*
X196599700Y-104140000D02*
X201679700Y-99060000D01*
X26790300Y-99060000D02*
X27801300Y-100071000D01*
X86918000Y-95042100D02*
X128951200Y-95042100D01*
X27801300Y-100071000D02*
X81889100Y-100071000D01*
X175920000Y-104140000D02*
X196599700Y-104140000D01*
X24640000Y-99060000D02*
X26790300Y-99060000D01*
X81889100Y-100071000D02*
X86918000Y-95042100D01*
X203830000Y-99060000D02*
X201679700Y-99060000D01*
D35*
X175920000Y-109220000D02*
X196850000Y-109220000D01*
X167640000Y-108230100D02*
X167640000Y-106680000D01*
X168629900Y-109220000D02*
X167640000Y-108230100D01*
X196850000Y-109220000D02*
X201930000Y-114300000D01*
X167640000Y-106680000D02*
X162560000Y-101600000D01*
X168629900Y-109220000D02*
X175920000Y-109220000D01*
X162560000Y-101600000D02*
X161350000Y-101600000D01*
X105410000Y-152400000D02*
X90170000Y-137160000D01*
X170180000Y-152400000D02*
X105410000Y-152400000D01*
X177800000Y-157480000D02*
X203200000Y-157480000D01*
X208620000Y-154940000D02*
X209910000Y-153650000D01*
X203200000Y-157480000D02*
X205740000Y-154940000D01*
X205740000Y-154940000D02*
X208620000Y-154940000D01*
X24586700Y-123118200D02*
X23974800Y-123730100D01*
X148590000Y-121920000D02*
X147391800Y-123118200D01*
X23974800Y-123730100D02*
X23974800Y-130654800D01*
X175190300Y-153670000D02*
X171380300Y-157480000D01*
X209910000Y-143450000D02*
X199690000Y-153670000D01*
X199690000Y-153670000D02*
X175190300Y-153670000D01*
X23974800Y-130654800D02*
X25400000Y-132080000D01*
X170180000Y-157480000D02*
X171380300Y-157480000D01*
X147391800Y-123118200D02*
X24586700Y-123118200D01*
X200660000Y-154940000D02*
X204450000Y-151150000D01*
X177800000Y-154940000D02*
X200660000Y-154940000D01*
X204450000Y-151150000D02*
X209910000Y-151150000D01*
X110490000Y-160020000D02*
X170180000Y-160020000D01*
X90170000Y-139700000D02*
X110490000Y-160020000D01*
X151130000Y-142240000D02*
X206120000Y-142240000D01*
X206120000Y-142240000D02*
X209910000Y-138450000D01*
X148590000Y-142240000D02*
X149780500Y-141049500D01*
X204810500Y-141049500D02*
X209910000Y-135950000D01*
X149780500Y-141049500D02*
X204810500Y-141049500D01*
X23991000Y-109499000D02*
X25400000Y-108090000D01*
X23991000Y-113576900D02*
X23991000Y-109499000D01*
X30978500Y-120564400D02*
X23991000Y-113576900D01*
X151130000Y-121920000D02*
X149774400Y-120564400D01*
X149774400Y-120564400D02*
X30978500Y-120564400D01*
X32840600Y-118030600D02*
X25400000Y-110590000D01*
X149939400Y-118030600D02*
X32840600Y-118030600D01*
X151130000Y-116840000D02*
X149939400Y-118030600D01*
X100769700Y-91899400D02*
X74910300Y-66040000D01*
X73660000Y-66040000D02*
X74910300Y-66040000D01*
X121720000Y-91899400D02*
X100769700Y-91899400D01*
X107908800Y-90207900D02*
X99060000Y-81359100D01*
X123319100Y-90207900D02*
X107908800Y-90207900D01*
X99060000Y-66040000D02*
X99060000Y-67290300D01*
X99060000Y-81359100D02*
X99060000Y-67290300D01*
X177940000Y-115570000D02*
X185420000Y-123050000D01*
X147425800Y-105304200D02*
X147425800Y-114842800D01*
X148153000Y-115570000D02*
X177940000Y-115570000D01*
X148590000Y-104140000D02*
X147425800Y-105304200D01*
X147425800Y-114842800D02*
X148153000Y-115570000D01*
X159794600Y-111092200D02*
X167912200Y-111092200D01*
X151572400Y-102870000D02*
X159794600Y-111092200D01*
X149860000Y-102870000D02*
X151572400Y-102870000D01*
X148590000Y-101600000D02*
X149860000Y-102870000D01*
X148590000Y-99060000D02*
X149860000Y-100330000D01*
X149860000Y-100330000D02*
X154541000Y-100330000D01*
X154541000Y-100330000D02*
X157877100Y-103666100D01*
X71120000Y-66040000D02*
X71120000Y-68650300D01*
X71120000Y-68650300D02*
X91935700Y-89466000D01*
X89007600Y-140862400D02*
X89007600Y-136598700D01*
X108008200Y-91196200D02*
X96520000Y-79708000D01*
X90625400Y-135890000D02*
X96864700Y-129650700D01*
X96864700Y-129650700D02*
X96864700Y-125581100D01*
X87630000Y-142240000D02*
X89007600Y-140862400D01*
X96520000Y-79708000D02*
X96520000Y-66040000D01*
X89007600Y-136598700D02*
X89716300Y-135890000D01*
X89716300Y-135890000D02*
X90625400Y-135890000D01*
X55031300Y-93133100D02*
X45720000Y-83821800D01*
X45720000Y-83821800D02*
X45720000Y-66040000D01*
X87630000Y-139700000D02*
X77110200Y-139700000D01*
X77110200Y-139700000D02*
X66074900Y-128664700D01*
X76063400Y-137160000D02*
X87630000Y-137160000D01*
X48260000Y-71255800D02*
X66470200Y-89466000D01*
X48260000Y-66040000D02*
X48260000Y-71255800D01*
X66470200Y-127566800D02*
X76063400Y-137160000D01*
X88840400Y-128329600D02*
X88840400Y-126561600D01*
X26485800Y-125665800D02*
X25400000Y-124580000D01*
X87630000Y-129540000D02*
X88840400Y-128329600D01*
X87944600Y-125665800D02*
X26485800Y-125665800D01*
X88840400Y-126561600D02*
X87944600Y-125665800D01*
X87630000Y-127000000D02*
X86896200Y-126266200D01*
X25400000Y-127080000D02*
X26775300Y-127080000D01*
X27589100Y-126266200D02*
X26775300Y-127080000D01*
X86896200Y-126266200D02*
X27589100Y-126266200D01*
X109311500Y-89466000D02*
X124460000Y-74317500D01*
X124460000Y-74317500D02*
X124460000Y-66040000D01*
X121075700Y-93534600D02*
X147320000Y-67290300D01*
X147320000Y-66040000D02*
X147320000Y-67290300D01*
X106124700Y-93534600D02*
X121075700Y-93534600D01*
X108146000Y-81064300D02*
X108146000Y-89404100D01*
X121920000Y-67290300D02*
X108146000Y-81064300D01*
X121920000Y-66040000D02*
X121920000Y-67290300D01*
X163907300Y-78740000D02*
X177800000Y-78740000D01*
X177800000Y-78740000D02*
X178696700Y-77843300D01*
X196869700Y-66040000D02*
X198120000Y-66040000D01*
X90170000Y-116840000D02*
X125807300Y-116840000D01*
X178696700Y-77843300D02*
X185066400Y-77843300D01*
X185066400Y-77843300D02*
X196869700Y-66040000D01*
X125807300Y-116840000D02*
X163907300Y-78740000D01*
X88900000Y-115570000D02*
X125807500Y-115570000D01*
X125807500Y-115570000D02*
X163237500Y-78140000D01*
X87630000Y-116840000D02*
X88900000Y-115570000D01*
X199927800Y-66040000D02*
X200660000Y-66040000D01*
X163237500Y-78140000D02*
X177551472Y-78140000D01*
X198657800Y-64770000D02*
X199927800Y-66040000D01*
X190921472Y-64770000D02*
X198657800Y-64770000D01*
X177551472Y-78140000D02*
X190921472Y-64770000D01*
X172720000Y-66040000D02*
X171469700Y-66040000D01*
X134497600Y-103012100D02*
X171469700Y-66040000D01*
X101557200Y-103012100D02*
X134497600Y-103012100D01*
X127429100Y-113099300D02*
X88830700Y-113099300D01*
X174009700Y-66518700D02*
X127429100Y-113099300D01*
X174009700Y-66040000D02*
X174009700Y-66518700D01*
X175260000Y-66040000D02*
X174009700Y-66040000D01*
X88830700Y-113099300D02*
X87630000Y-114300000D01*
X40893500Y-126866500D02*
X67086900Y-126866500D01*
X25400000Y-142360000D02*
X40893500Y-126866500D01*
X67086900Y-126866500D02*
X67243200Y-127022800D01*
X86146500Y-113243500D02*
X86146500Y-114451600D01*
X87630000Y-111760000D02*
X86146500Y-113243500D01*
X90170000Y-101600000D02*
X88979900Y-102790100D01*
X23374400Y-107804500D02*
X23374400Y-142834400D01*
X28388800Y-102790100D02*
X23374400Y-107804500D01*
X23374400Y-142834400D02*
X25400000Y-144860000D01*
X88979900Y-102790100D02*
X28388800Y-102790100D01*
X87630000Y-101600000D02*
X88900000Y-100330000D01*
X149860000Y-75412500D02*
X149860000Y-66040000D01*
X124942500Y-100330000D02*
X149860000Y-75412500D01*
X88900000Y-100330000D02*
X124942500Y-100330000D01*
X193148000Y-113138000D02*
X149752000Y-113138000D01*
X149752000Y-113138000D02*
X148590000Y-114300000D01*
X194310000Y-114300000D02*
X193148000Y-113138000D01*
G04 #@! TA.AperFunction,Conductor*
G36*
X47707484Y-86379685D02*
G01*
X47728126Y-86396319D01*
X54506669Y-93174862D01*
X54540154Y-93236185D01*
X54541725Y-93244893D01*
X54546134Y-93275555D01*
X54605923Y-93406474D01*
X54700170Y-93515241D01*
X54700172Y-93515243D01*
X54821247Y-93593053D01*
X54959339Y-93633600D01*
X55103261Y-93633600D01*
X55241353Y-93593053D01*
X55362428Y-93515243D01*
X55456677Y-93406473D01*
X55516465Y-93275557D01*
X55536947Y-93133100D01*
X55516465Y-92990643D01*
X55456677Y-92859727D01*
X55456676Y-92859726D01*
X55456676Y-92859725D01*
X55362429Y-92750958D01*
X55362428Y-92750957D01*
X55241353Y-92673147D01*
X55125036Y-92638993D01*
X55072291Y-92607698D01*
X49036274Y-86571681D01*
X49002789Y-86510358D01*
X49007773Y-86440666D01*
X49049645Y-86384733D01*
X49115109Y-86360316D01*
X49123955Y-86360000D01*
X62746445Y-86360000D01*
X62813484Y-86379685D01*
X62834126Y-86396319D01*
X65945569Y-89507762D01*
X65979054Y-89569085D01*
X65980625Y-89577793D01*
X65985034Y-89608455D01*
X66044823Y-89739374D01*
X66119675Y-89825758D01*
X66139072Y-89848143D01*
X66260147Y-89925953D01*
X66398239Y-89966500D01*
X66542161Y-89966500D01*
X66680253Y-89925953D01*
X66801328Y-89848143D01*
X66895577Y-89739373D01*
X66955365Y-89608457D01*
X66975847Y-89466000D01*
X66955365Y-89323543D01*
X66926021Y-89259290D01*
X66895576Y-89192625D01*
X66801329Y-89083858D01*
X66801328Y-89083857D01*
X66680253Y-89006047D01*
X66563936Y-88971893D01*
X66511191Y-88940598D01*
X64142274Y-86571681D01*
X64108789Y-86510358D01*
X64113773Y-86440666D01*
X64155645Y-86384733D01*
X64221109Y-86360316D01*
X64229955Y-86360000D01*
X88211946Y-86360000D01*
X88278985Y-86379685D01*
X88299627Y-86396319D01*
X91411069Y-89507761D01*
X91444554Y-89569084D01*
X91446126Y-89577794D01*
X91450534Y-89608457D01*
X91510323Y-89739374D01*
X91585175Y-89825758D01*
X91604572Y-89848143D01*
X91725647Y-89925953D01*
X91863739Y-89966500D01*
X92007661Y-89966500D01*
X92145753Y-89925953D01*
X92266828Y-89848143D01*
X92361077Y-89739373D01*
X92420865Y-89608457D01*
X92441347Y-89466000D01*
X92420865Y-89323543D01*
X92391521Y-89259290D01*
X92361076Y-89192625D01*
X92266829Y-89083858D01*
X92266828Y-89083857D01*
X92206290Y-89044952D01*
X92145752Y-89006046D01*
X92029435Y-88971893D01*
X91976689Y-88940597D01*
X89607773Y-86571681D01*
X89574288Y-86510358D01*
X89579272Y-86440666D01*
X89621144Y-86384733D01*
X89686608Y-86360316D01*
X89695454Y-86360000D01*
X94612546Y-86360000D01*
X94679585Y-86379685D01*
X94700225Y-86396318D01*
X100441650Y-92137742D01*
X100531358Y-92227450D01*
X100551095Y-92237506D01*
X100567690Y-92247676D01*
X100585608Y-92260695D01*
X100585609Y-92260695D01*
X100585610Y-92260696D01*
X100606679Y-92267541D01*
X100624649Y-92274984D01*
X100644396Y-92285046D01*
X100666279Y-92288511D01*
X100685198Y-92293052D01*
X100706267Y-92299899D01*
X100727912Y-92299899D01*
X100727924Y-92299900D01*
X100738181Y-92299900D01*
X121381026Y-92299900D01*
X121448065Y-92319585D01*
X121448066Y-92319585D01*
X121486794Y-92344474D01*
X121532548Y-92397278D01*
X121542492Y-92466436D01*
X121513467Y-92529992D01*
X121507435Y-92536470D01*
X120946126Y-93097781D01*
X120884803Y-93131266D01*
X120858445Y-93134100D01*
X106463674Y-93134100D01*
X106396635Y-93114416D01*
X106396029Y-93114027D01*
X106334753Y-93074647D01*
X106196661Y-93034100D01*
X106052739Y-93034100D01*
X105914647Y-93074647D01*
X105793570Y-93152458D01*
X105699323Y-93261225D01*
X105639534Y-93392142D01*
X105619053Y-93534600D01*
X105639534Y-93677057D01*
X105699323Y-93807974D01*
X105793570Y-93916741D01*
X105793572Y-93916743D01*
X105914647Y-93994553D01*
X106052739Y-94035100D01*
X106196661Y-94035100D01*
X106334753Y-93994553D01*
X106396634Y-93954784D01*
X106463674Y-93935100D01*
X121139133Y-93935100D01*
X121160199Y-93928255D01*
X121179114Y-93923712D01*
X121201004Y-93920246D01*
X121220742Y-93910187D01*
X121238716Y-93902742D01*
X121259790Y-93895896D01*
X121277721Y-93882867D01*
X121294298Y-93872709D01*
X121314042Y-93862650D01*
X121322374Y-93854317D01*
X121322380Y-93854313D01*
X128780374Y-86396319D01*
X128841697Y-86362834D01*
X128868055Y-86360000D01*
X138046745Y-86360000D01*
X138113784Y-86379685D01*
X138159539Y-86432489D01*
X138169483Y-86501647D01*
X138140458Y-86565203D01*
X138134426Y-86571681D01*
X129826415Y-94879691D01*
X129765092Y-94913176D01*
X129695400Y-94908192D01*
X129639467Y-94866320D01*
X129618337Y-94821683D01*
X129610990Y-94791876D01*
X129610990Y-94791875D01*
X129531934Y-94641248D01*
X129419129Y-94513917D01*
X129419128Y-94513916D01*
X129419127Y-94513915D01*
X129279130Y-94417282D01*
X129120072Y-94356960D01*
X128997292Y-94342051D01*
X128997280Y-94342050D01*
X128993572Y-94341600D01*
X128989823Y-94341600D01*
X86942921Y-94341600D01*
X86935434Y-94341374D01*
X86875391Y-94337741D01*
X86816227Y-94348583D01*
X86808828Y-94349710D01*
X86749124Y-94356960D01*
X86739651Y-94360553D01*
X86718047Y-94366576D01*
X86708069Y-94368405D01*
X86653225Y-94393087D01*
X86646310Y-94395951D01*
X86590070Y-94417281D01*
X86581723Y-94423043D01*
X86562187Y-94434061D01*
X86552946Y-94438220D01*
X86505609Y-94475306D01*
X86499579Y-94479743D01*
X86450070Y-94513917D01*
X86410177Y-94558946D01*
X86405044Y-94564398D01*
X81635262Y-99334181D01*
X81573939Y-99367666D01*
X81547581Y-99370500D01*
X33911540Y-99370500D01*
X33844501Y-99350815D01*
X33798746Y-99298011D01*
X33788802Y-99228853D01*
X33812273Y-99172189D01*
X33984634Y-98941943D01*
X34118311Y-98697128D01*
X34215792Y-98435777D01*
X34275081Y-98163225D01*
X34277100Y-98135000D01*
X33361411Y-98135000D01*
X33374808Y-98090836D01*
X33395081Y-97885000D01*
X33374808Y-97679164D01*
X33361411Y-97635000D01*
X34277101Y-97635000D01*
X34277100Y-97634999D01*
X34275081Y-97606774D01*
X34215792Y-97334222D01*
X34118311Y-97072871D01*
X33984634Y-96828056D01*
X33817473Y-96604757D01*
X33620242Y-96407526D01*
X33396943Y-96240365D01*
X33152128Y-96106688D01*
X32890777Y-96009207D01*
X32618224Y-95949918D01*
X32411853Y-95935158D01*
X32407428Y-95935000D01*
X30790000Y-95935000D01*
X30790000Y-96835000D01*
X30290000Y-96835000D01*
X30290000Y-95935000D01*
X28672572Y-95935000D01*
X28668146Y-95935158D01*
X28461775Y-95949918D01*
X28189222Y-96009207D01*
X27927871Y-96106688D01*
X27683056Y-96240365D01*
X27459757Y-96407526D01*
X27262526Y-96604757D01*
X27095365Y-96828056D01*
X26961688Y-97072871D01*
X26864207Y-97334222D01*
X26804918Y-97606774D01*
X26802899Y-97634999D01*
X26802899Y-97635000D01*
X27718589Y-97635000D01*
X27705192Y-97679164D01*
X27684919Y-97885000D01*
X27705192Y-98090836D01*
X27718589Y-98135000D01*
X26802899Y-98135000D01*
X26804918Y-98163225D01*
X26814907Y-98209142D01*
X26809923Y-98278834D01*
X26768051Y-98334767D01*
X26702587Y-98359184D01*
X26693741Y-98359500D01*
X26414500Y-98359500D01*
X26347461Y-98339815D01*
X26301706Y-98287011D01*
X26290500Y-98235500D01*
X26290500Y-97197592D01*
X26290500Y-97195147D01*
X26275221Y-97001006D01*
X26214573Y-96748390D01*
X26115154Y-96508372D01*
X25979412Y-96286860D01*
X25939701Y-96240365D01*
X25862424Y-96149885D01*
X25810689Y-96089311D01*
X25685836Y-95982676D01*
X25613143Y-95920590D01*
X25613140Y-95920588D01*
X25391628Y-95784846D01*
X25296470Y-95745430D01*
X25151610Y-95685426D01*
X24898995Y-95624779D01*
X24640000Y-95604396D01*
X24381004Y-95624779D01*
X24128389Y-95685426D01*
X23942839Y-95762285D01*
X23888372Y-95784846D01*
X23804705Y-95836117D01*
X23666856Y-95920590D01*
X23469311Y-96089311D01*
X23300590Y-96286856D01*
X23300588Y-96286860D01*
X23164846Y-96508372D01*
X23164845Y-96508375D01*
X23065426Y-96748389D01*
X23004779Y-97001004D01*
X22989691Y-97192712D01*
X22989690Y-97192728D01*
X22989500Y-97195147D01*
X22989500Y-100924853D01*
X22989690Y-100927272D01*
X22989691Y-100927287D01*
X23004779Y-101118995D01*
X23065426Y-101371610D01*
X23106102Y-101469808D01*
X23164846Y-101611628D01*
X23300588Y-101833140D01*
X23300590Y-101833143D01*
X23367567Y-101911563D01*
X23469311Y-102030689D01*
X23666860Y-102199412D01*
X23888372Y-102335154D01*
X24054972Y-102404162D01*
X24128389Y-102434573D01*
X24182493Y-102447562D01*
X24381006Y-102495221D01*
X24640000Y-102515604D01*
X24898994Y-102495221D01*
X25151610Y-102434573D01*
X25391628Y-102335154D01*
X25613140Y-102199412D01*
X25810689Y-102030689D01*
X25979412Y-101833140D01*
X26115154Y-101611628D01*
X26214573Y-101371610D01*
X26275221Y-101118994D01*
X26290500Y-100924853D01*
X26290500Y-99884500D01*
X26310185Y-99817461D01*
X26362989Y-99771706D01*
X26414500Y-99760500D01*
X26448781Y-99760500D01*
X26515820Y-99780185D01*
X26536462Y-99796819D01*
X27288358Y-100548715D01*
X27293478Y-100554153D01*
X27333371Y-100599183D01*
X27382877Y-100633355D01*
X27388897Y-100637785D01*
X27436241Y-100674877D01*
X27436242Y-100674877D01*
X27436243Y-100674878D01*
X27445484Y-100679037D01*
X27465030Y-100690061D01*
X27473370Y-100695818D01*
X27529613Y-100717147D01*
X27536517Y-100720007D01*
X27591369Y-100744695D01*
X27601344Y-100746522D01*
X27622956Y-100752547D01*
X27632428Y-100756140D01*
X27692141Y-100763390D01*
X27699485Y-100764507D01*
X27758694Y-100775358D01*
X27815402Y-100771927D01*
X27818734Y-100771726D01*
X27826221Y-100771500D01*
X81864179Y-100771500D01*
X81871666Y-100771726D01*
X81874806Y-100771915D01*
X81931706Y-100775358D01*
X81990882Y-100764513D01*
X81998281Y-100763387D01*
X82057972Y-100756140D01*
X82067435Y-100752550D01*
X82089058Y-100746522D01*
X82099032Y-100744695D01*
X82153908Y-100719996D01*
X82160773Y-100717152D01*
X82217030Y-100695818D01*
X82225370Y-100690060D01*
X82244919Y-100679035D01*
X82254157Y-100674878D01*
X82301513Y-100637775D01*
X82307520Y-100633355D01*
X82357029Y-100599183D01*
X82396923Y-100554150D01*
X82402024Y-100548731D01*
X83890755Y-99060000D01*
X86662843Y-99060000D01*
X86681426Y-99248681D01*
X86681427Y-99248683D01*
X86736463Y-99430115D01*
X86825838Y-99597324D01*
X86946117Y-99743883D01*
X87092676Y-99864162D01*
X87259885Y-99953537D01*
X87441317Y-100008573D01*
X87630000Y-100027157D01*
X87818683Y-100008573D01*
X88000115Y-99953537D01*
X88167324Y-99864162D01*
X88313883Y-99743883D01*
X88434162Y-99597324D01*
X88523537Y-99430115D01*
X88578573Y-99248683D01*
X88597157Y-99060000D01*
X88578573Y-98871317D01*
X88523537Y-98689885D01*
X88434162Y-98522676D01*
X88313883Y-98376117D01*
X88167324Y-98255838D01*
X88000115Y-98166463D01*
X87896394Y-98135000D01*
X87818681Y-98111426D01*
X87650613Y-98094873D01*
X87630000Y-98092843D01*
X87629999Y-98092843D01*
X87441318Y-98111426D01*
X87280634Y-98160168D01*
X87270560Y-98163225D01*
X87259882Y-98166464D01*
X87092677Y-98255837D01*
X86946117Y-98376117D01*
X86825837Y-98522677D01*
X86736464Y-98689882D01*
X86681426Y-98871318D01*
X86662843Y-99060000D01*
X83890755Y-99060000D01*
X86456649Y-96494106D01*
X86517970Y-96460623D01*
X86587662Y-96465607D01*
X86643595Y-96507479D01*
X86667731Y-96569634D01*
X86681426Y-96708681D01*
X86736464Y-96890117D01*
X86747216Y-96910232D01*
X86825838Y-97057324D01*
X86946117Y-97203883D01*
X87092676Y-97324162D01*
X87259885Y-97413537D01*
X87441317Y-97468573D01*
X87630000Y-97487157D01*
X87818683Y-97468573D01*
X88000115Y-97413537D01*
X88167324Y-97324162D01*
X88313883Y-97203883D01*
X88434162Y-97057324D01*
X88523537Y-96890115D01*
X88578573Y-96708683D01*
X88597157Y-96520000D01*
X88578573Y-96331317D01*
X88523537Y-96149885D01*
X88434162Y-95982676D01*
X88403458Y-95945264D01*
X88376146Y-95880956D01*
X88387937Y-95812088D01*
X88435089Y-95760528D01*
X88499312Y-95742600D01*
X89300688Y-95742600D01*
X89367727Y-95762285D01*
X89413482Y-95815089D01*
X89423426Y-95884247D01*
X89396541Y-95945264D01*
X89377432Y-95968548D01*
X89365837Y-95982677D01*
X89276464Y-96149882D01*
X89221426Y-96331318D01*
X89202843Y-96519999D01*
X89221426Y-96708681D01*
X89276464Y-96890117D01*
X89287216Y-96910232D01*
X89365838Y-97057324D01*
X89486117Y-97203883D01*
X89632676Y-97324162D01*
X89799885Y-97413537D01*
X89981317Y-97468573D01*
X90170000Y-97487157D01*
X90358683Y-97468573D01*
X90540115Y-97413537D01*
X90707324Y-97324162D01*
X90853883Y-97203883D01*
X90974162Y-97057324D01*
X91063537Y-96890115D01*
X91118573Y-96708683D01*
X91137157Y-96520000D01*
X91118573Y-96331317D01*
X91063537Y-96149885D01*
X90974162Y-95982676D01*
X90943458Y-95945264D01*
X90916146Y-95880956D01*
X90927937Y-95812088D01*
X90975089Y-95760528D01*
X91039312Y-95742600D01*
X128664145Y-95742600D01*
X128731184Y-95762285D01*
X128776939Y-95815089D01*
X128786883Y-95884247D01*
X128757858Y-95947803D01*
X128751826Y-95954281D01*
X124812926Y-99893181D01*
X124751603Y-99926666D01*
X124725245Y-99929500D01*
X90963726Y-99929500D01*
X90896687Y-99909815D01*
X90850932Y-99857011D01*
X90840988Y-99787853D01*
X90867870Y-99726838D01*
X90974162Y-99597324D01*
X91063537Y-99430115D01*
X91118573Y-99248683D01*
X91137157Y-99060000D01*
X91118573Y-98871317D01*
X91063537Y-98689885D01*
X90974162Y-98522676D01*
X90853883Y-98376117D01*
X90707324Y-98255838D01*
X90540115Y-98166463D01*
X90436394Y-98135000D01*
X90358681Y-98111426D01*
X90170000Y-98092843D01*
X89981318Y-98111426D01*
X89820634Y-98160168D01*
X89810560Y-98163225D01*
X89799882Y-98166464D01*
X89632677Y-98255837D01*
X89486117Y-98376117D01*
X89365837Y-98522677D01*
X89276464Y-98689882D01*
X89221426Y-98871318D01*
X89202843Y-99060000D01*
X89221426Y-99248681D01*
X89276464Y-99430117D01*
X89344675Y-99557732D01*
X89365838Y-99597324D01*
X89472129Y-99726838D01*
X89499440Y-99791144D01*
X89487649Y-99860012D01*
X89440498Y-99911572D01*
X89376274Y-99929500D01*
X88858224Y-99929500D01*
X88858212Y-99929501D01*
X88836567Y-99929501D01*
X88815499Y-99936346D01*
X88796583Y-99940887D01*
X88774695Y-99944354D01*
X88754951Y-99954413D01*
X88736984Y-99961855D01*
X88715910Y-99968703D01*
X88697984Y-99981727D01*
X88681398Y-99991891D01*
X88661658Y-100001949D01*
X88639091Y-100024517D01*
X88019698Y-100643907D01*
X87958375Y-100677392D01*
X87896023Y-100674887D01*
X87818683Y-100651426D01*
X87630000Y-100632843D01*
X87441318Y-100651426D01*
X87259882Y-100706464D01*
X87092677Y-100795837D01*
X86946117Y-100916117D01*
X86825837Y-101062677D01*
X86736464Y-101229882D01*
X86681426Y-101411318D01*
X86662843Y-101600000D01*
X86681426Y-101788681D01*
X86700027Y-101850000D01*
X86718721Y-101911628D01*
X86736464Y-101970117D01*
X86825837Y-102137323D01*
X86866553Y-102186935D01*
X86893866Y-102251245D01*
X86882075Y-102320112D01*
X86834923Y-102371673D01*
X86770700Y-102389600D01*
X28347024Y-102389600D01*
X28347012Y-102389601D01*
X28325367Y-102389601D01*
X28304299Y-102396446D01*
X28285383Y-102400987D01*
X28263495Y-102404454D01*
X28243751Y-102414513D01*
X28225784Y-102421955D01*
X28204710Y-102428803D01*
X28186784Y-102441827D01*
X28170199Y-102451990D01*
X28150460Y-102462047D01*
X23068913Y-107543594D01*
X23046349Y-107566157D01*
X23036292Y-107585896D01*
X23026131Y-107602479D01*
X23013102Y-107620413D01*
X23006254Y-107641487D01*
X22998812Y-107659454D01*
X22988753Y-107679197D01*
X22985286Y-107701082D01*
X22980747Y-107719991D01*
X22973900Y-107741066D01*
X22973900Y-142897834D01*
X22980746Y-142918907D01*
X22985286Y-142937818D01*
X22988753Y-142959702D01*
X22998812Y-142979444D01*
X23006258Y-142997420D01*
X23013104Y-143018490D01*
X23026126Y-143036414D01*
X23036289Y-143052999D01*
X23046347Y-143072739D01*
X23046349Y-143072741D01*
X23046350Y-143072742D01*
X23062683Y-143089075D01*
X23062696Y-143089090D01*
X24279981Y-144306374D01*
X24313466Y-144367697D01*
X24308482Y-144437389D01*
X24301659Y-144452506D01*
X24299769Y-144456041D01*
X24239699Y-144654067D01*
X24219417Y-144860000D01*
X24239699Y-145065932D01*
X24239700Y-145065934D01*
X24299768Y-145263954D01*
X24397315Y-145446450D01*
X24448609Y-145508952D01*
X24528589Y-145606410D01*
X24608570Y-145672047D01*
X24688550Y-145737685D01*
X24871046Y-145835232D01*
X24871047Y-145835232D01*
X24881817Y-145840989D01*
X24880812Y-145842868D01*
X24925972Y-145872462D01*
X24954430Y-145936274D01*
X24943871Y-146005341D01*
X24897648Y-146057735D01*
X24863634Y-146072602D01*
X24811507Y-146086569D01*
X24597421Y-146186400D01*
X24403921Y-146321890D01*
X24236893Y-146488918D01*
X24101399Y-146682423D01*
X24001569Y-146896507D01*
X23944364Y-147109999D01*
X23944364Y-147110000D01*
X24996031Y-147110000D01*
X24963481Y-147160649D01*
X24925000Y-147291705D01*
X24925000Y-147428295D01*
X24963481Y-147559351D01*
X24996031Y-147610000D01*
X23944364Y-147610000D01*
X24001569Y-147823492D01*
X24101400Y-148037578D01*
X24236890Y-148231078D01*
X24403921Y-148398109D01*
X24597421Y-148533599D01*
X24811509Y-148633431D01*
X24863632Y-148647397D01*
X24923293Y-148683761D01*
X24953823Y-148746608D01*
X24945529Y-148815983D01*
X24901044Y-148869862D01*
X24881546Y-148879155D01*
X24688551Y-148982314D01*
X24528589Y-149113589D01*
X24397314Y-149273551D01*
X24299769Y-149456043D01*
X24239699Y-149654067D01*
X24219417Y-149860000D01*
X24239699Y-150065932D01*
X24299769Y-150263956D01*
X24304237Y-150272315D01*
X24397315Y-150446450D01*
X24448609Y-150508952D01*
X24528589Y-150606410D01*
X24608570Y-150672047D01*
X24688550Y-150737685D01*
X24871046Y-150835232D01*
X25069066Y-150895300D01*
X25223392Y-150910500D01*
X25226442Y-150910500D01*
X25573558Y-150910500D01*
X25576608Y-150910500D01*
X25730934Y-150895300D01*
X25928954Y-150835232D01*
X26111450Y-150737685D01*
X26271410Y-150606410D01*
X26402685Y-150446450D01*
X26500232Y-150263954D01*
X26560300Y-150065934D01*
X26580583Y-149860000D01*
X26560300Y-149654066D01*
X26500232Y-149456046D01*
X26402685Y-149273550D01*
X26337047Y-149193569D01*
X26271410Y-149113589D01*
X26173952Y-149033609D01*
X26111450Y-148982315D01*
X25928954Y-148884768D01*
X25928952Y-148884767D01*
X25918183Y-148879011D01*
X25919187Y-148877132D01*
X25874020Y-148847529D01*
X25845568Y-148783716D01*
X25856132Y-148714649D01*
X25902359Y-148662258D01*
X25936367Y-148647397D01*
X25988491Y-148633431D01*
X26202578Y-148533599D01*
X26396078Y-148398109D01*
X26563106Y-148231081D01*
X26698600Y-148037576D01*
X26798430Y-147823492D01*
X26855636Y-147610000D01*
X25803969Y-147610000D01*
X25836519Y-147559351D01*
X25875000Y-147428295D01*
X25875000Y-147291705D01*
X25836519Y-147160649D01*
X25803969Y-147110000D01*
X26855636Y-147110000D01*
X26855635Y-147109999D01*
X26798430Y-146896507D01*
X26698599Y-146682421D01*
X26563109Y-146488921D01*
X26396078Y-146321890D01*
X26202578Y-146186400D01*
X25988492Y-146086569D01*
X25936365Y-146072602D01*
X25876705Y-146036237D01*
X25846176Y-145973390D01*
X25854471Y-145904014D01*
X25898956Y-145850136D01*
X25918451Y-145840845D01*
X25928949Y-145835233D01*
X25928954Y-145835232D01*
X26111450Y-145737685D01*
X26271410Y-145606410D01*
X26402685Y-145446450D01*
X26500232Y-145263954D01*
X26560300Y-145065934D01*
X26580583Y-144860000D01*
X26560300Y-144654066D01*
X26500232Y-144456046D01*
X26402685Y-144273550D01*
X26288734Y-144134699D01*
X26271410Y-144113589D01*
X26173952Y-144033609D01*
X26111450Y-143982315D01*
X25928954Y-143884768D01*
X25829944Y-143854734D01*
X25730932Y-143824699D01*
X25579641Y-143809798D01*
X25579626Y-143809797D01*
X25576608Y-143809500D01*
X25223392Y-143809500D01*
X25220374Y-143809797D01*
X25220358Y-143809798D01*
X25069066Y-143824699D01*
X25034323Y-143835238D01*
X24964456Y-143835859D01*
X24910650Y-143804257D01*
X24728574Y-143622181D01*
X24695089Y-143560858D01*
X24700073Y-143491166D01*
X24741945Y-143435233D01*
X24807409Y-143410816D01*
X24816255Y-143410500D01*
X26176373Y-143410500D01*
X26179266Y-143410500D01*
X26209699Y-143407646D01*
X26337882Y-143362793D01*
X26337882Y-143362792D01*
X26337884Y-143362792D01*
X26447150Y-143282150D01*
X26527792Y-143172884D01*
X26527793Y-143172882D01*
X26572646Y-143044699D01*
X26575500Y-143014266D01*
X26575500Y-141802254D01*
X26595185Y-141735216D01*
X26611819Y-141714574D01*
X41023074Y-127303319D01*
X41084397Y-127269834D01*
X41110755Y-127267000D01*
X65864553Y-127267000D01*
X65931592Y-127286685D01*
X65977347Y-127339489D01*
X65987291Y-127408646D01*
X65964553Y-127566799D01*
X65985034Y-127709257D01*
X66044823Y-127840174D01*
X66147784Y-127958998D01*
X66176809Y-128022553D01*
X66166865Y-128091712D01*
X66121110Y-128144516D01*
X66054071Y-128164200D01*
X66002939Y-128164200D01*
X65864847Y-128204747D01*
X65743770Y-128282558D01*
X65649523Y-128391325D01*
X65589734Y-128522242D01*
X65569253Y-128664700D01*
X65589734Y-128807157D01*
X65649523Y-128938074D01*
X65743770Y-129046841D01*
X65743772Y-129046843D01*
X65864847Y-129124653D01*
X65981162Y-129158805D01*
X66033908Y-129190101D01*
X76857970Y-140014163D01*
X76857976Y-140014168D01*
X76871858Y-140028050D01*
X76889708Y-140037145D01*
X76891594Y-140038106D01*
X76908182Y-140048271D01*
X76926110Y-140061296D01*
X76947179Y-140068141D01*
X76965158Y-140075588D01*
X76984896Y-140085646D01*
X77006780Y-140089112D01*
X77025694Y-140093653D01*
X77046767Y-140100500D01*
X77078681Y-140100500D01*
X86678382Y-140100500D01*
X86745421Y-140120185D01*
X86787737Y-140166043D01*
X86825838Y-140237324D01*
X86946117Y-140383883D01*
X87092676Y-140504162D01*
X87259885Y-140593537D01*
X87441317Y-140648573D01*
X87630000Y-140667157D01*
X87818683Y-140648573D01*
X88000115Y-140593537D01*
X88167324Y-140504162D01*
X88313883Y-140383883D01*
X88387248Y-140294488D01*
X88444993Y-140255155D01*
X88514838Y-140253284D01*
X88574606Y-140289472D01*
X88605322Y-140352228D01*
X88607100Y-140373154D01*
X88607100Y-140645144D01*
X88587415Y-140712183D01*
X88570781Y-140732825D01*
X88019698Y-141283907D01*
X87958375Y-141317392D01*
X87896023Y-141314887D01*
X87818683Y-141291426D01*
X87630000Y-141272843D01*
X87441318Y-141291426D01*
X87259882Y-141346464D01*
X87092677Y-141435837D01*
X86946117Y-141556117D01*
X86825837Y-141702677D01*
X86736464Y-141869882D01*
X86681426Y-142051318D01*
X86662843Y-142240000D01*
X86681426Y-142428681D01*
X86681427Y-142428683D01*
X86729838Y-142588276D01*
X86736464Y-142610117D01*
X86767674Y-142668507D01*
X86825838Y-142777324D01*
X86946117Y-142923883D01*
X87092676Y-143044162D01*
X87259885Y-143133537D01*
X87441317Y-143188573D01*
X87630000Y-143207157D01*
X87818683Y-143188573D01*
X88000115Y-143133537D01*
X88167324Y-143044162D01*
X88313883Y-142923883D01*
X88434162Y-142777324D01*
X88523537Y-142610115D01*
X88578573Y-142428683D01*
X88597157Y-142240000D01*
X89202843Y-142240000D01*
X89221426Y-142428681D01*
X89221427Y-142428683D01*
X89269838Y-142588276D01*
X89276464Y-142610117D01*
X89307674Y-142668507D01*
X89365838Y-142777324D01*
X89486117Y-142923883D01*
X89632676Y-143044162D01*
X89799885Y-143133537D01*
X89981317Y-143188573D01*
X90170000Y-143207157D01*
X90358683Y-143188573D01*
X90540115Y-143133537D01*
X90707324Y-143044162D01*
X90853883Y-142923883D01*
X90974162Y-142777324D01*
X91063537Y-142610115D01*
X91118573Y-142428683D01*
X91137157Y-142240000D01*
X91118573Y-142051317D01*
X91063537Y-141869885D01*
X90974162Y-141702676D01*
X90853883Y-141556117D01*
X90707324Y-141435838D01*
X90560216Y-141357207D01*
X90540117Y-141346464D01*
X90540116Y-141346463D01*
X90540115Y-141346463D01*
X90444279Y-141317392D01*
X90358681Y-141291426D01*
X90170000Y-141272843D01*
X89981318Y-141291426D01*
X89799882Y-141346464D01*
X89632677Y-141435837D01*
X89486117Y-141556117D01*
X89365837Y-141702677D01*
X89276464Y-141869882D01*
X89221426Y-142051318D01*
X89202843Y-142240000D01*
X88597157Y-142240000D01*
X88578573Y-142051317D01*
X88555112Y-141973975D01*
X88554489Y-141904108D01*
X88586090Y-141850301D01*
X89172135Y-141264258D01*
X89327313Y-141109081D01*
X89327317Y-141109073D01*
X89335650Y-141100742D01*
X89345709Y-141080998D01*
X89355867Y-141064421D01*
X89368896Y-141046489D01*
X89375743Y-141025413D01*
X89383184Y-141007449D01*
X89393246Y-140987704D01*
X89396712Y-140965813D01*
X89401252Y-140946904D01*
X89408100Y-140925833D01*
X89408100Y-140798967D01*
X89408100Y-140582031D01*
X89427785Y-140514993D01*
X89480589Y-140469238D01*
X89549747Y-140459294D01*
X89610762Y-140486178D01*
X89632676Y-140504162D01*
X89799885Y-140593537D01*
X89981317Y-140648573D01*
X90170000Y-140667157D01*
X90358683Y-140648573D01*
X90436024Y-140625111D01*
X90505890Y-140624489D01*
X90559699Y-140656092D01*
X110237770Y-160334163D01*
X110237776Y-160334168D01*
X110251658Y-160348050D01*
X110271397Y-160358107D01*
X110287982Y-160368271D01*
X110305910Y-160381297D01*
X110326978Y-160388142D01*
X110344955Y-160395588D01*
X110362890Y-160404726D01*
X110364696Y-160405646D01*
X110386585Y-160409112D01*
X110405489Y-160413651D01*
X110426567Y-160420500D01*
X110458481Y-160420500D01*
X169185294Y-160420500D01*
X169252333Y-160440185D01*
X169294652Y-160486047D01*
X169319979Y-160533430D01*
X169344090Y-160578538D01*
X169469117Y-160730883D01*
X169621462Y-160855910D01*
X169795273Y-160948814D01*
X169983868Y-161006024D01*
X170180000Y-161025341D01*
X170376132Y-161006024D01*
X170564727Y-160948814D01*
X170738538Y-160855910D01*
X170890883Y-160730883D01*
X171015910Y-160578538D01*
X171108814Y-160404727D01*
X171166024Y-160216132D01*
X171185341Y-160020000D01*
X176794659Y-160020000D01*
X176813976Y-160216133D01*
X176871185Y-160404726D01*
X176914652Y-160486047D01*
X176964090Y-160578538D01*
X177089117Y-160730883D01*
X177241462Y-160855910D01*
X177415273Y-160948814D01*
X177603868Y-161006024D01*
X177800000Y-161025341D01*
X177996132Y-161006024D01*
X178184727Y-160948814D01*
X178358538Y-160855910D01*
X178510883Y-160730883D01*
X178635910Y-160578538D01*
X178728814Y-160404727D01*
X178786024Y-160216132D01*
X178805341Y-160020000D01*
X178786024Y-159823868D01*
X178728814Y-159635273D01*
X178635910Y-159461462D01*
X178510883Y-159309117D01*
X178358538Y-159184090D01*
X178336091Y-159172091D01*
X178184726Y-159091185D01*
X177996133Y-159033976D01*
X177800000Y-159014659D01*
X177603866Y-159033976D01*
X177415273Y-159091185D01*
X177241463Y-159184089D01*
X177089117Y-159309117D01*
X176964089Y-159461463D01*
X176871185Y-159635273D01*
X176813976Y-159823866D01*
X176794659Y-160020000D01*
X171185341Y-160020000D01*
X171166024Y-159823868D01*
X171108814Y-159635273D01*
X171015910Y-159461462D01*
X170890883Y-159309117D01*
X170738538Y-159184090D01*
X170716091Y-159172091D01*
X170564726Y-159091185D01*
X170376133Y-159033976D01*
X170278065Y-159024317D01*
X170180000Y-159014659D01*
X170179999Y-159014659D01*
X169983866Y-159033976D01*
X169795273Y-159091185D01*
X169621463Y-159184089D01*
X169469117Y-159309117D01*
X169344089Y-159461463D01*
X169294652Y-159553953D01*
X169245690Y-159603798D01*
X169185294Y-159619500D01*
X110707255Y-159619500D01*
X110640216Y-159599815D01*
X110619574Y-159583181D01*
X91126092Y-140089699D01*
X91092607Y-140028376D01*
X91095112Y-139966023D01*
X91096939Y-139960000D01*
X91118573Y-139888683D01*
X91137157Y-139700000D01*
X91118573Y-139511317D01*
X91063537Y-139329885D01*
X90974162Y-139162676D01*
X90853883Y-139016117D01*
X90707324Y-138895838D01*
X90561733Y-138818018D01*
X90540117Y-138806464D01*
X90540116Y-138806463D01*
X90540115Y-138806463D01*
X90449398Y-138778945D01*
X90358681Y-138751426D01*
X90170000Y-138732843D01*
X89981318Y-138751426D01*
X89799882Y-138806464D01*
X89632676Y-138895837D01*
X89610765Y-138913820D01*
X89546455Y-138941133D01*
X89477587Y-138929342D01*
X89426027Y-138882190D01*
X89408100Y-138817967D01*
X89408100Y-138042032D01*
X89427785Y-137974993D01*
X89480589Y-137929238D01*
X89549747Y-137919294D01*
X89610762Y-137946178D01*
X89632676Y-137964162D01*
X89799885Y-138053537D01*
X89981317Y-138108573D01*
X90170000Y-138127157D01*
X90358683Y-138108573D01*
X90436024Y-138085111D01*
X90505890Y-138084489D01*
X90559699Y-138116092D01*
X105157770Y-152714163D01*
X105157776Y-152714168D01*
X105171658Y-152728050D01*
X105191400Y-152738109D01*
X105207988Y-152748274D01*
X105225911Y-152761296D01*
X105246987Y-152768144D01*
X105264945Y-152775582D01*
X105284696Y-152785646D01*
X105294525Y-152787202D01*
X105306577Y-152789112D01*
X105325497Y-152793654D01*
X105346567Y-152800500D01*
X105378481Y-152800500D01*
X169055500Y-152800500D01*
X169122539Y-152820185D01*
X169168294Y-152872989D01*
X169179500Y-152924500D01*
X169179500Y-153219748D01*
X169191132Y-153278230D01*
X169235447Y-153344552D01*
X169301769Y-153388867D01*
X169360251Y-153400500D01*
X170020662Y-153400500D01*
X170087701Y-153420185D01*
X170133456Y-153472989D01*
X170143400Y-153542147D01*
X170114375Y-153605703D01*
X170055597Y-153643477D01*
X170031469Y-153648028D01*
X169953397Y-153654858D01*
X169733673Y-153713733D01*
X169527519Y-153809865D01*
X169341180Y-153940341D01*
X169180341Y-154101180D01*
X169049865Y-154287519D01*
X168953733Y-154493673D01*
X168901128Y-154689999D01*
X168901128Y-154690000D01*
X169864314Y-154690000D01*
X169852359Y-154701955D01*
X169794835Y-154814852D01*
X169775014Y-154940000D01*
X169794835Y-155065148D01*
X169852359Y-155178045D01*
X169864314Y-155190000D01*
X168901128Y-155190000D01*
X168953733Y-155386326D01*
X169049865Y-155592480D01*
X169180341Y-155778819D01*
X169341180Y-155939658D01*
X169527519Y-156070134D01*
X169733673Y-156166266D01*
X169929999Y-156218871D01*
X169930000Y-156218871D01*
X169930000Y-155255686D01*
X169941955Y-155267641D01*
X170054852Y-155325165D01*
X170148519Y-155340000D01*
X170211481Y-155340000D01*
X170305148Y-155325165D01*
X170418045Y-155267641D01*
X170430000Y-155255686D01*
X170430000Y-156218871D01*
X170626326Y-156166266D01*
X170832480Y-156070134D01*
X171018819Y-155939658D01*
X171179658Y-155778819D01*
X171310134Y-155592480D01*
X171406266Y-155386326D01*
X171458872Y-155190000D01*
X170495686Y-155190000D01*
X170507641Y-155178045D01*
X170565165Y-155065148D01*
X170584986Y-154940000D01*
X170565165Y-154814852D01*
X170507641Y-154701955D01*
X170495686Y-154690000D01*
X171458872Y-154690000D01*
X171458871Y-154689999D01*
X171406266Y-154493673D01*
X171310134Y-154287519D01*
X171179658Y-154101180D01*
X171018819Y-153940341D01*
X170832480Y-153809865D01*
X170626326Y-153713733D01*
X170406602Y-153654858D01*
X170328531Y-153648028D01*
X170263462Y-153622576D01*
X170222483Y-153565985D01*
X170218605Y-153496223D01*
X170253059Y-153435439D01*
X170314905Y-153402931D01*
X170339338Y-153400500D01*
X170999749Y-153400500D01*
X171028989Y-153394683D01*
X171058231Y-153388867D01*
X171124552Y-153344552D01*
X171168867Y-153278231D01*
X171180500Y-153219748D01*
X171180500Y-151580252D01*
X171175269Y-151553956D01*
X171168867Y-151521769D01*
X171124552Y-151455447D01*
X171058230Y-151411132D01*
X170999749Y-151399500D01*
X170999748Y-151399500D01*
X169360252Y-151399500D01*
X169360251Y-151399500D01*
X169301769Y-151411132D01*
X169235447Y-151455447D01*
X169191132Y-151521769D01*
X169179500Y-151580251D01*
X169179500Y-151875500D01*
X169159815Y-151942539D01*
X169107011Y-151988294D01*
X169055500Y-151999500D01*
X105627255Y-151999500D01*
X105560216Y-151979815D01*
X105539574Y-151963181D01*
X95816393Y-142240000D01*
X147622843Y-142240000D01*
X147641426Y-142428681D01*
X147641427Y-142428683D01*
X147689838Y-142588276D01*
X147696464Y-142610117D01*
X147727674Y-142668507D01*
X147785838Y-142777324D01*
X147906117Y-142923883D01*
X148052676Y-143044162D01*
X148219885Y-143133537D01*
X148401317Y-143188573D01*
X148590000Y-143207157D01*
X148778683Y-143188573D01*
X148960115Y-143133537D01*
X149127324Y-143044162D01*
X149273883Y-142923883D01*
X149394162Y-142777324D01*
X149483537Y-142610115D01*
X149538573Y-142428683D01*
X149557157Y-142240000D01*
X149538573Y-142051317D01*
X149515112Y-141973975D01*
X149514489Y-141904108D01*
X149546090Y-141850301D01*
X149910073Y-141486318D01*
X149971396Y-141452834D01*
X149997754Y-141450000D01*
X150271028Y-141450000D01*
X150338067Y-141469685D01*
X150383822Y-141522489D01*
X150393766Y-141591647D01*
X150366881Y-141652665D01*
X150325837Y-141702676D01*
X150236464Y-141869882D01*
X150181426Y-142051318D01*
X150162843Y-142240000D01*
X150181426Y-142428681D01*
X150181427Y-142428683D01*
X150229838Y-142588276D01*
X150236464Y-142610117D01*
X150267674Y-142668507D01*
X150325838Y-142777324D01*
X150446117Y-142923883D01*
X150592676Y-143044162D01*
X150759885Y-143133537D01*
X150941317Y-143188573D01*
X151130000Y-143207157D01*
X151318683Y-143188573D01*
X151500115Y-143133537D01*
X151667324Y-143044162D01*
X151813883Y-142923883D01*
X151934162Y-142777324D01*
X151972262Y-142706043D01*
X152021222Y-142656203D01*
X152081618Y-142640500D01*
X206183433Y-142640500D01*
X206204499Y-142633655D01*
X206223414Y-142629112D01*
X206245304Y-142625646D01*
X206265042Y-142615587D01*
X206283016Y-142608142D01*
X206304090Y-142601296D01*
X206322021Y-142588267D01*
X206338598Y-142578109D01*
X206358342Y-142568050D01*
X206366674Y-142559717D01*
X206366680Y-142559713D01*
X206668540Y-142257853D01*
X208255405Y-140670985D01*
X208316725Y-140637503D01*
X208386416Y-140642487D01*
X208441458Y-140683182D01*
X208454363Y-140700000D01*
X209506031Y-140700000D01*
X209473481Y-140750649D01*
X209435000Y-140881705D01*
X209435000Y-141018295D01*
X209473481Y-141149351D01*
X209506031Y-141200000D01*
X208454364Y-141200000D01*
X208511569Y-141413492D01*
X208611400Y-141627578D01*
X208746890Y-141821078D01*
X208913921Y-141988109D01*
X209107421Y-142123599D01*
X209192168Y-142163118D01*
X209244607Y-142209291D01*
X209263759Y-142276484D01*
X209243543Y-142343365D01*
X209190377Y-142388700D01*
X209139763Y-142399500D01*
X209130734Y-142399500D01*
X209127861Y-142399769D01*
X209127848Y-142399770D01*
X209100303Y-142402353D01*
X208972115Y-142447207D01*
X208862849Y-142527849D01*
X208782207Y-142637115D01*
X208737353Y-142765303D01*
X208734770Y-142792848D01*
X208734769Y-142792861D01*
X208734500Y-142795734D01*
X208734500Y-142798626D01*
X208734500Y-144007744D01*
X208714815Y-144074783D01*
X208698181Y-144095425D01*
X199560426Y-153233181D01*
X199499103Y-153266666D01*
X199472745Y-153269500D01*
X179016379Y-153269500D01*
X178949340Y-153249815D01*
X178903585Y-153197011D01*
X178893641Y-153127853D01*
X178914804Y-153074377D01*
X178930133Y-153052484D01*
X179026266Y-152846326D01*
X179078872Y-152650000D01*
X178115686Y-152650000D01*
X178127641Y-152638045D01*
X178185165Y-152525148D01*
X178204986Y-152400000D01*
X178185165Y-152274852D01*
X178127641Y-152161955D01*
X178115686Y-152150000D01*
X179078872Y-152150000D01*
X179078871Y-152149999D01*
X179026266Y-151953673D01*
X178930134Y-151747519D01*
X178799658Y-151561180D01*
X178638819Y-151400341D01*
X178452480Y-151269865D01*
X178246326Y-151173733D01*
X178050000Y-151121126D01*
X178050000Y-152084314D01*
X178038045Y-152072359D01*
X177925148Y-152014835D01*
X177831481Y-152000000D01*
X177768519Y-152000000D01*
X177674852Y-152014835D01*
X177561955Y-152072359D01*
X177550000Y-152084314D01*
X177550000Y-151121127D01*
X177549999Y-151121126D01*
X177353673Y-151173733D01*
X177147519Y-151269865D01*
X176961180Y-151400341D01*
X176800341Y-151561180D01*
X176669865Y-151747519D01*
X176573733Y-151953673D01*
X176521128Y-152149999D01*
X176521128Y-152150000D01*
X177484314Y-152150000D01*
X177472359Y-152161955D01*
X177414835Y-152274852D01*
X177395014Y-152400000D01*
X177414835Y-152525148D01*
X177472359Y-152638045D01*
X177484314Y-152650000D01*
X176521128Y-152650000D01*
X176573733Y-152846326D01*
X176669866Y-153052484D01*
X176685196Y-153074377D01*
X176707524Y-153140584D01*
X176690512Y-153208351D01*
X176639564Y-153256163D01*
X176583621Y-153269500D01*
X175126867Y-153269500D01*
X175105791Y-153276347D01*
X175086880Y-153280887D01*
X175064993Y-153284354D01*
X175045252Y-153294412D01*
X175027287Y-153301854D01*
X175006210Y-153308703D01*
X174988282Y-153321728D01*
X174971702Y-153331888D01*
X174951958Y-153341948D01*
X174929395Y-153364512D01*
X174929391Y-153364516D01*
X171258324Y-157035582D01*
X171197001Y-157069067D01*
X171127309Y-157064083D01*
X171071376Y-157022211D01*
X171061291Y-157006364D01*
X171015910Y-156921462D01*
X170890883Y-156769117D01*
X170738538Y-156644090D01*
X170716091Y-156632091D01*
X170564726Y-156551185D01*
X170376133Y-156493976D01*
X170278065Y-156484317D01*
X170180000Y-156474659D01*
X170179999Y-156474659D01*
X169983866Y-156493976D01*
X169795273Y-156551185D01*
X169621463Y-156644089D01*
X169469117Y-156769117D01*
X169344089Y-156921463D01*
X169251185Y-157095273D01*
X169193976Y-157283866D01*
X169174659Y-157480000D01*
X169193976Y-157676133D01*
X169251185Y-157864726D01*
X169301825Y-157959466D01*
X169344090Y-158038538D01*
X169469117Y-158190883D01*
X169621462Y-158315910D01*
X169795273Y-158408814D01*
X169983868Y-158466024D01*
X170180000Y-158485341D01*
X170376132Y-158466024D01*
X170564727Y-158408814D01*
X170738538Y-158315910D01*
X170890883Y-158190883D01*
X171015910Y-158038538D01*
X171058175Y-157959466D01*
X171065348Y-157946047D01*
X171114310Y-157896202D01*
X171174706Y-157880500D01*
X171443733Y-157880500D01*
X171464799Y-157873655D01*
X171483714Y-157869112D01*
X171505604Y-157865646D01*
X171525342Y-157855587D01*
X171543316Y-157848142D01*
X171564390Y-157841296D01*
X171582321Y-157828267D01*
X171598898Y-157818109D01*
X171618642Y-157808050D01*
X171626974Y-157799717D01*
X171626980Y-157799713D01*
X171946693Y-157480000D01*
X176794659Y-157480000D01*
X176813976Y-157676133D01*
X176871185Y-157864726D01*
X176921825Y-157959466D01*
X176964090Y-158038538D01*
X177089117Y-158190883D01*
X177241462Y-158315910D01*
X177415273Y-158408814D01*
X177603868Y-158466024D01*
X177800000Y-158485341D01*
X177996132Y-158466024D01*
X178184727Y-158408814D01*
X178358538Y-158315910D01*
X178510883Y-158190883D01*
X178635910Y-158038538D01*
X178678175Y-157959466D01*
X178685348Y-157946047D01*
X178734310Y-157896202D01*
X178794706Y-157880500D01*
X203263433Y-157880500D01*
X203284499Y-157873655D01*
X203303414Y-157869112D01*
X203325304Y-157865646D01*
X203345042Y-157855587D01*
X203363016Y-157848142D01*
X203384090Y-157841296D01*
X203402021Y-157828267D01*
X203418598Y-157818109D01*
X203438342Y-157808050D01*
X203446674Y-157799717D01*
X203446680Y-157799713D01*
X205869573Y-155376819D01*
X205930896Y-155343334D01*
X205957254Y-155340500D01*
X208683433Y-155340500D01*
X208704499Y-155333655D01*
X208723414Y-155329112D01*
X208745304Y-155325646D01*
X208765042Y-155315587D01*
X208783016Y-155308142D01*
X208804090Y-155301296D01*
X208822021Y-155288267D01*
X208838598Y-155278109D01*
X208858342Y-155268050D01*
X208866674Y-155259717D01*
X208866680Y-155259713D01*
X209389574Y-154736819D01*
X209450897Y-154703334D01*
X209477255Y-154700500D01*
X210711373Y-154700500D01*
X210714266Y-154700500D01*
X210744699Y-154697646D01*
X210872882Y-154652793D01*
X210872882Y-154652792D01*
X210872884Y-154652792D01*
X210982150Y-154572150D01*
X211062792Y-154462884D01*
X211062793Y-154462882D01*
X211107646Y-154334699D01*
X211110500Y-154304266D01*
X211110500Y-152995734D01*
X211107646Y-152965301D01*
X211062793Y-152837118D01*
X211062792Y-152837115D01*
X210982150Y-152727849D01*
X210872884Y-152647207D01*
X210744696Y-152602353D01*
X210717151Y-152599770D01*
X210717139Y-152599769D01*
X210714266Y-152599500D01*
X209105734Y-152599500D01*
X209102861Y-152599769D01*
X209102848Y-152599770D01*
X209075303Y-152602353D01*
X208947115Y-152647207D01*
X208837849Y-152727849D01*
X208757207Y-152837115D01*
X208712353Y-152965303D01*
X208709770Y-152992848D01*
X208709769Y-152992861D01*
X208709500Y-152995734D01*
X208709499Y-152998604D01*
X208709499Y-152998626D01*
X208709499Y-154232745D01*
X208689814Y-154299785D01*
X208673180Y-154320426D01*
X208490426Y-154503181D01*
X208429103Y-154536666D01*
X208402745Y-154539500D01*
X205698224Y-154539500D01*
X205698212Y-154539501D01*
X205676567Y-154539501D01*
X205655499Y-154546346D01*
X205636583Y-154550887D01*
X205614695Y-154554354D01*
X205594951Y-154564413D01*
X205576984Y-154571855D01*
X205555910Y-154578703D01*
X205537984Y-154591727D01*
X205521398Y-154601891D01*
X205501658Y-154611949D01*
X205479091Y-154634517D01*
X203070426Y-157043181D01*
X203009103Y-157076666D01*
X202982745Y-157079500D01*
X178794706Y-157079500D01*
X178727667Y-157059815D01*
X178685348Y-157013953D01*
X178659017Y-156964693D01*
X178635910Y-156921462D01*
X178510883Y-156769117D01*
X178358538Y-156644090D01*
X178336091Y-156632091D01*
X178184726Y-156551185D01*
X177996133Y-156493976D01*
X177800000Y-156474659D01*
X177603866Y-156493976D01*
X177415273Y-156551185D01*
X177241463Y-156644089D01*
X177089117Y-156769117D01*
X176964089Y-156921463D01*
X176871185Y-157095273D01*
X176813976Y-157283866D01*
X176794659Y-157480000D01*
X171946693Y-157480000D01*
X175319874Y-154106819D01*
X175381197Y-154073334D01*
X175407555Y-154070500D01*
X176957115Y-154070500D01*
X177024154Y-154090185D01*
X177069909Y-154142989D01*
X177079853Y-154212147D01*
X177052968Y-154273163D01*
X177025076Y-154307151D01*
X176964089Y-154381463D01*
X176871185Y-154555273D01*
X176813976Y-154743866D01*
X176794659Y-154940000D01*
X176813976Y-155136133D01*
X176871185Y-155324726D01*
X176904111Y-155386326D01*
X176964090Y-155498538D01*
X177089117Y-155650883D01*
X177241462Y-155775910D01*
X177415273Y-155868814D01*
X177603868Y-155926024D01*
X177800000Y-155945341D01*
X177996132Y-155926024D01*
X178184727Y-155868814D01*
X178358538Y-155775910D01*
X178510883Y-155650883D01*
X178635910Y-155498538D01*
X178668115Y-155438286D01*
X178685348Y-155406047D01*
X178734310Y-155356202D01*
X178794706Y-155340500D01*
X200723433Y-155340500D01*
X200744499Y-155333655D01*
X200763414Y-155329112D01*
X200785304Y-155325646D01*
X200805042Y-155315587D01*
X200823016Y-155308142D01*
X200844090Y-155301296D01*
X200862021Y-155288267D01*
X200878598Y-155278109D01*
X200898342Y-155268050D01*
X200906674Y-155259717D01*
X200906680Y-155259713D01*
X202730954Y-153435439D01*
X204579573Y-151586818D01*
X204640896Y-151553334D01*
X204667254Y-151550500D01*
X208708600Y-151550500D01*
X208775639Y-151570185D01*
X208817957Y-151616046D01*
X208882315Y-151736450D01*
X208933608Y-151798952D01*
X209013589Y-151896410D01*
X209093570Y-151962047D01*
X209173550Y-152027685D01*
X209356046Y-152125232D01*
X209554066Y-152185300D01*
X209708392Y-152200500D01*
X209711442Y-152200500D01*
X210108558Y-152200500D01*
X210111608Y-152200500D01*
X210265934Y-152185300D01*
X210463954Y-152125232D01*
X210646450Y-152027685D01*
X210806410Y-151896410D01*
X210937685Y-151736450D01*
X211035232Y-151553954D01*
X211095300Y-151355934D01*
X211115583Y-151150000D01*
X211095300Y-150944066D01*
X211035232Y-150746046D01*
X210937685Y-150563550D01*
X210841584Y-150446450D01*
X210806410Y-150403589D01*
X210708952Y-150323608D01*
X210646450Y-150272315D01*
X210463954Y-150174768D01*
X210364944Y-150144734D01*
X210265932Y-150114699D01*
X210114641Y-150099798D01*
X210114626Y-150099797D01*
X210111608Y-150099500D01*
X209708392Y-150099500D01*
X209705374Y-150099797D01*
X209705358Y-150099798D01*
X209554067Y-150114699D01*
X209356043Y-150174769D01*
X209173551Y-150272314D01*
X209013589Y-150403589D01*
X208882314Y-150563551D01*
X208817958Y-150683953D01*
X208768996Y-150733797D01*
X208708600Y-150749500D01*
X204408224Y-150749500D01*
X204408212Y-150749501D01*
X204386567Y-150749501D01*
X204365499Y-150756346D01*
X204346583Y-150760887D01*
X204324695Y-150764354D01*
X204304951Y-150774413D01*
X204286984Y-150781855D01*
X204265910Y-150788703D01*
X204247984Y-150801727D01*
X204231399Y-150811890D01*
X204211660Y-150821947D01*
X200530426Y-154503181D01*
X200469103Y-154536666D01*
X200442745Y-154539500D01*
X178794706Y-154539500D01*
X178727667Y-154519815D01*
X178685348Y-154473953D01*
X178659791Y-154426140D01*
X178635910Y-154381462D01*
X178547031Y-154273163D01*
X178519719Y-154208855D01*
X178531510Y-154139988D01*
X178578662Y-154088427D01*
X178642885Y-154070500D01*
X199753433Y-154070500D01*
X199774499Y-154063655D01*
X199793414Y-154059112D01*
X199815304Y-154055646D01*
X199835042Y-154045587D01*
X199853016Y-154038142D01*
X199874090Y-154031296D01*
X199892021Y-154018267D01*
X199908598Y-154008109D01*
X199928342Y-153998050D01*
X199936674Y-153989717D01*
X199936680Y-153989713D01*
X209389574Y-144536819D01*
X209450897Y-144503334D01*
X209477255Y-144500500D01*
X210686373Y-144500500D01*
X210689266Y-144500500D01*
X210719699Y-144497646D01*
X210847882Y-144452793D01*
X210847882Y-144452792D01*
X210847884Y-144452792D01*
X210957150Y-144372150D01*
X211037792Y-144262884D01*
X211037793Y-144262882D01*
X211082646Y-144134699D01*
X211085500Y-144104266D01*
X211085500Y-142795734D01*
X211082646Y-142765301D01*
X211037793Y-142637118D01*
X211037792Y-142637115D01*
X210957150Y-142527849D01*
X210847884Y-142447207D01*
X210719696Y-142402353D01*
X210692151Y-142399770D01*
X210692139Y-142399769D01*
X210689266Y-142399500D01*
X210680237Y-142399500D01*
X210613198Y-142379815D01*
X210567443Y-142327011D01*
X210557499Y-142257853D01*
X210586524Y-142194297D01*
X210627832Y-142163118D01*
X210712578Y-142123599D01*
X210906078Y-141988109D01*
X211073106Y-141821081D01*
X211208600Y-141627576D01*
X211308430Y-141413492D01*
X211365636Y-141200000D01*
X210313969Y-141200000D01*
X210346519Y-141149351D01*
X210385000Y-141018295D01*
X210385000Y-140881705D01*
X210346519Y-140750649D01*
X210313969Y-140700000D01*
X211365636Y-140700000D01*
X211365635Y-140699999D01*
X211308430Y-140486507D01*
X211208599Y-140272421D01*
X211073109Y-140078921D01*
X210906078Y-139911890D01*
X210712578Y-139776400D01*
X210498492Y-139676569D01*
X210446365Y-139662602D01*
X210386705Y-139626237D01*
X210356176Y-139563390D01*
X210364471Y-139494014D01*
X210408956Y-139440136D01*
X210428451Y-139430845D01*
X210438949Y-139425233D01*
X210438954Y-139425232D01*
X210621450Y-139327685D01*
X210781410Y-139196410D01*
X210912685Y-139036450D01*
X211010232Y-138853954D01*
X211070300Y-138655934D01*
X211090583Y-138450000D01*
X211070300Y-138244066D01*
X211010232Y-138046046D01*
X210912685Y-137863550D01*
X210847047Y-137783569D01*
X210781410Y-137703589D01*
X210640622Y-137588049D01*
X210621450Y-137572315D01*
X210438954Y-137474768D01*
X210339943Y-137444733D01*
X210240932Y-137414699D01*
X210089641Y-137399798D01*
X210089626Y-137399797D01*
X210086608Y-137399500D01*
X209733392Y-137399500D01*
X209730374Y-137399797D01*
X209730358Y-137399798D01*
X209579067Y-137414699D01*
X209411652Y-137465484D01*
X209383041Y-137474163D01*
X209381043Y-137474769D01*
X209195758Y-137573807D01*
X209127356Y-137588049D01*
X209062112Y-137563049D01*
X209020741Y-137506744D01*
X209016379Y-137437011D01*
X209049624Y-137376768D01*
X209077711Y-137348681D01*
X209420652Y-137005739D01*
X209481973Y-136972256D01*
X209544327Y-136974761D01*
X209558383Y-136979025D01*
X209579065Y-136985300D01*
X209633983Y-136990708D01*
X209733392Y-137000500D01*
X209736442Y-137000500D01*
X210083558Y-137000500D01*
X210086608Y-137000500D01*
X210240934Y-136985300D01*
X210438954Y-136925232D01*
X210621450Y-136827685D01*
X210781410Y-136696410D01*
X210912685Y-136536450D01*
X211010232Y-136353954D01*
X211070300Y-136155934D01*
X211090583Y-135950000D01*
X211070300Y-135744066D01*
X211010232Y-135546046D01*
X210912685Y-135363550D01*
X210847047Y-135283570D01*
X210781410Y-135203589D01*
X210683952Y-135123608D01*
X210621450Y-135072315D01*
X210438954Y-134974768D01*
X210274296Y-134924820D01*
X210240932Y-134914699D01*
X210089641Y-134899798D01*
X210089626Y-134899797D01*
X210086608Y-134899500D01*
X209733392Y-134899500D01*
X209730374Y-134899797D01*
X209730358Y-134899798D01*
X209579067Y-134914699D01*
X209430676Y-134959713D01*
X209385052Y-134973553D01*
X209381043Y-134974769D01*
X209198551Y-135072314D01*
X209038589Y-135203589D01*
X208907314Y-135363551D01*
X208809769Y-135546043D01*
X208809768Y-135546045D01*
X208809768Y-135546046D01*
X208807995Y-135551890D01*
X208749699Y-135744067D01*
X208729417Y-135949999D01*
X208749699Y-136155932D01*
X208749700Y-136155934D01*
X208809768Y-136353954D01*
X208810775Y-136355838D01*
X208811659Y-136357491D01*
X208825900Y-136425894D01*
X208800899Y-136491138D01*
X208789981Y-136503624D01*
X204680926Y-140612681D01*
X204619603Y-140646166D01*
X204593245Y-140649000D01*
X186331418Y-140649000D01*
X186264379Y-140629315D01*
X186218624Y-140576511D01*
X186208680Y-140507353D01*
X186232464Y-140450273D01*
X186236764Y-140444579D01*
X186359673Y-140281821D01*
X186359673Y-140281819D01*
X186359675Y-140281818D01*
X186405313Y-140190161D01*
X186450582Y-140099250D01*
X186506397Y-139903083D01*
X186525215Y-139700000D01*
X186506397Y-139496917D01*
X186450582Y-139300750D01*
X186446333Y-139292216D01*
X186359675Y-139118181D01*
X186236763Y-138955419D01*
X186086041Y-138818018D01*
X185912638Y-138710652D01*
X185722457Y-138636976D01*
X185655629Y-138624483D01*
X185521976Y-138599500D01*
X185318024Y-138599500D01*
X185255793Y-138611133D01*
X185117542Y-138636976D01*
X184927361Y-138710652D01*
X184753958Y-138818018D01*
X184603236Y-138955419D01*
X184480324Y-139118181D01*
X184389418Y-139300748D01*
X184333602Y-139496916D01*
X184314785Y-139700000D01*
X184333602Y-139903083D01*
X184389418Y-140099251D01*
X184480324Y-140281818D01*
X184591582Y-140429147D01*
X184602645Y-140443797D01*
X184607536Y-140450273D01*
X184632228Y-140515635D01*
X184617663Y-140583969D01*
X184568465Y-140633582D01*
X184508582Y-140649000D01*
X184104500Y-140649000D01*
X184037461Y-140629315D01*
X183991706Y-140576511D01*
X183980500Y-140525000D01*
X183980500Y-139660500D01*
X183980500Y-138780252D01*
X183968867Y-138721769D01*
X183924877Y-138655934D01*
X183924552Y-138655447D01*
X183858230Y-138611132D01*
X183799749Y-138599500D01*
X183799748Y-138599500D01*
X181960252Y-138599500D01*
X181960251Y-138599500D01*
X181901769Y-138611132D01*
X181835447Y-138655447D01*
X181791132Y-138721769D01*
X181779500Y-138780251D01*
X181779500Y-139034044D01*
X181759815Y-139101083D01*
X181707011Y-139146838D01*
X181637853Y-139156782D01*
X181574297Y-139127757D01*
X181567819Y-139121725D01*
X180894390Y-138448296D01*
X180894375Y-138448283D01*
X180878042Y-138431950D01*
X180878041Y-138431949D01*
X180878039Y-138431947D01*
X180858299Y-138421889D01*
X180841714Y-138411726D01*
X180823790Y-138398704D01*
X180802720Y-138391858D01*
X180784744Y-138384412D01*
X180765002Y-138374353D01*
X180743118Y-138370886D01*
X180724207Y-138366346D01*
X180703135Y-138359500D01*
X180703133Y-138359500D01*
X180671219Y-138359500D01*
X173600171Y-138359500D01*
X173533132Y-138339815D01*
X173492784Y-138297500D01*
X173452533Y-138227783D01*
X173325870Y-138087110D01*
X173172730Y-137975848D01*
X172999802Y-137898855D01*
X172814648Y-137859500D01*
X172814646Y-137859500D01*
X172625354Y-137859500D01*
X172625352Y-137859500D01*
X172440197Y-137898855D01*
X172267269Y-137975848D01*
X172114129Y-138087110D01*
X171987466Y-138227783D01*
X171892820Y-138391715D01*
X171834326Y-138571742D01*
X171814540Y-138760000D01*
X171834326Y-138948257D01*
X171892820Y-139128284D01*
X171987466Y-139292216D01*
X172114129Y-139432889D01*
X172267269Y-139544151D01*
X172440197Y-139621144D01*
X172625352Y-139660500D01*
X172625354Y-139660500D01*
X172814648Y-139660500D01*
X172975842Y-139626237D01*
X172999803Y-139621144D01*
X173172730Y-139544151D01*
X173325871Y-139432888D01*
X173452533Y-139292216D01*
X173459693Y-139279815D01*
X173492784Y-139222500D01*
X173543351Y-139174284D01*
X173600171Y-139160500D01*
X180422445Y-139160500D01*
X180489484Y-139180185D01*
X180510126Y-139196819D01*
X181327470Y-140014163D01*
X181327476Y-140014168D01*
X181341358Y-140028050D01*
X181359208Y-140037145D01*
X181361100Y-140038109D01*
X181377688Y-140048274D01*
X181395611Y-140061296D01*
X181416687Y-140068144D01*
X181434645Y-140075582D01*
X181454396Y-140085646D01*
X181464225Y-140087202D01*
X181476277Y-140089112D01*
X181495197Y-140093654D01*
X181516267Y-140100500D01*
X181548181Y-140100500D01*
X181655500Y-140100500D01*
X181722539Y-140120185D01*
X181768294Y-140172989D01*
X181779500Y-140224500D01*
X181779500Y-140525000D01*
X181759815Y-140592039D01*
X181707011Y-140637794D01*
X181655500Y-140649000D01*
X151837394Y-140649000D01*
X151770355Y-140629315D01*
X151724600Y-140576511D01*
X151714656Y-140507353D01*
X151743681Y-140443797D01*
X151758721Y-140429153D01*
X151813883Y-140383883D01*
X151934162Y-140237324D01*
X152023537Y-140070115D01*
X152078573Y-139888683D01*
X152090570Y-139766881D01*
X164446672Y-139766881D01*
X164562816Y-139838795D01*
X164770198Y-139919135D01*
X164988806Y-139960000D01*
X165211194Y-139960000D01*
X165429801Y-139919135D01*
X165637180Y-139838797D01*
X165753326Y-139766880D01*
X165753326Y-139766879D01*
X165100001Y-139113553D01*
X165100000Y-139113553D01*
X164446672Y-139766879D01*
X164446672Y-139766881D01*
X152090570Y-139766881D01*
X152097157Y-139700000D01*
X152078573Y-139511317D01*
X152023537Y-139329885D01*
X151934162Y-139162676D01*
X151813883Y-139016117D01*
X151667324Y-138895838D01*
X151521733Y-138818018D01*
X151500117Y-138806464D01*
X151500116Y-138806463D01*
X151500115Y-138806463D01*
X151409398Y-138778945D01*
X151346942Y-138759999D01*
X163894859Y-138759999D01*
X163915378Y-138981445D01*
X163976238Y-139195347D01*
X164075367Y-139394425D01*
X164091137Y-139415308D01*
X164091138Y-139415308D01*
X164717145Y-138789302D01*
X164746372Y-138789302D01*
X164775047Y-138902538D01*
X164838936Y-139000327D01*
X164931115Y-139072072D01*
X165041595Y-139110000D01*
X165129005Y-139110000D01*
X165215216Y-139095614D01*
X165317947Y-139040019D01*
X165397060Y-138954079D01*
X165443982Y-138847108D01*
X165451200Y-138759999D01*
X165453553Y-138759999D01*
X166108860Y-139415308D01*
X166108861Y-139415308D01*
X166124632Y-139394424D01*
X166223761Y-139195347D01*
X166284621Y-138981445D01*
X166305140Y-138759999D01*
X166284621Y-138538554D01*
X166223762Y-138324654D01*
X166124630Y-138125572D01*
X166108860Y-138104690D01*
X165453553Y-138759998D01*
X165453553Y-138759999D01*
X165451200Y-138759999D01*
X165453628Y-138730698D01*
X165424953Y-138617462D01*
X165361064Y-138519673D01*
X165268885Y-138447928D01*
X165158405Y-138410000D01*
X165070995Y-138410000D01*
X164984784Y-138424386D01*
X164882053Y-138479981D01*
X164802940Y-138565921D01*
X164756018Y-138672892D01*
X164746372Y-138789302D01*
X164717145Y-138789302D01*
X164746447Y-138760000D01*
X164091138Y-138104691D01*
X164091137Y-138104691D01*
X164075368Y-138125574D01*
X163976237Y-138324654D01*
X163915378Y-138538554D01*
X163894859Y-138759999D01*
X151346942Y-138759999D01*
X151318681Y-138751426D01*
X151130000Y-138732843D01*
X150941318Y-138751426D01*
X150759882Y-138806464D01*
X150592677Y-138895837D01*
X150446117Y-139016117D01*
X150325837Y-139162677D01*
X150236464Y-139329882D01*
X150181426Y-139511318D01*
X150162843Y-139700000D01*
X150181426Y-139888681D01*
X150190664Y-139919135D01*
X150233787Y-140061294D01*
X150236464Y-140070117D01*
X150252704Y-140100500D01*
X150325838Y-140237324D01*
X150446117Y-140383883D01*
X150501273Y-140429149D01*
X150540606Y-140486894D01*
X150542475Y-140556738D01*
X150506288Y-140616506D01*
X150443531Y-140647222D01*
X150422606Y-140649000D01*
X149738724Y-140649000D01*
X149738712Y-140649001D01*
X149717067Y-140649001D01*
X149695999Y-140655846D01*
X149677083Y-140660387D01*
X149655195Y-140663854D01*
X149635451Y-140673913D01*
X149617484Y-140681355D01*
X149596410Y-140688203D01*
X149578484Y-140701227D01*
X149561899Y-140711390D01*
X149542158Y-140721449D01*
X149461030Y-140802573D01*
X149461004Y-140802603D01*
X148979698Y-141283907D01*
X148918375Y-141317392D01*
X148856023Y-141314887D01*
X148778683Y-141291426D01*
X148590000Y-141272843D01*
X148401318Y-141291426D01*
X148219882Y-141346464D01*
X148052677Y-141435837D01*
X147906117Y-141556117D01*
X147785837Y-141702677D01*
X147696464Y-141869882D01*
X147641426Y-142051318D01*
X147622843Y-142240000D01*
X95816393Y-142240000D01*
X93276393Y-139700000D01*
X147622843Y-139700000D01*
X147641426Y-139888681D01*
X147650664Y-139919135D01*
X147693787Y-140061294D01*
X147696464Y-140070117D01*
X147712704Y-140100500D01*
X147785838Y-140237324D01*
X147906117Y-140383883D01*
X148052676Y-140504162D01*
X148219885Y-140593537D01*
X148401317Y-140648573D01*
X148590000Y-140667157D01*
X148778683Y-140648573D01*
X148960115Y-140593537D01*
X149127324Y-140504162D01*
X149273883Y-140383883D01*
X149394162Y-140237324D01*
X149483537Y-140070115D01*
X149538573Y-139888683D01*
X149557157Y-139700000D01*
X149538573Y-139511317D01*
X149483537Y-139329885D01*
X149394162Y-139162676D01*
X149273883Y-139016117D01*
X149127324Y-138895838D01*
X148981733Y-138818018D01*
X148960117Y-138806464D01*
X148960116Y-138806463D01*
X148960115Y-138806463D01*
X148869398Y-138778945D01*
X148778681Y-138751426D01*
X148590000Y-138732843D01*
X148401318Y-138751426D01*
X148219882Y-138806464D01*
X148052677Y-138895837D01*
X147906117Y-139016117D01*
X147785837Y-139162677D01*
X147696464Y-139329882D01*
X147641426Y-139511318D01*
X147622843Y-139700000D01*
X93276393Y-139700000D01*
X91126092Y-137549699D01*
X91092607Y-137488376D01*
X91095112Y-137426023D01*
X91098547Y-137414699D01*
X91118573Y-137348683D01*
X91137157Y-137160000D01*
X91137157Y-137159999D01*
X147622843Y-137159999D01*
X147641426Y-137348681D01*
X147641427Y-137348683D01*
X147696463Y-137530115D01*
X147785838Y-137697324D01*
X147906117Y-137843883D01*
X148052676Y-137964162D01*
X148219885Y-138053537D01*
X148401317Y-138108573D01*
X148590000Y-138127157D01*
X148778683Y-138108573D01*
X148960115Y-138053537D01*
X149127324Y-137964162D01*
X149273883Y-137843883D01*
X149394162Y-137697324D01*
X149483537Y-137530115D01*
X149538573Y-137348683D01*
X149557157Y-137160000D01*
X150162843Y-137160000D01*
X150181426Y-137348681D01*
X150181427Y-137348683D01*
X150236463Y-137530115D01*
X150325838Y-137697324D01*
X150446117Y-137843883D01*
X150592676Y-137964162D01*
X150759885Y-138053537D01*
X150941317Y-138108573D01*
X151130000Y-138127157D01*
X151318683Y-138108573D01*
X151500115Y-138053537D01*
X151667324Y-137964162D01*
X151813883Y-137843883D01*
X151888372Y-137753119D01*
X164446671Y-137753119D01*
X165100000Y-138406447D01*
X165100001Y-138406447D01*
X165753327Y-137753119D01*
X165637179Y-137681202D01*
X165429801Y-137600864D01*
X165211194Y-137560000D01*
X164988806Y-137560000D01*
X164770198Y-137600864D01*
X164562821Y-137681202D01*
X164446671Y-137753119D01*
X151888372Y-137753119D01*
X151934162Y-137697324D01*
X152023537Y-137530115D01*
X152078573Y-137348683D01*
X152097157Y-137160000D01*
X152078573Y-136971317D01*
X152023537Y-136789885D01*
X151934162Y-136622676D01*
X151813883Y-136476117D01*
X151667324Y-136355838D01*
X151500115Y-136266463D01*
X151407194Y-136238276D01*
X151318681Y-136211426D01*
X151130000Y-136192843D01*
X150941318Y-136211426D01*
X150759882Y-136266464D01*
X150592677Y-136355837D01*
X150446117Y-136476117D01*
X150325837Y-136622677D01*
X150236464Y-136789882D01*
X150181426Y-136971318D01*
X150162843Y-137160000D01*
X149557157Y-137160000D01*
X149538573Y-136971317D01*
X149483537Y-136789885D01*
X149394162Y-136622676D01*
X149273883Y-136476117D01*
X149127324Y-136355838D01*
X148960115Y-136266463D01*
X148867194Y-136238276D01*
X148778681Y-136211426D01*
X148590000Y-136192843D01*
X148401318Y-136211426D01*
X148219882Y-136266464D01*
X148052677Y-136355837D01*
X147906117Y-136476117D01*
X147785837Y-136622677D01*
X147696464Y-136789882D01*
X147641426Y-136971318D01*
X147622843Y-137159999D01*
X91137157Y-137159999D01*
X91118573Y-136971317D01*
X91063537Y-136789885D01*
X90974162Y-136622676D01*
X90853883Y-136476117D01*
X90811803Y-136441583D01*
X90772471Y-136383839D01*
X90770600Y-136313995D01*
X90806788Y-136254226D01*
X90817576Y-136245420D01*
X90827416Y-136238271D01*
X90843998Y-136228109D01*
X90863742Y-136218050D01*
X90872074Y-136209717D01*
X90872080Y-136209713D01*
X92461793Y-134620000D01*
X147323178Y-134620000D01*
X147342424Y-134839978D01*
X147399579Y-135053281D01*
X147492898Y-135253406D01*
X147538258Y-135318187D01*
X148205096Y-134651349D01*
X148205051Y-134651898D01*
X148236266Y-134775162D01*
X148305813Y-134881612D01*
X148406157Y-134959713D01*
X148526422Y-135001000D01*
X148562553Y-135001000D01*
X147891812Y-135671740D01*
X147956593Y-135717101D01*
X148156718Y-135810420D01*
X148370021Y-135867575D01*
X148590000Y-135886821D01*
X148809978Y-135867575D01*
X149023281Y-135810420D01*
X149223408Y-135717100D01*
X149288187Y-135671740D01*
X148617448Y-135001000D01*
X148621569Y-135001000D01*
X148715421Y-134985339D01*
X148827251Y-134924820D01*
X148913371Y-134831269D01*
X148964448Y-134714823D01*
X148970105Y-134646552D01*
X149641740Y-135318186D01*
X149687100Y-135253408D01*
X149780420Y-135053281D01*
X149837575Y-134839978D01*
X149856821Y-134620000D01*
X149856821Y-134619999D01*
X150162843Y-134619999D01*
X150181426Y-134808681D01*
X150190920Y-134839978D01*
X150236463Y-134990115D01*
X150325838Y-135157324D01*
X150446117Y-135303883D01*
X150592676Y-135424162D01*
X150759885Y-135513537D01*
X150941317Y-135568573D01*
X151130000Y-135587157D01*
X151318683Y-135568573D01*
X151500115Y-135513537D01*
X151667324Y-135424162D01*
X151813883Y-135303883D01*
X151934162Y-135157324D01*
X152023537Y-134990115D01*
X152078573Y-134808683D01*
X152090570Y-134686881D01*
X164446672Y-134686881D01*
X164562816Y-134758795D01*
X164770198Y-134839135D01*
X164988806Y-134880000D01*
X165211194Y-134880000D01*
X165429801Y-134839135D01*
X165637180Y-134758797D01*
X165753326Y-134686880D01*
X165753326Y-134686879D01*
X165100001Y-134033553D01*
X165100000Y-134033553D01*
X164446672Y-134686879D01*
X164446672Y-134686881D01*
X152090570Y-134686881D01*
X152097157Y-134620000D01*
X152078573Y-134431317D01*
X152023537Y-134249885D01*
X151934162Y-134082676D01*
X151813883Y-133936117D01*
X151667324Y-133815838D01*
X151500115Y-133726463D01*
X151409398Y-133698945D01*
X151346942Y-133679999D01*
X163894859Y-133679999D01*
X163915378Y-133901445D01*
X163976238Y-134115347D01*
X164075367Y-134314425D01*
X164091137Y-134335308D01*
X164091138Y-134335308D01*
X164717145Y-133709302D01*
X164746372Y-133709302D01*
X164775047Y-133822538D01*
X164838936Y-133920327D01*
X164931115Y-133992072D01*
X165041595Y-134030000D01*
X165129005Y-134030000D01*
X165215216Y-134015614D01*
X165317947Y-133960019D01*
X165397060Y-133874079D01*
X165443982Y-133767108D01*
X165451200Y-133680000D01*
X165453553Y-133680000D01*
X166108861Y-134335308D01*
X166124632Y-134314424D01*
X166223761Y-134115347D01*
X166284621Y-133901445D01*
X166305140Y-133679999D01*
X171814540Y-133679999D01*
X171834326Y-133868257D01*
X171892820Y-134048284D01*
X171987466Y-134212216D01*
X172114129Y-134352889D01*
X172267269Y-134464151D01*
X172440197Y-134541144D01*
X172625352Y-134580500D01*
X172625354Y-134580500D01*
X172814648Y-134580500D01*
X172961667Y-134549250D01*
X172999803Y-134541144D01*
X173172730Y-134464151D01*
X173217922Y-134431317D01*
X173325870Y-134352889D01*
X173359824Y-134315180D01*
X173452533Y-134212216D01*
X173467254Y-134186719D01*
X173492784Y-134142500D01*
X173543351Y-134094284D01*
X173600171Y-134080500D01*
X180892445Y-134080500D01*
X180959484Y-134100185D01*
X180980126Y-134116819D01*
X181117969Y-134254661D01*
X181251650Y-134388342D01*
X181341358Y-134478050D01*
X181361095Y-134488106D01*
X181377690Y-134498276D01*
X181395608Y-134511295D01*
X181395609Y-134511295D01*
X181395610Y-134511296D01*
X181416679Y-134518141D01*
X181434649Y-134525584D01*
X181454396Y-134535646D01*
X181476279Y-134539111D01*
X181495198Y-134543652D01*
X181516267Y-134550499D01*
X181537912Y-134550499D01*
X181537924Y-134550500D01*
X181548181Y-134550500D01*
X181655500Y-134550500D01*
X181722539Y-134570185D01*
X181768294Y-134622989D01*
X181779500Y-134674500D01*
X181779500Y-135069748D01*
X181791132Y-135128230D01*
X181835447Y-135194552D01*
X181901769Y-135238867D01*
X181960251Y-135250500D01*
X181960252Y-135250500D01*
X183799749Y-135250500D01*
X183828989Y-135244683D01*
X183858231Y-135238867D01*
X183924552Y-135194552D01*
X183968867Y-135128231D01*
X183980500Y-135069748D01*
X183980500Y-134150000D01*
X184314785Y-134150000D01*
X184333602Y-134353083D01*
X184389418Y-134549251D01*
X184480324Y-134731818D01*
X184603236Y-134894580D01*
X184753958Y-135031981D01*
X184909408Y-135128231D01*
X184927363Y-135139348D01*
X185117544Y-135213024D01*
X185318024Y-135250500D01*
X185318026Y-135250500D01*
X185521974Y-135250500D01*
X185521976Y-135250500D01*
X185722456Y-135213024D01*
X185912637Y-135139348D01*
X186086041Y-135031981D01*
X186236764Y-134894579D01*
X186359673Y-134731821D01*
X186359673Y-134731819D01*
X186359675Y-134731818D01*
X186406509Y-134637762D01*
X186450582Y-134549250D01*
X186506397Y-134353083D01*
X186525215Y-134150000D01*
X186506397Y-133946917D01*
X186498831Y-133920327D01*
X186450581Y-133750748D01*
X186359675Y-133568181D01*
X186236763Y-133405419D01*
X186086041Y-133268018D01*
X185912638Y-133160652D01*
X185722457Y-133086976D01*
X185655629Y-133074484D01*
X185521976Y-133049500D01*
X185318024Y-133049500D01*
X185255793Y-133061133D01*
X185117542Y-133086976D01*
X184927361Y-133160652D01*
X184753958Y-133268018D01*
X184603236Y-133405419D01*
X184480324Y-133568181D01*
X184389418Y-133750748D01*
X184333602Y-133946916D01*
X184314785Y-134150000D01*
X183980500Y-134150000D01*
X183980500Y-133230252D01*
X183977963Y-133217500D01*
X183968867Y-133171769D01*
X183924552Y-133105447D01*
X183858230Y-133061132D01*
X183799749Y-133049500D01*
X183799748Y-133049500D01*
X181960252Y-133049500D01*
X181960251Y-133049500D01*
X181901769Y-133061132D01*
X181835447Y-133105447D01*
X181791132Y-133171769D01*
X181779500Y-133230251D01*
X181779500Y-133484045D01*
X181759815Y-133551084D01*
X181707011Y-133596839D01*
X181637853Y-133606783D01*
X181574297Y-133577758D01*
X181567819Y-133571726D01*
X181364390Y-133368296D01*
X181364375Y-133368283D01*
X181348042Y-133351950D01*
X181348041Y-133351949D01*
X181348039Y-133351947D01*
X181328299Y-133341889D01*
X181311714Y-133331726D01*
X181293790Y-133318704D01*
X181272720Y-133311858D01*
X181254744Y-133304412D01*
X181235002Y-133294353D01*
X181213118Y-133290886D01*
X181194207Y-133286346D01*
X181173135Y-133279500D01*
X181173133Y-133279500D01*
X181141219Y-133279500D01*
X173600171Y-133279500D01*
X173533132Y-133259815D01*
X173492784Y-133217500D01*
X173452533Y-133147783D01*
X173325870Y-133007110D01*
X173172730Y-132895848D01*
X172999802Y-132818855D01*
X172814648Y-132779500D01*
X172814646Y-132779500D01*
X172625354Y-132779500D01*
X172625352Y-132779500D01*
X172440197Y-132818855D01*
X172267269Y-132895848D01*
X172114129Y-133007110D01*
X171987466Y-133147783D01*
X171892820Y-133311715D01*
X171834326Y-133491742D01*
X171814540Y-133679999D01*
X166305140Y-133679999D01*
X166284621Y-133458554D01*
X166223762Y-133244654D01*
X166124630Y-133045572D01*
X166108860Y-133024690D01*
X165453553Y-133679999D01*
X165453553Y-133680000D01*
X165451200Y-133680000D01*
X165453628Y-133650698D01*
X165424953Y-133537462D01*
X165361064Y-133439673D01*
X165268885Y-133367928D01*
X165158405Y-133330000D01*
X165070995Y-133330000D01*
X164984784Y-133344386D01*
X164882053Y-133399981D01*
X164802940Y-133485921D01*
X164756018Y-133592892D01*
X164746372Y-133709302D01*
X164717145Y-133709302D01*
X164746447Y-133680000D01*
X164091138Y-133024691D01*
X164091137Y-133024691D01*
X164075368Y-133045574D01*
X163976237Y-133244654D01*
X163915378Y-133458554D01*
X163894859Y-133679999D01*
X151346942Y-133679999D01*
X151318681Y-133671426D01*
X151130000Y-133652843D01*
X150941318Y-133671426D01*
X150759882Y-133726464D01*
X150592677Y-133815837D01*
X150446117Y-133936117D01*
X150325837Y-134082677D01*
X150236464Y-134249882D01*
X150181426Y-134431318D01*
X150162843Y-134619999D01*
X149856821Y-134619999D01*
X149837575Y-134400021D01*
X149780421Y-134186720D01*
X149687098Y-133986589D01*
X149641740Y-133921811D01*
X148974903Y-134588648D01*
X148974949Y-134588102D01*
X148943734Y-134464838D01*
X148874187Y-134358388D01*
X148773843Y-134280287D01*
X148653578Y-134239000D01*
X148617447Y-134239000D01*
X149288187Y-133568258D01*
X149223406Y-133522898D01*
X149023281Y-133429579D01*
X148809978Y-133372424D01*
X148590000Y-133353178D01*
X148370021Y-133372424D01*
X148156719Y-133429578D01*
X147956589Y-133522900D01*
X147891812Y-133568258D01*
X147891811Y-133568258D01*
X148562554Y-134239000D01*
X148558431Y-134239000D01*
X148464579Y-134254661D01*
X148352749Y-134315180D01*
X148266629Y-134408731D01*
X148215552Y-134525177D01*
X148209894Y-134593447D01*
X147538258Y-133921811D01*
X147538258Y-133921812D01*
X147492900Y-133986589D01*
X147399578Y-134186719D01*
X147342424Y-134400021D01*
X147323178Y-134620000D01*
X92461793Y-134620000D01*
X95001795Y-132079999D01*
X147622843Y-132079999D01*
X147641426Y-132268681D01*
X147641427Y-132268683D01*
X147696463Y-132450115D01*
X147785838Y-132617324D01*
X147906117Y-132763883D01*
X148052676Y-132884162D01*
X148219885Y-132973537D01*
X148401317Y-133028573D01*
X148590000Y-133047157D01*
X148778683Y-133028573D01*
X148960115Y-132973537D01*
X149127324Y-132884162D01*
X149273883Y-132763883D01*
X149394162Y-132617324D01*
X149483537Y-132450115D01*
X149538573Y-132268683D01*
X149557157Y-132080000D01*
X150162843Y-132080000D01*
X150181426Y-132268681D01*
X150181427Y-132268683D01*
X150236463Y-132450115D01*
X150325838Y-132617324D01*
X150446117Y-132763883D01*
X150592676Y-132884162D01*
X150759885Y-132973537D01*
X150941317Y-133028573D01*
X151130000Y-133047157D01*
X151318683Y-133028573D01*
X151500115Y-132973537D01*
X151667324Y-132884162D01*
X151813883Y-132763883D01*
X151888372Y-132673119D01*
X164446671Y-132673119D01*
X165100000Y-133326447D01*
X165100001Y-133326447D01*
X165753327Y-132673119D01*
X165637179Y-132601202D01*
X165429801Y-132520864D01*
X165211194Y-132480000D01*
X164988806Y-132480000D01*
X164770198Y-132520864D01*
X164562821Y-132601202D01*
X164446671Y-132673119D01*
X151888372Y-132673119D01*
X151934162Y-132617324D01*
X152023537Y-132450115D01*
X152078573Y-132268683D01*
X152097157Y-132080000D01*
X152078573Y-131891317D01*
X152023537Y-131709885D01*
X151934162Y-131542676D01*
X151813883Y-131396117D01*
X151667324Y-131275838D01*
X151500115Y-131186463D01*
X151409398Y-131158945D01*
X151318681Y-131131426D01*
X151130000Y-131112843D01*
X150941318Y-131131426D01*
X150759882Y-131186464D01*
X150592677Y-131275837D01*
X150446117Y-131396117D01*
X150325837Y-131542677D01*
X150236464Y-131709882D01*
X150181426Y-131891318D01*
X150162843Y-132080000D01*
X149557157Y-132080000D01*
X149538573Y-131891317D01*
X149483537Y-131709885D01*
X149394162Y-131542676D01*
X149273883Y-131396117D01*
X149127324Y-131275838D01*
X148960115Y-131186463D01*
X148869398Y-131158945D01*
X148778681Y-131131426D01*
X148590000Y-131112843D01*
X148401318Y-131131426D01*
X148219882Y-131186464D01*
X148052677Y-131275837D01*
X147906117Y-131396117D01*
X147785837Y-131542677D01*
X147696464Y-131709882D01*
X147641426Y-131891318D01*
X147622843Y-132079999D01*
X95001795Y-132079999D01*
X97184413Y-129897381D01*
X97184417Y-129897373D01*
X97192750Y-129889042D01*
X97202809Y-129869298D01*
X97212967Y-129852721D01*
X97225996Y-129834789D01*
X97232843Y-129813713D01*
X97240284Y-129795749D01*
X97250346Y-129776004D01*
X97253812Y-129754113D01*
X97258352Y-129735204D01*
X97265200Y-129714133D01*
X97265200Y-129587267D01*
X97265200Y-129587266D01*
X97265200Y-129540000D01*
X147622843Y-129540000D01*
X147641426Y-129728681D01*
X147650664Y-129759135D01*
X147692600Y-129897381D01*
X147696464Y-129910117D01*
X147735798Y-129983705D01*
X147785838Y-130077324D01*
X147906117Y-130223883D01*
X148052676Y-130344162D01*
X148219885Y-130433537D01*
X148401317Y-130488573D01*
X148590000Y-130507157D01*
X148778683Y-130488573D01*
X148960115Y-130433537D01*
X149127324Y-130344162D01*
X149273883Y-130223883D01*
X149394162Y-130077324D01*
X149483537Y-129910115D01*
X149538573Y-129728683D01*
X149557157Y-129540000D01*
X149557157Y-129539999D01*
X150162843Y-129539999D01*
X150181426Y-129728681D01*
X150190664Y-129759135D01*
X150232600Y-129897381D01*
X150236464Y-129910117D01*
X150275798Y-129983705D01*
X150325838Y-130077324D01*
X150446117Y-130223883D01*
X150592676Y-130344162D01*
X150759885Y-130433537D01*
X150941317Y-130488573D01*
X151130000Y-130507157D01*
X151318683Y-130488573D01*
X151500115Y-130433537D01*
X151667324Y-130344162D01*
X151813883Y-130223883D01*
X151934162Y-130077324D01*
X152023537Y-129910115D01*
X152078573Y-129728683D01*
X152090570Y-129606881D01*
X164446672Y-129606881D01*
X164562816Y-129678795D01*
X164770198Y-129759135D01*
X164988806Y-129800000D01*
X165211194Y-129800000D01*
X165429801Y-129759135D01*
X165637180Y-129678797D01*
X165753326Y-129606880D01*
X165753326Y-129606879D01*
X165100001Y-128953553D01*
X165100000Y-128953553D01*
X164446672Y-129606879D01*
X164446672Y-129606881D01*
X152090570Y-129606881D01*
X152097157Y-129540000D01*
X152078573Y-129351317D01*
X152023537Y-129169885D01*
X151934162Y-129002676D01*
X151813883Y-128856117D01*
X151667324Y-128735838D01*
X151500115Y-128646463D01*
X151404279Y-128617392D01*
X151346942Y-128599999D01*
X163894859Y-128599999D01*
X163915378Y-128821445D01*
X163976238Y-129035347D01*
X164075367Y-129234425D01*
X164091137Y-129255308D01*
X164091138Y-129255308D01*
X164717145Y-128629302D01*
X164746372Y-128629302D01*
X164775047Y-128742538D01*
X164838936Y-128840327D01*
X164931115Y-128912072D01*
X165041595Y-128950000D01*
X165129005Y-128950000D01*
X165215216Y-128935614D01*
X165317947Y-128880019D01*
X165397060Y-128794079D01*
X165443982Y-128687108D01*
X165451200Y-128600000D01*
X165453553Y-128600000D01*
X166108861Y-129255308D01*
X166124632Y-129234424D01*
X166223761Y-129035347D01*
X166284621Y-128821445D01*
X166305140Y-128599999D01*
X171814540Y-128599999D01*
X171834326Y-128788257D01*
X171892820Y-128968284D01*
X171987466Y-129132216D01*
X172114129Y-129272889D01*
X172267269Y-129384151D01*
X172440197Y-129461144D01*
X172625352Y-129500500D01*
X172625354Y-129500500D01*
X172814648Y-129500500D01*
X172938083Y-129474262D01*
X172999803Y-129461144D01*
X173172730Y-129384151D01*
X173227195Y-129344580D01*
X173325870Y-129272889D01*
X173452533Y-129132216D01*
X173492784Y-129062500D01*
X173543351Y-129014284D01*
X173600171Y-129000500D01*
X181655500Y-129000500D01*
X181722539Y-129020185D01*
X181768294Y-129072989D01*
X181779500Y-129124500D01*
X181779500Y-129519748D01*
X181791132Y-129578230D01*
X181835447Y-129644552D01*
X181901769Y-129688867D01*
X181960251Y-129700500D01*
X181960252Y-129700500D01*
X183799749Y-129700500D01*
X183828989Y-129694683D01*
X183858231Y-129688867D01*
X183924552Y-129644552D01*
X183968867Y-129578231D01*
X183980500Y-129519748D01*
X183980500Y-128600000D01*
X184314785Y-128600000D01*
X184333602Y-128803083D01*
X184389418Y-128999251D01*
X184480324Y-129181818D01*
X184603236Y-129344580D01*
X184753958Y-129481981D01*
X184909408Y-129578231D01*
X184927363Y-129589348D01*
X185117544Y-129663024D01*
X185318024Y-129700500D01*
X185318026Y-129700500D01*
X185521974Y-129700500D01*
X185521976Y-129700500D01*
X185722456Y-129663024D01*
X185912637Y-129589348D01*
X186086041Y-129481981D01*
X186236764Y-129344579D01*
X186359673Y-129181821D01*
X186359673Y-129181819D01*
X186359675Y-129181818D01*
X186405313Y-129090161D01*
X186450582Y-128999250D01*
X186506397Y-128803083D01*
X186525215Y-128600000D01*
X186506397Y-128396917D01*
X186504806Y-128391327D01*
X186476716Y-128292602D01*
X186450582Y-128200750D01*
X186439943Y-128179383D01*
X186359675Y-128018181D01*
X186236763Y-127855419D01*
X186086041Y-127718018D01*
X185912638Y-127610652D01*
X185722457Y-127536976D01*
X185638072Y-127521202D01*
X185521976Y-127499500D01*
X185318024Y-127499500D01*
X185255793Y-127511133D01*
X185117542Y-127536976D01*
X184927361Y-127610652D01*
X184753958Y-127718018D01*
X184603236Y-127855419D01*
X184480324Y-128018181D01*
X184389418Y-128200748D01*
X184333602Y-128396916D01*
X184314785Y-128600000D01*
X183980500Y-128600000D01*
X183980500Y-127680252D01*
X183979188Y-127673658D01*
X183968867Y-127621769D01*
X183924552Y-127555447D01*
X183858230Y-127511132D01*
X183799749Y-127499500D01*
X183799748Y-127499500D01*
X181960252Y-127499500D01*
X181960251Y-127499500D01*
X181901769Y-127511132D01*
X181835447Y-127555447D01*
X181791132Y-127621769D01*
X181779500Y-127680251D01*
X181779500Y-128075500D01*
X181759815Y-128142539D01*
X181707011Y-128188294D01*
X181655500Y-128199500D01*
X173600171Y-128199500D01*
X173533132Y-128179815D01*
X173492784Y-128137500D01*
X173452533Y-128067783D01*
X173325870Y-127927110D01*
X173172730Y-127815848D01*
X172999802Y-127738855D01*
X172814648Y-127699500D01*
X172814646Y-127699500D01*
X172625354Y-127699500D01*
X172625352Y-127699500D01*
X172440197Y-127738855D01*
X172267269Y-127815848D01*
X172114129Y-127927110D01*
X171987466Y-128067783D01*
X171892820Y-128231715D01*
X171834326Y-128411742D01*
X171814540Y-128599999D01*
X166305140Y-128599999D01*
X166284621Y-128378554D01*
X166223762Y-128164654D01*
X166124630Y-127965572D01*
X166108860Y-127944690D01*
X165453553Y-128599999D01*
X165453553Y-128600000D01*
X165451200Y-128600000D01*
X165453628Y-128570698D01*
X165424953Y-128457462D01*
X165361064Y-128359673D01*
X165268885Y-128287928D01*
X165158405Y-128250000D01*
X165070995Y-128250000D01*
X164984784Y-128264386D01*
X164882053Y-128319981D01*
X164802940Y-128405921D01*
X164756018Y-128512892D01*
X164746372Y-128629302D01*
X164717145Y-128629302D01*
X164746447Y-128600000D01*
X164746447Y-128599998D01*
X164091138Y-127944690D01*
X164091137Y-127944691D01*
X164075368Y-127965574D01*
X163976237Y-128164654D01*
X163915378Y-128378554D01*
X163894859Y-128599999D01*
X151346942Y-128599999D01*
X151318681Y-128591426D01*
X151130000Y-128572843D01*
X150941318Y-128591426D01*
X150759882Y-128646464D01*
X150592677Y-128735837D01*
X150446117Y-128856117D01*
X150325837Y-129002677D01*
X150236464Y-129169882D01*
X150181426Y-129351318D01*
X150162843Y-129539999D01*
X149557157Y-129539999D01*
X149538573Y-129351317D01*
X149483537Y-129169885D01*
X149394162Y-129002676D01*
X149273883Y-128856117D01*
X149127324Y-128735838D01*
X148960115Y-128646463D01*
X148864279Y-128617392D01*
X148778681Y-128591426D01*
X148610613Y-128574873D01*
X148590000Y-128572843D01*
X148589999Y-128572843D01*
X148401318Y-128591426D01*
X148219882Y-128646464D01*
X148052677Y-128735837D01*
X147906117Y-128856117D01*
X147785837Y-129002677D01*
X147696464Y-129169882D01*
X147641426Y-129351318D01*
X147622843Y-129540000D01*
X97265200Y-129540000D01*
X97265200Y-126999999D01*
X147622843Y-126999999D01*
X147641426Y-127188681D01*
X147668945Y-127279398D01*
X147696463Y-127370115D01*
X147785838Y-127537324D01*
X147906117Y-127683883D01*
X148052676Y-127804162D01*
X148219885Y-127893537D01*
X148401317Y-127948573D01*
X148590000Y-127967157D01*
X148778683Y-127948573D01*
X148960115Y-127893537D01*
X149127324Y-127804162D01*
X149273883Y-127683883D01*
X149394162Y-127537324D01*
X149483537Y-127370115D01*
X149538573Y-127188683D01*
X149557157Y-127000000D01*
X150162843Y-127000000D01*
X150181426Y-127188681D01*
X150208945Y-127279398D01*
X150236463Y-127370115D01*
X150325838Y-127537324D01*
X150446117Y-127683883D01*
X150592676Y-127804162D01*
X150759885Y-127893537D01*
X150941317Y-127948573D01*
X151130000Y-127967157D01*
X151318683Y-127948573D01*
X151500115Y-127893537D01*
X151667324Y-127804162D01*
X151813883Y-127683883D01*
X151888372Y-127593119D01*
X164446671Y-127593119D01*
X165099998Y-128246447D01*
X165099999Y-128246447D01*
X165753327Y-127593119D01*
X165637179Y-127521202D01*
X165429801Y-127440864D01*
X165211194Y-127400000D01*
X164988806Y-127400000D01*
X164770198Y-127440864D01*
X164562821Y-127521202D01*
X164446671Y-127593119D01*
X151888372Y-127593119D01*
X151934162Y-127537324D01*
X152023537Y-127370115D01*
X152078573Y-127188683D01*
X152097157Y-127000000D01*
X152078573Y-126811317D01*
X152023537Y-126629885D01*
X151934162Y-126462676D01*
X151813883Y-126316117D01*
X151667324Y-126195838D01*
X151500115Y-126106463D01*
X151409398Y-126078945D01*
X151318681Y-126051426D01*
X151130000Y-126032843D01*
X150941318Y-126051426D01*
X150780634Y-126100168D01*
X150765470Y-126104769D01*
X150759882Y-126106464D01*
X150592677Y-126195837D01*
X150446117Y-126316117D01*
X150325837Y-126462677D01*
X150236464Y-126629882D01*
X150181426Y-126811318D01*
X150162843Y-127000000D01*
X149557157Y-127000000D01*
X149538573Y-126811317D01*
X149483537Y-126629885D01*
X149394162Y-126462676D01*
X149273883Y-126316117D01*
X149127324Y-126195838D01*
X148960115Y-126106463D01*
X148869398Y-126078945D01*
X148778681Y-126051426D01*
X148590000Y-126032843D01*
X148401318Y-126051426D01*
X148240634Y-126100168D01*
X148225470Y-126104769D01*
X148219882Y-126106464D01*
X148052677Y-126195837D01*
X147906117Y-126316117D01*
X147785837Y-126462677D01*
X147696464Y-126629882D01*
X147641426Y-126811318D01*
X147622843Y-126999999D01*
X97265200Y-126999999D01*
X97265200Y-125929432D01*
X97284885Y-125862393D01*
X97288925Y-125856996D01*
X97349865Y-125723557D01*
X97349864Y-125723557D01*
X97370347Y-125581100D01*
X97349865Y-125438643D01*
X97344619Y-125427157D01*
X97290076Y-125307725D01*
X97195829Y-125198958D01*
X97195828Y-125198957D01*
X97074753Y-125121147D01*
X96936661Y-125080600D01*
X96792739Y-125080600D01*
X96654647Y-125121147D01*
X96533570Y-125198958D01*
X96439323Y-125307725D01*
X96379534Y-125438642D01*
X96359053Y-125581100D01*
X96379534Y-125723557D01*
X96446729Y-125870691D01*
X96444611Y-125871658D01*
X96462936Y-125911775D01*
X96464200Y-125929432D01*
X96464200Y-129433444D01*
X96444515Y-129500483D01*
X96427881Y-129521125D01*
X91339744Y-134609261D01*
X91278421Y-134642746D01*
X91208729Y-134637762D01*
X91152796Y-134595890D01*
X91128660Y-134533734D01*
X91127857Y-134525586D01*
X91118573Y-134431317D01*
X91063537Y-134249885D01*
X90974162Y-134082676D01*
X90853883Y-133936117D01*
X90707324Y-133815838D01*
X90540115Y-133726463D01*
X90449398Y-133698945D01*
X90358681Y-133671426D01*
X90170000Y-133652843D01*
X89981318Y-133671426D01*
X89799882Y-133726464D01*
X89632677Y-133815837D01*
X89486117Y-133936117D01*
X89365837Y-134082677D01*
X89276464Y-134249882D01*
X89221426Y-134431318D01*
X89202843Y-134620000D01*
X89221426Y-134808681D01*
X89230920Y-134839978D01*
X89276463Y-134990115D01*
X89365838Y-135157324D01*
X89486117Y-135303883D01*
X89528993Y-135339071D01*
X89568326Y-135396815D01*
X89570197Y-135466659D01*
X89534009Y-135526428D01*
X89523211Y-135535241D01*
X89514285Y-135541726D01*
X89497699Y-135551890D01*
X89477960Y-135561947D01*
X88702113Y-136337794D01*
X88679549Y-136360357D01*
X88669492Y-136380096D01*
X88659331Y-136396679D01*
X88646302Y-136414613D01*
X88639454Y-136435687D01*
X88632012Y-136453654D01*
X88621953Y-136473397D01*
X88618486Y-136495282D01*
X88613946Y-136514193D01*
X88607731Y-136533323D01*
X88568296Y-136591000D01*
X88503938Y-136618200D01*
X88435091Y-136606288D01*
X88393948Y-136573675D01*
X88313883Y-136476117D01*
X88167324Y-136355838D01*
X88000115Y-136266463D01*
X87907194Y-136238276D01*
X87818681Y-136211426D01*
X87630000Y-136192843D01*
X87441318Y-136211426D01*
X87259882Y-136266464D01*
X87092677Y-136355837D01*
X86946117Y-136476117D01*
X86896603Y-136536450D01*
X86825838Y-136622676D01*
X86787737Y-136693956D01*
X86738778Y-136743797D01*
X86678382Y-136759500D01*
X76280655Y-136759500D01*
X76213616Y-136739815D01*
X76192974Y-136723181D01*
X74089793Y-134620000D01*
X86662843Y-134620000D01*
X86681426Y-134808681D01*
X86690920Y-134839978D01*
X86736463Y-134990115D01*
X86825838Y-135157324D01*
X86946117Y-135303883D01*
X87092676Y-135424162D01*
X87259885Y-135513537D01*
X87441317Y-135568573D01*
X87630000Y-135587157D01*
X87818683Y-135568573D01*
X88000115Y-135513537D01*
X88167324Y-135424162D01*
X88313883Y-135303883D01*
X88434162Y-135157324D01*
X88523537Y-134990115D01*
X88578573Y-134808683D01*
X88597157Y-134620000D01*
X88578573Y-134431317D01*
X88523537Y-134249885D01*
X88434162Y-134082676D01*
X88313883Y-133936117D01*
X88167324Y-133815838D01*
X88000115Y-133726463D01*
X87909398Y-133698945D01*
X87818681Y-133671426D01*
X87630000Y-133652843D01*
X87441318Y-133671426D01*
X87259882Y-133726464D01*
X87092677Y-133815837D01*
X86946117Y-133936117D01*
X86825837Y-134082677D01*
X86736464Y-134249882D01*
X86681426Y-134431318D01*
X86662843Y-134620000D01*
X74089793Y-134620000D01*
X71549793Y-132080000D01*
X86662843Y-132080000D01*
X86681426Y-132268681D01*
X86681427Y-132268683D01*
X86736463Y-132450115D01*
X86825838Y-132617324D01*
X86946117Y-132763883D01*
X87092676Y-132884162D01*
X87259885Y-132973537D01*
X87441317Y-133028573D01*
X87630000Y-133047157D01*
X87818683Y-133028573D01*
X88000115Y-132973537D01*
X88167324Y-132884162D01*
X88313883Y-132763883D01*
X88434162Y-132617324D01*
X88523537Y-132450115D01*
X88578573Y-132268683D01*
X88597157Y-132080000D01*
X88903178Y-132080000D01*
X88922424Y-132299978D01*
X88979579Y-132513281D01*
X89072898Y-132713406D01*
X89118258Y-132778187D01*
X89785096Y-132111348D01*
X89785051Y-132111898D01*
X89816266Y-132235162D01*
X89885813Y-132341612D01*
X89986157Y-132419713D01*
X90106422Y-132461000D01*
X90142553Y-132461000D01*
X89471812Y-133131740D01*
X89536593Y-133177101D01*
X89736718Y-133270420D01*
X89950021Y-133327575D01*
X90169999Y-133346821D01*
X90389978Y-133327575D01*
X90603281Y-133270420D01*
X90803408Y-133177100D01*
X90868187Y-133131740D01*
X90197448Y-132461000D01*
X90201569Y-132461000D01*
X90295421Y-132445339D01*
X90407251Y-132384820D01*
X90493371Y-132291269D01*
X90544448Y-132174823D01*
X90550105Y-132106552D01*
X91221740Y-132778186D01*
X91267100Y-132713408D01*
X91360420Y-132513281D01*
X91417575Y-132299978D01*
X91436821Y-132080000D01*
X91417575Y-131860021D01*
X91360421Y-131646720D01*
X91267098Y-131446589D01*
X91221740Y-131381811D01*
X90554903Y-132048648D01*
X90554949Y-132048102D01*
X90523734Y-131924838D01*
X90454187Y-131818388D01*
X90353843Y-131740287D01*
X90233578Y-131699000D01*
X90197447Y-131699000D01*
X90868187Y-131028258D01*
X90803406Y-130982898D01*
X90603281Y-130889579D01*
X90389978Y-130832424D01*
X90169999Y-130813178D01*
X89950021Y-130832424D01*
X89736719Y-130889578D01*
X89536589Y-130982900D01*
X89471812Y-131028258D01*
X89471811Y-131028258D01*
X90142554Y-131699000D01*
X90138431Y-131699000D01*
X90044579Y-131714661D01*
X89932749Y-131775180D01*
X89846629Y-131868731D01*
X89795552Y-131985177D01*
X89789894Y-132053446D01*
X89118258Y-131381812D01*
X89072900Y-131446589D01*
X88979578Y-131646719D01*
X88922424Y-131860021D01*
X88903178Y-132080000D01*
X88597157Y-132080000D01*
X88578573Y-131891317D01*
X88523537Y-131709885D01*
X88434162Y-131542676D01*
X88313883Y-131396117D01*
X88167324Y-131275838D01*
X88000115Y-131186463D01*
X87909398Y-131158945D01*
X87818681Y-131131426D01*
X87630000Y-131112843D01*
X87441318Y-131131426D01*
X87259882Y-131186464D01*
X87092677Y-131275837D01*
X86946117Y-131396117D01*
X86825837Y-131542677D01*
X86736464Y-131709882D01*
X86681426Y-131891318D01*
X86662843Y-132080000D01*
X71549793Y-132080000D01*
X67204774Y-127734981D01*
X67171289Y-127673658D01*
X67176273Y-127603966D01*
X67218145Y-127548033D01*
X67283609Y-127523616D01*
X67292455Y-127523300D01*
X67315161Y-127523300D01*
X67453253Y-127482753D01*
X67574328Y-127404943D01*
X67668577Y-127296173D01*
X67728365Y-127165257D01*
X67748847Y-127022800D01*
X67728365Y-126880343D01*
X67710950Y-126842211D01*
X67701007Y-126773054D01*
X67730031Y-126709498D01*
X67788809Y-126671723D01*
X67823745Y-126666700D01*
X86558857Y-126666700D01*
X86625896Y-126686385D01*
X86671651Y-126739189D01*
X86682260Y-126802854D01*
X86662843Y-126999999D01*
X86681426Y-127188681D01*
X86708945Y-127279399D01*
X86736463Y-127370115D01*
X86825838Y-127537324D01*
X86946117Y-127683883D01*
X87092676Y-127804162D01*
X87259885Y-127893537D01*
X87441317Y-127948573D01*
X87630000Y-127967157D01*
X87818683Y-127948573D01*
X88000115Y-127893537D01*
X88167324Y-127804162D01*
X88237236Y-127746786D01*
X88301544Y-127719473D01*
X88370411Y-127731263D01*
X88421972Y-127778415D01*
X88439900Y-127842639D01*
X88439900Y-128112344D01*
X88420215Y-128179383D01*
X88403581Y-128200025D01*
X88019698Y-128583907D01*
X87958375Y-128617392D01*
X87896023Y-128614887D01*
X87818683Y-128591426D01*
X87630000Y-128572843D01*
X87441318Y-128591426D01*
X87259882Y-128646464D01*
X87092677Y-128735837D01*
X86946117Y-128856117D01*
X86825837Y-129002677D01*
X86736464Y-129169882D01*
X86681426Y-129351318D01*
X86662843Y-129540000D01*
X86681426Y-129728681D01*
X86690664Y-129759135D01*
X86732600Y-129897381D01*
X86736464Y-129910117D01*
X86775798Y-129983705D01*
X86825838Y-130077324D01*
X86946117Y-130223883D01*
X87092676Y-130344162D01*
X87259885Y-130433537D01*
X87441317Y-130488573D01*
X87630000Y-130507157D01*
X87818683Y-130488573D01*
X88000115Y-130433537D01*
X88167324Y-130344162D01*
X88313883Y-130223883D01*
X88434162Y-130077324D01*
X88523537Y-129910115D01*
X88578573Y-129728683D01*
X88597157Y-129540000D01*
X89202843Y-129540000D01*
X89221426Y-129728681D01*
X89230664Y-129759135D01*
X89272600Y-129897381D01*
X89276464Y-129910117D01*
X89315798Y-129983705D01*
X89365838Y-130077324D01*
X89486117Y-130223883D01*
X89632676Y-130344162D01*
X89799885Y-130433537D01*
X89981317Y-130488573D01*
X90170000Y-130507157D01*
X90358683Y-130488573D01*
X90540115Y-130433537D01*
X90707324Y-130344162D01*
X90853883Y-130223883D01*
X90974162Y-130077324D01*
X91063537Y-129910115D01*
X91118573Y-129728683D01*
X91137157Y-129540000D01*
X91118573Y-129351317D01*
X91063537Y-129169885D01*
X90974162Y-129002676D01*
X90853883Y-128856117D01*
X90707324Y-128735838D01*
X90540115Y-128646463D01*
X90444279Y-128617392D01*
X90358681Y-128591426D01*
X90170000Y-128572843D01*
X89981318Y-128591426D01*
X89799882Y-128646464D01*
X89632677Y-128735837D01*
X89486117Y-128856117D01*
X89365837Y-129002677D01*
X89276464Y-129169882D01*
X89221426Y-129351318D01*
X89202843Y-129540000D01*
X88597157Y-129540000D01*
X88578573Y-129351317D01*
X88555112Y-129273975D01*
X88554489Y-129204108D01*
X88586090Y-129150301D01*
X89145883Y-128590509D01*
X89172715Y-128563677D01*
X89176796Y-128551559D01*
X89178510Y-128548195D01*
X89188674Y-128531611D01*
X89201696Y-128513690D01*
X89208544Y-128492611D01*
X89215986Y-128474644D01*
X89226046Y-128454904D01*
X89229512Y-128433014D01*
X89234055Y-128414099D01*
X89240900Y-128393033D01*
X89240900Y-127731641D01*
X89260585Y-127664602D01*
X89313389Y-127618847D01*
X89382547Y-127608903D01*
X89446103Y-127637928D01*
X89460746Y-127652969D01*
X89486117Y-127683883D01*
X89632676Y-127804162D01*
X89799885Y-127893537D01*
X89981317Y-127948573D01*
X90170000Y-127967157D01*
X90358683Y-127948573D01*
X90540115Y-127893537D01*
X90707324Y-127804162D01*
X90853883Y-127683883D01*
X90974162Y-127537324D01*
X91063537Y-127370115D01*
X91118573Y-127188683D01*
X91137157Y-127000000D01*
X91118573Y-126811317D01*
X91063537Y-126629885D01*
X90974162Y-126462676D01*
X90853883Y-126316117D01*
X90707324Y-126195838D01*
X90540115Y-126106463D01*
X90449398Y-126078945D01*
X90358681Y-126051426D01*
X90170000Y-126032843D01*
X89981318Y-126051426D01*
X89820634Y-126100168D01*
X89805470Y-126104769D01*
X89799882Y-126106464D01*
X89632677Y-126195837D01*
X89486116Y-126316117D01*
X89411832Y-126406632D01*
X89354086Y-126445966D01*
X89284242Y-126447835D01*
X89224474Y-126411647D01*
X89213665Y-126393091D01*
X89213241Y-126393400D01*
X89188671Y-126359582D01*
X89178507Y-126342997D01*
X89168450Y-126323258D01*
X89154568Y-126309376D01*
X89154566Y-126309373D01*
X88232226Y-125387032D01*
X88198741Y-125325709D01*
X88203725Y-125256017D01*
X88241241Y-125203499D01*
X88313883Y-125143883D01*
X88434162Y-124997324D01*
X88523537Y-124830115D01*
X88578573Y-124648683D01*
X88597157Y-124460000D01*
X88578573Y-124271317D01*
X88523537Y-124089885D01*
X88434162Y-123922676D01*
X88313883Y-123776117D01*
X88268110Y-123738551D01*
X88228777Y-123680807D01*
X88226906Y-123610962D01*
X88263094Y-123551194D01*
X88325850Y-123520478D01*
X88346776Y-123518700D01*
X89453224Y-123518700D01*
X89520263Y-123538385D01*
X89566018Y-123591189D01*
X89575962Y-123660347D01*
X89546937Y-123723903D01*
X89531892Y-123738550D01*
X89497082Y-123767118D01*
X89486117Y-123776117D01*
X89365837Y-123922677D01*
X89276464Y-124089882D01*
X89221426Y-124271318D01*
X89202843Y-124459999D01*
X89221426Y-124648681D01*
X89221427Y-124648683D01*
X89276463Y-124830115D01*
X89365838Y-124997324D01*
X89486117Y-125143883D01*
X89632676Y-125264162D01*
X89799885Y-125353537D01*
X89981317Y-125408573D01*
X90170000Y-125427157D01*
X90358683Y-125408573D01*
X90540115Y-125353537D01*
X90707324Y-125264162D01*
X90853883Y-125143883D01*
X90974162Y-124997324D01*
X91063537Y-124830115D01*
X91118573Y-124648683D01*
X91137157Y-124460000D01*
X91137157Y-124459999D01*
X147622843Y-124459999D01*
X147641426Y-124648681D01*
X147641427Y-124648683D01*
X147696463Y-124830115D01*
X147785838Y-124997324D01*
X147906117Y-125143883D01*
X148052676Y-125264162D01*
X148219885Y-125353537D01*
X148401317Y-125408573D01*
X148590000Y-125427157D01*
X148778683Y-125408573D01*
X148960115Y-125353537D01*
X149127324Y-125264162D01*
X149273883Y-125143883D01*
X149394162Y-124997324D01*
X149483537Y-124830115D01*
X149538573Y-124648683D01*
X149557157Y-124460000D01*
X149557157Y-124459999D01*
X150162843Y-124459999D01*
X150181426Y-124648681D01*
X150181427Y-124648683D01*
X150236463Y-124830115D01*
X150325838Y-124997324D01*
X150446117Y-125143883D01*
X150592676Y-125264162D01*
X150759885Y-125353537D01*
X150941317Y-125408573D01*
X151130000Y-125427157D01*
X151318683Y-125408573D01*
X151500115Y-125353537D01*
X151667324Y-125264162D01*
X151813883Y-125143883D01*
X151934162Y-124997324D01*
X152023537Y-124830115D01*
X152078573Y-124648683D01*
X152090570Y-124526881D01*
X164446672Y-124526881D01*
X164562816Y-124598795D01*
X164770198Y-124679135D01*
X164988806Y-124720000D01*
X165211194Y-124720000D01*
X165429801Y-124679135D01*
X165637180Y-124598797D01*
X165753326Y-124526880D01*
X165753326Y-124526879D01*
X165100001Y-123873553D01*
X165100000Y-123873553D01*
X164446672Y-124526879D01*
X164446672Y-124526881D01*
X152090570Y-124526881D01*
X152097157Y-124460000D01*
X152078573Y-124271317D01*
X152023537Y-124089885D01*
X151934162Y-123922676D01*
X151813883Y-123776117D01*
X151667324Y-123655838D01*
X151500115Y-123566463D01*
X151348521Y-123520478D01*
X151346942Y-123519999D01*
X163894859Y-123519999D01*
X163915378Y-123741445D01*
X163976238Y-123955347D01*
X164075367Y-124154425D01*
X164091137Y-124175308D01*
X164091138Y-124175308D01*
X164717145Y-123549302D01*
X164746372Y-123549302D01*
X164775047Y-123662538D01*
X164838936Y-123760327D01*
X164931115Y-123832072D01*
X165041595Y-123870000D01*
X165129005Y-123870000D01*
X165215216Y-123855614D01*
X165317947Y-123800019D01*
X165397060Y-123714079D01*
X165443982Y-123607108D01*
X165451200Y-123520000D01*
X165453553Y-123520000D01*
X166108861Y-124175308D01*
X166124632Y-124154424D01*
X166223761Y-123955347D01*
X166284621Y-123741445D01*
X166305140Y-123520000D01*
X166284621Y-123298554D01*
X166223762Y-123084654D01*
X166124630Y-122885572D01*
X166108860Y-122864690D01*
X165453553Y-123519999D01*
X165453553Y-123520000D01*
X165451200Y-123520000D01*
X165453628Y-123490698D01*
X165424953Y-123377462D01*
X165361064Y-123279673D01*
X165268885Y-123207928D01*
X165158405Y-123170000D01*
X165070995Y-123170000D01*
X164984784Y-123184386D01*
X164882053Y-123239981D01*
X164802940Y-123325921D01*
X164756018Y-123432892D01*
X164746372Y-123549302D01*
X164717145Y-123549302D01*
X164746447Y-123520000D01*
X164746447Y-123519998D01*
X164091138Y-122864690D01*
X164091137Y-122864691D01*
X164075368Y-122885574D01*
X163976237Y-123084654D01*
X163915378Y-123298554D01*
X163894859Y-123519999D01*
X151346942Y-123519999D01*
X151318681Y-123511426D01*
X151130000Y-123492843D01*
X150941318Y-123511426D01*
X150759882Y-123566464D01*
X150592677Y-123655837D01*
X150446117Y-123776117D01*
X150325837Y-123922677D01*
X150236464Y-124089882D01*
X150181426Y-124271318D01*
X150162843Y-124459999D01*
X149557157Y-124459999D01*
X149538573Y-124271317D01*
X149483537Y-124089885D01*
X149394162Y-123922676D01*
X149273883Y-123776117D01*
X149127324Y-123655838D01*
X148960115Y-123566463D01*
X148808521Y-123520478D01*
X148778681Y-123511426D01*
X148610613Y-123494873D01*
X148590000Y-123492843D01*
X148589999Y-123492843D01*
X148401318Y-123511426D01*
X148219882Y-123566464D01*
X148052677Y-123655837D01*
X147906117Y-123776117D01*
X147785837Y-123922677D01*
X147696464Y-124089882D01*
X147641426Y-124271318D01*
X147622843Y-124459999D01*
X91137157Y-124459999D01*
X91118573Y-124271317D01*
X91063537Y-124089885D01*
X90974162Y-123922676D01*
X90853883Y-123776117D01*
X90808110Y-123738551D01*
X90768777Y-123680807D01*
X90766906Y-123610962D01*
X90803094Y-123551194D01*
X90865850Y-123520478D01*
X90886776Y-123518700D01*
X147455233Y-123518700D01*
X147476299Y-123511855D01*
X147495214Y-123507312D01*
X147517104Y-123503846D01*
X147536842Y-123493787D01*
X147554816Y-123486342D01*
X147575890Y-123479496D01*
X147593821Y-123466467D01*
X147610398Y-123456309D01*
X147630142Y-123446250D01*
X147638474Y-123437917D01*
X147638480Y-123437913D01*
X147777839Y-123298554D01*
X148200301Y-122876090D01*
X148261622Y-122842607D01*
X148323975Y-122845112D01*
X148330562Y-122847110D01*
X148401317Y-122868573D01*
X148590000Y-122887157D01*
X148778683Y-122868573D01*
X148960115Y-122813537D01*
X149127324Y-122724162D01*
X149273883Y-122603883D01*
X149394162Y-122457324D01*
X149483537Y-122290115D01*
X149538573Y-122108683D01*
X149557157Y-121920000D01*
X149538573Y-121731317D01*
X149483537Y-121549885D01*
X149394162Y-121382676D01*
X149273883Y-121236117D01*
X149211293Y-121184750D01*
X149171961Y-121127007D01*
X149170092Y-121057162D01*
X149206279Y-120997394D01*
X149269035Y-120966678D01*
X149289961Y-120964900D01*
X149557145Y-120964900D01*
X149624184Y-120984585D01*
X149644826Y-121001219D01*
X150173907Y-121530300D01*
X150207392Y-121591623D01*
X150204887Y-121653975D01*
X150181427Y-121731316D01*
X150162843Y-121920000D01*
X150181426Y-122108681D01*
X150236464Y-122290117D01*
X150274279Y-122360864D01*
X150325838Y-122457324D01*
X150446117Y-122603883D01*
X150592676Y-122724162D01*
X150759885Y-122813537D01*
X150941317Y-122868573D01*
X151130000Y-122887157D01*
X151318683Y-122868573D01*
X151500115Y-122813537D01*
X151667324Y-122724162D01*
X151813883Y-122603883D01*
X151888372Y-122513119D01*
X164446671Y-122513119D01*
X165099998Y-123166446D01*
X165099999Y-123166446D01*
X165753327Y-122513119D01*
X165637179Y-122441202D01*
X165429801Y-122360864D01*
X165211194Y-122320000D01*
X164988806Y-122320000D01*
X164770198Y-122360864D01*
X164562821Y-122441202D01*
X164446671Y-122513119D01*
X151888372Y-122513119D01*
X151934162Y-122457324D01*
X152023537Y-122290115D01*
X152078573Y-122108683D01*
X152097157Y-121920000D01*
X152078573Y-121731317D01*
X152023537Y-121549885D01*
X151934162Y-121382676D01*
X151813883Y-121236117D01*
X151667324Y-121115838D01*
X151500115Y-121026463D01*
X151398075Y-120995510D01*
X151318681Y-120971426D01*
X151136782Y-120953511D01*
X151130000Y-120952843D01*
X151129999Y-120952843D01*
X150941316Y-120971427D01*
X150863975Y-120994887D01*
X150794108Y-120995510D01*
X150740300Y-120963907D01*
X150538352Y-120761959D01*
X150504867Y-120700636D01*
X150509851Y-120630944D01*
X150551723Y-120575011D01*
X150617187Y-120550594D01*
X150678437Y-120561896D01*
X150696718Y-120570420D01*
X150910021Y-120627575D01*
X151130000Y-120646821D01*
X151349978Y-120627575D01*
X151563281Y-120570420D01*
X151763408Y-120477100D01*
X151828186Y-120431740D01*
X151157446Y-119761000D01*
X151161569Y-119761000D01*
X151255421Y-119745339D01*
X151367251Y-119684820D01*
X151453371Y-119591269D01*
X151504448Y-119474823D01*
X151510105Y-119406551D01*
X152181740Y-120078186D01*
X152227100Y-120013408D01*
X152320420Y-119813281D01*
X152377575Y-119599978D01*
X152396821Y-119380000D01*
X152377575Y-119160021D01*
X152320421Y-118946720D01*
X152227098Y-118746589D01*
X152181740Y-118681811D01*
X151514903Y-119348647D01*
X151514949Y-119348102D01*
X151483734Y-119224838D01*
X151414187Y-119118388D01*
X151313843Y-119040287D01*
X151193578Y-118999000D01*
X151157447Y-118999000D01*
X151828187Y-118328258D01*
X151763406Y-118282898D01*
X151563281Y-118189579D01*
X151349978Y-118132424D01*
X151130000Y-118113178D01*
X150910021Y-118132424D01*
X150696716Y-118189579D01*
X150678435Y-118198104D01*
X150609358Y-118208595D01*
X150545574Y-118180074D01*
X150507336Y-118121596D01*
X150506783Y-118051729D01*
X150538352Y-117998040D01*
X150740301Y-117796090D01*
X150801622Y-117762607D01*
X150863975Y-117765112D01*
X150941317Y-117788573D01*
X151130000Y-117807157D01*
X151318683Y-117788573D01*
X151500115Y-117733537D01*
X151667324Y-117644162D01*
X151813883Y-117523883D01*
X151934162Y-117377324D01*
X152023537Y-117210115D01*
X152078573Y-117028683D01*
X152097157Y-116840000D01*
X152078573Y-116651317D01*
X152023537Y-116469885D01*
X151934162Y-116302676D01*
X151827870Y-116173161D01*
X151800560Y-116108856D01*
X151812351Y-116039988D01*
X151859502Y-115988428D01*
X151923726Y-115970500D01*
X177722745Y-115970500D01*
X177789784Y-115990185D01*
X177810426Y-116006819D01*
X180751571Y-118947964D01*
X183541427Y-121737819D01*
X183574912Y-121799142D01*
X183569928Y-121868834D01*
X183528056Y-121924767D01*
X183462592Y-121949184D01*
X183453746Y-121949500D01*
X181960251Y-121949500D01*
X181901769Y-121961132D01*
X181835447Y-122005447D01*
X181791132Y-122071769D01*
X181779500Y-122130251D01*
X181779500Y-122525500D01*
X181759815Y-122592539D01*
X181707011Y-122638294D01*
X181655500Y-122649500D01*
X181537924Y-122649500D01*
X181537912Y-122649501D01*
X181516267Y-122649501D01*
X181495199Y-122656346D01*
X181476283Y-122660887D01*
X181454395Y-122664354D01*
X181434651Y-122674413D01*
X181416684Y-122681855D01*
X181395610Y-122688703D01*
X181377684Y-122701727D01*
X181361099Y-122711890D01*
X181341358Y-122721949D01*
X181260230Y-122803073D01*
X181260204Y-122803103D01*
X180980126Y-123083181D01*
X180918803Y-123116666D01*
X180892445Y-123119500D01*
X173600171Y-123119500D01*
X173533132Y-123099815D01*
X173492784Y-123057500D01*
X173452533Y-122987783D01*
X173325870Y-122847110D01*
X173172730Y-122735848D01*
X172999802Y-122658855D01*
X172814648Y-122619500D01*
X172814646Y-122619500D01*
X172625354Y-122619500D01*
X172625352Y-122619500D01*
X172440197Y-122658855D01*
X172267269Y-122735848D01*
X172114129Y-122847110D01*
X171987466Y-122987783D01*
X171892820Y-123151715D01*
X171834326Y-123331742D01*
X171814540Y-123520000D01*
X171834326Y-123708257D01*
X171892820Y-123888284D01*
X171987466Y-124052216D01*
X172114129Y-124192889D01*
X172267269Y-124304151D01*
X172440197Y-124381144D01*
X172625352Y-124420500D01*
X172625354Y-124420500D01*
X172814648Y-124420500D01*
X172938083Y-124394262D01*
X172999803Y-124381144D01*
X173172730Y-124304151D01*
X173325871Y-124192888D01*
X173452533Y-124052216D01*
X173466381Y-124028230D01*
X173492784Y-123982500D01*
X173543351Y-123934284D01*
X173600171Y-123920500D01*
X181173133Y-123920500D01*
X181194199Y-123913655D01*
X181213114Y-123909112D01*
X181235004Y-123905646D01*
X181254742Y-123895587D01*
X181272716Y-123888142D01*
X181293790Y-123881296D01*
X181311721Y-123868267D01*
X181328298Y-123858109D01*
X181348042Y-123848050D01*
X181356374Y-123839717D01*
X181356380Y-123839713D01*
X181401514Y-123794579D01*
X181567821Y-123628271D01*
X181629141Y-123594788D01*
X181698833Y-123599772D01*
X181754767Y-123641643D01*
X181779184Y-123707107D01*
X181779500Y-123715954D01*
X181779500Y-123969748D01*
X181791132Y-124028230D01*
X181835447Y-124094552D01*
X181901769Y-124138867D01*
X181960251Y-124150500D01*
X181960252Y-124150500D01*
X183799749Y-124150500D01*
X183828989Y-124144683D01*
X183858231Y-124138867D01*
X183924552Y-124094552D01*
X183968867Y-124028231D01*
X183980500Y-123969748D01*
X183980500Y-122476254D01*
X184000185Y-122409215D01*
X184052989Y-122363460D01*
X184122147Y-122353516D01*
X184185703Y-122382541D01*
X184192181Y-122388573D01*
X184352274Y-122548666D01*
X184385759Y-122609989D01*
X184383859Y-122670281D01*
X184333603Y-122846914D01*
X184314785Y-123049999D01*
X184333602Y-123253083D01*
X184389418Y-123449251D01*
X184480324Y-123631818D01*
X184603236Y-123794580D01*
X184753958Y-123931981D01*
X184909408Y-124028231D01*
X184927363Y-124039348D01*
X185117544Y-124113024D01*
X185318024Y-124150500D01*
X185318026Y-124150500D01*
X185521974Y-124150500D01*
X185521976Y-124150500D01*
X185722456Y-124113024D01*
X185912637Y-124039348D01*
X186086041Y-123931981D01*
X186236764Y-123794579D01*
X186359673Y-123631821D01*
X186359673Y-123631819D01*
X186359675Y-123631818D01*
X186416000Y-123518700D01*
X186450582Y-123449250D01*
X186506397Y-123253083D01*
X186525215Y-123050000D01*
X186506397Y-122846917D01*
X186505883Y-122845112D01*
X186477261Y-122744517D01*
X186450582Y-122650750D01*
X186444380Y-122638294D01*
X186359675Y-122468181D01*
X186236763Y-122305419D01*
X186086041Y-122168018D01*
X185912638Y-122060652D01*
X185722457Y-121986976D01*
X185655629Y-121974484D01*
X185521976Y-121949500D01*
X185318024Y-121949500D01*
X185117544Y-121986976D01*
X185069957Y-122005410D01*
X185052928Y-122012008D01*
X184983304Y-122017869D01*
X184921564Y-121985159D01*
X184920454Y-121984062D01*
X178194690Y-115258296D01*
X178194675Y-115258283D01*
X178178342Y-115241950D01*
X178178341Y-115241949D01*
X178178339Y-115241947D01*
X178158599Y-115231889D01*
X178142014Y-115221726D01*
X178124090Y-115208704D01*
X178103020Y-115201858D01*
X178085044Y-115194412D01*
X178065302Y-115184353D01*
X178043418Y-115180886D01*
X178024507Y-115176346D01*
X178003435Y-115169500D01*
X178003433Y-115169500D01*
X177971519Y-115169500D01*
X151923726Y-115169500D01*
X151856687Y-115149815D01*
X151810932Y-115097011D01*
X151800988Y-115027853D01*
X151827870Y-114966838D01*
X151934162Y-114837324D01*
X152023537Y-114670115D01*
X152078573Y-114488683D01*
X152097157Y-114300000D01*
X152078573Y-114111317D01*
X152023537Y-113929885D01*
X151934162Y-113762676D01*
X151916507Y-113741164D01*
X151889195Y-113676856D01*
X151900986Y-113607988D01*
X151948138Y-113556428D01*
X152012361Y-113538500D01*
X192930745Y-113538500D01*
X192997784Y-113558185D01*
X193018421Y-113574814D01*
X193173182Y-113729574D01*
X193206666Y-113790896D01*
X193209500Y-113817254D01*
X193209500Y-115219748D01*
X193221132Y-115278230D01*
X193265447Y-115344552D01*
X193331769Y-115388867D01*
X193390251Y-115400500D01*
X193390252Y-115400500D01*
X195229749Y-115400500D01*
X195258989Y-115394683D01*
X195288231Y-115388867D01*
X195354552Y-115344552D01*
X195398867Y-115278231D01*
X195410500Y-115219748D01*
X195410500Y-113380252D01*
X195398867Y-113321769D01*
X195362851Y-113267868D01*
X195354552Y-113255447D01*
X195288230Y-113211132D01*
X195229749Y-113199500D01*
X195229748Y-113199500D01*
X193827255Y-113199500D01*
X193760216Y-113179815D01*
X193739574Y-113163181D01*
X193402690Y-112826296D01*
X193402675Y-112826283D01*
X193386342Y-112809950D01*
X193386341Y-112809949D01*
X193386339Y-112809947D01*
X193366599Y-112799889D01*
X193350014Y-112789726D01*
X193332090Y-112776704D01*
X193311020Y-112769858D01*
X193293044Y-112762412D01*
X193273302Y-112752353D01*
X193251418Y-112748886D01*
X193232507Y-112744346D01*
X193211435Y-112737500D01*
X193211433Y-112737500D01*
X193179519Y-112737500D01*
X151802667Y-112737500D01*
X151735628Y-112717815D01*
X151689873Y-112665011D01*
X151679929Y-112595853D01*
X151708954Y-112532297D01*
X151723994Y-112517653D01*
X151813883Y-112443883D01*
X151934162Y-112297324D01*
X152023537Y-112130115D01*
X152078573Y-111948683D01*
X152097157Y-111760000D01*
X152078573Y-111571317D01*
X152023537Y-111389885D01*
X151934162Y-111222676D01*
X151813883Y-111076117D01*
X151667324Y-110955838D01*
X151500115Y-110866463D01*
X151409399Y-110838945D01*
X151318681Y-110811426D01*
X151130000Y-110792843D01*
X150941318Y-110811426D01*
X150759882Y-110866464D01*
X150592677Y-110955837D01*
X150446117Y-111076117D01*
X150325837Y-111222677D01*
X150236464Y-111389882D01*
X150181426Y-111571318D01*
X150162843Y-111759999D01*
X150181426Y-111948681D01*
X150181427Y-111948683D01*
X150236463Y-112130115D01*
X150325838Y-112297324D01*
X150446117Y-112443883D01*
X150536000Y-112517649D01*
X150575333Y-112575393D01*
X150577202Y-112645238D01*
X150541015Y-112705006D01*
X150478259Y-112735722D01*
X150457333Y-112737500D01*
X149688567Y-112737500D01*
X149667491Y-112744347D01*
X149648582Y-112748886D01*
X149626696Y-112752353D01*
X149606956Y-112762411D01*
X149588985Y-112769855D01*
X149567909Y-112776703D01*
X149549985Y-112789726D01*
X149533398Y-112799891D01*
X149513658Y-112809949D01*
X149454952Y-112868650D01*
X149454771Y-112868835D01*
X148979698Y-113343907D01*
X148918375Y-113377392D01*
X148856023Y-113374887D01*
X148778683Y-113351426D01*
X148590000Y-113332843D01*
X148401318Y-113351426D01*
X148219882Y-113406464D01*
X148052676Y-113495837D01*
X148028965Y-113515297D01*
X147964654Y-113542610D01*
X147895787Y-113530819D01*
X147844227Y-113483666D01*
X147826300Y-113419444D01*
X147826300Y-112640555D01*
X147845985Y-112573516D01*
X147898789Y-112527761D01*
X147967947Y-112517817D01*
X148028964Y-112544702D01*
X148052676Y-112564162D01*
X148219885Y-112653537D01*
X148401317Y-112708573D01*
X148590000Y-112727157D01*
X148778683Y-112708573D01*
X148960115Y-112653537D01*
X149127324Y-112564162D01*
X149273883Y-112443883D01*
X149394162Y-112297324D01*
X149483537Y-112130115D01*
X149538573Y-111948683D01*
X149557157Y-111760000D01*
X149538573Y-111571317D01*
X149483537Y-111389885D01*
X149394162Y-111222676D01*
X149273883Y-111076117D01*
X149127324Y-110955838D01*
X148960115Y-110866463D01*
X148869399Y-110838945D01*
X148778681Y-110811426D01*
X148590000Y-110792843D01*
X148401318Y-110811426D01*
X148219882Y-110866464D01*
X148052676Y-110955837D01*
X148028965Y-110975297D01*
X147964654Y-111002610D01*
X147895787Y-110990819D01*
X147844227Y-110943666D01*
X147826300Y-110879444D01*
X147826300Y-110100555D01*
X147845985Y-110033516D01*
X147898789Y-109987761D01*
X147967947Y-109977817D01*
X148028964Y-110004702D01*
X148052676Y-110024162D01*
X148219885Y-110113537D01*
X148401317Y-110168573D01*
X148590000Y-110187157D01*
X148778683Y-110168573D01*
X148960115Y-110113537D01*
X149127324Y-110024162D01*
X149273883Y-109903883D01*
X149394162Y-109757324D01*
X149483537Y-109590115D01*
X149538573Y-109408683D01*
X149557157Y-109220000D01*
X150162843Y-109220000D01*
X150181426Y-109408681D01*
X150198735Y-109465742D01*
X150236463Y-109590115D01*
X150325838Y-109757324D01*
X150446117Y-109903883D01*
X150592676Y-110024162D01*
X150759885Y-110113537D01*
X150941317Y-110168573D01*
X151130000Y-110187157D01*
X151318683Y-110168573D01*
X151500115Y-110113537D01*
X151667324Y-110024162D01*
X151813883Y-109903883D01*
X151934162Y-109757324D01*
X152023537Y-109590115D01*
X152078573Y-109408683D01*
X152097157Y-109220000D01*
X152078573Y-109031317D01*
X152023537Y-108849885D01*
X151934162Y-108682676D01*
X151813883Y-108536117D01*
X151667324Y-108415838D01*
X151500115Y-108326463D01*
X151391558Y-108293533D01*
X151318681Y-108271426D01*
X151130000Y-108252843D01*
X150941318Y-108271426D01*
X150759882Y-108326464D01*
X150592677Y-108415837D01*
X150446117Y-108536117D01*
X150325837Y-108682677D01*
X150236464Y-108849882D01*
X150181426Y-109031318D01*
X150162843Y-109220000D01*
X149557157Y-109220000D01*
X149538573Y-109031317D01*
X149483537Y-108849885D01*
X149394162Y-108682676D01*
X149273883Y-108536117D01*
X149127324Y-108415838D01*
X148960115Y-108326463D01*
X148851558Y-108293533D01*
X148778681Y-108271426D01*
X148590000Y-108252843D01*
X148401318Y-108271426D01*
X148219882Y-108326464D01*
X148052676Y-108415837D01*
X148028965Y-108435297D01*
X147964654Y-108462610D01*
X147895787Y-108450819D01*
X147844227Y-108403666D01*
X147826300Y-108339444D01*
X147826300Y-107560555D01*
X147845985Y-107493516D01*
X147898789Y-107447761D01*
X147967947Y-107437817D01*
X148028964Y-107464702D01*
X148052676Y-107484162D01*
X148219885Y-107573537D01*
X148401317Y-107628573D01*
X148590000Y-107647157D01*
X148778683Y-107628573D01*
X148960115Y-107573537D01*
X149127324Y-107484162D01*
X149273883Y-107363883D01*
X149394162Y-107217324D01*
X149483537Y-107050115D01*
X149538573Y-106868683D01*
X149557157Y-106680000D01*
X149557157Y-106679999D01*
X150162843Y-106679999D01*
X150181426Y-106868681D01*
X150181427Y-106868683D01*
X150236463Y-107050115D01*
X150325838Y-107217324D01*
X150446117Y-107363883D01*
X150592676Y-107484162D01*
X150759885Y-107573537D01*
X150941317Y-107628573D01*
X151130000Y-107647157D01*
X151318683Y-107628573D01*
X151500115Y-107573537D01*
X151667324Y-107484162D01*
X151813883Y-107363883D01*
X151934162Y-107217324D01*
X152023537Y-107050115D01*
X152078573Y-106868683D01*
X152097157Y-106680000D01*
X152078573Y-106491317D01*
X152023537Y-106309885D01*
X151934162Y-106142676D01*
X151813883Y-105996117D01*
X151667324Y-105875838D01*
X151500115Y-105786463D01*
X151409399Y-105758945D01*
X151318681Y-105731426D01*
X151130000Y-105712843D01*
X150941318Y-105731426D01*
X150759882Y-105786464D01*
X150592677Y-105875837D01*
X150446117Y-105996117D01*
X150325837Y-106142677D01*
X150236464Y-106309882D01*
X150181426Y-106491318D01*
X150162843Y-106679999D01*
X149557157Y-106679999D01*
X149538573Y-106491317D01*
X149483537Y-106309885D01*
X149394162Y-106142676D01*
X149273883Y-105996117D01*
X149127324Y-105875838D01*
X148960115Y-105786463D01*
X148869399Y-105758945D01*
X148778681Y-105731426D01*
X148610613Y-105714873D01*
X148590000Y-105712843D01*
X148589999Y-105712843D01*
X148401318Y-105731426D01*
X148219882Y-105786464D01*
X148052676Y-105875837D01*
X148028965Y-105895297D01*
X147964654Y-105922610D01*
X147895787Y-105910819D01*
X147844227Y-105863666D01*
X147826300Y-105799444D01*
X147826300Y-105521454D01*
X147845985Y-105454415D01*
X147862619Y-105433773D01*
X148023712Y-105272680D01*
X148200301Y-105096090D01*
X148261622Y-105062607D01*
X148323975Y-105065112D01*
X148401317Y-105088573D01*
X148590000Y-105107157D01*
X148778683Y-105088573D01*
X148960115Y-105033537D01*
X149127324Y-104944162D01*
X149273883Y-104823883D01*
X149394162Y-104677324D01*
X149483537Y-104510115D01*
X149538573Y-104328683D01*
X149557157Y-104140000D01*
X149538573Y-103951317D01*
X149483537Y-103769885D01*
X149394162Y-103602676D01*
X149273883Y-103456117D01*
X149127324Y-103335838D01*
X148960115Y-103246463D01*
X148867194Y-103218276D01*
X148778681Y-103191426D01*
X148590000Y-103172843D01*
X148401318Y-103191426D01*
X148219882Y-103246464D01*
X148052677Y-103335837D01*
X147906117Y-103456117D01*
X147785837Y-103602677D01*
X147696464Y-103769882D01*
X147641426Y-103951318D01*
X147622843Y-104139999D01*
X147641426Y-104328683D01*
X147664887Y-104406023D01*
X147665510Y-104475890D01*
X147633907Y-104529698D01*
X147120316Y-105043291D01*
X147120313Y-105043294D01*
X147097749Y-105065857D01*
X147087692Y-105085596D01*
X147077531Y-105102179D01*
X147064502Y-105120113D01*
X147057654Y-105141187D01*
X147050212Y-105159154D01*
X147040153Y-105178897D01*
X147036686Y-105200782D01*
X147032147Y-105219691D01*
X147025300Y-105240766D01*
X147025300Y-114906234D01*
X147032146Y-114927307D01*
X147036686Y-114946218D01*
X147040153Y-114968102D01*
X147050212Y-114987844D01*
X147057658Y-115005820D01*
X147064504Y-115026890D01*
X147077526Y-115044814D01*
X147087689Y-115061399D01*
X147097747Y-115081139D01*
X147097749Y-115081141D01*
X147097750Y-115081142D01*
X147114083Y-115097475D01*
X147114096Y-115097490D01*
X147294837Y-115278230D01*
X147824950Y-115808342D01*
X147914658Y-115898050D01*
X147934395Y-115908106D01*
X147950990Y-115918275D01*
X147968910Y-115931296D01*
X147989984Y-115938142D01*
X148007959Y-115945589D01*
X148045197Y-115964564D01*
X148045146Y-115964663D01*
X148088467Y-115985199D01*
X148093618Y-115990064D01*
X148562554Y-116459000D01*
X148558431Y-116459000D01*
X148464579Y-116474661D01*
X148352749Y-116535180D01*
X148266629Y-116628731D01*
X148215552Y-116745177D01*
X148209894Y-116813448D01*
X147538258Y-116141812D01*
X147492900Y-116206589D01*
X147399578Y-116406719D01*
X147342424Y-116620021D01*
X147323178Y-116840000D01*
X147342424Y-117059978D01*
X147399578Y-117273278D01*
X147483708Y-117453695D01*
X147494200Y-117522773D01*
X147465680Y-117586557D01*
X147407204Y-117624796D01*
X147371326Y-117630100D01*
X91028890Y-117630100D01*
X90961851Y-117610415D01*
X90916096Y-117557611D01*
X90906152Y-117488453D01*
X90933037Y-117427435D01*
X90942812Y-117415523D01*
X90974162Y-117377324D01*
X91012262Y-117306043D01*
X91061222Y-117256203D01*
X91121618Y-117240500D01*
X125870733Y-117240500D01*
X125891799Y-117233655D01*
X125910714Y-117229112D01*
X125932604Y-117225646D01*
X125952342Y-117215587D01*
X125970316Y-117208142D01*
X125991390Y-117201296D01*
X126009321Y-117188267D01*
X126025898Y-117178109D01*
X126045642Y-117168050D01*
X126053974Y-117159717D01*
X126053980Y-117159713D01*
X141613693Y-101600000D01*
X147622843Y-101600000D01*
X147641426Y-101788681D01*
X147660027Y-101850000D01*
X147696463Y-101970115D01*
X147785838Y-102137324D01*
X147906117Y-102283883D01*
X148052676Y-102404162D01*
X148219885Y-102493537D01*
X148401317Y-102548573D01*
X148590000Y-102567157D01*
X148778683Y-102548573D01*
X148856024Y-102525111D01*
X148925890Y-102524489D01*
X148979699Y-102556092D01*
X149293250Y-102869642D01*
X149531950Y-103108342D01*
X149621658Y-103198050D01*
X149641395Y-103208106D01*
X149657990Y-103218276D01*
X149675908Y-103231295D01*
X149675909Y-103231295D01*
X149675910Y-103231296D01*
X149696979Y-103238141D01*
X149714949Y-103245584D01*
X149734696Y-103255646D01*
X149756579Y-103259111D01*
X149775498Y-103263652D01*
X149796567Y-103270499D01*
X149818212Y-103270499D01*
X149818224Y-103270500D01*
X149828481Y-103270500D01*
X150336274Y-103270500D01*
X150403313Y-103290185D01*
X150449068Y-103342989D01*
X150459012Y-103412147D01*
X150432129Y-103473161D01*
X150325838Y-103602676D01*
X150325835Y-103602680D01*
X150236464Y-103769882D01*
X150181426Y-103951318D01*
X150162843Y-104139999D01*
X150181426Y-104328681D01*
X150236464Y-104510117D01*
X150281150Y-104593719D01*
X150325838Y-104677324D01*
X150446117Y-104823883D01*
X150592676Y-104944162D01*
X150759885Y-105033537D01*
X150941317Y-105088573D01*
X151130000Y-105107157D01*
X151318683Y-105088573D01*
X151500115Y-105033537D01*
X151667324Y-104944162D01*
X151813883Y-104823883D01*
X151934162Y-104677324D01*
X152023537Y-104510115D01*
X152078573Y-104328683D01*
X152087495Y-104238096D01*
X152113654Y-104173312D01*
X152170688Y-104132952D01*
X152240488Y-104129835D01*
X152298578Y-104162571D01*
X159542370Y-111406363D01*
X159542376Y-111406368D01*
X159556258Y-111420250D01*
X159576000Y-111430309D01*
X159592588Y-111440474D01*
X159610511Y-111453496D01*
X159631587Y-111460344D01*
X159649545Y-111467782D01*
X159669296Y-111477846D01*
X159679125Y-111479402D01*
X159691177Y-111481312D01*
X159710097Y-111485854D01*
X159731167Y-111492700D01*
X159763081Y-111492700D01*
X167573226Y-111492700D01*
X167640265Y-111512384D01*
X167702147Y-111552153D01*
X167840239Y-111592700D01*
X167984161Y-111592700D01*
X168122253Y-111552153D01*
X168243328Y-111474343D01*
X168337577Y-111365573D01*
X168397365Y-111234657D01*
X168417847Y-111092200D01*
X168397365Y-110949743D01*
X168337577Y-110818827D01*
X168337576Y-110818826D01*
X168337576Y-110818825D01*
X168243329Y-110710058D01*
X168243328Y-110710057D01*
X168122253Y-110632247D01*
X167984161Y-110591700D01*
X167840239Y-110591700D01*
X167702147Y-110632247D01*
X167640265Y-110672016D01*
X167573226Y-110691700D01*
X165572231Y-110691700D01*
X165505192Y-110672015D01*
X165459437Y-110619211D01*
X165449493Y-110550053D01*
X165478518Y-110486497D01*
X165537296Y-110448723D01*
X165540137Y-110447925D01*
X165546326Y-110446266D01*
X165752480Y-110350134D01*
X165825472Y-110299025D01*
X165144401Y-109617953D01*
X165225148Y-109605165D01*
X165338045Y-109547641D01*
X165427641Y-109458045D01*
X165485165Y-109345148D01*
X165497953Y-109264400D01*
X166179025Y-109945472D01*
X166230134Y-109872480D01*
X166326266Y-109666326D01*
X166385141Y-109446602D01*
X166404966Y-109219999D01*
X166385141Y-108993397D01*
X166326266Y-108773673D01*
X166230133Y-108567515D01*
X166179025Y-108494526D01*
X165497953Y-109175598D01*
X165485165Y-109094852D01*
X165427641Y-108981955D01*
X165338045Y-108892359D01*
X165225148Y-108834835D01*
X165144400Y-108822046D01*
X165825472Y-108140974D01*
X165825471Y-108140972D01*
X165752484Y-108089866D01*
X165546326Y-107993733D01*
X165326602Y-107934858D01*
X165100000Y-107915033D01*
X164873397Y-107934858D01*
X164653672Y-107993733D01*
X164447516Y-108089865D01*
X164374527Y-108140973D01*
X164374526Y-108140973D01*
X165055600Y-108822046D01*
X164974852Y-108834835D01*
X164861955Y-108892359D01*
X164772359Y-108981955D01*
X164714835Y-109094852D01*
X164702046Y-109175599D01*
X164020973Y-108494526D01*
X164020973Y-108494527D01*
X163969865Y-108567516D01*
X163873733Y-108773673D01*
X163844275Y-108883613D01*
X163807910Y-108943273D01*
X163745063Y-108973802D01*
X163675687Y-108965507D01*
X163621809Y-108921022D01*
X163600535Y-108854470D01*
X163600500Y-108851519D01*
X163600500Y-108400251D01*
X163588867Y-108341769D01*
X163544552Y-108275447D01*
X163478230Y-108231132D01*
X163419749Y-108219500D01*
X163419748Y-108219500D01*
X161780252Y-108219500D01*
X161780251Y-108219500D01*
X161721769Y-108231132D01*
X161655447Y-108275447D01*
X161611132Y-108341769D01*
X161599500Y-108400251D01*
X161599500Y-110039748D01*
X161611132Y-110098230D01*
X161655447Y-110164552D01*
X161721769Y-110208867D01*
X161780251Y-110220500D01*
X161780252Y-110220500D01*
X163419749Y-110220500D01*
X163448989Y-110214683D01*
X163478231Y-110208867D01*
X163544552Y-110164552D01*
X163588867Y-110098231D01*
X163600500Y-110039748D01*
X163600500Y-109588480D01*
X163620185Y-109521441D01*
X163672989Y-109475686D01*
X163742147Y-109465742D01*
X163805703Y-109494767D01*
X163843477Y-109553545D01*
X163844275Y-109556386D01*
X163873733Y-109666326D01*
X163969866Y-109872484D01*
X164020972Y-109945471D01*
X164020974Y-109945472D01*
X164702046Y-109264399D01*
X164714835Y-109345148D01*
X164772359Y-109458045D01*
X164861955Y-109547641D01*
X164974852Y-109605165D01*
X165055599Y-109617953D01*
X164374526Y-110299025D01*
X164374526Y-110299026D01*
X164447515Y-110350133D01*
X164653673Y-110446266D01*
X164659863Y-110447925D01*
X164719523Y-110484291D01*
X164750052Y-110547138D01*
X164741757Y-110616513D01*
X164697271Y-110670391D01*
X164630719Y-110691665D01*
X164627769Y-110691700D01*
X160011855Y-110691700D01*
X159944816Y-110672015D01*
X159924174Y-110655381D01*
X151827090Y-102558296D01*
X151827075Y-102558283D01*
X151810742Y-102541950D01*
X151810741Y-102541949D01*
X151810739Y-102541947D01*
X151790999Y-102531889D01*
X151774423Y-102521732D01*
X151771492Y-102519603D01*
X151728820Y-102464278D01*
X151722833Y-102394665D01*
X151755432Y-102332867D01*
X151765687Y-102323436D01*
X151813883Y-102283883D01*
X151934162Y-102137324D01*
X152023537Y-101970115D01*
X152078573Y-101788683D01*
X152097157Y-101600000D01*
X152078573Y-101411317D01*
X152023537Y-101229885D01*
X151934162Y-101062676D01*
X151827870Y-100933161D01*
X151800560Y-100868856D01*
X151812351Y-100799988D01*
X151859502Y-100748428D01*
X151923726Y-100730500D01*
X154323745Y-100730500D01*
X154390784Y-100750185D01*
X154411426Y-100766819D01*
X157352469Y-103707862D01*
X157385954Y-103769185D01*
X157387525Y-103777893D01*
X157391934Y-103808555D01*
X157451723Y-103939474D01*
X157545970Y-104048241D01*
X157545972Y-104048243D01*
X157667047Y-104126053D01*
X157805139Y-104166600D01*
X157949061Y-104166600D01*
X158087153Y-104126053D01*
X158208228Y-104048243D01*
X158302477Y-103939473D01*
X158362265Y-103808557D01*
X158382747Y-103666100D01*
X158362265Y-103523643D01*
X158338704Y-103472053D01*
X158307049Y-103402738D01*
X158302477Y-103392727D01*
X158302476Y-103392726D01*
X158302476Y-103392725D01*
X158208229Y-103283958D01*
X158208228Y-103283957D01*
X158087153Y-103206147D01*
X157970836Y-103171993D01*
X157918091Y-103140698D01*
X156377393Y-101600000D01*
X160344659Y-101600000D01*
X160363976Y-101796133D01*
X160421185Y-101984726D01*
X160471915Y-102079634D01*
X160514090Y-102158538D01*
X160639117Y-102310883D01*
X160791462Y-102435910D01*
X160965273Y-102528814D01*
X161153868Y-102586024D01*
X161350000Y-102605341D01*
X161546132Y-102586024D01*
X161734727Y-102528814D01*
X161908538Y-102435910D01*
X162060883Y-102310883D01*
X162185910Y-102158538D01*
X162234665Y-102067322D01*
X162283625Y-102017480D01*
X162351763Y-102002019D01*
X162417443Y-102025850D01*
X162431703Y-102038096D01*
X167203181Y-106809573D01*
X167236666Y-106870896D01*
X167239500Y-106897254D01*
X167239500Y-108293534D01*
X167246346Y-108314607D01*
X167250886Y-108333518D01*
X167254353Y-108355402D01*
X167264412Y-108375144D01*
X167271858Y-108393120D01*
X167278704Y-108414190D01*
X167291726Y-108432114D01*
X167301889Y-108448699D01*
X167311947Y-108468439D01*
X167311949Y-108468441D01*
X167311950Y-108468442D01*
X167328283Y-108484775D01*
X167328296Y-108484790D01*
X168377670Y-109534163D01*
X168377676Y-109534168D01*
X168391558Y-109548050D01*
X168407918Y-109556386D01*
X168411294Y-109558106D01*
X168427882Y-109568271D01*
X168445810Y-109581296D01*
X168466879Y-109588141D01*
X168484858Y-109595588D01*
X168504596Y-109605646D01*
X168526480Y-109609112D01*
X168545394Y-109613653D01*
X168566467Y-109620500D01*
X168598381Y-109620500D01*
X174813263Y-109620500D01*
X174880302Y-109640185D01*
X174924261Y-109689226D01*
X174980327Y-109801821D01*
X174980328Y-109801822D01*
X175103236Y-109964580D01*
X175253958Y-110101981D01*
X175391523Y-110187157D01*
X175427363Y-110209348D01*
X175617544Y-110283024D01*
X175818024Y-110320500D01*
X175818026Y-110320500D01*
X176021974Y-110320500D01*
X176021976Y-110320500D01*
X176222456Y-110283024D01*
X176412637Y-110209348D01*
X176586041Y-110101981D01*
X176661144Y-110033516D01*
X176736763Y-109964580D01*
X176751193Y-109945472D01*
X176859673Y-109801821D01*
X176915738Y-109689226D01*
X176963239Y-109637992D01*
X177026737Y-109620500D01*
X196632745Y-109620500D01*
X196699784Y-109640185D01*
X196720426Y-109656819D01*
X200862274Y-113798667D01*
X200895759Y-113859990D01*
X200893859Y-113920282D01*
X200843603Y-114096914D01*
X200824785Y-114300000D01*
X200843602Y-114503083D01*
X200899418Y-114699251D01*
X200990324Y-114881818D01*
X201113236Y-115044580D01*
X201263958Y-115181981D01*
X201419408Y-115278231D01*
X201437363Y-115289348D01*
X201627544Y-115363024D01*
X201828024Y-115400500D01*
X201828026Y-115400500D01*
X202031974Y-115400500D01*
X202031976Y-115400500D01*
X202232456Y-115363024D01*
X202422637Y-115289348D01*
X202596041Y-115181981D01*
X202649572Y-115133181D01*
X202746763Y-115044580D01*
X202746764Y-115044579D01*
X202869673Y-114881821D01*
X202869673Y-114881819D01*
X202869675Y-114881818D01*
X202947773Y-114724974D01*
X202960582Y-114699250D01*
X203016397Y-114503083D01*
X203035215Y-114300000D01*
X203016397Y-114096917D01*
X202960582Y-113900750D01*
X202927185Y-113833679D01*
X202869675Y-113718181D01*
X202746763Y-113555419D01*
X202596041Y-113418018D01*
X202422638Y-113310652D01*
X202232457Y-113236976D01*
X202165629Y-113224484D01*
X202031976Y-113199500D01*
X201828024Y-113199500D01*
X201727783Y-113218238D01*
X201627542Y-113236976D01*
X201562926Y-113262008D01*
X201493303Y-113267868D01*
X201431563Y-113235157D01*
X201430454Y-113234061D01*
X197104690Y-108908296D01*
X197104675Y-108908283D01*
X197088342Y-108891950D01*
X197088341Y-108891949D01*
X197088339Y-108891947D01*
X197068599Y-108881889D01*
X197052014Y-108871726D01*
X197034090Y-108858704D01*
X197013020Y-108851858D01*
X196995044Y-108844412D01*
X196975302Y-108834353D01*
X196953418Y-108830886D01*
X196934507Y-108826346D01*
X196913435Y-108819500D01*
X196913433Y-108819500D01*
X196881519Y-108819500D01*
X177026737Y-108819500D01*
X176959698Y-108799815D01*
X176915738Y-108750773D01*
X176859673Y-108638179D01*
X176799486Y-108558479D01*
X176736763Y-108475419D01*
X176586041Y-108338018D01*
X176412635Y-108230650D01*
X176401387Y-108226293D01*
X176345985Y-108183720D01*
X176322395Y-108117953D01*
X176338106Y-108049873D01*
X176388131Y-108001094D01*
X176405918Y-107993386D01*
X176484297Y-107966478D01*
X176688353Y-107856048D01*
X176718798Y-107832351D01*
X176129220Y-107242773D01*
X176222588Y-107204099D01*
X176347925Y-107107925D01*
X176444099Y-106982589D01*
X176482773Y-106889219D01*
X177071186Y-107477634D01*
X177155483Y-107348607D01*
X177248680Y-107136138D01*
X177305638Y-106911217D01*
X177324798Y-106679999D01*
X177305638Y-106448782D01*
X177248680Y-106223860D01*
X177155484Y-106011392D01*
X177071186Y-105882364D01*
X176482772Y-106470778D01*
X176444099Y-106377412D01*
X176347925Y-106252075D01*
X176222588Y-106155901D01*
X176129220Y-106117227D01*
X176718799Y-105527648D01*
X176718799Y-105527647D01*
X176688349Y-105503948D01*
X176484301Y-105393523D01*
X176405917Y-105366613D01*
X176348902Y-105326227D01*
X176322772Y-105261427D01*
X176335824Y-105192787D01*
X176383913Y-105142100D01*
X176401383Y-105133707D01*
X176412637Y-105129348D01*
X176586041Y-105021981D01*
X176586041Y-105021980D01*
X176745256Y-104876838D01*
X176747280Y-104879058D01*
X176788955Y-104848136D01*
X176831796Y-104840500D01*
X196574779Y-104840500D01*
X196582266Y-104840726D01*
X196585406Y-104840915D01*
X196642306Y-104844358D01*
X196701482Y-104833513D01*
X196708881Y-104832387D01*
X196768572Y-104825140D01*
X196778035Y-104821550D01*
X196799658Y-104815522D01*
X196809632Y-104813695D01*
X196864508Y-104788996D01*
X196871373Y-104786152D01*
X196927630Y-104764818D01*
X196935970Y-104759060D01*
X196955519Y-104748035D01*
X196964757Y-104743878D01*
X197012113Y-104706775D01*
X197018120Y-104702355D01*
X197067629Y-104668183D01*
X197107523Y-104623150D01*
X197112624Y-104617731D01*
X201933537Y-99796819D01*
X201994861Y-99763334D01*
X202021219Y-99760500D01*
X202055500Y-99760500D01*
X202122539Y-99780185D01*
X202168294Y-99832989D01*
X202179500Y-99884500D01*
X202179499Y-101222407D01*
X202179500Y-101222432D01*
X202179500Y-101224853D01*
X202179690Y-101227272D01*
X202179691Y-101227287D01*
X202194779Y-101418995D01*
X202255426Y-101671610D01*
X202303920Y-101788683D01*
X202354846Y-101911628D01*
X202437389Y-102046326D01*
X202490590Y-102133143D01*
X202494161Y-102137324D01*
X202659311Y-102330689D01*
X202782509Y-102435910D01*
X202856192Y-102498842D01*
X202856860Y-102499412D01*
X203078372Y-102635154D01*
X203258385Y-102709718D01*
X203318389Y-102734573D01*
X203398197Y-102753733D01*
X203571006Y-102795221D01*
X203830000Y-102815604D01*
X204088994Y-102795221D01*
X204341610Y-102734573D01*
X204581628Y-102635154D01*
X204803140Y-102499412D01*
X205000689Y-102330689D01*
X205169412Y-102133140D01*
X205305154Y-101911628D01*
X205404573Y-101671610D01*
X205465221Y-101418994D01*
X205480500Y-101224853D01*
X205480500Y-100685000D01*
X206792899Y-100685000D01*
X206794918Y-100713225D01*
X206854207Y-100985777D01*
X206951688Y-101247128D01*
X207085365Y-101491943D01*
X207252526Y-101715242D01*
X207449757Y-101912473D01*
X207673056Y-102079634D01*
X207917871Y-102213311D01*
X208179222Y-102310792D01*
X208451775Y-102370081D01*
X208658146Y-102384841D01*
X208662572Y-102385000D01*
X210580000Y-102385000D01*
X210580000Y-101485000D01*
X211080000Y-101485000D01*
X211080000Y-102385000D01*
X212997428Y-102385000D01*
X213001853Y-102384841D01*
X213208224Y-102370081D01*
X213480777Y-102310792D01*
X213742128Y-102213311D01*
X213986943Y-102079634D01*
X214210242Y-101912473D01*
X214407473Y-101715242D01*
X214574634Y-101491943D01*
X214708311Y-101247128D01*
X214805792Y-100985777D01*
X214865081Y-100713225D01*
X214867100Y-100685000D01*
X213951411Y-100685000D01*
X213964808Y-100640836D01*
X213985081Y-100435000D01*
X213964808Y-100229164D01*
X213951411Y-100185000D01*
X214867101Y-100185000D01*
X214867100Y-100184999D01*
X214865081Y-100156774D01*
X214805792Y-99884222D01*
X214708311Y-99622871D01*
X214574634Y-99378056D01*
X214407473Y-99154757D01*
X214210242Y-98957526D01*
X213986943Y-98790365D01*
X213742128Y-98656688D01*
X213480777Y-98559207D01*
X213208224Y-98499918D01*
X213001853Y-98485158D01*
X212997428Y-98485000D01*
X211080000Y-98485000D01*
X211080000Y-99385000D01*
X210580000Y-99385000D01*
X210580000Y-98485000D01*
X208662572Y-98485000D01*
X208658146Y-98485158D01*
X208451775Y-98499918D01*
X208179222Y-98559207D01*
X207917871Y-98656688D01*
X207673056Y-98790365D01*
X207449757Y-98957526D01*
X207252526Y-99154757D01*
X207085365Y-99378056D01*
X206951688Y-99622871D01*
X206854207Y-99884222D01*
X206794918Y-100156774D01*
X206792899Y-100184999D01*
X206792899Y-100185000D01*
X207708589Y-100185000D01*
X207695192Y-100229164D01*
X207674919Y-100435000D01*
X207695192Y-100640836D01*
X207708589Y-100685000D01*
X206792899Y-100685000D01*
X205480500Y-100685000D01*
X205480500Y-96895147D01*
X205465221Y-96701006D01*
X205418974Y-96508375D01*
X205404573Y-96448389D01*
X205356080Y-96331318D01*
X205305154Y-96208372D01*
X205169412Y-95986860D01*
X205165839Y-95982677D01*
X205078961Y-95880956D01*
X205000689Y-95789311D01*
X204879055Y-95685426D01*
X204803143Y-95620590D01*
X204803140Y-95620588D01*
X204581628Y-95484846D01*
X204486470Y-95445430D01*
X204341610Y-95385426D01*
X204088995Y-95324779D01*
X203830000Y-95304396D01*
X203571004Y-95324779D01*
X203318389Y-95385426D01*
X203113524Y-95470285D01*
X203078372Y-95484846D01*
X202937086Y-95571426D01*
X202856856Y-95620590D01*
X202659311Y-95789311D01*
X202490590Y-95986856D01*
X202443096Y-96064359D01*
X202354846Y-96208372D01*
X202354845Y-96208375D01*
X202255426Y-96448389D01*
X202194779Y-96701004D01*
X202179691Y-96892712D01*
X202179690Y-96892728D01*
X202179500Y-96895147D01*
X202179500Y-96897566D01*
X202179499Y-96897592D01*
X202179500Y-98235500D01*
X202159815Y-98302539D01*
X202107011Y-98348294D01*
X202055500Y-98359500D01*
X201704621Y-98359500D01*
X201697134Y-98359274D01*
X201637091Y-98355641D01*
X201577927Y-98366483D01*
X201570528Y-98367610D01*
X201510824Y-98374860D01*
X201501351Y-98378453D01*
X201479747Y-98384476D01*
X201469769Y-98386305D01*
X201414912Y-98410993D01*
X201407996Y-98413857D01*
X201351770Y-98435181D01*
X201343426Y-98440941D01*
X201323885Y-98451962D01*
X201314641Y-98456122D01*
X201267297Y-98493213D01*
X201261268Y-98497649D01*
X201211770Y-98531816D01*
X201171883Y-98576838D01*
X201166751Y-98582290D01*
X196345862Y-103403181D01*
X196284539Y-103436666D01*
X196258181Y-103439500D01*
X176831796Y-103439500D01*
X176764757Y-103419815D01*
X176745960Y-103402389D01*
X176745256Y-103403162D01*
X176586041Y-103258018D01*
X176412638Y-103150652D01*
X176222457Y-103076976D01*
X176155629Y-103064484D01*
X176021976Y-103039500D01*
X175818024Y-103039500D01*
X175717783Y-103058238D01*
X175617542Y-103076976D01*
X175427361Y-103150652D01*
X175253958Y-103258018D01*
X175103236Y-103395419D01*
X174980324Y-103558181D01*
X174889418Y-103740748D01*
X174833602Y-103936916D01*
X174814785Y-104139999D01*
X174833602Y-104343083D01*
X174889418Y-104539251D01*
X174980324Y-104721818D01*
X175103236Y-104884580D01*
X175253958Y-105021981D01*
X175319572Y-105062607D01*
X175427363Y-105129348D01*
X175438607Y-105133704D01*
X175438610Y-105133705D01*
X175494012Y-105176276D01*
X175517604Y-105242043D01*
X175501894Y-105310123D01*
X175451871Y-105358903D01*
X175434082Y-105366613D01*
X175355701Y-105393521D01*
X175151645Y-105503952D01*
X175121200Y-105527646D01*
X175121200Y-105527647D01*
X175710779Y-106117226D01*
X175617412Y-106155901D01*
X175492075Y-106252075D01*
X175395901Y-106377411D01*
X175357227Y-106470778D01*
X174768812Y-105882365D01*
X174684516Y-106011390D01*
X174591319Y-106223860D01*
X174534361Y-106448782D01*
X174515201Y-106680000D01*
X174534361Y-106911217D01*
X174591319Y-107136139D01*
X174684516Y-107348609D01*
X174768811Y-107477633D01*
X175357226Y-106889218D01*
X175395901Y-106982588D01*
X175492075Y-107107925D01*
X175617412Y-107204099D01*
X175710779Y-107242772D01*
X175121199Y-107832351D01*
X175151650Y-107856051D01*
X175355700Y-107966477D01*
X175434081Y-107993386D01*
X175491096Y-108033772D01*
X175517227Y-108098571D01*
X175504175Y-108167211D01*
X175456087Y-108217899D01*
X175438614Y-108226293D01*
X175427362Y-108230652D01*
X175253958Y-108338018D01*
X175103236Y-108475419D01*
X174980328Y-108638177D01*
X174980327Y-108638178D01*
X174980327Y-108638179D01*
X174924261Y-108750773D01*
X174876761Y-108802008D01*
X174813263Y-108819500D01*
X168847155Y-108819500D01*
X168780116Y-108799815D01*
X168759474Y-108783181D01*
X168076819Y-108100526D01*
X168043334Y-108039203D01*
X168040500Y-108012845D01*
X168040500Y-106616566D01*
X168033653Y-106595494D01*
X168029112Y-106576580D01*
X168025646Y-106554696D01*
X168015588Y-106534958D01*
X168008140Y-106516976D01*
X168001296Y-106495910D01*
X167988271Y-106477982D01*
X167978106Y-106461394D01*
X167968049Y-106441657D01*
X167954168Y-106427776D01*
X167954166Y-106427773D01*
X163376394Y-101850000D01*
X167571128Y-101850000D01*
X167623733Y-102046326D01*
X167719865Y-102252480D01*
X167850341Y-102438819D01*
X168011180Y-102599658D01*
X168197519Y-102730134D01*
X168403673Y-102826266D01*
X168599999Y-102878871D01*
X168600000Y-102878871D01*
X168600000Y-101915686D01*
X168611955Y-101927641D01*
X168724852Y-101985165D01*
X168818519Y-102000000D01*
X168881481Y-102000000D01*
X168975148Y-101985165D01*
X169088045Y-101927641D01*
X169100000Y-101915686D01*
X169100000Y-102878871D01*
X169296326Y-102826266D01*
X169502480Y-102730134D01*
X169688819Y-102599658D01*
X169849658Y-102438819D01*
X169980134Y-102252480D01*
X170076266Y-102046326D01*
X170128872Y-101850000D01*
X169165686Y-101850000D01*
X169177641Y-101838045D01*
X169235165Y-101725148D01*
X169254986Y-101600000D01*
X169235165Y-101474852D01*
X169177641Y-101361955D01*
X169165686Y-101350000D01*
X170128872Y-101350000D01*
X170128871Y-101349999D01*
X170076266Y-101153673D01*
X169980134Y-100947519D01*
X169849658Y-100761180D01*
X169688819Y-100600341D01*
X169502480Y-100469865D01*
X169296326Y-100373733D01*
X169100000Y-100321126D01*
X169099999Y-100321126D01*
X169099999Y-101284313D01*
X169088045Y-101272359D01*
X168975148Y-101214835D01*
X168881481Y-101200000D01*
X168818519Y-101200000D01*
X168724852Y-101214835D01*
X168611955Y-101272359D01*
X168600000Y-101284314D01*
X168600000Y-100321126D01*
X168599999Y-100321126D01*
X168403673Y-100373733D01*
X168197519Y-100469865D01*
X168011180Y-100600341D01*
X167850341Y-100761180D01*
X167719865Y-100947519D01*
X167623733Y-101153673D01*
X167571128Y-101349999D01*
X167571128Y-101350000D01*
X168534314Y-101350000D01*
X168522359Y-101361955D01*
X168464835Y-101474852D01*
X168445014Y-101600000D01*
X168464835Y-101725148D01*
X168522359Y-101838045D01*
X168534314Y-101850000D01*
X167571128Y-101850000D01*
X163376394Y-101850000D01*
X162814690Y-101288296D01*
X162814675Y-101288283D01*
X162798342Y-101271950D01*
X162798341Y-101271949D01*
X162798339Y-101271947D01*
X162778599Y-101261889D01*
X162762014Y-101251726D01*
X162744090Y-101238704D01*
X162723020Y-101231858D01*
X162705044Y-101224412D01*
X162685302Y-101214353D01*
X162663418Y-101210886D01*
X162644507Y-101206346D01*
X162623435Y-101199500D01*
X162623433Y-101199500D01*
X162591519Y-101199500D01*
X162344706Y-101199500D01*
X162277667Y-101179815D01*
X162235348Y-101133953D01*
X162197251Y-101062680D01*
X162185910Y-101041462D01*
X162060883Y-100889117D01*
X161908538Y-100764090D01*
X161879470Y-100748553D01*
X161734726Y-100671185D01*
X161546133Y-100613976D01*
X161407691Y-100600341D01*
X161350000Y-100594659D01*
X161349999Y-100594659D01*
X161153866Y-100613976D01*
X160965273Y-100671185D01*
X160791463Y-100764089D01*
X160639117Y-100889117D01*
X160514089Y-101041463D01*
X160421185Y-101215273D01*
X160363976Y-101403866D01*
X160344659Y-101600000D01*
X156377393Y-101600000D01*
X154795690Y-100018296D01*
X154795675Y-100018283D01*
X154779342Y-100001950D01*
X154779341Y-100001949D01*
X154779339Y-100001947D01*
X154759599Y-99991889D01*
X154743014Y-99981726D01*
X154725090Y-99968704D01*
X154704020Y-99961858D01*
X154686044Y-99954412D01*
X154666302Y-99944353D01*
X154644418Y-99940886D01*
X154625507Y-99936346D01*
X154604435Y-99929500D01*
X154604433Y-99929500D01*
X154572519Y-99929500D01*
X151923726Y-99929500D01*
X151856687Y-99909815D01*
X151810932Y-99857011D01*
X151800988Y-99787853D01*
X151827870Y-99726838D01*
X151934162Y-99597324D01*
X152023537Y-99430115D01*
X152078573Y-99248683D01*
X152097157Y-99060000D01*
X152078573Y-98871317D01*
X152023537Y-98689885D01*
X151934162Y-98522676D01*
X151813883Y-98376117D01*
X151667324Y-98255838D01*
X151500115Y-98166463D01*
X151396394Y-98135000D01*
X151318681Y-98111426D01*
X151150613Y-98094873D01*
X151130000Y-98092843D01*
X151129999Y-98092843D01*
X150941318Y-98111426D01*
X150780634Y-98160168D01*
X150770560Y-98163225D01*
X150759882Y-98166464D01*
X150592677Y-98255837D01*
X150446117Y-98376117D01*
X150325837Y-98522677D01*
X150236464Y-98689882D01*
X150181426Y-98871318D01*
X150162843Y-99060000D01*
X150181426Y-99248681D01*
X150236464Y-99430117D01*
X150304675Y-99557732D01*
X150325838Y-99597324D01*
X150432129Y-99726838D01*
X150459440Y-99791144D01*
X150447649Y-99860012D01*
X150400498Y-99911572D01*
X150336274Y-99929500D01*
X150077254Y-99929500D01*
X150010215Y-99909815D01*
X149989573Y-99893181D01*
X149546092Y-99449699D01*
X149512607Y-99388376D01*
X149515112Y-99326023D01*
X149538573Y-99248683D01*
X149557157Y-99060000D01*
X149538573Y-98871317D01*
X149483537Y-98689885D01*
X149394162Y-98522676D01*
X149273883Y-98376117D01*
X149127324Y-98255838D01*
X148960115Y-98166463D01*
X148856394Y-98135000D01*
X148778681Y-98111426D01*
X148590000Y-98092843D01*
X148401318Y-98111426D01*
X148240634Y-98160168D01*
X148230560Y-98163225D01*
X148219882Y-98166464D01*
X148052677Y-98255837D01*
X147906117Y-98376117D01*
X147785837Y-98522677D01*
X147696464Y-98689882D01*
X147641426Y-98871318D01*
X147622843Y-99060000D01*
X147641426Y-99248681D01*
X147641427Y-99248683D01*
X147696463Y-99430115D01*
X147785838Y-99597324D01*
X147906117Y-99743883D01*
X148052676Y-99864162D01*
X148219885Y-99953537D01*
X148401317Y-100008573D01*
X148590000Y-100027157D01*
X148778683Y-100008573D01*
X148856024Y-99985111D01*
X148925890Y-99984489D01*
X148979699Y-100016092D01*
X149531950Y-100568342D01*
X149621658Y-100658050D01*
X149641395Y-100668106D01*
X149657990Y-100678276D01*
X149675908Y-100691295D01*
X149675909Y-100691295D01*
X149675910Y-100691296D01*
X149696979Y-100698141D01*
X149714949Y-100705584D01*
X149734696Y-100715646D01*
X149756579Y-100719111D01*
X149775498Y-100723652D01*
X149796567Y-100730499D01*
X149818212Y-100730499D01*
X149818224Y-100730500D01*
X149828481Y-100730500D01*
X150336274Y-100730500D01*
X150403313Y-100750185D01*
X150449068Y-100802989D01*
X150459012Y-100872147D01*
X150432129Y-100933161D01*
X150325838Y-101062676D01*
X150325835Y-101062680D01*
X150236464Y-101229882D01*
X150181426Y-101411318D01*
X150162843Y-101600000D01*
X150181426Y-101788681D01*
X150200027Y-101850000D01*
X150218721Y-101911628D01*
X150236464Y-101970117D01*
X150323601Y-102133140D01*
X150325838Y-102137324D01*
X150432129Y-102266838D01*
X150459440Y-102331144D01*
X150447649Y-102400012D01*
X150400498Y-102451572D01*
X150336274Y-102469500D01*
X150077254Y-102469500D01*
X150010215Y-102449815D01*
X149989573Y-102433181D01*
X149546092Y-101989699D01*
X149512607Y-101928376D01*
X149515112Y-101866023D01*
X149538573Y-101788683D01*
X149557157Y-101600000D01*
X149538573Y-101411317D01*
X149483537Y-101229885D01*
X149394162Y-101062676D01*
X149273883Y-100916117D01*
X149127324Y-100795838D01*
X148983778Y-100719111D01*
X148960117Y-100706464D01*
X148960116Y-100706463D01*
X148960115Y-100706463D01*
X148864279Y-100677392D01*
X148778681Y-100651426D01*
X148610613Y-100634873D01*
X148590000Y-100632843D01*
X148589999Y-100632843D01*
X148401318Y-100651426D01*
X148219882Y-100706464D01*
X148052677Y-100795837D01*
X147906117Y-100916117D01*
X147785837Y-101062677D01*
X147696464Y-101229882D01*
X147641426Y-101411318D01*
X147622843Y-101600000D01*
X141613693Y-101600000D01*
X146693694Y-96519999D01*
X147622843Y-96519999D01*
X147641426Y-96708681D01*
X147696464Y-96890117D01*
X147707216Y-96910232D01*
X147785838Y-97057324D01*
X147906117Y-97203883D01*
X148052676Y-97324162D01*
X148219885Y-97413537D01*
X148401317Y-97468573D01*
X148590000Y-97487157D01*
X148778683Y-97468573D01*
X148960115Y-97413537D01*
X149127324Y-97324162D01*
X149273883Y-97203883D01*
X149394162Y-97057324D01*
X149483537Y-96890115D01*
X149538573Y-96708683D01*
X149557157Y-96520000D01*
X150162843Y-96520000D01*
X150181426Y-96708681D01*
X150236464Y-96890117D01*
X150247216Y-96910232D01*
X150325838Y-97057324D01*
X150446117Y-97203883D01*
X150592676Y-97324162D01*
X150759885Y-97413537D01*
X150941317Y-97468573D01*
X151130000Y-97487157D01*
X151318683Y-97468573D01*
X151500115Y-97413537D01*
X151667324Y-97324162D01*
X151813883Y-97203883D01*
X151934162Y-97057324D01*
X152023537Y-96890115D01*
X152078573Y-96708683D01*
X152097157Y-96520000D01*
X152078573Y-96331317D01*
X152023537Y-96149885D01*
X151934162Y-95982676D01*
X151813883Y-95836117D01*
X151667324Y-95715838D01*
X151500115Y-95626463D01*
X151409399Y-95598945D01*
X151318681Y-95571426D01*
X151130000Y-95552843D01*
X150941318Y-95571426D01*
X150780634Y-95620168D01*
X150765437Y-95624779D01*
X150759882Y-95626464D01*
X150592677Y-95715837D01*
X150446117Y-95836117D01*
X150325837Y-95982677D01*
X150236464Y-96149882D01*
X150181426Y-96331318D01*
X150162843Y-96520000D01*
X149557157Y-96520000D01*
X149538573Y-96331317D01*
X149483537Y-96149885D01*
X149394162Y-95982676D01*
X149273883Y-95836117D01*
X149127324Y-95715838D01*
X148960115Y-95626463D01*
X148869399Y-95598945D01*
X148778681Y-95571426D01*
X148610613Y-95554873D01*
X148590000Y-95552843D01*
X148589999Y-95552843D01*
X148401318Y-95571426D01*
X148240634Y-95620168D01*
X148225437Y-95624779D01*
X148219882Y-95626464D01*
X148052677Y-95715837D01*
X147906117Y-95836117D01*
X147785837Y-95982677D01*
X147696464Y-96149882D01*
X147641426Y-96331318D01*
X147622843Y-96519999D01*
X146693694Y-96519999D01*
X149233694Y-93979999D01*
X160184785Y-93979999D01*
X160203602Y-94183083D01*
X160259418Y-94379251D01*
X160350324Y-94561818D01*
X160473236Y-94724580D01*
X160623958Y-94861981D01*
X160779408Y-94958231D01*
X160797363Y-94969348D01*
X160987544Y-95043024D01*
X161188024Y-95080500D01*
X161188026Y-95080500D01*
X161391974Y-95080500D01*
X161391976Y-95080500D01*
X161592456Y-95043024D01*
X161782637Y-94969348D01*
X161895045Y-94899748D01*
X167809500Y-94899748D01*
X167821132Y-94958230D01*
X167865447Y-95024552D01*
X167931769Y-95068867D01*
X167990251Y-95080500D01*
X167990252Y-95080500D01*
X169829749Y-95080500D01*
X169858989Y-95074683D01*
X169888231Y-95068867D01*
X169954552Y-95024552D01*
X169998867Y-94958231D01*
X170010500Y-94899748D01*
X170010500Y-93060252D01*
X169998867Y-93001769D01*
X169991432Y-92990642D01*
X169954552Y-92935447D01*
X169888230Y-92891132D01*
X169829749Y-92879500D01*
X169829748Y-92879500D01*
X167990252Y-92879500D01*
X167990251Y-92879500D01*
X167931769Y-92891132D01*
X167865447Y-92935447D01*
X167821132Y-93001769D01*
X167809500Y-93060251D01*
X167809500Y-94899748D01*
X161895045Y-94899748D01*
X161956041Y-94861981D01*
X162106764Y-94724579D01*
X162229673Y-94561821D01*
X162229673Y-94561819D01*
X162229675Y-94561818D01*
X162275313Y-94470161D01*
X162320582Y-94379250D01*
X162376397Y-94183083D01*
X162395215Y-93980000D01*
X162376397Y-93776917D01*
X162320582Y-93580750D01*
X162287963Y-93515241D01*
X162229675Y-93398181D01*
X162106763Y-93235419D01*
X161956041Y-93098018D01*
X161782638Y-92990652D01*
X161592457Y-92916976D01*
X161525629Y-92904484D01*
X161391976Y-92879500D01*
X161188024Y-92879500D01*
X161125793Y-92891133D01*
X160987542Y-92916976D01*
X160797361Y-92990652D01*
X160623958Y-93098018D01*
X160473236Y-93235419D01*
X160350324Y-93398181D01*
X160259418Y-93580748D01*
X160203602Y-93776916D01*
X160184785Y-93979999D01*
X149233694Y-93979999D01*
X156817374Y-86396319D01*
X156878697Y-86362834D01*
X156905055Y-86360000D01*
X215776000Y-86360000D01*
X215843039Y-86379685D01*
X215888794Y-86432489D01*
X215900000Y-86484000D01*
X215899999Y-157959465D01*
X215880314Y-158026504D01*
X215827510Y-158072259D01*
X215758352Y-158082203D01*
X215694796Y-158053178D01*
X215683540Y-158042092D01*
X215522748Y-157862167D01*
X215522738Y-157862157D01*
X215520428Y-157859572D01*
X215511012Y-157851157D01*
X215267546Y-157633582D01*
X215267543Y-157633579D01*
X215264953Y-157631265D01*
X214985521Y-157432998D01*
X214982490Y-157431323D01*
X214982484Y-157431319D01*
X214769421Y-157313563D01*
X214685648Y-157267264D01*
X214682437Y-157265934D01*
X214682433Y-157265932D01*
X214372321Y-157137479D01*
X214372312Y-157137476D01*
X214369104Y-157136147D01*
X214365769Y-157135186D01*
X214365760Y-157135183D01*
X214043214Y-157042259D01*
X214043207Y-157042257D01*
X214039870Y-157041296D01*
X214036445Y-157040714D01*
X214036436Y-157040712D01*
X213705510Y-156984485D01*
X213705496Y-156984483D01*
X213702086Y-156983904D01*
X213698622Y-156983709D01*
X213698618Y-156983709D01*
X213363472Y-156964888D01*
X213360000Y-156964693D01*
X213356528Y-156964888D01*
X213021381Y-156983709D01*
X213021375Y-156983709D01*
X213017914Y-156983904D01*
X213014505Y-156984483D01*
X213014489Y-156984485D01*
X212683563Y-157040712D01*
X212683550Y-157040714D01*
X212680130Y-157041296D01*
X212676796Y-157042256D01*
X212676785Y-157042259D01*
X212354239Y-157135183D01*
X212354224Y-157135188D01*
X212350896Y-157136147D01*
X212347692Y-157137473D01*
X212347678Y-157137479D01*
X212037566Y-157265932D01*
X212037555Y-157265937D01*
X212034352Y-157267264D01*
X212031313Y-157268943D01*
X212031308Y-157268946D01*
X211737515Y-157431319D01*
X211737500Y-157431327D01*
X211734479Y-157432998D01*
X211731653Y-157435002D01*
X211731650Y-157435005D01*
X211457884Y-157629251D01*
X211457872Y-157629260D01*
X211455047Y-157631265D01*
X211452464Y-157633572D01*
X211452453Y-157633582D01*
X211202157Y-157857261D01*
X211202148Y-157857269D01*
X211199572Y-157859572D01*
X211197269Y-157862148D01*
X211197261Y-157862157D01*
X210973582Y-158112453D01*
X210973572Y-158112464D01*
X210971265Y-158115047D01*
X210969260Y-158117872D01*
X210969251Y-158117884D01*
X210793647Y-158365377D01*
X210772998Y-158394479D01*
X210771327Y-158397500D01*
X210771319Y-158397515D01*
X210612406Y-158685048D01*
X210607264Y-158694352D01*
X210605937Y-158697555D01*
X210605932Y-158697566D01*
X210477479Y-159007678D01*
X210477473Y-159007692D01*
X210476147Y-159010896D01*
X210475188Y-159014224D01*
X210475183Y-159014239D01*
X210382259Y-159336785D01*
X210382256Y-159336796D01*
X210381296Y-159340130D01*
X210380714Y-159343550D01*
X210380712Y-159343563D01*
X210324485Y-159674489D01*
X210324483Y-159674505D01*
X210323904Y-159677914D01*
X210323709Y-159681375D01*
X210323709Y-159681381D01*
X210315707Y-159823868D01*
X210304693Y-160020000D01*
X210304888Y-160023472D01*
X210323115Y-160348048D01*
X210323904Y-160362086D01*
X210324483Y-160365496D01*
X210324485Y-160365510D01*
X210380712Y-160696436D01*
X210380714Y-160696445D01*
X210381296Y-160699870D01*
X210382257Y-160703207D01*
X210382259Y-160703214D01*
X210475183Y-161025760D01*
X210475186Y-161025769D01*
X210476147Y-161029104D01*
X210477476Y-161032312D01*
X210477479Y-161032321D01*
X210605932Y-161342433D01*
X210607264Y-161345648D01*
X210608946Y-161348691D01*
X210771319Y-161642484D01*
X210771323Y-161642490D01*
X210772998Y-161645521D01*
X210971265Y-161924953D01*
X211199572Y-162180428D01*
X211202157Y-162182738D01*
X211382094Y-162343540D01*
X211418965Y-162402890D01*
X211417896Y-162472751D01*
X211379226Y-162530944D01*
X211315234Y-162558993D01*
X211299467Y-162560000D01*
X24920533Y-162560000D01*
X24853494Y-162540315D01*
X24807739Y-162487511D01*
X24797795Y-162418353D01*
X24826820Y-162354797D01*
X24837906Y-162343540D01*
X25020428Y-162180428D01*
X25248735Y-161924953D01*
X25447002Y-161645521D01*
X25612736Y-161345648D01*
X25743853Y-161029104D01*
X25838704Y-160699870D01*
X25896096Y-160362086D01*
X25915307Y-160020000D01*
X25909369Y-159914266D01*
X28179500Y-159914266D01*
X28179769Y-159917139D01*
X28179770Y-159917151D01*
X28182353Y-159944696D01*
X28227207Y-160072884D01*
X28307849Y-160182150D01*
X28417115Y-160262792D01*
X28417118Y-160262793D01*
X28545301Y-160307646D01*
X28575734Y-160310500D01*
X28578627Y-160310500D01*
X29881373Y-160310500D01*
X29884266Y-160310500D01*
X29914699Y-160307646D01*
X30042882Y-160262793D01*
X30042882Y-160262792D01*
X30042884Y-160262792D01*
X30152150Y-160182150D01*
X30232792Y-160072884D01*
X30252512Y-160016527D01*
X30277646Y-159944699D01*
X30280500Y-159914266D01*
X30280500Y-159905236D01*
X30300185Y-159838197D01*
X30352989Y-159792442D01*
X30422147Y-159782498D01*
X30485703Y-159811523D01*
X30516882Y-159852831D01*
X30556400Y-159937578D01*
X30691890Y-160131078D01*
X30858918Y-160298106D01*
X31052423Y-160433600D01*
X31266509Y-160533430D01*
X31480000Y-160590634D01*
X31479999Y-159545501D01*
X31587685Y-159594680D01*
X31694237Y-159610000D01*
X31765763Y-159610000D01*
X31872315Y-159594680D01*
X31979999Y-159545501D01*
X31979999Y-160590633D01*
X32193490Y-160533430D01*
X32407578Y-160433599D01*
X32601078Y-160298109D01*
X32768109Y-160131078D01*
X32903599Y-159937578D01*
X32914470Y-159914266D01*
X40879500Y-159914266D01*
X40879769Y-159917139D01*
X40879770Y-159917151D01*
X40882353Y-159944696D01*
X40927207Y-160072884D01*
X41007849Y-160182150D01*
X41117115Y-160262792D01*
X41117118Y-160262793D01*
X41245301Y-160307646D01*
X41275734Y-160310500D01*
X41278627Y-160310500D01*
X42581373Y-160310500D01*
X42584266Y-160310500D01*
X42614699Y-160307646D01*
X42742882Y-160262793D01*
X42742882Y-160262792D01*
X42742884Y-160262792D01*
X42852150Y-160182150D01*
X42932792Y-160072884D01*
X42952512Y-160016527D01*
X42977646Y-159944699D01*
X42980500Y-159914266D01*
X42980500Y-159905236D01*
X43000185Y-159838197D01*
X43052989Y-159792442D01*
X43122147Y-159782498D01*
X43185703Y-159811523D01*
X43216882Y-159852831D01*
X43256400Y-159937578D01*
X43391890Y-160131078D01*
X43558918Y-160298106D01*
X43752423Y-160433600D01*
X43966509Y-160533430D01*
X44180000Y-160590634D01*
X44180000Y-159545501D01*
X44287685Y-159594680D01*
X44394237Y-159610000D01*
X44465763Y-159610000D01*
X44572315Y-159594680D01*
X44680000Y-159545501D01*
X44680000Y-160590633D01*
X44893490Y-160533430D01*
X45107578Y-160433599D01*
X45301078Y-160298109D01*
X45468109Y-160131078D01*
X45603599Y-159937578D01*
X45614470Y-159914266D01*
X56119500Y-159914266D01*
X56119769Y-159917139D01*
X56119770Y-159917151D01*
X56122353Y-159944696D01*
X56167207Y-160072884D01*
X56247849Y-160182150D01*
X56357115Y-160262792D01*
X56357118Y-160262793D01*
X56485301Y-160307646D01*
X56515734Y-160310500D01*
X56518627Y-160310500D01*
X57821373Y-160310500D01*
X57824266Y-160310500D01*
X57854699Y-160307646D01*
X57982882Y-160262793D01*
X57982882Y-160262792D01*
X57982884Y-160262792D01*
X58092150Y-160182150D01*
X58172792Y-160072884D01*
X58192512Y-160016527D01*
X58217646Y-159944699D01*
X58220500Y-159914266D01*
X58220500Y-159905236D01*
X58240185Y-159838197D01*
X58292989Y-159792442D01*
X58362147Y-159782498D01*
X58425703Y-159811523D01*
X58456882Y-159852831D01*
X58496400Y-159937578D01*
X58631890Y-160131078D01*
X58798918Y-160298106D01*
X58992423Y-160433600D01*
X59206509Y-160533430D01*
X59420000Y-160590634D01*
X59420000Y-159545501D01*
X59527685Y-159594680D01*
X59634237Y-159610000D01*
X59705763Y-159610000D01*
X59812315Y-159594680D01*
X59919999Y-159545501D01*
X59920000Y-160590633D01*
X60133490Y-160533430D01*
X60347578Y-160433599D01*
X60541078Y-160298109D01*
X60708109Y-160131078D01*
X60843599Y-159937578D01*
X60854470Y-159914266D01*
X71359500Y-159914266D01*
X71359769Y-159917139D01*
X71359770Y-159917151D01*
X71362353Y-159944696D01*
X71407207Y-160072884D01*
X71487849Y-160182150D01*
X71597115Y-160262792D01*
X71597118Y-160262793D01*
X71725301Y-160307646D01*
X71755734Y-160310500D01*
X71758627Y-160310500D01*
X73061373Y-160310500D01*
X73064266Y-160310500D01*
X73094699Y-160307646D01*
X73222882Y-160262793D01*
X73222882Y-160262792D01*
X73222884Y-160262792D01*
X73332150Y-160182150D01*
X73412792Y-160072884D01*
X73432512Y-160016527D01*
X73457646Y-159944699D01*
X73460500Y-159914266D01*
X73460500Y-159905236D01*
X73480185Y-159838197D01*
X73532989Y-159792442D01*
X73602147Y-159782498D01*
X73665703Y-159811523D01*
X73696882Y-159852831D01*
X73736400Y-159937578D01*
X73871890Y-160131078D01*
X74038918Y-160298106D01*
X74232423Y-160433600D01*
X74446509Y-160533430D01*
X74660000Y-160590634D01*
X74660000Y-159545501D01*
X74767685Y-159594680D01*
X74874237Y-159610000D01*
X74945763Y-159610000D01*
X75052315Y-159594680D01*
X75160000Y-159545501D01*
X75160000Y-160590633D01*
X75373490Y-160533430D01*
X75587578Y-160433599D01*
X75781078Y-160298109D01*
X75948109Y-160131078D01*
X76083599Y-159937578D01*
X76183430Y-159723492D01*
X76244569Y-159495318D01*
X76256407Y-159360000D01*
X75343686Y-159360000D01*
X75369493Y-159319844D01*
X75410000Y-159181889D01*
X75410000Y-159038111D01*
X75369493Y-158900156D01*
X75343686Y-158860000D01*
X76256407Y-158860000D01*
X76256407Y-158859999D01*
X76244569Y-158724681D01*
X76183430Y-158496507D01*
X76083599Y-158282421D01*
X75948109Y-158088921D01*
X75781081Y-157921893D01*
X75587576Y-157786399D01*
X75373492Y-157686569D01*
X75160000Y-157629364D01*
X75160000Y-158674498D01*
X75052315Y-158625320D01*
X74945763Y-158610000D01*
X74874237Y-158610000D01*
X74767685Y-158625320D01*
X74660000Y-158674498D01*
X74660000Y-157629364D01*
X74659999Y-157629364D01*
X74446507Y-157686569D01*
X74232421Y-157786400D01*
X74038921Y-157921890D01*
X73871890Y-158088921D01*
X73736400Y-158282421D01*
X73696882Y-158367168D01*
X73650709Y-158419607D01*
X73583516Y-158438759D01*
X73516635Y-158418543D01*
X73471300Y-158365377D01*
X73460500Y-158314763D01*
X73460500Y-158308626D01*
X73460500Y-158308625D01*
X73460500Y-158305734D01*
X73457646Y-158275301D01*
X73412793Y-158147118D01*
X73412792Y-158147115D01*
X73332150Y-158037849D01*
X73222884Y-157957207D01*
X73094696Y-157912353D01*
X73067151Y-157909770D01*
X73067139Y-157909769D01*
X73064266Y-157909500D01*
X71755734Y-157909500D01*
X71752861Y-157909769D01*
X71752848Y-157909770D01*
X71725303Y-157912353D01*
X71597115Y-157957207D01*
X71487849Y-158037849D01*
X71407207Y-158147115D01*
X71362353Y-158275303D01*
X71359770Y-158302848D01*
X71359769Y-158302861D01*
X71359500Y-158305734D01*
X71359500Y-159914266D01*
X60854470Y-159914266D01*
X60943430Y-159723492D01*
X61004569Y-159495318D01*
X61016407Y-159360000D01*
X60103686Y-159360000D01*
X60129493Y-159319844D01*
X60170000Y-159181889D01*
X60170000Y-159038111D01*
X60129493Y-158900156D01*
X60103686Y-158860000D01*
X61016407Y-158860000D01*
X61016407Y-158859999D01*
X61004569Y-158724681D01*
X60943430Y-158496507D01*
X60843599Y-158282421D01*
X60708109Y-158088921D01*
X60541081Y-157921893D01*
X60347576Y-157786399D01*
X60133492Y-157686569D01*
X59920000Y-157629364D01*
X59919999Y-157629364D01*
X59919999Y-158674498D01*
X59812315Y-158625320D01*
X59705763Y-158610000D01*
X59634237Y-158610000D01*
X59527685Y-158625320D01*
X59420000Y-158674498D01*
X59420000Y-157629364D01*
X59419999Y-157629364D01*
X59206507Y-157686569D01*
X58992421Y-157786400D01*
X58798921Y-157921890D01*
X58631890Y-158088921D01*
X58496400Y-158282421D01*
X58456882Y-158367168D01*
X58410709Y-158419607D01*
X58343516Y-158438759D01*
X58276635Y-158418543D01*
X58231300Y-158365377D01*
X58220500Y-158314763D01*
X58220500Y-158308626D01*
X58220500Y-158308625D01*
X58220500Y-158305734D01*
X58217646Y-158275301D01*
X58172793Y-158147118D01*
X58172792Y-158147115D01*
X58092150Y-158037849D01*
X57982884Y-157957207D01*
X57854696Y-157912353D01*
X57827151Y-157909770D01*
X57827139Y-157909769D01*
X57824266Y-157909500D01*
X56515734Y-157909500D01*
X56512861Y-157909769D01*
X56512848Y-157909770D01*
X56485303Y-157912353D01*
X56357115Y-157957207D01*
X56247849Y-158037849D01*
X56167207Y-158147115D01*
X56122353Y-158275303D01*
X56119770Y-158302848D01*
X56119769Y-158302861D01*
X56119500Y-158305734D01*
X56119500Y-159914266D01*
X45614470Y-159914266D01*
X45703430Y-159723492D01*
X45764569Y-159495318D01*
X45776407Y-159360000D01*
X44863686Y-159360000D01*
X44889493Y-159319844D01*
X44930000Y-159181889D01*
X44930000Y-159038111D01*
X44889493Y-158900156D01*
X44863686Y-158860000D01*
X45776407Y-158860000D01*
X45776407Y-158859999D01*
X45764569Y-158724681D01*
X45703430Y-158496507D01*
X45603599Y-158282421D01*
X45468109Y-158088921D01*
X45301081Y-157921893D01*
X45107576Y-157786399D01*
X44893492Y-157686569D01*
X44680000Y-157629364D01*
X44680000Y-158674498D01*
X44572315Y-158625320D01*
X44465763Y-158610000D01*
X44394237Y-158610000D01*
X44287685Y-158625320D01*
X44180000Y-158674498D01*
X44180000Y-157629364D01*
X44179999Y-157629364D01*
X43966507Y-157686569D01*
X43752421Y-157786400D01*
X43558921Y-157921890D01*
X43391890Y-158088921D01*
X43256400Y-158282421D01*
X43216882Y-158367168D01*
X43170709Y-158419607D01*
X43103516Y-158438759D01*
X43036635Y-158418543D01*
X42991300Y-158365377D01*
X42980500Y-158314763D01*
X42980500Y-158308626D01*
X42980500Y-158308625D01*
X42980500Y-158305734D01*
X42977646Y-158275301D01*
X42932793Y-158147118D01*
X42932792Y-158147115D01*
X42852150Y-158037849D01*
X42742884Y-157957207D01*
X42614696Y-157912353D01*
X42587151Y-157909770D01*
X42587139Y-157909769D01*
X42584266Y-157909500D01*
X41275734Y-157909500D01*
X41272861Y-157909769D01*
X41272848Y-157909770D01*
X41245303Y-157912353D01*
X41117115Y-157957207D01*
X41007849Y-158037849D01*
X40927207Y-158147115D01*
X40882353Y-158275303D01*
X40879770Y-158302848D01*
X40879769Y-158302861D01*
X40879500Y-158305734D01*
X40879500Y-159914266D01*
X32914470Y-159914266D01*
X33003430Y-159723492D01*
X33064569Y-159495318D01*
X33076407Y-159360000D01*
X32163686Y-159360000D01*
X32189493Y-159319844D01*
X32230000Y-159181889D01*
X32230000Y-159038111D01*
X32189493Y-158900156D01*
X32163686Y-158860000D01*
X33076407Y-158860000D01*
X33076407Y-158859999D01*
X33064569Y-158724681D01*
X33003430Y-158496507D01*
X32903599Y-158282421D01*
X32768109Y-158088921D01*
X32601081Y-157921893D01*
X32407576Y-157786399D01*
X32193492Y-157686569D01*
X31979999Y-157629364D01*
X31979998Y-158674498D01*
X31872315Y-158625320D01*
X31765763Y-158610000D01*
X31694237Y-158610000D01*
X31587685Y-158625320D01*
X31479999Y-158674498D01*
X31479999Y-157629364D01*
X31266507Y-157686569D01*
X31052421Y-157786400D01*
X30858921Y-157921890D01*
X30691890Y-158088921D01*
X30556400Y-158282421D01*
X30516882Y-158367168D01*
X30470709Y-158419607D01*
X30403516Y-158438759D01*
X30336635Y-158418543D01*
X30291300Y-158365377D01*
X30280500Y-158314763D01*
X30280500Y-158308626D01*
X30280500Y-158305734D01*
X30277646Y-158275301D01*
X30232793Y-158147118D01*
X30232792Y-158147115D01*
X30152150Y-158037849D01*
X30042884Y-157957207D01*
X29914696Y-157912353D01*
X29887151Y-157909770D01*
X29887139Y-157909769D01*
X29884266Y-157909500D01*
X28575734Y-157909500D01*
X28572861Y-157909769D01*
X28572848Y-157909770D01*
X28545303Y-157912353D01*
X28417115Y-157957207D01*
X28307849Y-158037849D01*
X28227207Y-158147115D01*
X28182353Y-158275303D01*
X28179770Y-158302848D01*
X28179769Y-158302861D01*
X28179500Y-158305734D01*
X28179500Y-159914266D01*
X25909369Y-159914266D01*
X25896096Y-159677914D01*
X25838704Y-159340130D01*
X25743853Y-159010896D01*
X25612736Y-158694352D01*
X25447002Y-158394479D01*
X25248735Y-158115047D01*
X25179746Y-158037849D01*
X25065288Y-157909770D01*
X25020428Y-157859572D01*
X25011012Y-157851157D01*
X24767546Y-157633582D01*
X24767543Y-157633579D01*
X24764953Y-157631265D01*
X24485521Y-157432998D01*
X24482490Y-157431323D01*
X24482484Y-157431319D01*
X24269421Y-157313563D01*
X24185648Y-157267264D01*
X24182437Y-157265934D01*
X24182433Y-157265932D01*
X23872321Y-157137479D01*
X23872312Y-157137476D01*
X23869104Y-157136147D01*
X23865769Y-157135186D01*
X23865760Y-157135183D01*
X23543214Y-157042259D01*
X23543207Y-157042257D01*
X23539870Y-157041296D01*
X23536445Y-157040714D01*
X23536436Y-157040712D01*
X23205510Y-156984485D01*
X23205496Y-156984483D01*
X23202086Y-156983904D01*
X23198622Y-156983709D01*
X23198618Y-156983709D01*
X22863472Y-156964888D01*
X22860000Y-156964693D01*
X22856528Y-156964888D01*
X22521381Y-156983709D01*
X22521375Y-156983709D01*
X22517914Y-156983904D01*
X22514505Y-156984483D01*
X22514489Y-156984485D01*
X22183563Y-157040712D01*
X22183550Y-157040714D01*
X22180130Y-157041296D01*
X22176796Y-157042256D01*
X22176785Y-157042259D01*
X21854239Y-157135183D01*
X21854224Y-157135188D01*
X21850896Y-157136147D01*
X21847692Y-157137473D01*
X21847678Y-157137479D01*
X21537566Y-157265932D01*
X21537555Y-157265937D01*
X21534352Y-157267264D01*
X21531313Y-157268943D01*
X21531308Y-157268946D01*
X21237515Y-157431319D01*
X21237500Y-157431327D01*
X21234479Y-157432998D01*
X21231653Y-157435002D01*
X21231650Y-157435005D01*
X20957884Y-157629251D01*
X20957872Y-157629260D01*
X20955047Y-157631265D01*
X20952464Y-157633572D01*
X20952453Y-157633582D01*
X20702157Y-157857261D01*
X20702148Y-157857269D01*
X20699572Y-157859572D01*
X20697269Y-157862148D01*
X20697251Y-157862167D01*
X20536459Y-158042093D01*
X20477110Y-158078964D01*
X20407249Y-158077895D01*
X20349055Y-158039225D01*
X20321006Y-157975233D01*
X20320000Y-157959466D01*
X20320000Y-86484000D01*
X20339685Y-86416961D01*
X20392489Y-86371206D01*
X20444000Y-86360000D01*
X47640445Y-86360000D01*
X47707484Y-86379685D01*
G37*
G04 #@! TD.AperFunction*
G04 #@! TA.AperFunction,Conductor*
G36*
X40294584Y-126686385D02*
G01*
X40340339Y-126739189D01*
X40350283Y-126808347D01*
X40321258Y-126871903D01*
X40315226Y-126878381D01*
X25920426Y-141273181D01*
X25859103Y-141306666D01*
X25832745Y-141309500D01*
X24620734Y-141309500D01*
X24617861Y-141309769D01*
X24617848Y-141309770D01*
X24590303Y-141312353D01*
X24462115Y-141357207D01*
X24352849Y-141437849D01*
X24272207Y-141547115D01*
X24227353Y-141675303D01*
X24224770Y-141702848D01*
X24224769Y-141702861D01*
X24224500Y-141705734D01*
X24224500Y-141708625D01*
X24224500Y-141708626D01*
X24224500Y-142818745D01*
X24204815Y-142885784D01*
X24152011Y-142931539D01*
X24082853Y-142941483D01*
X24019297Y-142912458D01*
X24012819Y-142906426D01*
X23811219Y-142704826D01*
X23777734Y-142643503D01*
X23774900Y-142617145D01*
X23774900Y-131320654D01*
X23794585Y-131253615D01*
X23847389Y-131207860D01*
X23916547Y-131197916D01*
X23980103Y-131226941D01*
X23986575Y-131232967D01*
X24135418Y-131381811D01*
X24279981Y-131526374D01*
X24313466Y-131587697D01*
X24308482Y-131657389D01*
X24301659Y-131672506D01*
X24299769Y-131676041D01*
X24239699Y-131874067D01*
X24219417Y-132080000D01*
X24239699Y-132285932D01*
X24269696Y-132384820D01*
X24299768Y-132483954D01*
X24397315Y-132666450D01*
X24435851Y-132713406D01*
X24528589Y-132826410D01*
X24598961Y-132884162D01*
X24688550Y-132957685D01*
X24871046Y-133055232D01*
X25069066Y-133115300D01*
X25223392Y-133130500D01*
X25226442Y-133130500D01*
X25573558Y-133130500D01*
X25576608Y-133130500D01*
X25730934Y-133115300D01*
X25928954Y-133055232D01*
X26111450Y-132957685D01*
X26271410Y-132826410D01*
X26402685Y-132666450D01*
X26500232Y-132483954D01*
X26560300Y-132285934D01*
X26580583Y-132080000D01*
X26560300Y-131874066D01*
X26500232Y-131676046D01*
X26402685Y-131493550D01*
X26310984Y-131381811D01*
X26271410Y-131333589D01*
X26141457Y-131226941D01*
X26111450Y-131202315D01*
X25928954Y-131104768D01*
X25928952Y-131104767D01*
X25918183Y-131099011D01*
X25919187Y-131097132D01*
X25874020Y-131067529D01*
X25845568Y-131003716D01*
X25856132Y-130934649D01*
X25902359Y-130882258D01*
X25936367Y-130867397D01*
X25988491Y-130853431D01*
X26202578Y-130753599D01*
X26396078Y-130618109D01*
X26563106Y-130451081D01*
X26698600Y-130257576D01*
X26798430Y-130043492D01*
X26855636Y-129830000D01*
X25803969Y-129830000D01*
X25836519Y-129779351D01*
X25875000Y-129648295D01*
X25875000Y-129511705D01*
X25836519Y-129380649D01*
X25803969Y-129330000D01*
X26855636Y-129330000D01*
X26855635Y-129329999D01*
X26798430Y-129116507D01*
X26698599Y-128902421D01*
X26563109Y-128708921D01*
X26396078Y-128541890D01*
X26202578Y-128406400D01*
X25988492Y-128306569D01*
X25936365Y-128292602D01*
X25876705Y-128256237D01*
X25846176Y-128193390D01*
X25854471Y-128124014D01*
X25898956Y-128070136D01*
X25918451Y-128060845D01*
X25928949Y-128055233D01*
X25928954Y-128055232D01*
X26111450Y-127957685D01*
X26271410Y-127826410D01*
X26402685Y-127666450D01*
X26467042Y-127546046D01*
X26516004Y-127496203D01*
X26576400Y-127480500D01*
X26838733Y-127480500D01*
X26859799Y-127473655D01*
X26878714Y-127469112D01*
X26900604Y-127465646D01*
X26920342Y-127455587D01*
X26938316Y-127448142D01*
X26959390Y-127441296D01*
X26977321Y-127428267D01*
X26993898Y-127418109D01*
X27013642Y-127408050D01*
X27021974Y-127399717D01*
X27021980Y-127399713D01*
X27718674Y-126703019D01*
X27779997Y-126669534D01*
X27806355Y-126666700D01*
X40227545Y-126666700D01*
X40294584Y-126686385D01*
G37*
G04 #@! TD.AperFunction*
G04 #@! TA.AperFunction,Conductor*
G36*
X27054596Y-112810989D02*
G01*
X30051950Y-115808342D01*
X32512550Y-118268942D01*
X32602258Y-118358650D01*
X32621995Y-118368706D01*
X32638590Y-118378876D01*
X32656508Y-118391895D01*
X32656509Y-118391895D01*
X32656510Y-118391896D01*
X32677579Y-118398741D01*
X32695549Y-118406184D01*
X32715296Y-118416246D01*
X32737179Y-118419711D01*
X32756098Y-118424252D01*
X32777167Y-118431099D01*
X32798812Y-118431099D01*
X32798824Y-118431100D01*
X32809081Y-118431100D01*
X86515608Y-118431100D01*
X86582647Y-118450785D01*
X86628402Y-118503589D01*
X86638346Y-118572747D01*
X86617183Y-118626224D01*
X86532900Y-118746592D01*
X86439578Y-118946720D01*
X86382424Y-119160021D01*
X86363178Y-119380000D01*
X86382424Y-119599978D01*
X86439578Y-119813278D01*
X86520817Y-119987495D01*
X86531309Y-120056573D01*
X86502789Y-120120357D01*
X86444313Y-120158596D01*
X86408435Y-120163900D01*
X31195754Y-120163900D01*
X31128715Y-120144215D01*
X31108073Y-120127581D01*
X25621675Y-114641182D01*
X25588190Y-114579859D01*
X25593174Y-114510167D01*
X25635046Y-114454234D01*
X25698550Y-114429973D01*
X25760318Y-114424569D01*
X25988492Y-114363430D01*
X26202578Y-114263599D01*
X26396078Y-114128109D01*
X26563106Y-113961081D01*
X26698600Y-113767576D01*
X26798430Y-113553492D01*
X26855636Y-113340000D01*
X25803969Y-113340000D01*
X25836519Y-113289351D01*
X25875000Y-113158295D01*
X25875000Y-113021705D01*
X25836519Y-112890649D01*
X25803969Y-112840000D01*
X26855636Y-112840000D01*
X26868539Y-112823184D01*
X26924967Y-112781981D01*
X26994713Y-112777826D01*
X27054596Y-112810989D01*
G37*
G04 #@! TD.AperFunction*
M02*
