M48
; DRILL file {KiCad 7.0.2} date Thu Jul 27 23:19:25 2023
; FORMAT={-:-/ absolute / metric / decimal}
; #@! TF.CreationDate,2023-07-27T23:19:25+09:00
; #@! TF.GenerationSoftware,Kicad,Pcbnew,7.0.2
; #@! TF.FileFunction,Plated,1,2,PTH
FMAT,2
METRIC
; #@! TA.AperFunction,Plated,PTH,ComponentDrill
T1C0.700
; #@! TA.AperFunction,Plated,PTH,ComponentDrill
T2C1.000
; #@! TA.AperFunction,Plated,PTH,ComponentDrill
T3C3.200
%
G90
G05
T1
X123.19Y-57.15
X123.19Y-76.2
X130.81Y-57.15
X130.81Y-76.2
T2
X110.13Y-64.79
X110.13Y-67.29
X113.316Y-76.687
X113.316Y-55.393
X115.083Y-78.454
X115.083Y-53.626
X125.75Y-49.17
X125.75Y-82.91
X128.25Y-49.17
X128.25Y-82.91
X137.647Y-52.356
X138.917Y-78.74
X139.414Y-54.123
X140.684Y-76.972
X143.87Y-64.79
X143.87Y-67.29
T3
X120.65Y-62.23
X134.62Y-71.12
T0
M30
