G04 #@! TF.GenerationSoftware,KiCad,Pcbnew,7.0.2*
G04 #@! TF.CreationDate,2023-07-27T23:19:17+09:00*
G04 #@! TF.ProjectId,can_bus,63616e5f-6275-4732-9e6b-696361645f70,rev?*
G04 #@! TF.SameCoordinates,Original*
G04 #@! TF.FileFunction,Legend,Top*
G04 #@! TF.FilePolarity,Positive*
%FSLAX46Y46*%
G04 Gerber Fmt 4.6, Leading zero omitted, Abs format (unit mm)*
G04 Created by KiCad (PCBNEW 7.0.2) date 2023-07-27 23:19:17*
%MOMM*%
%LPD*%
G01*
G04 APERTURE LIST*
%ADD10C,0.150000*%
%ADD11C,0.120000*%
G04 APERTURE END LIST*
D10*
X136709921Y-75236959D02*
X137214998Y-75742035D01*
X137214998Y-75742035D02*
X137282341Y-75876722D01*
X137282341Y-75876722D02*
X137282341Y-76011409D01*
X137282341Y-76011409D02*
X137214998Y-76146096D01*
X137214998Y-76146096D02*
X137147654Y-76213440D01*
X136979296Y-74967585D02*
X137450700Y-74496180D01*
X137450700Y-74496180D02*
X137854761Y-75506333D01*
X126666666Y-52132619D02*
X126666666Y-52846904D01*
X126666666Y-52846904D02*
X126619047Y-52989761D01*
X126619047Y-52989761D02*
X126523809Y-53085000D01*
X126523809Y-53085000D02*
X126380952Y-53132619D01*
X126380952Y-53132619D02*
X126285714Y-53132619D01*
X127571428Y-52465952D02*
X127571428Y-53132619D01*
X127333333Y-52085000D02*
X127095238Y-52799285D01*
X127095238Y-52799285D02*
X127714285Y-52799285D01*
X136199926Y-55098701D02*
X135694850Y-55603778D01*
X135694850Y-55603778D02*
X135560163Y-55671121D01*
X135560163Y-55671121D02*
X135425476Y-55671121D01*
X135425476Y-55671121D02*
X135290789Y-55603778D01*
X135290789Y-55603778D02*
X135223445Y-55536434D01*
X136873361Y-55772137D02*
X136536644Y-55435419D01*
X136536644Y-55435419D02*
X136166254Y-55738465D01*
X136166254Y-55738465D02*
X136233598Y-55738465D01*
X136233598Y-55738465D02*
X136334613Y-55772137D01*
X136334613Y-55772137D02*
X136502972Y-55940495D01*
X136502972Y-55940495D02*
X136536644Y-56041511D01*
X136536644Y-56041511D02*
X136536644Y-56108854D01*
X136536644Y-56108854D02*
X136502972Y-56209869D01*
X136502972Y-56209869D02*
X136334613Y-56378228D01*
X136334613Y-56378228D02*
X136233598Y-56411900D01*
X136233598Y-56411900D02*
X136166254Y-56411900D01*
X136166254Y-56411900D02*
X136065239Y-56378228D01*
X136065239Y-56378228D02*
X135896880Y-56209869D01*
X135896880Y-56209869D02*
X135863209Y-56108854D01*
X135863209Y-56108854D02*
X135863209Y-56041511D01*
X126666666Y-78872619D02*
X126666666Y-79586904D01*
X126666666Y-79586904D02*
X126619047Y-79729761D01*
X126619047Y-79729761D02*
X126523809Y-79825000D01*
X126523809Y-79825000D02*
X126380952Y-79872619D01*
X126380952Y-79872619D02*
X126285714Y-79872619D01*
X127285714Y-79301190D02*
X127190476Y-79253571D01*
X127190476Y-79253571D02*
X127142857Y-79205952D01*
X127142857Y-79205952D02*
X127095238Y-79110714D01*
X127095238Y-79110714D02*
X127095238Y-79063095D01*
X127095238Y-79063095D02*
X127142857Y-78967857D01*
X127142857Y-78967857D02*
X127190476Y-78920238D01*
X127190476Y-78920238D02*
X127285714Y-78872619D01*
X127285714Y-78872619D02*
X127476190Y-78872619D01*
X127476190Y-78872619D02*
X127571428Y-78920238D01*
X127571428Y-78920238D02*
X127619047Y-78967857D01*
X127619047Y-78967857D02*
X127666666Y-79063095D01*
X127666666Y-79063095D02*
X127666666Y-79110714D01*
X127666666Y-79110714D02*
X127619047Y-79205952D01*
X127619047Y-79205952D02*
X127571428Y-79253571D01*
X127571428Y-79253571D02*
X127476190Y-79301190D01*
X127476190Y-79301190D02*
X127285714Y-79301190D01*
X127285714Y-79301190D02*
X127190476Y-79348809D01*
X127190476Y-79348809D02*
X127142857Y-79396428D01*
X127142857Y-79396428D02*
X127095238Y-79491666D01*
X127095238Y-79491666D02*
X127095238Y-79682142D01*
X127095238Y-79682142D02*
X127142857Y-79777380D01*
X127142857Y-79777380D02*
X127190476Y-79825000D01*
X127190476Y-79825000D02*
X127285714Y-79872619D01*
X127285714Y-79872619D02*
X127476190Y-79872619D01*
X127476190Y-79872619D02*
X127571428Y-79825000D01*
X127571428Y-79825000D02*
X127619047Y-79777380D01*
X127619047Y-79777380D02*
X127666666Y-79682142D01*
X127666666Y-79682142D02*
X127666666Y-79491666D01*
X127666666Y-79491666D02*
X127619047Y-79396428D01*
X127619047Y-79396428D02*
X127571428Y-79348809D01*
X127571428Y-79348809D02*
X127476190Y-79301190D01*
X139832619Y-66373333D02*
X140546904Y-66373333D01*
X140546904Y-66373333D02*
X140689761Y-66420952D01*
X140689761Y-66420952D02*
X140785000Y-66516190D01*
X140785000Y-66516190D02*
X140832619Y-66659047D01*
X140832619Y-66659047D02*
X140832619Y-66754285D01*
X139832619Y-65468571D02*
X139832619Y-65659047D01*
X139832619Y-65659047D02*
X139880238Y-65754285D01*
X139880238Y-65754285D02*
X139927857Y-65801904D01*
X139927857Y-65801904D02*
X140070714Y-65897142D01*
X140070714Y-65897142D02*
X140261190Y-65944761D01*
X140261190Y-65944761D02*
X140642142Y-65944761D01*
X140642142Y-65944761D02*
X140737380Y-65897142D01*
X140737380Y-65897142D02*
X140785000Y-65849523D01*
X140785000Y-65849523D02*
X140832619Y-65754285D01*
X140832619Y-65754285D02*
X140832619Y-65563809D01*
X140832619Y-65563809D02*
X140785000Y-65468571D01*
X140785000Y-65468571D02*
X140737380Y-65420952D01*
X140737380Y-65420952D02*
X140642142Y-65373333D01*
X140642142Y-65373333D02*
X140404047Y-65373333D01*
X140404047Y-65373333D02*
X140308809Y-65420952D01*
X140308809Y-65420952D02*
X140261190Y-65468571D01*
X140261190Y-65468571D02*
X140213571Y-65563809D01*
X140213571Y-65563809D02*
X140213571Y-65754285D01*
X140213571Y-65754285D02*
X140261190Y-65849523D01*
X140261190Y-65849523D02*
X140308809Y-65897142D01*
X140308809Y-65897142D02*
X140404047Y-65944761D01*
X126833333Y-74742619D02*
X126500000Y-74266428D01*
X126261905Y-74742619D02*
X126261905Y-73742619D01*
X126261905Y-73742619D02*
X126642857Y-73742619D01*
X126642857Y-73742619D02*
X126738095Y-73790238D01*
X126738095Y-73790238D02*
X126785714Y-73837857D01*
X126785714Y-73837857D02*
X126833333Y-73933095D01*
X126833333Y-73933095D02*
X126833333Y-74075952D01*
X126833333Y-74075952D02*
X126785714Y-74171190D01*
X126785714Y-74171190D02*
X126738095Y-74218809D01*
X126738095Y-74218809D02*
X126642857Y-74266428D01*
X126642857Y-74266428D02*
X126261905Y-74266428D01*
X127214286Y-73837857D02*
X127261905Y-73790238D01*
X127261905Y-73790238D02*
X127357143Y-73742619D01*
X127357143Y-73742619D02*
X127595238Y-73742619D01*
X127595238Y-73742619D02*
X127690476Y-73790238D01*
X127690476Y-73790238D02*
X127738095Y-73837857D01*
X127738095Y-73837857D02*
X127785714Y-73933095D01*
X127785714Y-73933095D02*
X127785714Y-74028333D01*
X127785714Y-74028333D02*
X127738095Y-74171190D01*
X127738095Y-74171190D02*
X127166667Y-74742619D01*
X127166667Y-74742619D02*
X127785714Y-74742619D01*
X126833333Y-55692619D02*
X126500000Y-55216428D01*
X126261905Y-55692619D02*
X126261905Y-54692619D01*
X126261905Y-54692619D02*
X126642857Y-54692619D01*
X126642857Y-54692619D02*
X126738095Y-54740238D01*
X126738095Y-54740238D02*
X126785714Y-54787857D01*
X126785714Y-54787857D02*
X126833333Y-54883095D01*
X126833333Y-54883095D02*
X126833333Y-55025952D01*
X126833333Y-55025952D02*
X126785714Y-55121190D01*
X126785714Y-55121190D02*
X126738095Y-55168809D01*
X126738095Y-55168809D02*
X126642857Y-55216428D01*
X126642857Y-55216428D02*
X126261905Y-55216428D01*
X127785714Y-55692619D02*
X127214286Y-55692619D01*
X127500000Y-55692619D02*
X127500000Y-54692619D01*
X127500000Y-54692619D02*
X127404762Y-54835476D01*
X127404762Y-54835476D02*
X127309524Y-54930714D01*
X127309524Y-54930714D02*
X127214286Y-54978333D01*
X116818640Y-74479921D02*
X116313564Y-74984998D01*
X116313564Y-74984998D02*
X116178877Y-75052341D01*
X116178877Y-75052341D02*
X116044190Y-75052341D01*
X116044190Y-75052341D02*
X115909503Y-74984998D01*
X115909503Y-74984998D02*
X115842159Y-74917654D01*
X116818640Y-75894135D02*
X116414579Y-75490074D01*
X116616610Y-75692105D02*
X117323716Y-74984998D01*
X117323716Y-74984998D02*
X117155358Y-75018670D01*
X117155358Y-75018670D02*
X117020671Y-75018670D01*
X117020671Y-75018670D02*
X116919655Y-74984998D01*
X116058701Y-56840073D02*
X116563778Y-57345149D01*
X116563778Y-57345149D02*
X116631121Y-57479836D01*
X116631121Y-57479836D02*
X116631121Y-57614523D01*
X116631121Y-57614523D02*
X116563778Y-57749210D01*
X116563778Y-57749210D02*
X116496434Y-57816554D01*
X116328076Y-56570699D02*
X116765808Y-56132966D01*
X116765808Y-56132966D02*
X116799480Y-56638042D01*
X116799480Y-56638042D02*
X116900495Y-56537027D01*
X116900495Y-56537027D02*
X117001511Y-56503355D01*
X117001511Y-56503355D02*
X117068854Y-56503355D01*
X117068854Y-56503355D02*
X117169869Y-56537027D01*
X117169869Y-56537027D02*
X117338228Y-56705386D01*
X117338228Y-56705386D02*
X117371900Y-56806401D01*
X117371900Y-56806401D02*
X117371900Y-56873745D01*
X117371900Y-56873745D02*
X117338228Y-56974760D01*
X117338228Y-56974760D02*
X117136198Y-57176790D01*
X117136198Y-57176790D02*
X117035182Y-57210462D01*
X117035182Y-57210462D02*
X116967839Y-57210462D01*
X113092619Y-66373333D02*
X113806904Y-66373333D01*
X113806904Y-66373333D02*
X113949761Y-66420952D01*
X113949761Y-66420952D02*
X114045000Y-66516190D01*
X114045000Y-66516190D02*
X114092619Y-66659047D01*
X114092619Y-66659047D02*
X114092619Y-66754285D01*
X113187857Y-65944761D02*
X113140238Y-65897142D01*
X113140238Y-65897142D02*
X113092619Y-65801904D01*
X113092619Y-65801904D02*
X113092619Y-65563809D01*
X113092619Y-65563809D02*
X113140238Y-65468571D01*
X113140238Y-65468571D02*
X113187857Y-65420952D01*
X113187857Y-65420952D02*
X113283095Y-65373333D01*
X113283095Y-65373333D02*
X113378333Y-65373333D01*
X113378333Y-65373333D02*
X113521190Y-65420952D01*
X113521190Y-65420952D02*
X114092619Y-65992380D01*
X114092619Y-65992380D02*
X114092619Y-65373333D01*
D11*
X135402279Y-78846066D02*
X136406371Y-77841974D01*
X143689571Y-87133357D02*
X135402279Y-78846066D01*
X136406371Y-77841974D02*
X139588351Y-81023955D01*
X139588351Y-81023955D02*
X141278337Y-79333970D01*
X137219544Y-77467208D02*
X137643808Y-77042944D01*
X141002565Y-81179518D02*
X144891652Y-85068606D01*
X144891652Y-85068606D02*
X145245206Y-84715052D01*
X137855940Y-77679340D02*
X137219544Y-77467208D01*
X141356118Y-80825965D02*
X141002565Y-81179518D01*
X145245206Y-84715052D02*
X141356118Y-80825965D01*
X137643808Y-77042944D02*
X137855940Y-77679340D01*
X146383648Y-84439281D02*
X143689571Y-87133357D01*
X146383648Y-84439281D02*
X149077724Y-81745204D01*
X142770332Y-79411751D02*
X146659419Y-83300839D01*
X146659419Y-83300839D02*
X147012973Y-82947285D01*
X143123885Y-79058198D02*
X142770332Y-79411751D01*
X147012973Y-82947285D02*
X143123885Y-79058198D01*
X139786341Y-74462004D02*
X142968322Y-77643984D01*
X142968322Y-77643984D02*
X141278337Y-79333970D01*
X140790433Y-73457912D02*
X139786341Y-74462004D01*
X149077724Y-81745204D02*
X140790433Y-73457912D01*
X130810000Y-51580000D02*
X129390000Y-51580000D01*
X130810000Y-39860000D02*
X130810000Y-51580000D01*
X129390000Y-51580000D02*
X129390000Y-47080000D01*
X129390000Y-47080000D02*
X127000000Y-47080000D01*
X128550000Y-51270000D02*
X127950000Y-51270000D01*
X128500000Y-45970000D02*
X128500000Y-40470000D01*
X128500000Y-40470000D02*
X128000000Y-40470000D01*
X128250000Y-50670000D02*
X128550000Y-51270000D01*
X128000000Y-45970000D02*
X128500000Y-45970000D01*
X128000000Y-40470000D02*
X128000000Y-45970000D01*
X127950000Y-51270000D02*
X128250000Y-50670000D01*
X127000000Y-39860000D02*
X130810000Y-39860000D01*
X127000000Y-39860000D02*
X123190000Y-39860000D01*
X126000000Y-45970000D02*
X126000000Y-40470000D01*
X126000000Y-40470000D02*
X125500000Y-40470000D01*
X125500000Y-45970000D02*
X126000000Y-45970000D01*
X125500000Y-40470000D02*
X125500000Y-45970000D01*
X124610000Y-51580000D02*
X124610000Y-47080000D01*
X124610000Y-47080000D02*
X127000000Y-47080000D01*
X123190000Y-51580000D02*
X124610000Y-51580000D01*
X123190000Y-39860000D02*
X123190000Y-51580000D01*
X139520466Y-57637721D02*
X138516374Y-56633629D01*
X147807757Y-49350429D02*
X139520466Y-57637721D01*
X138516374Y-56633629D02*
X141698355Y-53451649D01*
X141698355Y-53451649D02*
X140008370Y-51761663D01*
X138141608Y-55820456D02*
X137717344Y-55396192D01*
X141853918Y-52037435D02*
X145743006Y-48148348D01*
X145743006Y-48148348D02*
X145389452Y-47794794D01*
X138353740Y-55184060D02*
X138141608Y-55820456D01*
X141500365Y-51683882D02*
X141853918Y-52037435D01*
X145389452Y-47794794D02*
X141500365Y-51683882D01*
X137717344Y-55396192D02*
X138353740Y-55184060D01*
X145113681Y-46656352D02*
X147807757Y-49350429D01*
X145113681Y-46656352D02*
X142419604Y-43962276D01*
X140086151Y-50269668D02*
X143975239Y-46380581D01*
X143975239Y-46380581D02*
X143621685Y-46027027D01*
X139732598Y-49916115D02*
X140086151Y-50269668D01*
X143621685Y-46027027D02*
X139732598Y-49916115D01*
X135136404Y-53253659D02*
X138318384Y-50071678D01*
X138318384Y-50071678D02*
X140008370Y-51761663D01*
X134132312Y-52249567D02*
X135136404Y-53253659D01*
X142419604Y-43962276D02*
X134132312Y-52249567D01*
X123190000Y-80500000D02*
X124610000Y-80500000D01*
X123190000Y-92220000D02*
X123190000Y-80500000D01*
X124610000Y-80500000D02*
X124610000Y-85000000D01*
X124610000Y-85000000D02*
X127000000Y-85000000D01*
X125450000Y-80810000D02*
X126050000Y-80810000D01*
X125500000Y-86110000D02*
X125500000Y-91610000D01*
X125500000Y-91610000D02*
X126000000Y-91610000D01*
X125750000Y-81410000D02*
X125450000Y-80810000D01*
X126000000Y-86110000D02*
X125500000Y-86110000D01*
X126000000Y-91610000D02*
X126000000Y-86110000D01*
X126050000Y-80810000D02*
X125750000Y-81410000D01*
X127000000Y-92220000D02*
X123190000Y-92220000D01*
X127000000Y-92220000D02*
X130810000Y-92220000D01*
X128000000Y-86110000D02*
X128000000Y-91610000D01*
X128000000Y-91610000D02*
X128500000Y-91610000D01*
X128500000Y-86110000D02*
X128000000Y-86110000D01*
X128500000Y-91610000D02*
X128500000Y-86110000D01*
X129390000Y-80500000D02*
X129390000Y-85000000D01*
X129390000Y-85000000D02*
X127000000Y-85000000D01*
X130810000Y-80500000D02*
X129390000Y-80500000D01*
X130810000Y-92220000D02*
X130810000Y-80500000D01*
X141460000Y-69850000D02*
X141460000Y-68430000D01*
X153180000Y-69850000D02*
X141460000Y-69850000D01*
X141460000Y-68430000D02*
X145960000Y-68430000D01*
X145960000Y-68430000D02*
X145960000Y-66040000D01*
X141770000Y-67590000D02*
X141770000Y-66990000D01*
X147070000Y-67540000D02*
X152570000Y-67540000D01*
X152570000Y-67540000D02*
X152570000Y-67040000D01*
X142370000Y-67290000D02*
X141770000Y-67590000D01*
X147070000Y-67040000D02*
X147070000Y-67540000D01*
X152570000Y-67040000D02*
X147070000Y-67040000D01*
X141770000Y-66990000D02*
X142370000Y-67290000D01*
X153180000Y-66040000D02*
X153180000Y-69850000D01*
X153180000Y-66040000D02*
X153180000Y-62230000D01*
X147070000Y-65040000D02*
X152570000Y-65040000D01*
X152570000Y-65040000D02*
X152570000Y-64540000D01*
X147070000Y-64540000D02*
X147070000Y-65040000D01*
X152570000Y-64540000D02*
X147070000Y-64540000D01*
X141460000Y-63650000D02*
X145960000Y-63650000D01*
X145960000Y-63650000D02*
X145960000Y-66040000D01*
X141460000Y-62230000D02*
X141460000Y-63650000D01*
X153180000Y-62230000D02*
X141460000Y-62230000D01*
X124130000Y-76200000D02*
X125080000Y-76200000D01*
X125080000Y-75280000D02*
X125080000Y-77120000D01*
X125080000Y-77120000D02*
X128920000Y-77120000D01*
X128920000Y-75280000D02*
X125080000Y-75280000D01*
X128920000Y-77120000D02*
X128920000Y-75280000D01*
X129870000Y-76200000D02*
X128920000Y-76200000D01*
X124130000Y-57150000D02*
X125080000Y-57150000D01*
X125080000Y-56230000D02*
X125080000Y-58070000D01*
X125080000Y-58070000D02*
X128920000Y-58070000D01*
X128920000Y-56230000D02*
X125080000Y-56230000D01*
X128920000Y-58070000D02*
X128920000Y-56230000D01*
X129870000Y-57150000D02*
X128920000Y-57150000D01*
X113209534Y-73172279D02*
X114213626Y-74176371D01*
X104922243Y-81459571D02*
X113209534Y-73172279D01*
X114213626Y-74176371D02*
X111031645Y-77358351D01*
X111031645Y-77358351D02*
X112721630Y-79048337D01*
X114588392Y-74989544D02*
X115012656Y-75413808D01*
X110876082Y-78772565D02*
X106986994Y-82661652D01*
X106986994Y-82661652D02*
X107340548Y-83015206D01*
X114376260Y-75625940D02*
X114588392Y-74989544D01*
X111229635Y-79126118D02*
X110876082Y-78772565D01*
X107340548Y-83015206D02*
X111229635Y-79126118D01*
X115012656Y-75413808D02*
X114376260Y-75625940D01*
X107616319Y-84153648D02*
X104922243Y-81459571D01*
X107616319Y-84153648D02*
X110310396Y-86847724D01*
X112643849Y-80540332D02*
X108754761Y-84429419D01*
X108754761Y-84429419D02*
X109108315Y-84782973D01*
X112997402Y-80893885D02*
X112643849Y-80540332D01*
X109108315Y-84782973D02*
X112997402Y-80893885D01*
X117593596Y-77556341D02*
X114411616Y-80738322D01*
X114411616Y-80738322D02*
X112721630Y-79048337D01*
X118597688Y-78560433D02*
X117593596Y-77556341D01*
X110310396Y-86847724D02*
X118597688Y-78560433D01*
X118597721Y-53519534D02*
X117593629Y-54523626D01*
X110310429Y-45232243D02*
X118597721Y-53519534D01*
X117593629Y-54523626D02*
X114411649Y-51341645D01*
X114411649Y-51341645D02*
X112721663Y-53031630D01*
X116780456Y-54898392D02*
X116356192Y-55322656D01*
X112997435Y-51186082D02*
X109108348Y-47296994D01*
X109108348Y-47296994D02*
X108754794Y-47650548D01*
X116144060Y-54686260D02*
X116780456Y-54898392D01*
X112643882Y-51539635D02*
X112997435Y-51186082D01*
X108754794Y-47650548D02*
X112643882Y-51539635D01*
X116356192Y-55322656D02*
X116144060Y-54686260D01*
X107616352Y-47926319D02*
X110310429Y-45232243D01*
X107616352Y-47926319D02*
X104922276Y-50620396D01*
X111229668Y-52953849D02*
X107340581Y-49064761D01*
X107340581Y-49064761D02*
X106987027Y-49418315D01*
X110876115Y-53307402D02*
X111229668Y-52953849D01*
X106987027Y-49418315D02*
X110876115Y-53307402D01*
X114213659Y-57903596D02*
X111031678Y-54721616D01*
X111031678Y-54721616D02*
X112721663Y-53031630D01*
X113209567Y-58907688D02*
X114213659Y-57903596D01*
X104922276Y-50620396D02*
X113209567Y-58907688D01*
X112540000Y-62230000D02*
X112540000Y-63650000D01*
X100820000Y-62230000D02*
X112540000Y-62230000D01*
X112540000Y-63650000D02*
X108040000Y-63650000D01*
X108040000Y-63650000D02*
X108040000Y-66040000D01*
X112230000Y-64490000D02*
X112230000Y-65090000D01*
X106930000Y-64540000D02*
X101430000Y-64540000D01*
X101430000Y-64540000D02*
X101430000Y-65040000D01*
X111630000Y-64790000D02*
X112230000Y-64490000D01*
X106930000Y-65040000D02*
X106930000Y-64540000D01*
X101430000Y-65040000D02*
X106930000Y-65040000D01*
X112230000Y-65090000D02*
X111630000Y-64790000D01*
X100820000Y-66040000D02*
X100820000Y-62230000D01*
X100820000Y-66040000D02*
X100820000Y-69850000D01*
X106930000Y-67040000D02*
X101430000Y-67040000D01*
X101430000Y-67040000D02*
X101430000Y-67540000D01*
X106930000Y-67540000D02*
X106930000Y-67040000D01*
X101430000Y-67540000D02*
X106930000Y-67540000D01*
X112540000Y-68430000D02*
X108040000Y-68430000D01*
X108040000Y-68430000D02*
X108040000Y-66040000D01*
X112540000Y-69850000D02*
X112540000Y-68430000D01*
X100820000Y-69850000D02*
X112540000Y-69850000D01*
M02*
