M48
; DRILL file {KiCad 7.0.2} date Mon Jul  3 12:29:44 2023
; FORMAT={-:-/ absolute / metric / decimal}
; #@! TF.CreationDate,2023-07-03T12:29:44+09:00
; #@! TF.GenerationSoftware,Kicad,Pcbnew,7.0.2
; #@! TF.FileFunction,Plated,1,2,PTH
FMAT,2
METRIC
; #@! TA.AperFunction,Plated,PTH,ViaDrill
T1C0.300
; #@! TA.AperFunction,Plated,PTH,ComponentDrill
T2C0.700
; #@! TA.AperFunction,Plated,PTH,ComponentDrill
T3C0.762
; #@! TA.AperFunction,Plated,PTH,ComponentDrill
T4C0.800
; #@! TA.AperFunction,Plated,PTH,ComponentDrill
T5C0.900
; #@! TA.AperFunction,Plated,PTH,ComponentDrill
T6C0.950
; #@! TA.AperFunction,Plated,PTH,ComponentDrill
T7C1.000
; #@! TA.AperFunction,Plated,PTH,ComponentDrill
T8C1.200
; #@! TA.AperFunction,Plated,PTH,ComponentDrill
T9C2.100
; #@! TA.AperFunction,Plated,PTH,ComponentDrill
T10C3.200
%
G90
G05
T1
X55.031Y-93.133
X66.075Y-128.665
X66.47Y-89.466
X66.47Y-127.567
X67.243Y-127.023
X86.147Y-114.452
X91.936Y-89.466
X96.865Y-125.581
X101.557Y-103.012
X106.125Y-93.535
X108.008Y-91.196
X108.146Y-89.404
X109.311Y-89.466
X121.72Y-91.899
X123.319Y-90.208
X128.951Y-95.042
X157.877Y-103.666
X167.912Y-111.092
T2
X165.1Y-123.52
X165.1Y-128.6
X165.1Y-133.68
X165.1Y-138.76
X172.72Y-123.52
X172.72Y-128.6
X172.72Y-133.68
X172.72Y-138.76
T3
X87.63Y-96.52
X87.63Y-99.06
X87.63Y-101.6
X87.63Y-104.14
X87.63Y-106.68
X87.63Y-109.22
X87.63Y-111.76
X87.63Y-114.3
X87.63Y-116.84
X87.63Y-119.38
X87.63Y-121.92
X87.63Y-124.46
X87.63Y-127.0
X87.63Y-129.54
X87.63Y-132.08
X87.63Y-134.62
X87.63Y-137.16
X87.63Y-139.7
X87.63Y-142.24
X90.17Y-96.52
X90.17Y-99.06
X90.17Y-101.6
X90.17Y-104.14
X90.17Y-106.68
X90.17Y-109.22
X90.17Y-111.76
X90.17Y-114.3
X90.17Y-116.84
X90.17Y-119.38
X90.17Y-121.92
X90.17Y-124.46
X90.17Y-127.0
X90.17Y-129.54
X90.17Y-132.08
X90.17Y-134.62
X90.17Y-137.16
X90.17Y-139.7
X90.17Y-142.24
X148.59Y-96.52
X148.59Y-99.06
X148.59Y-101.6
X148.59Y-104.14
X148.59Y-106.68
X148.59Y-109.22
X148.59Y-111.76
X148.59Y-114.3
X148.59Y-116.84
X148.59Y-119.38
X148.59Y-121.92
X148.59Y-124.46
X148.59Y-127.0
X148.59Y-129.54
X148.59Y-132.08
X148.59Y-134.62
X148.59Y-137.16
X148.59Y-139.7
X148.59Y-142.24
X151.13Y-96.52
X151.13Y-99.06
X151.13Y-101.6
X151.13Y-104.14
X151.13Y-106.68
X151.13Y-109.22
X151.13Y-111.76
X151.13Y-114.3
X151.13Y-116.84
X151.13Y-119.38
X151.13Y-121.92
X151.13Y-124.46
X151.13Y-127.0
X151.13Y-129.54
X151.13Y-132.08
X151.13Y-134.62
X151.13Y-137.16
X151.13Y-139.7
X151.13Y-142.24
T4
X161.35Y-101.6
X162.6Y-109.22
X165.1Y-109.22
X168.85Y-101.6
X170.18Y-152.4
X170.18Y-154.94
X170.18Y-157.48
X170.18Y-160.02
X177.8Y-152.4
X177.8Y-154.94
X177.8Y-157.48
X177.8Y-160.02
T5
X161.29Y-93.98
X168.91Y-93.98
X182.88Y-123.05
X182.88Y-128.6
X182.88Y-134.15
X182.88Y-139.7
X185.42Y-123.05
X185.42Y-128.6
X185.42Y-134.15
X185.42Y-139.7
X194.31Y-114.3
X201.93Y-114.3
T6
X25.4Y-108.09
X25.4Y-110.59
X25.4Y-113.09
X25.4Y-124.58
X25.4Y-127.08
X25.4Y-129.58
X25.4Y-132.08
X25.4Y-142.36
X25.4Y-144.86
X25.4Y-147.36
X25.4Y-149.86
X209.91Y-135.95
X209.91Y-138.45
X209.91Y-140.95
X209.91Y-143.45
T7
X29.23Y-159.11
X31.73Y-159.11
X41.93Y-159.11
X44.43Y-159.11
X45.72Y-45.72
X45.72Y-48.26
X45.72Y-50.8
X45.72Y-53.34
X45.72Y-55.88
X45.72Y-58.42
X45.72Y-60.96
X45.72Y-63.5
X45.72Y-66.04
X48.26Y-45.72
X48.26Y-48.26
X48.26Y-50.8
X48.26Y-53.34
X48.26Y-55.88
X48.26Y-58.42
X48.26Y-60.96
X48.26Y-63.5
X48.26Y-66.04
X57.17Y-159.11
X59.67Y-159.11
X71.12Y-45.72
X71.12Y-48.26
X71.12Y-50.8
X71.12Y-53.34
X71.12Y-55.88
X71.12Y-58.42
X71.12Y-60.96
X71.12Y-63.5
X71.12Y-66.04
X72.41Y-159.11
X73.66Y-45.72
X73.66Y-48.26
X73.66Y-50.8
X73.66Y-53.34
X73.66Y-55.88
X73.66Y-58.42
X73.66Y-60.96
X73.66Y-63.5
X73.66Y-66.04
X74.91Y-159.11
X96.52Y-45.72
X96.52Y-48.26
X96.52Y-50.8
X96.52Y-53.34
X96.52Y-55.88
X96.52Y-58.42
X96.52Y-60.96
X96.52Y-63.5
X96.52Y-66.04
X99.06Y-45.72
X99.06Y-48.26
X99.06Y-50.8
X99.06Y-53.34
X99.06Y-55.88
X99.06Y-58.42
X99.06Y-60.96
X99.06Y-63.5
X99.06Y-66.04
X121.92Y-45.72
X121.92Y-48.26
X121.92Y-50.8
X121.92Y-53.34
X121.92Y-55.88
X121.92Y-58.42
X121.92Y-60.96
X121.92Y-63.5
X121.92Y-66.04
X124.46Y-45.72
X124.46Y-48.26
X124.46Y-50.8
X124.46Y-53.34
X124.46Y-55.88
X124.46Y-58.42
X124.46Y-60.96
X124.46Y-63.5
X124.46Y-66.04
X147.32Y-45.72
X147.32Y-48.26
X147.32Y-50.8
X147.32Y-53.34
X147.32Y-55.88
X147.32Y-58.42
X147.32Y-60.96
X147.32Y-63.5
X147.32Y-66.04
X149.86Y-45.72
X149.86Y-48.26
X149.86Y-50.8
X149.86Y-53.34
X149.86Y-55.88
X149.86Y-58.42
X149.86Y-60.96
X149.86Y-63.5
X149.86Y-66.04
X172.72Y-45.72
X172.72Y-48.26
X172.72Y-50.8
X172.72Y-53.34
X172.72Y-55.88
X172.72Y-58.42
X172.72Y-60.96
X172.72Y-63.5
X172.72Y-66.04
X175.26Y-45.72
X175.26Y-48.26
X175.26Y-50.8
X175.26Y-53.34
X175.26Y-55.88
X175.26Y-58.42
X175.26Y-60.96
X175.26Y-63.5
X175.26Y-66.04
X198.12Y-45.72
X198.12Y-48.26
X198.12Y-50.8
X198.12Y-53.34
X198.12Y-55.88
X198.12Y-58.42
X198.12Y-60.96
X198.12Y-63.5
X198.12Y-66.04
X200.66Y-45.72
X200.66Y-48.26
X200.66Y-50.8
X200.66Y-53.34
X200.66Y-55.88
X200.66Y-58.42
X200.66Y-60.96
X200.66Y-63.5
X200.66Y-66.04
X209.91Y-151.15
X209.91Y-153.65
T8
X175.92Y-104.14
X175.92Y-106.68
X175.92Y-109.22
T10
X22.86Y-20.32
X22.86Y-160.02
X213.36Y-20.32
X213.36Y-160.02
T9
G00X26.025Y-49.98
M15
G01X22.425Y-49.98
M16
G05
G00X24.64Y-97.26
M15
G01X24.64Y-100.86
M16
G05
G00X25.4Y-54.08
M15
G01X25.4Y-57.68
M16
G05
G00X28.74Y-97.885
M15
G01X32.34Y-97.885
M16
G05
G00X203.83Y-96.96
M15
G01X203.83Y-101.16
M16
G05
G00X210.82Y-53.79
M15
G01X210.82Y-57.99
M16
G05
G00X208.73Y-100.435
M15
G01X212.93Y-100.435
M16
G05
G00X214.295Y-48.89
M15
G01X210.095Y-48.89
M16
G05
T0
M30
